<svg version="1.1" id="Layer_1" xmlns="http://www.w3.org/2000/svg" xmlns:xlink="http://www.w3.org/1999/xlink" x="0px" y="0px"
	 width="100%" viewBox="0 0 157 151" enable-background="new 0 0 157 151" xml:space="preserve">
<path fill="#FEFEFE" opacity="1.000000" stroke="none" 
	d="
M158.000000,60.000000 
	C158.000000,90.643639 158.000000,121.287285 158.000000,151.965454 
	C105.729004,151.965454 53.457981,151.965454 1.093480,151.965454 
	C1.093480,101.766930 1.093480,51.533634 1.093480,1.150168 
	C53.333015,1.150168 105.666451,1.150168 158.000000,1.150168 
	C158.000000,9.408494 158.000000,17.735580 157.562531,26.533005 
	C149.418457,26.987427 141.711868,26.971516 133.568085,26.943420 
	C129.061554,26.310419 124.992226,25.689604 120.871872,24.909649 
	C120.820854,24.750507 120.794991,24.418056 120.853973,23.986219 
	C120.274078,17.681944 114.109077,15.655324 108.019272,19.464073 
	C105.776199,18.973951 103.896454,18.455032 101.922806,17.553354 
	C98.389717,15.660494 94.968330,14.343769 91.855179,18.151131 
	C91.698891,18.228098 91.352242,18.192898 90.978699,18.106321 
	C88.156906,17.807993 85.708656,17.596241 83.260399,17.384489 
	C83.082802,17.771049 82.905205,18.157608 82.727615,18.544168 
	C83.690697,19.448818 84.653778,20.353470 85.492767,21.536592 
	C84.869659,22.855371 84.370644,23.895678 83.431534,25.087303 
	C81.978996,29.598852 80.236145,34.015240 84.093170,38.379944 
	C84.266342,39.518089 84.319695,40.286591 83.964111,41.079872 
	C82.704041,43.278599 81.705765,45.408554 81.039238,47.637703 
	C80.216583,50.389061 79.669830,53.222916 78.535873,56.036629 
	C72.384476,56.338120 66.701050,56.624104 60.652863,56.929890 
	C59.568996,56.839767 58.849903,56.729843 57.983566,56.285225 
	C55.201302,55.942997 52.566269,55.935467 49.622932,55.993965 
	C48.853832,56.691711 48.393032,57.323425 47.698601,57.957836 
	C47.464966,57.960529 46.996475,57.975792 46.596695,57.973801 
	C45.131096,58.006088 44.065273,58.040367 42.648521,58.020622 
	C37.533024,54.633553 32.768448,51.300503 28.008224,47.600662 
	C29.230486,45.435509 30.448400,43.637146 32.074615,41.235889 
	C30.146879,40.041107 28.329710,38.714417 26.346043,37.719784 
	C17.304634,33.186306 13.976820,35.183079 13.860422,45.309944 
	C12.840729,46.733185 11.971604,47.861809 11.425182,48.571381 
	C17.479418,53.359074 23.207922,57.920506 28.982834,62.422405 
	C29.854246,63.101730 30.942038,63.503487 31.995577,64.418076 
	C32.368118,66.865723 32.674820,68.928917 32.711639,71.218338 
	C32.280766,72.602188 32.119774,73.759811 31.607864,75.001572 
	C30.533226,77.057594 29.809504,79.029472 29.063377,81.450691 
	C29.055611,84.598862 29.070251,87.297707 29.100750,90.316101 
	C29.729406,91.119835 30.342205,91.604019 30.953695,92.451965 
	C30.975780,93.542801 30.999174,94.269867 31.021179,95.465935 
	C31.014698,105.592278 30.937803,115.250618 31.072460,124.906013 
	C31.095968,126.591476 31.536245,129.273529 32.594128,129.770355 
	C37.427040,132.040024 42.456238,134.450516 48.441528,131.879211 
	C57.555561,131.544647 57.647282,131.414597 56.279713,122.882973 
	C56.022522,121.278519 55.962765,119.642426 56.101784,117.860413 
	C56.928448,116.774284 57.465229,115.848671 58.464031,114.945358 
	C66.616966,114.607368 74.307884,114.247070 82.399170,113.918533 
	C83.871292,113.951256 84.943047,113.952225 86.012009,113.972054 
	C86.009216,113.990913 86.046860,113.984802 86.037048,114.351639 
	C86.354820,115.810730 86.682404,116.902992 87.003677,118.455589 
	C86.996201,120.408699 87.129974,121.915901 86.972130,123.391914 
	C85.889679,133.514023 94.427979,138.619507 104.343956,134.988541 
	C105.161377,134.957504 105.627914,134.925903 106.502159,134.930527 
	C109.242332,134.475998 111.574799,133.985260 114.401192,133.390594 
	C113.591698,127.260056 112.846367,121.615433 112.358215,115.719009 
	C112.222755,113.621590 111.830116,111.775970 111.342896,109.560898 
	C110.896942,107.474838 110.545578,105.758247 110.558670,104.023117 
	C112.278992,102.382271 113.854637,100.892982 114.936821,99.105026 
	C116.391602,96.701469 118.156845,94.171211 118.556503,91.510246 
	C119.347122,86.246193 122.617500,83.579918 126.877434,81.438980 
	C127.099060,81.327591 126.959717,80.497986 127.181183,79.733116 
	C129.253265,77.313087 131.132599,75.162712 133.366760,72.971634 
	C135.215103,71.848251 136.708603,70.765572 138.253403,69.645699 
	C141.492493,72.564537 146.883896,70.869736 151.678024,65.231911 
	C151.119675,63.795872 150.557098,62.359673 149.902054,60.687401 
	C152.916031,60.431561 155.458023,60.215782 158.000000,60.000000 
M92.901260,4.022046 
	C90.421326,4.022046 87.941391,4.022046 85.461449,4.022046 
	C88.109184,7.931946 91.097160,7.395045 94.115219,6.013665 
	C94.238785,5.957109 93.851456,4.784312 92.901260,4.022046 
M119.826286,17.247351 
	C119.881294,17.412954 119.936302,17.578558 119.991318,17.744164 
	C120.045013,17.577578 120.098709,17.410994 119.826286,17.247351 
z"/>
<path fill="#F3F6FA" opacity="1.000000" stroke="none" 
	d="
M134.005264,26.955605 
	C141.711868,26.971516 149.418457,26.987427 157.562531,27.001671 
	C158.000000,37.687561 158.000000,48.375122 158.000000,59.531342 
	C155.458023,60.215782 152.916031,60.431561 149.902054,60.687401 
	C150.557098,62.359673 151.119675,63.795872 151.678024,65.231911 
	C146.883896,70.869736 141.492493,72.564537 138.253403,69.645699 
	C136.708603,70.765572 135.215103,71.848251 133.357407,72.962151 
	C132.993225,72.993370 132.975555,72.975784 133.010986,72.652847 
	C133.696381,71.220398 134.346359,70.110901 135.003357,68.669067 
	C135.009888,67.893631 135.009399,67.450546 135.290375,66.996712 
	C136.049194,66.734444 136.526550,66.482918 137.353851,66.150162 
	C139.277588,63.770023 140.851379,61.471115 142.587982,59.169281 
	C142.750778,59.166355 143.018127,58.980423 143.281937,59.189594 
	C145.310623,58.585354 147.075485,57.771942 148.974426,56.824341 
	C149.108475,56.690155 149.209595,56.324516 149.513321,56.170170 
	C151.760422,52.101742 153.703796,48.187660 155.901337,44.068771 
	C157.549805,40.070732 156.469025,37.210781 152.785095,35.131653 
	C152.650833,34.981522 152.281555,34.820606 152.150330,34.496849 
	C146.867722,29.598654 140.470352,29.164499 134.049255,28.467060 
	C134.026505,27.761999 134.015884,27.358801 134.005264,26.955605 
z"/>
<path fill="#DADBED" opacity="1.000000" stroke="none" 
	d="
M31.929737,64.033638 
	C30.942038,63.503487 29.854246,63.101730 28.982834,62.422405 
	C23.207922,57.920506 17.479418,53.359074 11.425182,48.571381 
	C11.971604,47.861809 12.840729,46.733185 14.295567,45.300732 
	C19.255478,45.987083 23.629677,46.977268 28.003876,47.967457 
	C32.768448,51.300503 37.533024,54.633553 42.577087,58.382187 
	C42.541832,61.461590 41.048916,65.050407 42.222748,66.545509 
	C43.566479,68.257019 47.204704,71.052094 50.374958,67.034393 
	C57.237988,68.381523 63.702438,69.912270 70.253525,70.812531 
	C71.629738,71.001648 73.324471,68.872917 74.870911,67.879959 
	C74.869377,67.947685 74.855629,67.806091 75.291443,67.866913 
	C78.695816,67.008591 81.730934,66.256721 84.609451,65.111305 
	C86.518272,64.351746 88.202866,63.028706 89.992828,62.417614 
	C89.998421,65.001984 89.627464,67.216469 90.112793,69.223953 
	C90.529312,70.946815 91.924873,72.432991 92.934738,74.350250 
	C93.005341,75.115860 93.028694,75.555046 92.759567,76.245041 
	C92.979797,80.329643 93.492493,84.163452 93.589012,88.000366 
	C92.119217,88.894432 90.349586,89.639313 90.133011,90.701012 
	C89.061081,95.955788 92.982704,94.952904 96.027451,95.351746 
	C97.724197,97.980087 99.476112,100.186485 100.994110,102.543533 
	C101.866356,103.897896 102.359482,105.496429 102.651627,106.994011 
	C94.740463,108.731613 93.301949,115.988068 90.298904,121.315781 
	C88.190269,125.056725 93.594124,130.718628 98.795837,132.051987 
	C100.656822,132.529037 102.267914,133.981003 103.993065,134.987976 
	C94.427979,138.619507 85.889679,133.514023 86.972130,123.391914 
	C87.129974,121.915901 86.996201,120.408699 87.266541,118.234879 
	C87.039421,116.364151 86.543144,115.174477 86.046860,113.984802 
	C86.046860,113.984802 86.009216,113.990913 85.944351,113.633423 
	C84.256180,111.384720 82.907005,111.235001 81.998802,113.886780 
	C74.307884,114.247070 66.616966,114.607368 58.426697,114.610718 
	C56.616364,113.168976 55.305389,112.084183 53.732853,110.793480 
	C53.314095,109.725349 53.156895,108.863136 53.289661,107.720222 
	C53.821472,104.810059 54.338905,102.165916 54.200092,99.556702 
	C54.118965,98.031860 52.989620,96.562782 52.331852,95.068619 
	C51.222786,96.368118 49.727764,97.502144 49.084904,99.001526 
	C47.742790,102.131805 47.417805,105.817589 45.633167,108.609138 
	C43.292171,112.270950 39.863461,111.725273 37.990410,107.791603 
	C37.309444,106.361481 37.310352,104.606674 37.000175,102.750076 
	C37.000202,102.500153 37.000458,102.000305 37.324608,101.824249 
	C37.765991,99.432121 37.883224,97.216064 37.963558,94.648071 
	C37.005299,92.919662 36.083942,91.543190 35.162582,90.166718 
	C34.850922,90.322418 34.539261,90.478119 34.227600,90.633827 
	C34.151592,92.089417 34.075581,93.545013 33.627178,95.000450 
	C32.510712,94.999168 31.766640,94.998047 31.022568,94.996933 
	C30.999174,94.269867 30.975780,93.542801 30.934418,92.125648 
	C30.305929,90.955894 29.695410,90.476219 29.084892,89.996544 
	C29.070251,87.297707 29.055611,84.598862 29.407822,81.380951 
	C30.502710,78.880394 31.230745,76.898918 31.958782,74.917435 
	C32.119774,73.759811 32.280766,72.602188 33.092453,71.229523 
	C37.233788,73.462097 40.737705,75.682808 45.902882,70.828102 
	C41.971451,69.540939 38.966831,68.557220 35.825611,67.528778 
	C34.769958,66.581711 33.349850,65.307671 31.929737,64.033638 
z"/>
<path fill="#D3D6F4" opacity="1.000000" stroke="none" 
	d="
M137.003906,66.231392 
	C136.526550,66.482918 136.049194,66.734444 134.871002,66.993240 
	C130.598480,66.235779 127.026772,65.471046 123.633514,64.363770 
	C124.061493,62.362541 124.932182,59.488346 124.457932,59.245991 
	C121.746689,57.860466 118.715523,57.101006 114.728844,55.774975 
	C115.091095,61.533089 115.345612,65.578705 115.605598,69.711296 
	C119.754372,72.088417 119.862526,67.510696 122.043861,65.961151 
	C123.228302,67.330124 124.117874,68.664284 125.006958,70.398071 
	C125.005981,71.863403 125.005486,72.929108 125.002251,74.245415 
	C124.999672,74.663094 124.999840,74.830177 125.000000,74.998627 
	C125.000000,75.000000 124.997253,75.000000 124.552849,74.998734 
	C121.050087,74.664337 117.992020,74.328606 114.933296,73.998825 
	C111.939095,73.675987 110.598160,72.043343 111.337936,68.962486 
	C111.723572,67.636726 112.129539,66.226807 111.688881,65.169876 
	C111.183273,63.957184 109.927155,63.057407 109.000389,61.685150 
	C109.006004,60.899868 109.008301,60.451130 109.373581,59.960434 
	C110.740318,58.310543 111.744080,56.702599 112.747833,55.094658 
	C110.832603,55.063389 108.917374,55.032120 106.783051,54.894245 
	C106.290192,54.590443 106.102028,54.331116 106.194946,53.753105 
	C107.271614,52.720062 108.152802,51.943581 109.343781,50.976849 
	C115.468674,47.046535 115.468674,47.046535 109.164742,41.634857 
	C111.892067,41.359909 113.799553,41.126358 115.713776,40.982430 
	C121.290787,40.563099 122.710999,38.499352 121.231628,32.583412 
	C121.147858,29.842739 121.035378,27.455763 120.922897,25.068789 
	C124.992226,25.689604 129.061554,26.310419 133.568085,26.943419 
	C134.015884,27.358801 134.026505,27.761999 133.691071,28.521473 
	C132.539825,29.242645 131.734604,29.607544 130.954742,29.956837 
	C130.980087,29.941229 130.920029,29.942657 130.598511,30.110687 
	C129.228821,33.853622 128.180649,37.428532 127.079681,41.377151 
	C127.031029,42.504616 127.035156,43.258377 127.110443,44.241646 
	C127.369583,44.762405 127.636375,44.921715 128.397156,44.986115 
	C132.271072,44.494934 134.525391,45.747505 135.383560,49.376339 
	C133.804794,49.282021 132.414108,49.198940 130.706665,49.066063 
	C125.598587,48.643486 128.813858,51.480473 129.290375,52.407547 
	C131.701218,57.097908 134.403687,61.638371 137.003906,66.231392 
z"/>
<path fill="#DCDDF1" opacity="1.000000" stroke="none" 
	d="
M37.000153,103.000008 
	C37.310352,104.606674 37.309444,106.361481 37.990410,107.791603 
	C39.863461,111.725273 43.292171,112.270950 45.633167,108.609138 
	C47.417805,105.817589 47.742790,102.131805 49.084904,99.001526 
	C49.727764,97.502144 51.222786,96.368118 52.331852,95.068619 
	C52.989620,96.562782 54.118965,98.031860 54.200092,99.556702 
	C54.338905,102.165916 53.821472,104.810059 52.947517,107.688354 
	C51.383778,107.808304 50.201141,107.247780 49.560944,107.620064 
	C45.159374,110.179642 42.776672,126.259239 46.139000,130.329025 
	C46.490887,130.754959 47.319824,130.786774 47.972054,131.208679 
	C48.016685,131.415924 48.022717,131.839874 48.022717,131.839874 
	C42.456238,134.450516 37.427040,132.040024 32.594128,129.770355 
	C31.536245,129.273529 31.095968,126.591476 31.072460,124.906013 
	C30.937803,115.250618 31.014698,105.592278 31.021179,95.465935 
	C31.766640,94.998047 32.510712,94.999168 33.816551,95.244789 
	C35.585697,95.326195 36.793076,95.163094 38.000458,95.000000 
	C37.883224,97.216064 37.765991,99.432121 37.050415,101.624092 
	C35.661545,100.516640 34.871017,99.433289 33.669273,97.786400 
	C33.669273,104.896889 33.669273,111.115471 33.669273,117.334061 
	C34.113045,117.327896 34.556812,117.321739 35.000584,117.315575 
	C35.000584,114.577301 34.747990,111.807732 35.082069,109.110840 
	C35.340248,107.026680 36.333630,105.033585 37.000153,103.000008 
z"/>
<path fill="#D8D8F5" opacity="1.000000" stroke="none" 
	d="
M104.343956,134.988541 
	C102.267914,133.981003 100.656822,132.529037 98.795837,132.051987 
	C93.594124,130.718628 88.190269,125.056725 90.298904,121.315781 
	C93.301949,115.988068 94.740463,108.731613 102.930405,106.991310 
	C103.766769,106.973839 103.952728,106.968025 104.118179,107.366119 
	C104.086174,108.847290 104.074677,109.924568 104.022934,111.468231 
	C104.396088,117.960526 104.809479,123.986420 105.177429,130.378799 
	C105.452805,132.128296 105.773628,133.511292 106.094444,134.894318 
	C105.627914,134.925903 105.161377,134.957504 104.343956,134.988541 
z"/>
<path fill="#5860B8" opacity="1.000000" stroke="none" 
	d="
M58.130806,56.619919 
	C58.849903,56.729843 59.568996,56.839767 60.961792,57.205883 
	C68.085526,57.289543 74.535561,57.117012 81.366318,56.932686 
	C82.507278,56.876637 83.267532,56.832386 84.024261,57.193260 
	C84.118652,63.831875 78.892677,65.285233 74.855629,67.806091 
	C74.855629,67.806091 74.869377,67.947685 74.507561,67.910370 
	C68.816605,67.382919 63.087498,67.914253 58.300400,66.039818 
	C55.163628,64.811584 53.389717,60.102760 51.530014,56.890198 
	C54.080009,56.758366 56.105408,56.689144 58.130806,56.619919 
z"/>
<path fill="#FAFDFB" opacity="1.000000" stroke="none" 
	d="
M28.008223,47.600662 
	C23.629677,46.977268 19.255478,45.987083 14.446136,45.006111 
	C13.976820,35.183079 17.304634,33.186306 26.346043,37.719784 
	C28.329710,38.714417 30.146879,40.041107 32.074615,41.235889 
	C30.448400,43.637146 29.230486,45.435509 28.008223,47.600662 
z"/>
<path fill="#9BA2CE" opacity="1.000000" stroke="none" 
	d="
M106.502159,134.930511 
	C105.773628,133.511292 105.452805,132.128296 105.498978,130.417297 
	C109.906517,131.664963 110.820755,128.339615 110.657555,126.053032 
	C110.312843,121.223167 109.017052,116.461182 108.030014,111.240761 
	C106.960541,111.176346 105.511864,111.089088 104.063179,111.001831 
	C104.074677,109.924568 104.086174,108.847290 104.320747,107.136383 
	C105.698761,105.655945 106.853699,104.809158 108.229622,103.878609 
	C108.848839,103.551025 109.247063,103.307213 109.774979,103.312195 
	C110.001183,103.721207 110.097694,103.881424 110.194214,104.041649 
	C110.545578,105.758247 110.896942,107.474838 111.225937,109.956375 
	C111.502716,112.471153 111.801872,114.220978 112.101028,115.970810 
	C112.846367,121.615433 113.591698,127.260056 114.401192,133.390594 
	C111.574799,133.985260 109.242332,134.475998 106.502159,134.930511 
z"/>
<path fill="#D5DAF7" opacity="1.000000" stroke="none" 
	d="
M51.005413,56.952805 
	C53.389717,60.102760 55.163628,64.811584 58.300400,66.039818 
	C63.087498,67.914253 68.816605,67.382919 74.509094,67.842636 
	C73.324471,68.872917 71.629738,71.001648 70.253525,70.812531 
	C63.702438,69.912270 57.237988,68.381523 50.372730,66.652237 
	C49.337368,64.153152 48.671986,62.076977 48.234764,59.849190 
	C48.286026,59.116768 48.109131,58.535957 47.932236,57.955143 
	C48.393032,57.323425 48.853832,56.691711 49.705704,56.180313 
	C50.399658,56.518021 50.702534,56.735413 51.005413,56.952805 
z"/>
<path fill="#6569B4" opacity="1.000000" stroke="none" 
	d="
M83.871628,24.935982 
	C84.370644,23.895678 84.869659,22.855371 85.783096,21.466305 
	C87.133270,20.745098 88.069016,20.372654 89.342102,20.007710 
	C90.129303,20.021917 90.579147,20.028624 90.810974,20.303698 
	C86.358658,24.855444 85.012894,30.285734 86.292740,35.791103 
	C86.746849,37.744465 90.489075,38.897621 92.660255,40.510296 
	C93.279724,40.970417 93.653481,41.761330 94.080307,42.674042 
	C93.632477,43.603073 93.244247,44.258614 92.648911,45.039879 
	C92.178757,45.384769 92.030617,45.664761 91.600868,46.002342 
	C90.154587,46.104084 89.104828,46.209057 87.796051,46.178165 
	C87.093971,45.667866 86.650909,45.293430 86.161438,44.565739 
	C85.524597,43.252460 84.934166,42.292439 84.349983,41.262970 
	C84.356232,41.193523 84.373055,41.055092 84.373055,41.055092 
	C84.319695,40.286591 84.266342,39.518089 84.173882,37.924667 
	C84.047066,33.045155 83.959343,28.990568 83.871628,24.935982 
z"/>
<path fill="#F7FAF7" opacity="1.000000" stroke="none" 
	d="
M83.964111,41.079872 
	C84.373055,41.055092 84.356232,41.193523 84.250443,41.682205 
	C84.832375,43.086922 85.520111,44.002956 86.207840,44.918995 
	C86.650909,45.293430 87.093971,45.667866 87.999367,46.389370 
	C88.972443,47.490692 89.483192,48.244942 89.660507,49.049484 
	C89.549110,50.066444 89.771149,51.033108 89.997070,52.383324 
	C90.016335,53.536076 90.031715,54.305271 89.641342,55.064392 
	C87.499657,55.632252 85.763718,56.210190 84.027779,56.788132 
	C83.267532,56.832386 82.507278,56.876637 81.198090,56.698620 
	C80.100716,56.324608 79.552284,56.172867 79.003845,56.021122 
	C79.669830,53.222916 80.216583,50.389061 81.039238,47.637703 
	C81.705765,45.408554 82.704041,43.278599 83.964111,41.079872 
z"/>
<path fill="#EBFDFA" opacity="1.000000" stroke="none" 
	d="
M110.558670,104.023117 
	C110.097694,103.881424 110.001183,103.721207 109.897476,102.966263 
	C110.635376,100.916336 111.380478,99.461151 112.437347,97.955246 
	C112.830986,96.937294 112.912857,95.970047 113.030907,94.631760 
	C114.432419,90.872162 115.797745,87.483620 117.486977,84.009583 
	C118.208641,82.947861 118.606407,81.971642 119.381432,80.952820 
	C121.486359,80.596977 123.214020,80.283730 125.282822,79.979362 
	C126.078789,79.993080 126.533615,79.997925 126.988434,80.002762 
	C126.959717,80.497986 127.099060,81.327591 126.877434,81.438980 
	C122.617500,83.579918 119.347122,86.246193 118.556503,91.510246 
	C118.156845,94.171211 116.391602,96.701469 114.936821,99.105026 
	C113.854637,100.892982 112.278992,102.382271 110.558670,104.023117 
z"/>
<path fill="#6B70B7" opacity="1.000000" stroke="none" 
	d="
M91.028999,20.035328 
	C90.579147,20.028624 90.129303,20.021917 89.554504,19.800585 
	C90.070450,19.121603 90.711342,18.657251 91.352242,18.192898 
	C91.352242,18.192898 91.698891,18.228098 92.309128,18.169632 
	C95.951813,18.052816 98.984261,17.994465 102.016708,17.936113 
	C103.896454,18.455032 105.776199,18.973951 108.206360,19.756073 
	C111.175873,21.348917 113.594978,22.678555 115.974991,24.347122 
	C114.272484,26.773378 112.609070,28.860708 110.962379,30.955549 
	C110.979111,30.963062 110.963440,30.951153 110.643539,30.964514 
	C109.896683,30.999044 109.469727,31.020214 109.036537,30.662117 
	C109.043091,29.525335 109.055878,28.767822 109.303757,27.846317 
	C109.711472,27.146429 109.884109,26.610531 110.375259,26.013012 
	C111.579292,23.841665 111.579292,23.841665 106.618393,22.008560 
	C104.838051,21.332241 103.412292,20.672354 101.542465,20.011612 
	C98.721657,20.009613 96.344925,20.008469 93.600525,20.002541 
	C92.498245,20.010281 91.763618,20.022804 91.028999,20.035328 
z"/>
<path fill="#DBDDE6" opacity="1.000000" stroke="none" 
	d="
M48.006599,60.000797 
	C48.671986,62.076977 49.337368,64.153152 50.004978,66.611488 
	C47.204704,71.052094 43.566479,68.257019 42.222748,66.545509 
	C41.048916,65.050407 42.541832,61.461590 42.928017,58.436211 
	C44.065273,58.040367 45.131096,58.006088 46.618187,58.275620 
	C47.361835,59.053219 47.684216,59.527008 48.006599,60.000797 
z"/>
<path fill="#9094DE" opacity="1.000000" stroke="none" 
	d="
M110.945648,30.948036 
	C112.609070,28.860708 114.272484,26.773378 116.376656,24.337452 
	C118.143265,24.131922 119.469131,24.274990 120.794991,24.418056 
	C120.794991,24.418056 120.820854,24.750507 120.871872,24.909649 
	C121.035378,27.455763 121.147858,29.842739 120.847717,32.632965 
	C118.573372,32.811539 116.687973,32.701576 114.857773,32.324043 
	C113.516205,32.047298 112.247070,31.419418 110.945648,30.948036 
z"/>
<path fill="#9FA2CC" opacity="1.000000" stroke="none" 
	d="
M48.441528,131.879211 
	C48.022717,131.839874 48.016685,131.415924 47.991035,130.872360 
	C48.002743,129.881363 48.040096,129.433914 48.465801,128.989822 
	C51.570210,128.657486 55.138870,128.690109 54.623585,124.857155 
	C54.212460,121.799042 52.266338,118.947289 51.030632,115.645493 
	C52.045483,114.794296 53.031281,114.301537 54.252457,114.057961 
	C54.929184,115.545074 55.370541,116.782997 55.811897,118.020927 
	C55.962765,119.642426 56.022522,121.278519 56.279713,122.882973 
	C57.647282,131.414597 57.555561,131.544647 48.441528,131.879211 
z"/>
<path fill="#DCDDF1" opacity="1.000000" stroke="none" 
	d="
M31.995579,64.418076 
	C33.349850,65.307671 34.769958,66.581711 35.825611,67.528778 
	C38.966831,68.557220 41.971451,69.540939 45.902882,70.828102 
	C40.737705,75.682808 37.233788,73.462097 33.362331,71.003304 
	C32.674820,68.928917 32.368118,66.865723 31.995579,64.418076 
z"/>
<path fill="#EFF1FA" opacity="1.000000" stroke="none" 
	d="
M120.853973,23.986219 
	C119.469131,24.274990 118.143265,24.131922 116.415741,23.998524 
	C113.594978,22.678555 111.175873,21.348917 108.569687,19.727280 
	C114.109077,15.655324 120.274078,17.681944 120.853973,23.986219 
z"/>
<path fill="#C9CCEA" opacity="1.000000" stroke="none" 
	d="
M78.535873,56.036629 
	C79.552284,56.172867 80.100716,56.324608 80.817383,56.710419 
	C74.535561,57.117012 68.085526,57.289543 61.326557,57.186081 
	C66.701050,56.624104 72.384476,56.338120 78.535873,56.036629 
z"/>
<path fill="#FFFFF0" opacity="1.000000" stroke="none" 
	d="
M93.301712,4.076809 
	C93.851456,4.784312 94.238785,5.957109 94.115219,6.013665 
	C91.097160,7.395045 88.109184,7.931946 85.461449,4.022046 
	C87.941391,4.022046 90.421326,4.022046 93.301712,4.076809 
z"/>
<path fill="#E5EAF9" opacity="1.000000" stroke="none" 
	d="
M83.431534,25.087301 
	C83.959343,28.990568 84.047066,33.045155 84.054077,37.555023 
	C80.236145,34.015240 81.978996,29.598852 83.431534,25.087301 
z"/>
<path fill="#F3F6FA" opacity="1.000000" stroke="none" 
	d="
M127.181183,79.733116 
	C126.533615,79.997925 126.078789,79.993080 125.302124,79.615372 
	C124.997070,78.513962 125.013863,77.785408 125.394585,77.044907 
	C128.164185,75.680565 130.569870,74.328171 132.975555,72.975784 
	C132.975555,72.975784 132.993225,72.993370 133.002563,73.002853 
	C131.132599,75.162712 129.253265,77.313087 127.181183,79.733116 
z"/>
<path fill="#E5EAF9" opacity="1.000000" stroke="none" 
	d="
M90.978699,18.106321 
	C90.711342,18.657251 90.070450,19.121603 89.217148,19.793083 
	C88.069016,20.372654 87.133270,20.745098 85.907196,21.187832 
	C84.653778,20.353470 83.690697,19.448818 82.727615,18.544168 
	C82.905205,18.157608 83.082802,17.771049 83.260399,17.384489 
	C85.708656,17.596241 88.156906,17.807993 90.978699,18.106321 
z"/>
<path fill="#E5EAF9" opacity="1.000000" stroke="none" 
	d="
M101.922806,17.553354 
	C98.984261,17.994465 95.951813,18.052816 92.465424,18.092665 
	C94.968330,14.343769 98.389717,15.660494 101.922806,17.553354 
z"/>
<path fill="#DCDDF1" opacity="1.000000" stroke="none" 
	d="
M56.101784,117.860413 
	C55.370541,116.782997 54.929184,115.545074 54.248215,113.710220 
	C54.003868,112.408653 53.999138,111.704025 53.994411,110.999390 
	C55.305389,112.084183 56.616364,113.168976 57.964676,114.588417 
	C57.465229,115.848671 56.928448,116.774284 56.101784,117.860413 
z"/>
<path fill="#C9CCEA" opacity="1.000000" stroke="none" 
	d="
M51.530014,56.890198 
	C50.702534,56.735413 50.399658,56.518021 50.014008,56.114281 
	C52.566269,55.935467 55.201302,55.942997 57.983566,56.285225 
	C56.105408,56.689144 54.080009,56.758366 51.530014,56.890198 
z"/>
<path fill="#DCDDF1" opacity="1.000000" stroke="none" 
	d="
M31.607864,75.001572 
	C31.230745,76.898918 30.502710,78.880394 29.430229,80.931618 
	C29.809504,79.029472 30.533226,77.057594 31.607864,75.001572 
z"/>
<path fill="#E0F0F2" opacity="1.000000" stroke="none" 
	d="
M112.358215,115.719009 
	C111.801872,114.220978 111.502716,112.471153 111.320526,110.325836 
	C111.830116,111.775970 112.222755,113.621590 112.358215,115.719009 
z"/>
<path fill="#DCDDF1" opacity="1.000000" stroke="none" 
	d="
M86.037048,114.351639 
	C86.543144,115.174477 87.039421,116.364151 87.272842,117.774536 
	C86.682404,116.902992 86.354820,115.810730 86.037048,114.351639 
z"/>
<path fill="#DCDDF1" opacity="1.000000" stroke="none" 
	d="
M82.399170,113.918533 
	C82.907005,111.235001 84.256180,111.384720 85.947144,113.614563 
	C84.943047,113.952225 83.871292,113.951256 82.399170,113.918533 
z"/>
<path fill="#DADBED" opacity="1.000000" stroke="none" 
	d="
M48.234764,59.849190 
	C47.684216,59.527008 47.361835,59.053219 47.017963,58.277611 
	C46.996475,57.975792 47.464966,57.960529 47.698601,57.957836 
	C48.109131,58.535957 48.286026,59.116768 48.234764,59.849190 
z"/>
<path fill="#DCDDF1" opacity="1.000000" stroke="none" 
	d="
M29.100748,90.316101 
	C29.695410,90.476219 30.305929,90.955894 30.935726,91.761887 
	C30.342205,91.604019 29.729406,91.119835 29.100748,90.316101 
z"/>
<path fill="#EFF1FA" opacity="1.000000" stroke="none" 
	d="
M119.989349,17.245880 
	C120.098709,17.410994 120.045013,17.577578 119.991318,17.744164 
	C119.936302,17.578558 119.881294,17.412954 119.989349,17.245880 
z"/>
<path fill="#9196DE" opacity="1.000000" stroke="none" 
	d="
M127.039284,44.012135 
	C127.035156,43.258377 127.031029,42.504616 127.482391,41.376923 
	C133.330688,40.561413 133.912323,39.487610 131.786987,34.713428 
	C131.148346,33.278828 131.190018,31.541374 130.920029,29.942657 
	C130.920029,29.942657 130.980087,29.941229 131.311218,29.977213 
	C132.956192,30.360144 134.270035,30.707092 135.801819,31.357666 
	C138.427063,40.375973 140.834366,49.090652 143.177063,58.097446 
	C143.081009,58.586514 143.049576,58.783466 143.018127,58.980423 
	C143.018127,58.980423 142.750778,59.166355 142.148529,59.115818 
	C134.289505,59.714043 133.289230,53.745712 131.023422,49.115860 
	C132.414108,49.198940 133.804794,49.282021 135.383560,49.376339 
	C134.525391,45.747505 132.271072,44.494934 128.295471,44.780430 
	C127.589890,44.281330 127.343452,44.106140 127.039284,44.012135 
z"/>
<path fill="#525AB8" opacity="1.000000" stroke="none" 
	d="
M143.241653,57.805332 
	C140.834366,49.090652 138.427063,40.375973 136.274780,31.312675 
	C141.780380,32.249573 147.030960,33.535091 152.281555,34.820606 
	C152.281555,34.820606 152.650833,34.981522 152.808258,35.516815 
	C153.418915,38.709671 153.872131,41.367226 154.247772,44.393150 
	C152.516647,48.615852 150.863129,52.470184 149.209595,56.324516 
	C149.209595,56.324516 149.108475,56.690155 148.611267,56.822205 
	C146.489929,57.237942 144.865799,57.521637 143.241653,57.805332 
M144.047638,47.135746 
	C145.082520,48.822861 146.117386,50.509972 147.316498,52.464821 
	C152.686905,44.538658 153.250916,40.394592 149.007523,36.693443 
	C147.278061,40.031025 145.643326,43.185810 144.047638,47.135746 
z"/>
<path fill="#9B9DD1" opacity="1.000000" stroke="none" 
	d="
M130.706665,49.066063 
	C133.289230,53.745712 134.289505,59.714043 141.985718,59.118744 
	C140.851379,61.471115 139.277588,63.770023 137.353851,66.150162 
	C134.403687,61.638371 131.701218,57.097908 129.290375,52.407547 
	C128.813858,51.480473 125.598587,48.643486 130.706665,49.066063 
z"/>
<path fill="#DCDBED" opacity="1.000000" stroke="none" 
	d="
M133.010986,72.652840 
	C130.569870,74.328171 128.164185,75.680565 125.383347,76.701469 
	C125.004539,75.913322 125.000900,75.456657 124.997253,75.000000 
	C124.997253,75.000000 125.000000,75.000000 125.251389,74.983765 
	C125.768959,74.810699 126.035141,74.653870 126.301331,74.497047 
	C125.869217,74.329636 125.437103,74.162224 125.004990,73.994812 
	C125.005486,72.929108 125.005981,71.863403 125.288086,70.194763 
	C128.711914,69.395020 131.854126,69.198212 134.996338,69.001404 
	C134.346359,70.110901 133.696381,71.220398 133.010986,72.652840 
z"/>
<path fill="#777EBD" opacity="1.000000" stroke="none" 
	d="
M152.150330,34.496849 
	C147.030960,33.535091 141.780380,32.249573 136.056824,31.009048 
	C134.270035,30.707092 132.956192,30.360144 131.285873,29.992821 
	C131.734604,29.607544 132.539825,29.242645 133.703201,28.823334 
	C140.470352,29.164499 146.867722,29.598654 152.150330,34.496849 
z"/>
<path fill="#DADAF4" opacity="1.000000" stroke="none" 
	d="
M135.003357,68.669067 
	C131.854126,69.198212 128.711914,69.395020 125.288567,69.795135 
	C124.117874,68.664284 123.228302,67.330124 122.194550,65.731514 
	C122.518585,65.213470 122.986824,64.959892 123.455063,64.706314 
	C127.026772,65.471046 130.598480,66.235779 134.589554,67.003983 
	C135.009399,67.450546 135.009888,67.893631 135.003357,68.669067 
z"/>
<path fill="#7879BE" opacity="1.000000" stroke="none" 
	d="
M149.513336,56.170174 
	C150.863129,52.470184 152.516647,48.615852 154.577484,44.448265 
	C155.205566,44.181198 155.426361,44.227386 155.647156,44.273575 
	C153.703796,48.187660 151.760422,52.101742 149.513336,56.170174 
z"/>
<path fill="#777EBD" opacity="1.000000" stroke="none" 
	d="
M155.901337,44.068771 
	C155.426361,44.227386 155.205566,44.181198 154.655060,44.079899 
	C153.872131,41.367226 153.418915,38.709671 152.942535,35.666946 
	C156.469025,37.210781 157.549805,40.070732 155.901337,44.068771 
z"/>
<path fill="#7879BE" opacity="1.000000" stroke="none" 
	d="
M143.177063,58.097446 
	C144.865799,57.521637 146.489929,57.237942 148.477219,56.956390 
	C147.075485,57.771942 145.310623,58.585354 143.281937,59.189594 
	C143.049576,58.783466 143.081009,58.586514 143.177063,58.097446 
z"/>
<path fill="#C4E2E5" opacity="1.000000" stroke="none" 
	d="
M108.008636,103.962372 
	C106.853699,104.809158 105.698761,105.655945 104.341255,106.732475 
	C103.952728,106.968025 103.766769,106.973839 103.302040,106.982346 
	C102.359482,105.496429 101.866356,103.897896 100.994110,102.543533 
	C99.476112,100.186485 97.724197,97.980087 96.029892,94.969872 
	C95.328018,92.151894 94.666603,90.074570 94.005188,87.997253 
	C93.492493,84.163452 92.979797,80.329643 93.024200,76.480179 
	C94.319183,78.059631 95.057076,79.654755 95.820877,81.622681 
	C96.567581,84.663643 97.288368,87.331779 98.115631,90.331543 
	C101.484283,95.096237 104.746460,99.529297 108.008636,103.962372 
z"/>
<path fill="#D4D4F6" opacity="1.000000" stroke="none" 
	d="
M53.732853,110.793480 
	C53.999138,111.704025 54.003868,112.408653 54.012840,113.461029 
	C53.031281,114.301537 52.045483,114.794296 50.853371,115.962280 
	C46.574554,120.084641 48.355316,124.749741 48.077450,128.986481 
	C48.040096,129.433914 48.002743,129.881363 47.946404,130.665131 
	C47.319824,130.786774 46.490887,130.754959 46.139000,130.329025 
	C42.776672,126.259239 45.159374,110.179642 49.560944,107.620064 
	C50.201141,107.247780 51.383778,107.808304 52.657555,107.969055 
	C53.156895,108.863136 53.314095,109.725349 53.732853,110.793480 
z"/>
<path fill="#C6CAEE" opacity="1.000000" stroke="none" 
	d="
M84.024261,57.193260 
	C85.763718,56.210190 87.499657,55.632252 89.877060,55.055489 
	C90.518524,55.056660 90.987999,55.000450 91.031815,55.312508 
	C91.386551,56.393238 91.697472,57.161907 91.965576,58.263847 
	C91.277794,59.717377 90.632820,60.837643 89.987839,61.957905 
	C88.202866,63.028706 86.518272,64.351746 84.609451,65.111305 
	C81.730934,66.256721 78.695816,67.008591 75.291443,67.866913 
	C78.892677,65.285233 84.118652,63.831875 84.024261,57.193260 
z"/>
<path fill="#C4E2E5" opacity="1.000000" stroke="none" 
	d="
M89.992828,62.417614 
	C90.632820,60.837643 91.277794,59.717377 92.336670,58.315582 
	C93.498909,58.017235 94.247238,58.000412 95.097137,58.204708 
	C95.392372,58.700802 95.648712,58.891541 96.009598,59.358368 
	C96.585793,63.338741 101.135147,65.900352 98.635345,70.244125 
	C98.438179,70.219978 98.042503,70.276901 97.810120,70.034164 
	C97.030884,68.566368 96.484024,67.341309 95.928360,65.748627 
	C95.118050,63.935825 94.316551,62.490635 92.833977,59.817379 
	C92.361122,62.239063 92.186890,63.131348 92.001778,64.459473 
	C92.289757,67.938164 92.588631,70.980995 92.887497,74.023834 
	C91.924873,72.432991 90.529312,70.946815 90.112793,69.223953 
	C89.627464,67.216469 89.998421,65.001984 89.992828,62.417614 
z"/>
<path fill="#85C6B4" opacity="1.000000" stroke="none" 
	d="
M95.937164,66.116241 
	C96.484024,67.341309 97.030884,68.566368 97.712433,70.376114 
	C97.163078,74.390488 96.479027,77.820175 95.794968,81.249870 
	C95.057076,79.654755 94.319183,78.059631 93.316666,76.229370 
	C93.028694,75.555046 93.005341,75.115860 92.934746,74.350250 
	C92.588631,70.980995 92.289757,67.938164 92.335663,64.473404 
	C93.766014,64.739738 94.851593,65.427986 95.937164,66.116241 
z"/>
<path fill="#D8DAEE" opacity="1.000000" stroke="none" 
	d="
M37.000175,102.750076 
	C36.333630,105.033585 35.340248,107.026680 35.082069,109.110840 
	C34.747990,111.807732 35.000584,114.577301 35.000584,117.315575 
	C34.556812,117.321739 34.113045,117.327896 33.669273,117.334061 
	C33.669273,111.115471 33.669273,104.896889 33.669273,97.786400 
	C34.871017,99.433289 35.661545,100.516640 36.726265,101.800156 
	C37.000458,102.000305 37.000202,102.500153 37.000175,102.750076 
z"/>
<path fill="#E3D6F0" opacity="1.000000" stroke="none" 
	d="
M93.589005,88.000366 
	C94.666603,90.074570 95.328018,92.151894 95.986992,94.611084 
	C92.982704,94.952904 89.061081,95.955788 90.133011,90.701012 
	C90.349586,89.639313 92.119217,88.894432 93.589005,88.000366 
z"/>
<path fill="#D8DAEE" opacity="1.000000" stroke="none" 
	d="
M37.963558,94.648071 
	C36.793076,95.163094 35.585697,95.326195 34.188942,95.244949 
	C34.075581,93.545013 34.151592,92.089417 34.227600,90.633827 
	C34.539261,90.478119 34.850922,90.322418 35.162582,90.166718 
	C36.083942,91.543190 37.005299,92.919662 37.963558,94.648071 
z"/>
<path fill="#DADAF4" opacity="1.000000" stroke="none" 
	d="
M98.832512,70.268265 
	C101.135147,65.900352 96.585793,63.338741 96.254761,59.201206 
	C96.652145,58.150230 96.846237,57.616749 97.021744,57.030937 
	C97.003151,56.978611 96.952339,56.879848 97.258804,56.875351 
	C98.038376,56.533367 98.511490,56.195885 99.284012,55.872787 
	C99.982803,55.870457 100.382195,55.853733 101.150635,55.887802 
	C103.012939,55.295616 104.506203,54.652637 105.999474,54.009666 
	C106.102028,54.331116 106.290192,54.590443 106.788513,55.251610 
	C107.678909,57.144516 108.344757,58.573452 109.010605,60.002388 
	C109.008301,60.451130 109.006004,60.899868 108.657684,61.733795 
	C107.497299,63.953495 106.682945,65.788010 105.868591,67.622528 
	C107.573784,68.093117 109.278976,68.563713 110.984169,69.034302 
	C110.598160,72.043343 111.939095,73.675987 114.933296,73.998825 
	C117.992020,74.328606 121.050087,74.664337 124.552849,74.998734 
	C125.000900,75.456657 125.004539,75.913322 125.019424,76.713425 
	C125.013863,77.785408 124.997070,78.513962 124.960983,79.606491 
	C123.214020,80.283730 121.486359,80.596977 119.106392,80.962936 
	C118.271591,81.034294 118.089096,81.052933 117.920547,81.033401 
	C117.934502,80.995247 117.930389,81.074364 117.888313,80.694550 
	C116.882790,79.871117 115.920639,79.424683 114.955673,78.984398 
	C111.307655,77.319916 107.658722,75.657440 103.943710,73.635475 
	C102.824104,72.902367 101.770927,72.528000 100.424835,72.100449 
	C99.698792,71.454269 99.265648,70.861267 98.832512,70.268265 
z"/>
<path fill="#9197D3" opacity="1.000000" stroke="none" 
	d="
M100.781586,55.837013 
	C100.382195,55.853733 99.982803,55.870457 99.341782,55.496628 
	C99.365906,53.505798 100.285301,51.648045 99.775307,50.353340 
	C98.222672,46.411751 100.146248,44.706039 102.874847,42.180248 
	C106.192802,39.108894 108.320724,34.751957 110.963440,30.951153 
	C110.963440,30.951153 110.979111,30.963062 110.962379,30.955549 
	C112.247070,31.419418 113.516205,32.047298 114.857773,32.324043 
	C116.687973,32.701576 118.573372,32.811539 120.819008,32.986664 
	C122.710999,38.499352 121.290787,40.563099 115.713776,40.982430 
	C113.799553,41.126358 111.892067,41.359909 109.164742,41.634857 
	C115.468674,47.046535 115.468674,47.046535 108.968704,50.982941 
	C105.783081,52.731861 103.282333,54.284435 100.781586,55.837013 
z"/>
<path fill="#5257AA" opacity="1.000000" stroke="none" 
	d="
M123.633514,64.363770 
	C122.986824,64.959892 122.518585,65.213470 121.899673,65.696693 
	C119.862526,67.510696 119.754372,72.088417 115.605598,69.711296 
	C115.345612,65.578705 115.091095,61.533089 114.728844,55.774975 
	C118.715523,57.101006 121.746689,57.860466 124.457932,59.245991 
	C124.932182,59.488346 124.061493,62.362541 123.633514,64.363770 
z"/>
<path fill="#9299D1" opacity="1.000000" stroke="none" 
	d="
M130.598511,30.110687 
	C131.190018,31.541374 131.148346,33.278828 131.786987,34.713428 
	C133.912323,39.487610 133.330688,40.561413 127.535187,41.003212 
	C128.180649,37.428532 129.228821,33.853622 130.598511,30.110687 
z"/>
<path fill="#D2D6E6" opacity="1.000000" stroke="none" 
	d="
M111.337936,68.962486 
	C109.278976,68.563713 107.573784,68.093117 105.868591,67.622528 
	C106.682945,65.788010 107.497299,63.953495 108.654358,62.070335 
	C109.927155,63.057407 111.183273,63.957184 111.688881,65.169876 
	C112.129539,66.226807 111.723572,67.636726 111.337936,68.962486 
z"/>
<path fill="#D9DDEA" opacity="1.000000" stroke="none" 
	d="
M109.373581,59.960434 
	C108.344757,58.573452 107.678909,57.144516 107.007599,55.358215 
	C108.917374,55.032120 110.832603,55.063389 112.747833,55.094658 
	C111.744080,56.702599 110.740318,58.310543 109.373581,59.960434 
z"/>
<path fill="#C6CAEE" opacity="1.000000" stroke="none" 
	d="
M101.150635,55.887802 
	C103.282333,54.284435 105.783081,52.731861 108.658905,51.173195 
	C108.152802,51.943581 107.271614,52.720062 106.194946,53.753105 
	C104.506203,54.652637 103.012939,55.295616 101.150635,55.887802 
z"/>
<path fill="#DADAF4" opacity="1.000000" stroke="none" 
	d="
M125.002251,74.245415 
	C125.437103,74.162224 125.869217,74.329636 126.301331,74.497047 
	C126.035141,74.653870 125.768959,74.810699 125.251389,74.982391 
	C124.999840,74.830177 124.999672,74.663094 125.002251,74.245415 
z"/>
<path fill="#9299D1" opacity="1.000000" stroke="none" 
	d="
M127.110443,44.241646 
	C127.343452,44.106140 127.589890,44.281330 127.880287,44.743393 
	C127.636375,44.921715 127.369583,44.762405 127.110443,44.241646 
z"/>
<path fill="#9499D9" opacity="1.000000" stroke="none" 
	d="
M104.022934,111.468231 
	C105.511864,111.089088 106.960541,111.176346 108.030014,111.240761 
	C109.017052,116.461182 110.312843,121.223167 110.657555,126.053032 
	C110.820755,128.339615 109.906517,131.664963 105.544418,130.050812 
	C104.809479,123.986420 104.396088,117.960526 104.022934,111.468231 
z"/>
<path fill="#7DC9AB" opacity="1.000000" stroke="none" 
	d="
M108.229622,103.878601 
	C104.746460,99.529297 101.484283,95.096237 98.490326,90.291565 
	C100.223457,89.602600 101.688377,89.285240 103.443810,89.140205 
	C105.391441,89.475082 107.360558,90.278824 108.636475,89.657967 
	C110.845848,88.582901 111.882172,86.459045 110.128983,83.703033 
	C110.526253,82.546547 110.792137,81.700226 111.486877,80.879166 
	C113.920624,80.961075 115.925507,81.017723 117.930389,81.074371 
	C117.930389,81.074364 117.934502,80.995247 117.805077,81.327354 
	C117.504791,82.471336 117.333931,83.283203 117.163071,84.095078 
	C115.797745,87.483620 114.432419,90.872162 112.780487,94.848289 
	C112.371117,96.292572 112.248352,97.149269 112.125580,98.005966 
	C111.380478,99.461151 110.635376,100.916336 109.767784,102.717461 
	C109.247063,103.307213 108.848839,103.551025 108.229622,103.878601 
z"/>
<path fill="#4D54C6" opacity="1.000000" stroke="none" 
	d="
M90.810974,20.303696 
	C91.763618,20.022804 92.498245,20.010281 93.643021,20.349026 
	C93.357666,22.607155 93.203979,25.165062 91.855492,26.287292 
	C88.917191,28.732615 90.160019,31.038588 92.432281,31.392477 
	C98.044754,32.266575 97.638832,36.236923 97.835907,40.308960 
	C96.476212,41.182758 95.308060,41.791653 94.139908,42.400551 
	C93.653481,41.761330 93.279724,40.970417 92.660255,40.510296 
	C90.489075,38.897621 86.746849,37.744465 86.292740,35.791103 
	C85.012894,30.285734 86.358658,24.855444 90.810974,20.303696 
z"/>
<path fill="#9094DE" opacity="1.000000" stroke="none" 
	d="
M94.080315,42.674042 
	C95.308060,41.791653 96.476212,41.182758 98.135353,40.158302 
	C102.098488,36.842289 105.570633,33.941837 109.042770,31.041386 
	C109.469727,31.020214 109.896683,30.999044 110.643539,30.964516 
	C108.320724,34.751957 106.192802,39.108894 102.874847,42.180248 
	C100.146248,44.706039 98.222672,46.411751 99.775307,50.353340 
	C100.285301,51.648045 99.365906,53.505798 99.042374,55.482239 
	C98.511490,56.195885 98.038376,56.533367 97.213562,56.539650 
	C96.171379,53.879089 95.552399,51.525208 94.764786,49.229176 
	C94.256355,47.746986 93.500809,46.349564 92.856003,44.914154 
	C93.244247,44.258614 93.632477,43.603073 94.080315,42.674042 
z"/>
<path fill="#9197D3" opacity="1.000000" stroke="none" 
	d="
M92.648903,45.039879 
	C93.500809,46.349564 94.256355,47.746986 94.764786,49.229176 
	C95.552399,51.525208 96.171379,53.879089 96.907097,56.544144 
	C96.952339,56.879848 97.003151,56.978611 96.717300,57.020153 
	C95.952820,57.368992 95.474197,57.676289 94.995575,57.983585 
	C94.247238,58.000412 93.498909,58.017235 92.379486,57.982319 
	C91.697472,57.161907 91.386551,56.393238 91.183685,54.965622 
	C91.526955,51.539646 91.762177,48.772610 91.997391,46.005573 
	C92.030617,45.664761 92.178757,45.384769 92.648903,45.039879 
z"/>
<path fill="#E8ECFA" opacity="1.000000" stroke="none" 
	d="
M91.600876,46.002342 
	C91.762177,48.772610 91.526955,51.539646 91.139870,54.653564 
	C90.987999,55.000450 90.518524,55.056660 90.282806,55.065567 
	C90.031715,54.305271 90.016335,53.536076 89.999359,52.008274 
	C89.996483,50.499512 89.995216,49.749352 89.993942,48.999191 
	C89.483192,48.244942 88.972443,47.490692 88.258377,46.525234 
	C89.104828,46.209057 90.154587,46.104084 91.600876,46.002342 
z"/>
<path fill="#E8ECFA" opacity="1.000000" stroke="none" 
	d="
M86.161438,44.565739 
	C85.520111,44.002956 84.832375,43.086922 84.244186,41.751652 
	C84.934166,42.292439 85.524597,43.252460 86.161438,44.565739 
z"/>
<path fill="#FEFEFE" opacity="1.000000" stroke="none" 
	d="
M89.660507,49.049484 
	C89.995216,49.749352 89.996483,50.499512 89.995468,51.624722 
	C89.771149,51.033108 89.549110,50.066444 89.660507,49.049484 
z"/>
<path fill="#E0F0F2" opacity="1.000000" stroke="none" 
	d="
M112.437347,97.955246 
	C112.248352,97.149269 112.371117,96.292572 112.744301,95.219345 
	C112.912857,95.970047 112.830986,96.937294 112.437347,97.955246 
z"/>
<path fill="#BCDFDE" opacity="1.000000" stroke="none" 
	d="
M117.486977,84.009583 
	C117.333931,83.283203 117.504791,82.471336 117.791122,81.365509 
	C118.089096,81.052933 118.271591,81.034294 118.729126,81.005539 
	C118.606407,81.971642 118.208641,82.947861 117.486977,84.009583 
z"/>
<path fill="#4D58BA" opacity="1.000000" stroke="none" 
	d="
M109.036537,30.662117 
	C105.570633,33.941837 102.098488,36.842289 98.326904,39.893394 
	C97.638832,36.236923 98.044754,32.266575 92.432281,31.392477 
	C90.160019,31.038588 88.917191,28.732615 91.855492,26.287292 
	C93.203979,25.165062 93.357666,22.607155 94.010681,20.353811 
	C96.344925,20.008469 98.721657,20.009613 101.335670,20.299831 
	C101.267014,21.865294 100.529305,23.212065 100.724060,24.406834 
	C102.167397,33.261040 102.225662,33.251541 109.068665,28.010307 
	C109.055878,28.767822 109.043091,29.525335 109.036537,30.662117 
z"/>
<path fill="#4E54C8" opacity="1.000000" stroke="none" 
	d="
M109.303757,27.846317 
	C102.225662,33.251541 102.167397,33.261040 100.724060,24.406834 
	C100.529305,23.212065 101.267014,21.865294 101.779739,20.300688 
	C103.412292,20.672354 104.838051,21.332241 106.659775,22.339245 
	C108.056076,23.815784 109.056404,24.945210 110.056740,26.074635 
	C109.884109,26.610531 109.711472,27.146429 109.303757,27.846317 
z"/>
<path fill="#4D58BA" opacity="1.000000" stroke="none" 
	d="
M110.375259,26.013014 
	C109.056404,24.945210 108.056076,23.815784 107.014359,22.355675 
	C111.579292,23.841665 111.579292,23.841665 110.375259,26.013014 
z"/>
<path fill="#9799D7" opacity="1.000000" stroke="none" 
	d="
M48.465801,128.989822 
	C48.355316,124.749741 46.574554,120.084641 50.824326,116.320717 
	C52.266338,118.947289 54.212460,121.799042 54.623585,124.857155 
	C55.138870,128.690109 51.570210,128.657486 48.465801,128.989822 
z"/>
<path fill="#4A56C7" opacity="1.000000" stroke="none" 
	d="
M144.028107,46.738171 
	C145.643326,43.185810 147.278061,40.031025 149.007523,36.693443 
	C153.250916,40.394592 152.686905,44.538658 147.316498,52.464821 
	C146.117386,50.509972 145.082520,48.822861 144.028107,46.738171 
z"/>
<path fill="#70C8AA" opacity="1.000000" stroke="none" 
	d="
M111.058014,80.853905 
	C110.792137,81.700226 110.526253,82.546547 109.725761,83.719879 
	C108.132484,83.912254 107.073830,83.777611 105.955421,83.389069 
	C105.260872,83.326340 104.626076,83.517517 103.710167,83.989685 
	C103.337143,85.836418 103.245224,87.402145 103.153305,88.967880 
	C101.688377,89.285240 100.223457,89.602600 98.383850,89.959946 
	C97.288368,87.331779 96.567581,84.663643 95.820877,81.622681 
	C96.479027,77.820175 97.163078,74.390488 97.944817,70.618851 
	C98.042503,70.276901 98.438179,70.219978 98.635345,70.244125 
	C99.265648,70.861267 99.698792,71.454269 100.505798,72.376938 
	C101.217636,73.152771 101.555611,73.598930 101.956421,74.390594 
	C105.032173,76.775368 108.045097,78.814636 111.058014,80.853905 
z"/>
<path fill="#BCDFDE" opacity="1.000000" stroke="none" 
	d="
M95.928360,65.748627 
	C94.851593,65.427986 93.766014,64.739738 92.346558,64.037552 
	C92.186890,63.131348 92.361122,62.239063 92.833977,59.817379 
	C94.316551,62.490635 95.118050,63.935825 95.928360,65.748627 
z"/>
<path fill="#C6CAEE" opacity="1.000000" stroke="none" 
	d="
M95.097137,58.204708 
	C95.474197,57.676289 95.952820,57.368992 96.735886,57.072479 
	C96.846237,57.616749 96.652145,58.150230 96.212891,58.840874 
	C95.648712,58.891541 95.392372,58.700802 95.097137,58.204708 
z"/>
<path fill="#BCDFDE" opacity="1.000000" stroke="none" 
	d="
M111.486877,80.879166 
	C108.045097,78.814636 105.032173,76.775368 102.309891,74.374115 
	C103.070396,74.006157 103.540268,74.000183 104.010132,73.994202 
	C107.658722,75.657440 111.307655,77.319916 114.955673,78.984398 
	C115.920639,79.424683 116.882790,79.871117 117.888313,80.694550 
	C115.925507,81.017723 113.920624,80.961075 111.486877,80.879166 
z"/>
<path fill="#C4E2E5" opacity="1.000000" stroke="none" 
	d="
M103.943710,73.635468 
	C103.540268,74.000183 103.070396,74.006157 102.247055,74.028610 
	C101.555611,73.598930 101.217636,73.152771 100.798706,72.430115 
	C101.770927,72.528000 102.824104,72.902367 103.943710,73.635468 
z"/>
<path fill="#D2FAEB" opacity="1.000000" stroke="none" 
	d="
M103.443817,89.140205 
	C103.245224,87.402145 103.337143,85.836418 104.047424,84.054520 
	C105.115578,83.773232 105.565369,83.708107 106.015167,83.642975 
	C107.073830,83.777611 108.132484,83.912254 109.594360,84.030045 
	C111.882172,86.459045 110.845848,88.582901 108.636475,89.657967 
	C107.360558,90.278824 105.391441,89.475082 103.443817,89.140205 
z"/>
<path fill="#7DC9AB" opacity="1.000000" stroke="none" 
	d="
M105.955421,83.389069 
	C105.565369,83.708107 105.115578,83.773232 104.328522,83.773529 
	C104.626076,83.517517 105.260872,83.326340 105.955421,83.389069 
z"/>
</svg>