<svg version="1.1" id="Layer_1" xmlns="http://www.w3.org/2000/svg" xmlns:xlink="http://www.w3.org/1999/xlink" x="0px" y="0px"
	 width="100%" viewBox="0 0 177 170" enable-background="new 0 0 177 170" xml:space="preserve">
<path fill="#FEFEFE" opacity="1.000000" stroke="none" 
	d="
M103.000000,171.000000 
	C68.666672,171.000000 34.833336,171.000000 1.000005,171.000000 
	C1.000003,114.333336 1.000003,57.666679 1.000002,1.000012 
	C59.999989,1.000008 118.999977,1.000008 177.999969,1.000004 
	C177.999985,57.666656 177.999985,114.333313 178.000000,170.999985 
	C153.166672,171.000000 128.333328,171.000000 103.000000,171.000000 
M92.966431,47.998409 
	C92.966431,47.998409 92.850670,48.167252 92.889015,47.400158 
	C92.128204,42.752308 89.947746,40.843822 84.889763,43.492058 
	C84.574783,43.378094 84.259804,43.264133 83.900017,42.468624 
	C82.921631,42.349609 81.943237,42.230598 80.261841,42.009399 
	C80.035339,41.940357 79.808830,41.871311 79.592499,41.835308 
	C79.592499,41.835308 79.589035,41.821960 78.873611,41.735313 
	C77.932411,41.545177 76.991211,41.355045 75.563599,40.497807 
	C73.309952,40.389263 71.056297,40.280720 68.196815,40.175613 
	C67.796638,40.122684 67.396469,40.069752 66.836861,39.257679 
	C62.667110,38.129124 58.497360,37.000568 53.786068,35.778366 
	C53.460934,35.613743 53.135803,35.449120 52.823055,34.865940 
	C52.554482,34.929379 52.285904,34.992817 51.369003,34.999226 
	C50.971840,34.831524 50.574673,34.663826 50.115925,34.033646 
	C50.020412,33.734165 49.960060,33.427761 50.097141,32.362816 
	C51.856548,32.125961 53.658051,32.048443 55.361172,31.598526 
	C56.579704,31.276630 57.666386,30.455616 58.811893,29.857300 
	C57.899403,28.914736 57.128147,27.412947 56.046593,27.139797 
	C53.350342,26.458849 50.368946,26.767736 47.763363,25.897114 
	C42.915283,24.277193 36.889759,26.904924 32.972488,21.759016 
	C32.587280,21.252989 30.561270,21.275187 29.915249,21.805513 
	C25.724390,25.245852 21.704910,28.894957 16.846865,33.163094 
	C20.006966,34.100735 21.576616,34.566471 23.092985,35.882591 
	C23.187996,36.726257 23.283009,37.569920 23.303602,39.065140 
	C23.182507,39.708618 23.061411,40.352097 22.169258,41.182743 
	C20.767748,44.908043 19.379517,48.632389 23.148905,52.644840 
	C23.205816,53.537136 23.262728,54.429432 23.168776,56.233021 
	C25.123085,62.822193 27.077394,69.411362 29.034592,76.651917 
	C29.040863,77.086128 29.047134,77.520340 29.083567,78.666527 
	C30.396090,80.772156 31.708611,82.877792 33.508961,85.309631 
	C33.686245,85.856003 33.863529,86.402382 34.011372,87.827896 
	C34.560276,89.844337 35.109180,91.860771 35.658081,93.877213 
	C36.774288,92.971397 37.890499,92.065575 39.447502,91.112953 
	C39.447502,91.112953 39.879833,91.015060 39.882095,91.834747 
	C39.869225,93.198311 39.856358,94.561867 39.397835,95.952660 
	C39.397835,95.952660 38.952412,95.983368 38.272152,96.104713 
	C37.855396,97.076477 37.438641,98.048248 36.706406,99.635216 
	C35.854794,101.768913 35.003181,103.902618 34.078449,106.770737 
	C33.084007,108.206230 32.089561,109.641716 30.751907,111.562012 
	C29.256796,111.862083 27.761684,112.162163 25.615854,112.250496 
	C25.061827,112.816025 24.507799,113.381546 23.372234,114.045387 
	C22.987669,114.127274 22.603102,114.209160 21.399708,114.136749 
	C18.905193,115.049767 16.410679,115.962776 13.128504,117.023621 
	C12.580763,117.340797 11.740203,117.525864 11.528673,117.994728 
	C7.605618,126.690239 11.543958,132.776077 21.055721,132.794067 
	C22.038427,132.795929 23.021257,132.733215 24.076117,133.499496 
	C25.251902,136.703232 24.708107,140.989044 30.205597,141.039444 
	C46.150417,141.185669 62.092571,141.621964 78.468391,142.502762 
	C83.308029,142.665161 88.147659,142.827560 93.583229,142.983322 
	C94.059326,142.679382 94.535431,142.375458 95.924416,142.047562 
	C99.650185,141.708649 103.375946,141.369736 107.737473,140.978043 
	C108.567841,140.361710 109.398209,139.745377 110.574898,139.173218 
	C110.574898,139.173218 110.923973,139.167770 111.392570,139.629288 
	C112.256973,139.739227 113.121384,139.849167 114.267464,140.543060 
	C114.917038,140.881836 115.566620,141.220627 116.216194,141.559402 
	C116.289185,140.999695 116.452095,140.433945 116.415123,139.881607 
	C116.351875,138.936783 116.163445,138.000351 116.676910,137.044922 
	C117.109856,137.049515 117.542793,137.054092 117.998657,137.717072 
	C118.374474,138.331619 118.750290,138.946152 119.126106,139.560699 
	C119.417816,139.028183 119.709526,138.495682 120.850548,137.982880 
	C121.831436,138.119843 122.810211,138.274673 123.793541,138.391006 
	C132.924530,139.471390 142.178925,142.051285 151.061874,137.818771 
	C153.435776,136.687668 155.173538,133.939285 156.722137,131.613022 
	C157.007782,131.183914 154.980667,129.215240 153.988785,127.226585 
	C153.345444,126.549858 152.702087,125.873131 152.058731,125.196404 
	C151.365204,126.449379 150.671677,127.702362 149.157333,129.089264 
	C144.779556,129.372513 140.401764,129.655762 135.916138,129.302246 
	C134.942886,129.208450 133.969635,129.114655 132.169205,129.010178 
	C128.776505,128.355148 125.383797,127.700104 121.998055,126.184250 
	C122.014328,124.462936 122.030602,122.741623 122.721725,120.891808 
	C122.795227,119.591354 122.868729,118.290909 122.945801,116.347313 
	C122.945290,115.918541 122.944778,115.489769 122.983429,114.259727 
	C122.332130,112.835098 121.680832,111.410461 120.481888,109.543671 
	C118.614738,104.998215 117.437668,99.748062 110.638969,99.390839 
	C109.325706,98.782616 108.045662,97.737160 106.693985,97.634445 
	C94.470634,96.705566 83.220680,92.399429 71.707458,87.492264 
	C71.391624,87.381905 71.075783,87.271545 70.141731,87.070770 
	C69.755424,86.925392 69.369118,86.780006 69.398209,86.216835 
	C69.956360,85.210030 70.514511,84.203224 71.779205,83.127960 
	C72.900490,82.110786 74.021782,81.093605 75.808601,79.917984 
	C77.887215,78.230385 79.965820,76.542786 82.693008,74.887405 
	C83.124649,74.917816 83.556297,74.948227 84.335426,75.492210 
	C85.224136,74.658569 86.112846,73.824921 87.422302,72.501106 
	C88.886879,70.634789 90.351456,68.768471 92.573898,66.879753 
	C92.925858,66.074730 93.277817,65.269707 93.639908,64.166710 
	C93.639908,64.166710 93.823273,63.931633 94.592537,63.855808 
	C94.877914,63.025093 95.163292,62.194378 95.507683,60.869049 
	C95.599915,60.543903 95.756714,60.253647 96.703552,59.899422 
	C100.100471,55.825043 99.907433,53.978031 95.690384,51.798115 
	C95.690384,51.798115 95.673210,51.484077 95.840698,50.725140 
	C94.837036,49.867107 93.833366,49.009075 92.966431,47.998409 
M80.034714,85.235413 
	C81.153885,85.914246 82.870857,87.420280 83.283798,87.121880 
	C84.708450,86.092316 85.964386,84.552277 86.636406,82.936981 
	C86.823715,82.486763 84.772308,81.105156 83.747917,80.150818 
	C82.502914,81.591347 81.257912,83.031883 80.034714,85.235413 
z"/>
<path fill="#DADBF3" opacity="1.000000" stroke="none" 
	d="
M78.035774,141.944427 
	C62.092571,141.621964 46.150417,141.185669 30.205597,141.039444 
	C24.708107,140.989044 25.251902,136.703232 24.198765,132.766846 
	C24.544174,129.685944 24.766937,127.337700 25.383720,124.963913 
	C28.848368,123.950142 31.918993,122.961906 35.429871,121.994736 
	C40.576710,121.397697 45.283298,120.779610 50.067444,120.485855 
	C51.430595,120.575958 52.716194,120.341721 54.283447,120.043854 
	C54.699997,119.901642 54.871456,119.850822 54.958542,119.736000 
	C55.032005,119.639137 55.007549,119.468010 55.026436,119.329750 
	C53.692520,119.162476 52.358608,118.995201 51.024960,118.453865 
	C53.337280,116.189568 55.649334,114.299332 57.256439,112.985435 
	C60.734146,107.992371 63.862633,103.500702 67.008789,99.389816 
	C67.787605,103.452484 70.638069,102.932030 73.444420,103.114182 
	C74.094315,104.410622 74.560349,105.462990 75.019577,106.935875 
	C75.074852,108.658905 75.136932,109.961411 75.199013,111.263916 
	C75.512154,111.011826 75.825294,110.759735 76.138435,110.507637 
	C77.426315,111.670776 78.714195,112.833908 79.694733,114.156021 
	C78.590881,116.200035 77.794365,118.085068 76.658875,120.176720 
	C75.884743,121.885963 74.914757,123.461647 75.108284,124.878418 
	C75.888969,130.593750 77.028664,136.260025 78.035774,141.944427 
z"/>
<path fill="#D9DAF1" opacity="1.000000" stroke="none" 
	d="
M76.997849,119.970108 
	C77.794365,118.085068 78.590881,116.200035 80.046326,114.214111 
	C81.567223,115.233818 82.462791,117.339600 83.285583,117.311539 
	C87.861870,117.155479 92.420494,116.481689 96.989731,115.655334 
	C96.995583,114.885933 96.996872,114.446228 97.164810,113.753151 
	C97.495255,112.639465 97.659042,111.779152 98.104843,110.687653 
	C100.836433,108.948128 103.286011,107.439789 105.828629,105.908348 
	C105.921654,105.885239 105.994804,105.708046 106.188568,105.700333 
	C106.648056,105.561272 106.764931,105.348175 106.883652,104.882034 
	C107.034340,104.710724 107.195473,104.283813 107.482986,104.154999 
	C108.782265,102.706871 109.794022,101.387550 110.805786,100.068237 
	C117.437668,99.748062 118.614738,104.998215 120.747383,110.160530 
	C121.656677,112.205261 122.300476,113.633125 122.944275,115.060997 
	C122.944778,115.489769 122.945290,115.918541 122.682510,116.910355 
	C122.295105,118.655708 122.170990,119.838005 122.046875,121.020309 
	C122.030602,122.741623 122.014328,124.462936 121.992630,126.990616 
	C121.727165,131.083466 119.602432,132.045319 116.750771,133.218323 
	C114.391884,134.188629 112.835770,137.110550 110.923965,139.167770 
	C110.923973,139.167770 110.574898,139.173218 110.011337,139.107574 
	C108.298615,139.360870 107.149445,139.679825 105.587341,140.004333 
	C103.736023,139.714920 102.160873,138.904739 100.890343,139.242004 
	C98.825851,139.790085 96.960785,141.089355 95.011536,142.071533 
	C94.535431,142.375458 94.059326,142.679382 93.202148,142.591385 
	C89.833038,141.797424 86.826996,141.493378 83.865265,140.948471 
	C82.553421,140.707123 80.415390,140.213135 80.215569,139.433304 
	C78.819542,133.985001 75.172478,128.778854 78.012489,122.707939 
	C78.302040,122.088997 77.365448,120.896469 76.997849,119.970108 
z"/>
<path fill="#D8DAEA" opacity="1.000000" stroke="none" 
	d="
M111.158264,139.398529 
	C112.835770,137.110550 114.391884,134.188629 116.750771,133.218323 
	C119.602432,132.045319 121.727165,131.083466 121.989151,127.421021 
	C125.383797,127.700104 128.776505,128.355148 132.792969,129.275009 
	C134.285828,129.672897 135.154907,129.805954 136.023987,129.939011 
	C140.401764,129.655762 144.779556,129.372513 149.917236,129.004181 
	C151.791763,128.598465 152.906403,128.277817 154.021042,127.957169 
	C154.980667,129.215240 157.007782,131.183914 156.722137,131.613022 
	C155.173538,133.939285 153.435776,136.687668 151.061874,137.818771 
	C142.178925,142.051285 132.924530,139.471390 123.793541,138.391006 
	C122.810211,138.274673 121.831436,138.119843 120.256081,137.730499 
	C119.099655,137.338287 118.537697,137.198486 117.975739,137.058670 
	C117.542793,137.054092 117.109856,137.049515 116.054565,137.168488 
	C114.950073,138.181061 114.467926,139.070068 113.985786,139.959091 
	C113.121384,139.849167 112.256973,139.739227 111.158264,139.398529 
z"/>
<path fill="#555DB8" opacity="1.000000" stroke="none" 
	d="
M50.177509,34.496124 
	C50.574673,34.663826 50.971840,34.831524 51.871338,35.154579 
	C52.373672,35.309929 52.810669,35.284492 52.810669,35.284492 
	C53.135803,35.449120 53.460934,35.613743 53.960098,36.102795 
	C54.072742,36.612934 54.011364,36.798641 53.594582,36.974648 
	C52.137295,37.259411 51.035408,37.553879 49.553535,37.874603 
	C46.424129,39.555420 43.674713,41.209980 40.636555,43.033783 
	C37.574875,45.815174 34.801937,48.427322 32.018410,50.622215 
	C31.769382,46.209557 31.530943,42.214153 31.217794,36.966877 
	C25.494923,39.817318 26.783455,44.126698 26.429010,47.103775 
	C26.077541,50.055878 28.931286,51.423546 31.986511,51.355968 
	C30.293905,53.393414 28.654060,55.103802 26.671719,56.841419 
	C25.326027,56.353012 24.322832,55.837372 23.319637,55.321728 
	C23.262728,54.429432 23.205816,53.537136 23.122913,51.870548 
	C23.044720,47.729362 22.992517,44.362469 22.940315,40.995575 
	C23.061411,40.352097 23.182507,39.708618 23.635040,38.569466 
	C24.644135,36.384037 25.321791,34.694290 25.999876,33.002422 
	C26.000305,33.000305 26.004650,32.999443 26.369587,32.987160 
	C28.487898,32.310802 30.241272,31.646730 32.423790,31.004642 
	C34.571693,31.007565 36.290451,30.988504 38.286530,31.204515 
	C42.435070,32.458431 46.306290,33.477280 50.177509,34.496124 
z"/>
<path fill="#969BD4" opacity="1.000000" stroke="none" 
	d="
M66.996292,40.016823 
	C67.396469,40.069752 67.796638,40.122684 68.572678,40.391594 
	C69.081444,40.896156 69.113388,41.195499 69.039963,41.880066 
	C69.034393,42.504177 69.033203,42.753834 68.995224,43.250866 
	C68.933823,43.663181 68.909210,43.828121 68.514160,44.000504 
	C66.205353,44.848213 64.266983,45.688477 61.934765,46.699471 
	C64.919266,51.229393 67.442986,55.723942 70.630478,59.684254 
	C73.104424,62.758011 72.816734,64.932625 70.716248,68.005943 
	C69.446678,69.863510 69.517365,72.637085 68.597473,75.009338 
	C67.690552,75.070793 67.172012,75.121986 66.322372,75.091293 
	C63.073891,70.969040 60.156498,66.928688 57.250305,62.554977 
	C58.355160,61.493034 59.448818,60.764446 60.909271,59.791504 
	C59.121048,58.798050 57.522190,57.909794 55.945980,56.621162 
	C55.952209,55.154610 55.935787,54.088428 55.987122,52.666180 
	C58.458397,47.105488 60.341202,41.437408 66.996292,40.016823 
z"/>
<path fill="#CBDAEB" opacity="1.000000" stroke="none" 
	d="
M66.991112,99.009026 
	C63.862633,103.500702 60.734146,107.992371 57.256439,112.985435 
	C55.649334,114.299332 53.337280,116.189568 50.567780,118.505325 
	C44.747742,119.287590 39.385151,119.644325 33.839413,119.957367 
	C33.656265,119.913681 33.280373,119.891037 33.214218,119.477142 
	C33.080364,117.377335 33.012665,115.691414 33.088448,113.714096 
	C32.519661,112.640877 31.807392,111.859039 31.095119,111.077209 
	C32.089561,109.641716 33.084007,108.206230 34.483307,106.386963 
	C36.598518,105.670746 38.308872,105.338303 40.037830,105.414017 
	C40.122940,106.907326 40.189445,107.992477 40.167282,109.462509 
	C40.048298,110.898796 40.017986,111.950195 39.731430,113.222214 
	C39.196819,117.445274 41.041267,117.708878 44.299507,115.995865 
	C45.089260,115.676826 45.578659,115.373337 46.377552,115.011856 
	C47.173679,114.335518 47.660320,113.717163 48.354984,112.999413 
	C48.824997,112.721474 49.017735,112.486214 49.479053,112.116776 
	C52.583656,109.403389 55.350426,106.767433 58.058357,104.084503 
	C57.999523,104.037537 58.130081,104.111465 58.437500,104.044777 
	C59.173225,103.322533 59.601528,102.666969 60.078560,101.817657 
	C60.127293,101.623901 60.159431,101.225616 60.481934,101.133652 
	C61.551487,100.033821 62.298538,99.025955 63.095039,97.829201 
	C63.144485,97.640312 63.182079,97.251625 63.482933,97.146149 
	C64.191269,96.362732 64.598740,95.684799 65.161865,94.725861 
	C65.664162,93.665512 66.010811,92.886154 66.671936,92.105583 
	C67.621407,92.113190 68.256401,92.122009 68.983398,92.403999 
	C69.568825,93.233597 70.062241,93.790024 70.574097,94.699341 
	C70.487999,95.739983 70.383453,96.427742 69.966873,97.080887 
	C68.773323,97.694336 67.891808,98.342415 67.005783,98.994675 
	C67.001274,98.998848 66.991112,99.009026 66.991112,99.009026 
z"/>
<path fill="#FAFDF9" opacity="1.000000" stroke="none" 
	d="
M38.009209,30.969444 
	C36.290451,30.988504 34.571693,31.007565 32.179951,30.742096 
	C28.977709,29.800083 26.611568,29.495697 26.004650,32.999443 
	C26.004650,32.999443 26.000305,33.000305 25.689274,33.012306 
	C24.634253,33.693611 23.890261,34.362907 23.146267,35.032207 
	C21.576616,34.566471 20.006966,34.100735 16.846865,33.163094 
	C21.704910,28.894957 25.724390,25.245852 29.915249,21.805513 
	C30.561270,21.275187 32.587280,21.252989 32.972488,21.759016 
	C36.889759,26.904924 42.915283,24.277193 47.763363,25.897114 
	C50.368946,26.767736 53.350342,26.458849 56.046593,27.139797 
	C57.128147,27.412947 57.899403,28.914736 58.811893,29.857300 
	C57.666386,30.455616 56.579704,31.276630 55.361172,31.598526 
	C53.658051,32.048443 51.856548,32.125961 49.682446,32.574944 
	C45.514904,32.181194 41.762054,31.575319 38.009209,30.969444 
z"/>
<path fill="#D6DAF3" opacity="1.000000" stroke="none" 
	d="
M57.239109,62.888329 
	C60.156498,66.928688 63.073891,70.969040 66.405472,75.444366 
	C68.237328,78.318367 69.654999,80.757393 71.072662,83.196419 
	C70.514511,84.203224 69.956360,85.210030 69.255730,86.541878 
	C69.113251,86.866920 69.089798,87.131645 68.845924,86.995102 
	C68.423111,86.808533 68.244171,86.758514 67.964851,86.392990 
	C65.927086,86.074753 63.989697,86.072037 62.031433,85.701263 
	C60.884975,84.880081 59.785637,84.137970 58.628460,84.032898 
	C56.082726,83.801743 53.507767,83.892403 50.999302,83.515869 
	C51.426701,82.106239 51.799534,81.032440 52.512146,79.924454 
	C56.522400,76.612656 56.524475,72.865692 52.733971,69.823570 
	C52.610542,69.644608 52.469463,69.233330 52.784340,69.066551 
	C53.399529,66.933533 53.699841,64.967293 54.403069,62.998985 
	C55.617027,62.960720 56.428070,62.924526 57.239109,62.888329 
z"/>
<path fill="#6269B4" opacity="1.000000" stroke="none" 
	d="
M79.582314,41.802265 
	C79.808830,41.871311 80.035339,41.940357 80.810181,42.332153 
	C82.220627,42.819996 83.082726,42.985081 83.944824,43.150169 
	C84.259804,43.264133 84.574783,43.378094 85.321823,43.791527 
	C88.119476,45.449749 90.485077,46.808498 92.850670,48.167252 
	C92.850670,48.167252 92.966431,47.998409 92.943634,48.397980 
	C93.838295,49.693058 94.755753,50.588566 95.673210,51.484077 
	C95.673210,51.484077 95.690384,51.798115 95.821564,52.298470 
	C95.961182,55.198643 95.969635,57.598457 95.978088,59.998276 
	C95.756714,60.253647 95.599915,60.543903 95.200340,61.274490 
	C94.536423,62.430496 94.179848,63.181065 93.823273,63.931633 
	C93.823273,63.931633 93.639908,64.166710 93.352814,64.463440 
	C92.649162,65.474159 92.232597,66.188156 91.816040,66.902145 
	C90.351456,68.768471 88.886879,70.634789 86.892868,72.755737 
	C85.571609,73.666466 84.779778,74.322556 83.987938,74.978638 
	C83.556297,74.948227 83.124649,74.917816 82.263153,74.577423 
	C80.915878,73.462059 79.998459,72.656685 79.034660,71.504906 
	C78.606544,69.805725 78.224808,68.452942 78.230835,67.106171 
	C83.505890,69.818199 87.267448,68.887291 89.803444,63.729874 
	C90.305519,62.708817 91.112068,61.842190 91.710930,60.863190 
	C94.087265,56.978474 93.010971,51.958138 89.056305,49.743267 
	C85.835121,47.939190 82.386391,46.541386 79.161606,44.669579 
	C79.474823,43.774677 79.665009,43.173626 79.798813,42.375801 
	C79.742432,42.179028 79.582314,41.802265 79.582314,41.802265 
z"/>
<path fill="#6A72B1" opacity="1.000000" stroke="none" 
	d="
M70.555656,94.346458 
	C70.062241,93.790024 69.568825,93.233597 69.011627,91.982910 
	C68.995163,89.902985 69.042480,88.517311 69.089798,87.131645 
	C69.089798,87.131645 69.113251,86.866920 69.048035,86.750771 
	C69.369118,86.780006 69.755424,86.925392 70.580757,87.349670 
	C71.350388,87.722816 71.680992,87.817070 72.011597,87.911324 
	C83.220680,92.399429 94.470634,96.705566 106.693985,97.634445 
	C108.045662,97.737160 109.325706,98.782616 110.722374,99.729538 
	C109.794022,101.387550 108.782265,102.706871 107.418930,103.777100 
	C107.890152,100.281677 106.404083,99.031357 103.289619,98.973228 
	C99.987267,98.911606 95.852097,99.890106 93.560051,98.292229 
	C88.690323,94.897346 83.284836,95.126755 77.985718,93.598480 
	C74.979179,90.481834 72.767769,92.416481 70.555656,94.346458 
z"/>
<path fill="#DEDDF2" opacity="1.000000" stroke="none" 
	d="
M34.040813,86.948753 
	C33.863529,86.402382 33.686245,85.856003 33.250984,84.767418 
	C31.679806,82.134987 30.366606,80.044769 29.053406,77.954552 
	C29.047134,77.520340 29.040863,77.086128 29.294689,76.086929 
	C29.375689,73.677376 29.196592,71.832809 29.424343,69.991150 
	C31.910397,69.188805 33.989605,68.383545 37.159672,67.155807 
	C37.159672,70.115517 37.156982,72.968109 37.160812,75.820694 
	C37.162708,77.234161 37.176598,78.647621 37.155380,80.426979 
	C38.866692,81.778900 40.555370,82.879021 42.367550,83.709724 
	C43.523090,84.239433 44.861584,84.370049 46.082130,85.012787 
	C46.025997,85.568451 46.005772,85.790939 45.642883,85.977829 
	C41.705151,83.911690 40.782417,87.366287 38.675961,88.879318 
	C36.926605,88.141853 35.483711,87.545303 34.040813,86.948753 
z"/>
<path fill="#D0D4F3" opacity="1.000000" stroke="none" 
	d="
M66.916580,39.637253 
	C60.341202,41.437408 58.458397,47.105488 55.743507,52.772339 
	C54.962482,53.489075 54.492825,53.743576 53.865196,53.699524 
	C52.746201,52.909843 51.785179,52.418709 50.864883,51.546379 
	C51.574036,48.775928 52.242458,46.386669 52.965721,43.606987 
	C53.330368,41.139160 53.640175,39.061752 53.949982,36.984348 
	C54.011364,36.798641 54.072742,36.612934 54.230865,36.149620 
	C58.497360,37.000568 62.667110,38.129124 66.916580,39.637253 
z"/>
<path fill="#A0A5CF" opacity="1.000000" stroke="none" 
	d="
M24.989700,124.989456 
	C24.766937,127.337700 24.544174,129.685944 24.162720,132.367325 
	C23.021257,132.733215 22.038427,132.795929 21.055721,132.794067 
	C11.543958,132.776077 7.605618,126.690239 11.528673,117.994728 
	C11.740203,117.525864 12.580763,117.340797 13.929131,117.002350 
	C15.818103,116.982147 16.906448,116.983215 17.949989,117.356499 
	C17.563507,118.278275 17.323454,119.190483 16.863857,119.319267 
	C13.574010,120.241188 13.561865,122.836952 14.162194,125.225677 
	C14.505022,126.589806 16.160574,128.713272 17.050341,128.629929 
	C19.066450,128.441040 20.988214,127.126282 22.919008,126.207657 
	C23.630236,125.869278 24.258940,125.357452 24.941383,124.940933 
	C24.957479,124.957146 24.989702,124.989456 24.989700,124.989456 
z"/>
<path fill="#C0C0DB" opacity="1.000000" stroke="none" 
	d="
M76.658875,120.176720 
	C77.365448,120.896469 78.302040,122.088997 78.012489,122.707939 
	C75.172478,128.778854 78.819542,133.985001 80.215569,139.433304 
	C80.415390,140.213135 82.553421,140.707123 83.865265,140.948471 
	C86.826996,141.493378 89.833038,141.797424 92.904175,142.594696 
	C88.147659,142.827560 83.308029,142.665161 78.252083,142.223602 
	C77.028664,136.260025 75.888969,130.593750 75.108284,124.878418 
	C74.914757,123.461647 75.884743,121.885963 76.658875,120.176720 
z"/>
<path fill="#EEF1FB" opacity="1.000000" stroke="none" 
	d="
M29.017494,69.988243 
	C29.196592,71.832809 29.375689,73.677376 29.293245,75.761238 
	C27.077394,69.411362 25.123085,62.822193 23.244205,55.777374 
	C24.322832,55.837372 25.326027,56.353012 26.742107,57.139114 
	C27.449160,57.942558 27.743324,58.475544 27.976856,59.440243 
	C27.959049,61.900906 28.001871,63.929855 28.057615,66.307800 
	C28.386190,67.767273 28.701841,68.877762 29.017494,69.988243 
z"/>
<path fill="#8EC8BB" opacity="1.000000" stroke="none" 
	d="
M40.255955,109.077621 
	C40.189445,107.992477 40.122940,106.907326 40.053864,104.961830 
	C39.982025,101.376129 39.912758,98.650780 39.843491,95.925430 
	C39.856358,94.561867 39.869225,93.198311 40.283985,91.430786 
	C43.476170,91.590729 46.266464,92.154617 49.050163,92.829796 
	C49.043571,92.941078 49.033844,93.159119 49.036476,93.384155 
	C49.039104,93.609192 49.022652,94.058983 48.681961,94.040382 
	C47.886570,94.032867 47.431870,94.043945 46.548779,94.038986 
	C42.917263,93.525070 41.591705,94.869316 41.942814,98.097244 
	C42.118179,99.709457 42.011116,101.352386 42.019196,103.386917 
	C41.423046,105.554153 40.839500,107.315887 40.255955,109.077621 
z"/>
<path fill="#D5E4ED" opacity="1.000000" stroke="none" 
	d="
M49.056763,92.718513 
	C46.266464,92.154617 43.476170,91.590729 40.282852,91.020950 
	C39.879833,91.015060 39.447502,91.112953 39.221077,90.777428 
	C38.990574,89.968018 38.986496,89.494125 38.982418,89.020241 
	C40.782417,87.366287 41.705151,83.911690 45.647247,86.368118 
	C45.787994,89.663200 46.951736,91.224922 49.910667,91.223541 
	C49.567543,91.877754 49.312153,92.298134 49.056763,92.718513 
z"/>
<path fill="#9DA0CF" opacity="1.000000" stroke="none" 
	d="
M71.425934,83.162186 
	C69.654999,80.757393 68.237328,78.318367 66.736565,75.526260 
	C67.172012,75.121986 67.690552,75.070793 68.604515,75.010994 
	C68.999931,75.002388 69.002113,75.013634 69.070877,75.378357 
	C71.508125,75.858856 73.876602,75.974625 76.174973,76.433197 
	C75.784271,77.876160 75.463669,78.976295 75.143066,80.076431 
	C74.021782,81.093605 72.900490,82.110786 71.425934,83.162186 
z"/>
<path fill="#FCFFF1" opacity="1.000000" stroke="none" 
	d="
M80.023811,84.853912 
	C81.257912,83.031883 82.502914,81.591347 83.747925,80.150818 
	C84.772308,81.105156 86.823715,82.486763 86.636406,82.936981 
	C85.964386,84.552277 84.708450,86.092316 83.283798,87.121880 
	C82.870857,87.420280 81.153885,85.914246 80.023811,84.853912 
z"/>
<path fill="#D5E4ED" opacity="1.000000" stroke="none" 
	d="
M39.620663,95.939041 
	C39.912758,98.650780 39.982025,101.376129 40.035263,104.553665 
	C38.308872,105.338303 36.598518,105.670746 34.519867,106.019753 
	C35.003181,103.902618 35.854794,101.768913 37.151405,99.183006 
	C38.048405,97.814987 38.500408,96.899178 38.952415,95.983368 
	C38.952412,95.983368 39.397835,95.952660 39.620663,95.939041 
z"/>
<path fill="#A4A5D2" opacity="1.000000" stroke="none" 
	d="
M30.923513,111.319611 
	C31.807392,111.859039 32.519661,112.640877 32.702789,113.714722 
	C31.001429,114.446556 29.861200,115.095467 28.650045,115.280746 
	C26.433741,115.619797 24.175526,115.684853 21.969519,115.598816 
	C22.075678,114.985985 22.147106,114.638512 22.218534,114.291046 
	C22.603102,114.209160 22.987669,114.127274 23.970243,114.001129 
	C25.134361,113.458656 25.700468,112.960449 26.266575,112.462234 
	C27.761684,112.162163 29.256796,111.862083 30.923513,111.319611 
z"/>
<path fill="#F1F7FB" opacity="1.000000" stroke="none" 
	d="
M38.675961,88.879318 
	C38.986496,89.494125 38.990574,89.968018 39.000679,90.800827 
	C37.890499,92.065575 36.774288,92.971397 35.658081,93.877213 
	C35.109180,91.860771 34.560276,89.844337 34.026093,87.388321 
	C35.483711,87.545303 36.926605,88.141853 38.675961,88.879318 
z"/>
<path fill="#C9C9DD" opacity="1.000000" stroke="none" 
	d="
M95.467972,142.059540 
	C96.960785,141.089355 98.825851,139.790085 100.890343,139.242004 
	C102.160873,138.904739 103.736023,139.714920 105.709106,140.234436 
	C106.529785,140.649597 106.815750,140.840210 107.101715,141.030823 
	C103.375946,141.369736 99.650185,141.708649 95.467972,142.059540 
z"/>
<path fill="#595DA7" opacity="1.000000" stroke="none" 
	d="
M79.855186,42.572571 
	C79.665009,43.173626 79.474823,43.774677 78.817963,44.682865 
	C77.893494,44.988655 77.435715,44.987312 76.753204,44.723572 
	C74.029648,43.975277 71.530838,43.489384 69.032021,43.003487 
	C69.033203,42.753834 69.034393,42.504177 69.448250,41.892563 
	C71.923950,41.408707 73.986984,41.286812 76.050011,41.164913 
	C76.991211,41.355045 77.932411,41.545177 79.181931,41.921135 
	C79.594421,42.275848 79.716072,42.431053 79.855186,42.572571 
z"/>
<path fill="#C9CFEC" opacity="1.000000" stroke="none" 
	d="
M38.286530,31.204515 
	C41.762054,31.575319 45.514904,32.181194 49.601311,32.950752 
	C49.960060,33.427761 50.020412,33.734165 50.146717,34.264885 
	C46.306290,33.477280 42.435070,32.458431 38.286530,31.204515 
z"/>
<path fill="#DADEF5" opacity="1.000000" stroke="none" 
	d="
M92.869843,47.783707 
	C90.485077,46.808498 88.119476,45.449749 85.573715,43.803352 
	C89.947746,40.843822 92.128204,42.752308 92.869843,47.783707 
z"/>
<path fill="#E4E8FA" opacity="1.000000" stroke="none" 
	d="
M22.554787,41.089157 
	C22.992517,44.362469 23.044720,47.729362 23.020370,51.549221 
	C19.379517,48.632389 20.767748,44.908043 22.554787,41.089157 
z"/>
<path fill="#DADEF5" opacity="1.000000" stroke="none" 
	d="
M75.475838,79.997208 
	C75.463669,78.976295 75.784271,77.876160 76.428726,76.258530 
	C77.186958,74.830643 77.621338,73.920242 78.199875,72.795578 
	C78.589706,72.337975 78.835373,72.094643 79.081039,71.851311 
	C79.998459,72.656685 80.915878,73.462059 81.938858,74.561310 
	C79.965820,76.542786 77.887215,78.230385 75.475838,79.997208 
z"/>
<path fill="#DADEF5" opacity="1.000000" stroke="none" 
	d="
M96.340820,59.948849 
	C95.969635,57.598457 95.961182,55.198643 95.917786,52.422836 
	C99.907433,53.978031 100.100471,55.825043 96.340820,59.948849 
z"/>
<path fill="#CBDAEB" opacity="1.000000" stroke="none" 
	d="
M21.809120,114.213898 
	C22.147106,114.638512 22.075678,114.985985 21.626469,115.637695 
	C20.164055,116.289383 19.079424,116.636841 17.994793,116.984291 
	C16.906448,116.983215 15.818103,116.982147 14.322962,116.928436 
	C16.410679,115.962776 18.905193,115.049767 21.809120,114.213898 
z"/>
<path fill="#EEF1FB" opacity="1.000000" stroke="none" 
	d="
M29.068485,78.310539 
	C30.366606,80.044769 31.679806,82.134987 33.007072,84.604309 
	C31.708611,82.877792 30.396090,80.772156 29.068485,78.310539 
z"/>
<path fill="#DADEF5" opacity="1.000000" stroke="none" 
	d="
M75.806808,40.831360 
	C73.986984,41.286812 71.923950,41.408707 69.452637,41.518105 
	C69.113388,41.195499 69.081444,40.896156 68.875595,40.389877 
	C71.056297,40.280720 73.309952,40.389263 75.806808,40.831360 
z"/>
<path fill="#F1F3FA" opacity="1.000000" stroke="none" 
	d="
M154.004913,127.591873 
	C152.906403,128.277817 151.791763,128.598465 150.327637,128.937225 
	C150.671677,127.702362 151.365204,126.449379 152.058731,125.196396 
	C152.702087,125.873131 153.345444,126.549858 154.004913,127.591873 
z"/>
<path fill="#C9CFEC" opacity="1.000000" stroke="none" 
	d="
M23.119625,35.457397 
	C23.890261,34.362907 24.634253,33.693611 25.688847,33.014427 
	C25.321791,34.694290 24.644135,36.384037 23.672249,38.243687 
	C23.283009,37.569920 23.187996,36.726257 23.119625,35.457397 
z"/>
<path fill="#F1F3FA" opacity="1.000000" stroke="none" 
	d="
M122.963852,114.660362 
	C122.300476,113.633125 121.656677,112.205261 121.021210,110.381607 
	C121.680832,111.410461 122.332130,112.835098 122.963852,114.660362 
z"/>
<path fill="#F3F4F9" opacity="1.000000" stroke="none" 
	d="
M114.126625,140.251068 
	C114.467926,139.070068 114.950073,138.181061 115.729904,137.176208 
	C116.163445,138.000351 116.351875,138.936783 116.415123,139.881607 
	C116.452095,140.433945 116.289185,140.999695 116.216194,141.559402 
	C115.566620,141.220627 114.917038,140.881836 114.126625,140.251068 
z"/>
<path fill="#F1F3FA" opacity="1.000000" stroke="none" 
	d="
M122.384300,120.956055 
	C122.170990,119.838005 122.295105,118.655708 122.680725,117.231934 
	C122.868729,118.290909 122.795227,119.591354 122.384300,120.956055 
z"/>
<path fill="#D8DAEA" opacity="1.000000" stroke="none" 
	d="
M107.419594,141.004425 
	C106.815750,140.840210 106.529785,140.649597 106.122055,140.228882 
	C107.149445,139.679825 108.298615,139.360870 109.838173,139.085480 
	C109.398209,139.745377 108.567841,140.361710 107.419594,141.004425 
z"/>
<path fill="#DADEF5" opacity="1.000000" stroke="none" 
	d="
M84.161682,75.235428 
	C84.779778,74.322556 85.571609,73.666466 86.682495,73.000824 
	C86.112846,73.824921 85.224136,74.658569 84.161682,75.235428 
z"/>
<path fill="#DADEF5" opacity="1.000000" stroke="none" 
	d="
M95.756958,51.104607 
	C94.755753,50.588566 93.838295,49.693058 92.875275,48.474297 
	C93.833366,49.009075 94.837036,49.867107 95.756958,51.104607 
z"/>
<path fill="#DADEF5" opacity="1.000000" stroke="none" 
	d="
M83.922424,42.809395 
	C83.082726,42.985081 82.220627,42.819996 81.161690,42.383247 
	C81.943237,42.230598 82.921631,42.349609 83.922424,42.809395 
z"/>
<path fill="#F1F3FA" opacity="1.000000" stroke="none" 
	d="
M135.970062,129.620636 
	C135.154907,129.805954 134.285828,129.672897 133.206573,129.280350 
	C133.969635,129.114655 134.942886,129.208450 135.970062,129.620636 
z"/>
<path fill="#F3F4F9" opacity="1.000000" stroke="none" 
	d="
M117.987198,137.387878 
	C118.537697,137.198486 119.099655,137.338287 119.831421,137.720642 
	C119.709526,138.495682 119.417816,139.028183 119.126106,139.560699 
	C118.750290,138.946152 118.374474,138.331619 117.987198,137.387878 
z"/>
<path fill="#F1F7FB" opacity="1.000000" stroke="none" 
	d="
M38.612282,96.044037 
	C38.500408,96.899178 38.048405,97.814987 37.309143,98.875404 
	C37.438641,98.048248 37.855396,97.076477 38.612282,96.044037 
z"/>
<path fill="#DADEF5" opacity="1.000000" stroke="none" 
	d="
M92.194962,66.890945 
	C92.232597,66.188156 92.649162,65.474159 93.347748,64.612419 
	C93.277817,65.269707 92.925858,66.074730 92.194962,66.890945 
z"/>
<path fill="#DADEF5" opacity="1.000000" stroke="none" 
	d="
M94.207901,63.893723 
	C94.179848,63.181065 94.536423,62.430496 95.170837,61.521797 
	C95.163292,62.194378 94.877914,63.025093 94.207901,63.893723 
z"/>
<path fill="#CBDAEB" opacity="1.000000" stroke="none" 
	d="
M25.941216,112.356369 
	C25.700468,112.960449 25.134361,113.458656 24.261013,113.951965 
	C24.507799,113.381546 25.061827,112.816025 25.941216,112.356369 
z"/>
<path fill="#D6DAF3" opacity="1.000000" stroke="none" 
	d="
M71.859528,87.701797 
	C71.680992,87.817070 71.350388,87.722816 70.889862,87.394875 
	C71.075783,87.271545 71.391624,87.381905 71.859528,87.701797 
z"/>
<path fill="#C9CFEC" opacity="1.000000" stroke="none" 
	d="
M52.816864,35.075218 
	C52.810669,35.284492 52.373672,35.309929 52.195503,35.183090 
	C52.285904,34.992817 52.554482,34.929379 52.816864,35.075218 
z"/>
<path fill="#DADEF5" opacity="1.000000" stroke="none" 
	d="
M79.798813,42.375801 
	C79.716072,42.431053 79.594421,42.275848 79.539642,41.964458 
	C79.589035,41.821960 79.592499,41.835308 79.587402,41.818787 
	C79.582314,41.802265 79.742432,42.179028 79.798813,42.375801 
z"/>
<path fill="#DAD9F9" opacity="1.000000" stroke="none" 
	d="
M97.822838,110.918839 
	C97.659042,111.779152 97.495255,112.639465 96.867279,113.789917 
	C96.082764,114.483429 95.762428,114.886810 95.442093,115.290192 
	C95.956451,115.521797 96.470810,115.753410 96.985161,115.985031 
	C92.420494,116.481689 87.861870,117.155479 83.285583,117.311539 
	C82.462791,117.339600 81.567223,115.233818 80.353668,114.055130 
	C78.714195,112.833908 77.426315,111.670776 76.138435,110.507637 
	C75.825294,110.759735 75.512154,111.011826 75.199013,111.263916 
	C75.136932,109.961411 75.074852,108.658905 75.365631,107.067665 
	C77.138016,107.038010 78.557526,107.297081 79.990356,107.670135 
	C80.003662,107.784103 80.191109,107.916512 80.255020,108.283783 
	C82.067047,109.383675 83.774940,110.601616 85.571426,110.750473 
	C89.632004,111.086952 93.736313,110.895531 97.822838,110.918839 
z"/>
<path fill="#B0B5CF" opacity="1.000000" stroke="none" 
	d="
M34.022560,120.001068 
	C39.385151,119.644325 44.747742,119.287590 50.567513,118.879395 
	C52.358608,118.995201 53.692520,119.162476 55.026436,119.329750 
	C55.007549,119.468010 55.032005,119.639137 54.958542,119.736000 
	C54.871456,119.850822 54.699997,119.901642 53.882744,120.012711 
	C52.130219,120.083977 51.060051,120.122742 49.989883,120.161514 
	C45.283298,120.779610 40.576710,121.397697 35.322956,121.741211 
	C34.524712,120.978111 34.273636,120.489594 34.022560,120.001068 
z"/>
<path fill="#6A72B1" opacity="1.000000" stroke="none" 
	d="
M79.977043,107.556160 
	C78.557526,107.297081 77.138016,107.038010 75.372444,106.647141 
	C74.560349,105.462990 74.094315,104.410622 73.440475,102.891953 
	C73.252663,102.425636 73.234230,101.980263 73.581734,101.993118 
	C75.284279,102.345421 76.639320,102.684860 78.205124,103.134361 
	C78.681725,103.438095 78.864059,103.691788 78.960022,104.331062 
	C79.297119,105.623131 79.637077,106.589645 79.977043,107.556160 
z"/>
<path fill="#A0A5CF" opacity="1.000000" stroke="none" 
	d="
M33.839417,119.957375 
	C34.273636,120.489594 34.524712,120.978111 34.882702,121.720154 
	C31.918993,122.961906 28.848368,123.950142 25.383722,124.963913 
	C24.989702,124.989456 24.957479,124.957146 25.027365,124.597794 
	C27.824957,122.789307 30.552664,121.340172 33.280373,119.891037 
	C33.280373,119.891037 33.656265,119.913681 33.839417,119.957375 
z"/>
<path fill="#CBDAEB" opacity="1.000000" stroke="none" 
	d="
M73.234230,101.980263 
	C73.234230,101.980263 73.252663,102.425636 73.256607,102.647873 
	C70.638069,102.932030 67.787605,103.452484 67.008789,99.389816 
	C66.991112,99.009026 67.001274,98.998848 67.386017,99.003448 
	C68.785667,99.016602 69.800591,99.025162 71.134804,99.132072 
	C72.047478,100.147041 72.640854,101.063652 73.234230,101.980263 
z"/>
<path fill="#CBDAEB" opacity="1.000000" stroke="none" 
	d="
M50.067444,120.485847 
	C51.060051,120.122742 52.130219,120.083977 53.601089,120.076355 
	C52.716194,120.341721 51.430595,120.575958 50.067444,120.485847 
z"/>
<path fill="#535BB8" opacity="1.000000" stroke="none" 
	d="
M79.990356,107.670135 
	C79.637077,106.589645 79.297119,105.623131 79.333130,104.323944 
	C81.019104,103.147408 83.122833,102.507599 83.407539,101.400139 
	C83.672424,100.369820 82.086205,98.775375 81.155502,97.550415 
	C80.202614,96.296249 79.056122,95.189163 78.011688,94.000633 
	C78.029007,93.983566 78.072037,93.960541 78.072037,93.960541 
	C83.284836,95.126755 88.690323,94.897346 93.560051,98.292229 
	C95.852097,99.890106 99.987267,98.911606 103.289619,98.973228 
	C106.404083,99.031357 107.890152,100.281677 107.131409,103.905914 
	C107.195473,104.283813 107.034340,104.710724 106.727859,104.946716 
	C106.227531,105.315842 106.085335,105.490952 105.994804,105.708046 
	C105.994804,105.708046 105.921654,105.885239 105.479034,105.925415 
	C103.021042,106.638550 101.005676,107.311516 99.034256,107.627670 
	C100.648354,105.880676 102.218506,104.490501 104.203896,102.732674 
	C102.344528,102.193993 101.144600,101.682327 99.897957,101.511383 
	C90.721924,100.253113 90.564728,100.362137 89.566696,107.352219 
	C90.709732,107.898567 91.851448,108.447624 92.724686,109.274605 
	C88.367844,109.007187 84.279472,108.461845 80.191109,107.916504 
	C80.191109,107.916512 80.003662,107.784103 79.990356,107.670135 
z"/>
<path fill="#6A72B1" opacity="1.000000" stroke="none" 
	d="
M98.990311,107.984474 
	C101.005676,107.311516 103.021042,106.638550 105.386002,105.948517 
	C103.286011,107.439789 100.836433,108.948128 98.104843,110.687653 
	C93.736313,110.895531 89.632004,111.086952 85.571426,110.750473 
	C83.774940,110.601616 82.067047,109.383675 80.255020,108.283783 
	C84.279472,108.461845 88.367844,109.007187 93.060753,109.273697 
	C94.113098,108.989265 94.560890,108.983658 95.373970,108.988472 
	C96.822479,108.662804 97.905708,108.326714 98.993782,107.994690 
	C98.998619,107.998756 98.990311,107.984474 98.990311,107.984474 
z"/>
<path fill="#D1D1F0" opacity="1.000000" stroke="none" 
	d="
M96.989731,115.655334 
	C96.470810,115.753410 95.956451,115.521797 95.442093,115.290192 
	C95.762428,114.886810 96.082764,114.483429 96.700638,114.043289 
	C96.996872,114.446228 96.995583,114.885933 96.989731,115.655334 
z"/>
<path fill="#6A72B1" opacity="1.000000" stroke="none" 
	d="
M106.188568,105.700333 
	C106.085335,105.490952 106.227531,105.315842 106.577171,105.118027 
	C106.764931,105.348175 106.648056,105.561272 106.188568,105.700333 
z"/>
<path fill="#8E97D8" opacity="1.000000" stroke="none" 
	d="
M28.037487,59.008526 
	C27.743324,58.475544 27.449160,57.942558 27.084606,57.111881 
	C28.654060,55.103802 30.293905,53.393414 31.966753,51.341499 
	C31.999756,50.999966 32.028996,51.039471 32.028996,51.039471 
	C34.801937,48.427322 37.574875,45.815174 40.853363,43.324020 
	C44.625668,42.205406 49.669430,43.688320 49.933525,37.848347 
	C51.035408,37.553879 52.137295,37.259411 53.594582,36.974648 
	C53.640175,39.061752 53.330368,41.139160 52.618713,43.648655 
	C49.682381,46.588146 44.572464,45.952961 43.599190,50.859322 
	C41.610291,51.782742 40.002708,52.677502 38.395126,53.572262 
	C39.246288,54.771145 40.097446,55.970028 40.822075,57.438683 
	C40.466537,58.462296 40.237541,59.216133 39.790169,60.011063 
	C39.571800,60.052147 39.127468,60.060226 38.744820,60.032959 
	C36.883511,59.238747 30.997408,58.608768 29.035786,58.986942 
	C28.713606,59.049057 28.370775,59.004036 28.037487,59.008526 
z"/>
<path fill="#4B54C8" opacity="1.000000" stroke="none" 
	d="
M32.019516,51.014435 
	C28.931286,51.423546 26.077541,50.055878 26.429010,47.103775 
	C26.783455,44.126698 25.494923,39.817318 31.217794,36.966877 
	C31.530943,42.214153 31.769382,46.209557 32.018410,50.622215 
	C32.028996,51.039471 31.999756,50.999966 32.019516,51.014435 
z"/>
<path fill="#8692E0" opacity="1.000000" stroke="none" 
	d="
M49.553535,37.874603 
	C49.669430,43.688320 44.625668,42.205406 41.142097,43.154781 
	C43.674713,41.209980 46.424129,39.555420 49.553535,37.874603 
z"/>
<path fill="#C9CFEC" opacity="1.000000" stroke="none" 
	d="
M26.369587,32.987160 
	C26.611568,29.495697 28.977709,29.800083 31.750809,30.720112 
	C30.241272,31.646730 28.487898,32.310802 26.369587,32.987160 
z"/>
<path fill="#8E95DF" opacity="1.000000" stroke="none" 
	d="
M79.034660,71.504906 
	C78.835373,72.094643 78.589706,72.337975 77.807304,72.797256 
	C74.514420,73.680016 71.758263,74.346825 69.002113,75.013634 
	C69.002113,75.013634 68.999931,75.002388 68.992889,75.000732 
	C69.517365,72.637085 69.446678,69.863510 70.716248,68.005943 
	C72.816734,64.932625 73.104424,62.758011 70.630478,59.684254 
	C67.442986,55.723942 64.919266,51.229393 61.934765,46.699471 
	C64.266983,45.688477 66.205353,44.848213 68.569000,44.338181 
	C69.618355,45.791058 70.242424,46.913700 70.908623,48.428223 
	C73.248199,54.913460 75.545631,61.006813 77.843071,67.100166 
	C78.224808,68.452942 78.606544,69.805725 79.034660,71.504906 
z"/>
<path fill="#D0D4F3" opacity="1.000000" stroke="none" 
	d="
M57.250305,62.554977 
	C56.428070,62.924526 55.617027,62.960720 54.402992,62.998459 
	C54.000000,63.000000 53.998940,62.999847 54.000637,62.612389 
	C54.334202,60.483265 54.666069,58.741600 55.229347,57.002556 
	C55.460762,57.005177 55.923328,57.021542 55.923328,57.021542 
	C57.522190,57.909794 59.121048,58.798050 60.909271,59.791504 
	C59.448818,60.764446 58.355160,61.493034 57.250305,62.554977 
z"/>
<path fill="#6269B4" opacity="1.000000" stroke="none" 
	d="
M70.866486,48.036343 
	C70.242424,46.913700 69.618355,45.791058 68.939445,44.330738 
	C68.909210,43.828121 68.933823,43.663181 68.995224,43.250866 
	C71.530838,43.489384 74.029648,43.975277 76.546463,44.989471 
	C74.665138,46.357292 72.765808,47.196815 70.866486,48.036343 
z"/>
<path fill="#D3D5F1" opacity="1.000000" stroke="none" 
	d="
M55.945980,56.621162 
	C55.923328,57.021542 55.460762,57.005177 54.968735,56.795364 
	C54.325527,55.723061 54.174347,54.860565 54.023167,53.998077 
	C54.492825,53.743576 54.962482,53.489075 55.675751,53.128410 
	C55.935787,54.088428 55.952209,55.154610 55.945980,56.621162 
z"/>
<path fill="#9197D9" opacity="1.000000" stroke="none" 
	d="
M33.214218,119.477142 
	C30.552664,121.340172 27.824957,122.789307 25.011269,124.581581 
	C24.258940,125.357452 23.630236,125.869278 22.919008,126.207657 
	C20.988214,127.126282 19.066450,128.441040 17.050341,128.629929 
	C16.160574,128.713272 14.505022,126.589806 14.162194,125.225677 
	C13.561865,122.836952 13.574010,120.241188 16.863857,119.319267 
	C17.323454,119.190483 17.563507,118.278275 17.949989,117.356499 
	C19.079424,116.636841 20.164055,116.289383 21.591736,115.903053 
	C24.175526,115.684853 26.433741,115.619797 28.650045,115.280746 
	C29.861200,115.095467 31.001429,114.446556 32.559303,114.006111 
	C33.012665,115.691414 33.080364,117.377335 33.214218,119.477142 
z"/>
<path fill="#6FC7A8" opacity="1.000000" stroke="none" 
	d="
M63.182083,97.251625 
	C63.182079,97.251625 63.144485,97.640312 62.740646,97.857597 
	C61.611015,99.125130 60.885223,100.175377 60.159431,101.225616 
	C60.159431,101.225616 60.127293,101.623901 59.747250,101.854782 
	C58.954834,102.760933 58.542458,103.436203 58.130081,104.111465 
	C58.130081,104.111465 57.999523,104.037537 57.698952,104.072990 
	C55.925003,104.088531 54.451633,104.068619 53.171516,103.785431 
	C53.959835,102.579056 55.168526,101.537476 55.035915,100.711151 
	C54.623901,98.143883 53.702816,95.658318 53.387878,93.082169 
	C56.163151,92.638023 58.529774,92.252754 61.344086,91.909096 
	C63.313667,92.002739 64.835564,92.054771 66.357452,92.106804 
	C66.010811,92.886154 65.664162,93.665512 64.823746,94.768890 
	C63.947346,95.812492 63.564713,96.532059 63.182083,97.251625 
z"/>
<path fill="#6EC6AA" opacity="1.000000" stroke="none" 
	d="
M40.167282,109.462509 
	C40.839500,107.315887 41.423046,105.554153 42.314713,103.388565 
	C43.017712,102.982834 43.412594,102.980965 43.856876,103.353065 
	C44.584732,105.220345 45.263180,106.713646 46.022392,108.536980 
	C47.115841,109.976074 48.128529,111.085144 49.141216,112.194214 
	C49.017735,112.486214 48.824997,112.721474 48.015068,112.965775 
	C46.612343,113.031548 45.757565,113.031548 44.496735,113.031548 
	C45.299393,114.072739 45.683727,114.571289 46.068062,115.069839 
	C45.578659,115.373337 45.089260,115.676826 44.107674,115.736298 
	C42.406219,114.662048 41.196949,113.831833 39.987675,113.001602 
	C40.017986,111.950195 40.048298,110.898796 40.167282,109.462509 
z"/>
<path fill="#8ACDB6" opacity="1.000000" stroke="none" 
	d="
M49.479053,112.116776 
	C48.128529,111.085144 47.115841,109.976074 46.388905,108.474686 
	C48.115105,106.726997 49.555553,105.371628 51.326599,104.018234 
	C52.097553,104.029709 52.537907,104.039207 52.978260,104.048706 
	C54.451633,104.068619 55.925003,104.088531 57.757786,104.119965 
	C55.350426,106.767433 52.583656,109.403389 49.479053,112.116776 
z"/>
<path fill="#8BC1BF" opacity="1.000000" stroke="none" 
	d="
M66.671936,92.105583 
	C64.835564,92.054771 63.313667,92.002739 61.526009,91.632881 
	C63.528572,89.779541 65.796906,88.244026 68.065231,86.708511 
	C68.244171,86.758514 68.423111,86.808533 68.845917,86.995102 
	C69.042480,88.517311 68.995163,89.902985 68.919617,91.709740 
	C68.256401,92.122009 67.621407,92.113190 66.671936,92.105583 
z"/>
<path fill="#4954B0" opacity="1.000000" stroke="none" 
	d="
M70.574097,94.699341 
	C72.767769,92.416481 74.979179,90.481834 77.985718,93.598480 
	C78.072037,93.960541 78.029007,93.983566 77.616760,93.995819 
	C75.809982,94.672943 74.415443,95.337814 72.837975,96.254860 
	C72.069992,96.693100 71.484932,96.879158 70.744698,97.078636 
	C70.589523,97.092056 70.278908,97.115509 70.278908,97.115509 
	C70.383453,96.427742 70.487999,95.739983 70.574097,94.699341 
z"/>
<path fill="#8EC8BB" opacity="1.000000" stroke="none" 
	d="
M39.731430,113.222214 
	C41.196949,113.831833 42.406219,114.662048 43.807327,115.751839 
	C41.041267,117.708878 39.196819,117.445274 39.731430,113.222214 
z"/>
<path fill="#DADBF3" opacity="1.000000" stroke="none" 
	d="
M70.815506,99.033714 
	C69.800591,99.025162 68.785667,99.016602 67.390518,98.999268 
	C67.891808,98.342415 68.773323,97.694336 69.966873,97.080887 
	C70.278908,97.115509 70.589523,97.092056 70.685379,97.402832 
	C70.792664,98.153641 70.804085,98.593681 70.815506,99.033714 
z"/>
<path fill="#8ACDB6" opacity="1.000000" stroke="none" 
	d="
M60.481934,101.133652 
	C60.885223,100.175377 61.611015,99.125130 62.691200,98.046486 
	C62.298538,99.025955 61.551487,100.033821 60.481934,101.133652 
z"/>
<path fill="#8ACDB6" opacity="1.000000" stroke="none" 
	d="
M46.377552,115.011856 
	C45.683727,114.571289 45.299393,114.072739 44.496735,113.031548 
	C45.757565,113.031548 46.612343,113.031548 47.807041,113.065186 
	C47.660320,113.717163 47.173679,114.335518 46.377552,115.011856 
z"/>
<path fill="#8ACDB6" opacity="1.000000" stroke="none" 
	d="
M63.482937,97.146149 
	C63.564713,96.532059 63.947346,95.812492 64.668098,95.049896 
	C64.598740,95.684799 64.191269,96.362732 63.482937,97.146149 
z"/>
<path fill="#8ACDB6" opacity="1.000000" stroke="none" 
	d="
M58.437500,104.044777 
	C58.542458,103.436203 58.954834,102.760933 59.698517,102.048538 
	C59.601528,102.666969 59.173225,103.322533 58.437500,104.044777 
z"/>
<path fill="#D0D3F6" opacity="1.000000" stroke="none" 
	d="
M39.127472,60.060226 
	C39.127468,60.060226 39.571800,60.052147 39.766251,60.085335 
	C39.960701,60.118526 39.943222,60.273109 39.972481,60.595840 
	C40.666714,61.606937 41.331692,62.295300 42.433823,62.990219 
	C44.910858,63.004032 46.950745,63.011288 49.032230,63.315651 
	C49.483276,63.928154 49.892723,64.243546 50.302170,64.558937 
	C50.536682,64.042114 50.771191,63.525295 51.338123,63.006401 
	C52.113781,63.003239 52.557014,63.002151 53.249924,63.001369 
	C53.499596,63.001671 53.998940,62.999847 53.998940,62.999847 
	C53.998940,62.999847 54.000000,63.000000 54.000076,63.000526 
	C53.699841,64.967293 53.399529,66.933533 52.463730,68.934311 
	C48.783691,67.593956 45.290668,64.783966 42.658001,68.283936 
	C41.601521,69.688454 43.527428,73.336327 44.035809,76.348938 
	C43.286865,81.058243 39.919758,79.914131 37.185059,80.061081 
	C37.176598,78.647621 37.162708,77.234161 37.160812,75.820694 
	C37.156982,72.968109 37.159672,70.115517 37.159672,67.155807 
	C33.989605,68.383545 31.910397,69.188805 29.424343,69.991150 
	C28.701841,68.877762 28.386190,67.767273 28.424389,66.318298 
	C32.227985,64.006615 35.677727,62.033424 39.127472,60.060226 
z"/>
<path fill="#5560B1" opacity="1.000000" stroke="none" 
	d="
M44.095886,75.963127 
	C43.527428,73.336327 41.601521,69.688454 42.658001,68.283936 
	C45.290668,64.783966 48.783691,67.593956 52.148857,69.101089 
	C52.469463,69.233330 52.610542,69.644608 52.688507,70.166901 
	C50.886650,72.838753 49.006832,74.988312 46.799061,77.092537 
	C45.679367,76.685844 44.887627,76.324486 44.095886,75.963127 
z"/>
<path fill="#DFD6F3" opacity="1.000000" stroke="none" 
	d="
M49.998402,90.989700 
	C46.951736,91.224922 45.787994,89.663200 45.989914,86.403717 
	C46.005772,85.790939 46.025997,85.568451 46.435375,85.098068 
	C48.197929,84.517349 49.571331,84.184525 50.944736,83.851707 
	C53.507767,83.892403 56.082726,83.801743 58.628460,84.032898 
	C59.785637,84.137970 60.884975,84.880081 61.943230,86.070457 
	C59.934109,87.221176 57.992313,87.634659 55.725407,88.054123 
	C53.932377,88.707451 52.464458,89.354790 50.780823,90.111504 
	C50.296066,90.418076 50.107162,90.674347 49.998402,90.989700 
z"/>
<path fill="#9795C4" opacity="1.000000" stroke="none" 
	d="
M50.999302,83.515869 
	C49.571331,84.184525 48.197929,84.517349 46.471283,84.764893 
	C44.861584,84.370049 43.523090,84.239433 42.367550,83.709724 
	C40.555370,82.879021 38.866692,81.778900 37.155380,80.426979 
	C39.919758,79.914131 43.286865,81.058243 44.035812,76.348938 
	C44.887627,76.324486 45.679367,76.685844 46.768257,77.472610 
	C47.158768,79.134880 47.252132,80.371750 47.354767,81.731400 
	C49.233334,81.040138 50.702850,80.499390 52.172367,79.958649 
	C51.799534,81.032440 51.426701,82.106239 50.999302,83.515869 
z"/>
<path fill="#B9E5E3" opacity="1.000000" stroke="none" 
	d="
M49.910667,91.223541 
	C50.107162,90.674347 50.296066,90.418076 51.176277,90.114761 
	C53.208469,89.355141 54.629490,88.701645 56.050514,88.048141 
	C57.992313,87.634659 59.934109,87.221176 61.964111,86.438507 
	C63.989697,86.072037 65.927086,86.074753 67.964851,86.392990 
	C65.796906,88.244026 63.528572,89.779541 61.078323,91.591270 
	C58.529774,92.252754 56.163151,92.638023 52.994591,93.037659 
	C51.139717,93.087723 50.086781,93.123421 49.033844,93.159119 
	C49.033844,93.159119 49.043571,92.941078 49.050167,92.829796 
	C49.312153,92.298134 49.567543,91.877754 49.910667,91.223541 
z"/>
<path fill="#D0D3F6" opacity="1.000000" stroke="none" 
	d="
M52.512146,79.924454 
	C50.702850,80.499390 49.233334,81.040138 47.354767,81.731400 
	C47.252132,80.371750 47.158768,79.134880 47.096207,77.517944 
	C49.006832,74.988312 50.886650,72.838753 52.811935,70.345871 
	C56.524475,72.865692 56.522400,76.612656 52.512146,79.924454 
z"/>
<path fill="#4C57C1" opacity="1.000000" stroke="none" 
	d="
M70.908623,48.428223 
	C72.765808,47.196815 74.665138,46.357292 76.771194,45.251869 
	C77.435715,44.987312 77.893494,44.988655 78.694916,44.976715 
	C82.386391,46.541386 85.835121,47.939190 89.056305,49.743267 
	C93.010971,51.958138 94.087265,56.978474 91.710930,60.863190 
	C91.112068,61.842190 90.305519,62.708817 89.803444,63.729874 
	C87.267448,68.887291 83.505890,69.818199 78.230835,67.106171 
	C75.545631,61.006813 73.248199,54.913460 70.908623,48.428223 
z"/>
<path fill="#D6DAF3" opacity="1.000000" stroke="none" 
	d="
M54.000637,62.612389 
	C53.998940,62.999847 53.499596,63.001671 53.112877,62.687557 
	C51.674389,58.214333 48.607483,59.750767 45.971161,59.678375 
	C45.576942,58.884438 45.209999,58.405243 44.967293,57.713799 
	C45.308296,57.241932 45.579254,57.065556 46.255508,56.933273 
	C47.071331,55.937271 47.536037,54.980431 48.264977,53.889923 
	C49.294193,53.146698 50.059174,52.537136 50.824154,51.927574 
	C51.785179,52.418709 52.746201,52.909843 53.865196,53.699524 
	C54.174347,54.860565 54.325527,55.723061 54.737320,56.792747 
	C54.666069,58.741600 54.334202,60.483265 54.000637,62.612389 
z"/>
<path fill="#999FCE" opacity="1.000000" stroke="none" 
	d="
M50.864883,51.546379 
	C50.059174,52.537136 49.294193,53.146698 47.977989,53.727005 
	C46.278015,52.742058 45.129261,51.786362 43.980511,50.830662 
	C44.572464,45.952961 49.682381,46.588146 52.563873,44.039078 
	C52.242458,46.386669 51.574036,48.775928 50.864883,51.546379 
z"/>
<path fill="#969DD1" opacity="1.000000" stroke="none" 
	d="
M38.744820,60.032959 
	C35.677727,62.033424 32.227985,64.006615 28.411467,65.969307 
	C28.001871,63.929855 27.959049,61.900906 27.976856,59.440243 
	C28.370775,59.004036 28.713606,59.049057 29.035786,58.986942 
	C30.997408,58.608768 36.883511,59.238747 38.744820,60.032959 
z"/>
<path fill="#63CEA4" opacity="1.000000" stroke="none" 
	d="
M49.036476,93.384155 
	C50.086781,93.123421 51.139717,93.087723 52.585945,93.096542 
	C53.702816,95.658318 54.623901,98.143883 55.035915,100.711151 
	C55.168526,101.537476 53.959835,102.579056 53.171516,103.785431 
	C52.537907,104.039207 52.097553,104.029709 51.119549,103.725739 
	C48.323757,103.280540 46.065613,103.129814 43.807472,102.979095 
	C43.412594,102.980965 43.017712,102.982834 42.327316,102.983063 
	C42.011116,101.352386 42.118179,99.709457 41.942814,98.097244 
	C41.591705,94.869316 42.917263,93.525070 46.595192,94.329742 
	C47.394199,94.947319 47.718403,95.258095 48.042603,95.568871 
	C48.369286,95.065575 48.695969,94.562279 49.022652,94.058983 
	C49.022652,94.058983 49.039104,93.609192 49.036476,93.384155 
z"/>
<path fill="#6FC7A8" opacity="1.000000" stroke="none" 
	d="
M48.681957,94.040382 
	C48.695969,94.562279 48.369286,95.065575 48.042603,95.568871 
	C47.718403,95.258095 47.394199,94.947319 47.023582,94.345787 
	C47.431870,94.043945 47.886570,94.032867 48.681957,94.040382 
z"/>
<path fill="#969BD4" opacity="1.000000" stroke="none" 
	d="
M69.070877,75.378357 
	C71.758263,74.346825 74.514420,73.680016 77.663147,73.011528 
	C77.621338,73.920242 77.186958,74.830643 76.498825,75.915710 
	C73.876602,75.974625 71.508125,75.858856 69.070877,75.378357 
z"/>
<path fill="#4B58C6" opacity="1.000000" stroke="none" 
	d="
M73.020905,96.002678 
	C74.415443,95.337814 75.809982,94.672943 77.599449,94.012894 
	C79.056122,95.189163 80.202614,96.296249 81.155502,97.550415 
	C82.086205,98.775375 83.672424,100.369820 83.407539,101.400139 
	C83.122833,102.507599 81.019104,103.147408 79.335983,103.998390 
	C78.864059,103.691788 78.681725,103.438095 78.171097,102.787628 
	C76.291176,100.221443 74.656044,98.112061 73.020905,96.002678 
z"/>
<path fill="#535BB8" opacity="1.000000" stroke="none" 
	d="
M72.837975,96.254860 
	C74.656044,98.112061 76.291176,100.221443 77.960342,102.677567 
	C76.639320,102.684860 75.284279,102.345421 73.581734,101.993118 
	C72.640854,101.063652 72.047478,100.147041 71.134804,99.132072 
	C70.804085,98.593681 70.792664,98.153641 70.840561,97.389412 
	C71.484932,96.879158 72.069992,96.693100 72.837975,96.254860 
z"/>
<path fill="#4C54C8" opacity="1.000000" stroke="none" 
	d="
M95.008690,108.978058 
	C94.560890,108.983658 94.113098,108.989265 93.329231,108.995773 
	C91.851448,108.447624 90.709732,107.898567 89.566696,107.352219 
	C90.564728,100.362137 90.721924,100.253113 99.897957,101.511383 
	C101.144600,101.682327 102.344528,102.193993 104.203896,102.732674 
	C102.218506,104.490501 100.648354,105.880676 99.034256,107.627670 
	C98.990311,107.984474 98.998619,107.998756 98.630280,107.996323 
	C97.177528,108.321945 96.093109,108.650002 95.008690,108.978058 
z"/>
<path fill="#535BB8" opacity="1.000000" stroke="none" 
	d="
M95.373970,108.988480 
	C96.093109,108.650002 97.177528,108.321945 98.625443,107.992264 
	C97.905708,108.326714 96.822479,108.662804 95.373970,108.988480 
z"/>
<path fill="#D3D5F1" opacity="1.000000" stroke="none" 
	d="
M43.599190,50.859322 
	C45.129261,51.786362 46.278015,52.742058 47.713753,53.860672 
	C47.536037,54.980431 47.071331,55.937271 46.071930,56.647972 
	C44.007694,56.657528 42.478153,56.913219 40.948608,57.168911 
	C40.097446,55.970028 39.246288,54.771145 38.395126,53.572262 
	C40.002708,52.677502 41.610291,51.782742 43.599190,50.859322 
z"/>
<path fill="#969DD1" opacity="1.000000" stroke="none" 
	d="
M40.822075,57.438683 
	C42.478153,56.913219 44.007694,56.657528 45.720818,56.687134 
	C45.579254,57.065556 45.308296,57.241932 44.721542,57.835480 
	C42.882118,58.870640 41.412670,59.571873 39.943222,60.273109 
	C39.943222,60.273109 39.960701,60.118526 39.984619,60.044250 
	C40.237541,59.216133 40.466537,58.462296 40.822075,57.438683 
z"/>
<path fill="#BDF6E1" opacity="1.000000" stroke="none" 
	d="
M43.856876,103.353058 
	C46.065613,103.129814 48.323757,103.280540 50.788948,103.723763 
	C49.555553,105.371628 48.115105,106.726997 46.308144,108.144661 
	C45.263180,106.713646 44.584732,105.220345 43.856876,103.353058 
z"/>
<path fill="#DADAE6" opacity="1.000000" stroke="none" 
	d="
M45.998440,59.993114 
	C48.607483,59.750767 51.674389,58.214333 52.863205,62.687256 
	C52.557014,63.002151 52.113781,63.003239 51.002251,63.004158 
	C49.886181,63.008842 49.438408,63.013691 48.990631,63.018539 
	C46.950745,63.011288 44.910858,63.004032 42.483887,62.654911 
	C43.397350,61.539734 44.697895,60.766422 45.998440,59.993114 
z"/>
<path fill="#D3D5F1" opacity="1.000000" stroke="none" 
	d="
M45.971161,59.678375 
	C44.697895,60.766422 43.397350,61.539734 42.046738,62.648354 
	C41.331692,62.295300 40.666714,61.606937 39.972481,60.595840 
	C41.412670,59.571873 42.882118,58.870640 44.597313,58.047726 
	C45.209999,58.405243 45.576942,58.884438 45.971161,59.678375 
z"/>
<path fill="#D6DAF3" opacity="1.000000" stroke="none" 
	d="
M49.032230,63.315651 
	C49.438408,63.013691 49.886181,63.008842 50.669830,63.006233 
	C50.771191,63.525295 50.536682,64.042114 50.302170,64.558937 
	C49.892723,64.243546 49.483276,63.928154 49.032230,63.315651 
z"/>
<path fill="#D5E4ED" opacity="1.000000" stroke="none" 
	d="
M55.725407,88.054123 
	C54.629490,88.701645 53.208469,89.355141 51.391991,90.005386 
	C52.464458,89.354790 53.932377,88.707451 55.725407,88.054123 
z"/>
</svg>