<svg version="1.1" id="Layer_1" xmlns="http://www.w3.org/2000/svg" xmlns:xlink="http://www.w3.org/1999/xlink" x="0px" y="0px"
	 width="100%" viewBox="0 0 128 179" enable-background="new 0 0 128 179" xml:space="preserve">
<path fill="#FEFEFE" opacity="1.000000" stroke="none" 
	d="
M129.000000,60.000000 
	C129.000000,100.333328 129.000000,140.166656 129.000000,180.000000 
	C86.333351,180.000000 43.666695,180.000000 1.000033,180.000000 
	C1.000022,120.333359 1.000022,60.666718 1.000011,1.000057 
	C43.666630,1.000038 86.333260,1.000038 128.999939,1.000019 
	C129.000000,20.500000 129.000000,40.000000 129.000000,60.000000 
M21.048042,33.052261 
	C21.048042,33.052261 21.098816,33.132851 20.456951,33.119362 
	C19.946812,33.722858 19.436672,34.326359 18.537985,35.208221 
	C18.294209,35.415829 18.076895,35.648190 17.407011,36.074417 
	C17.282671,36.373268 17.158329,36.672123 16.994230,36.992733 
	C16.994230,36.992733 16.981155,37.036129 16.332067,37.092075 
	C15.983973,37.788132 15.635878,38.484188 15.034867,39.827019 
	C14.884150,41.154510 14.733432,42.481998 14.407709,44.269272 
	C14.485494,44.636421 14.709424,44.851673 15.184349,45.437206 
	C15.233624,45.787598 15.282900,46.137985 14.990493,47.177341 
	C14.407198,50.871201 18.172319,56.464706 23.488781,59.272099 
	C23.984180,59.867172 24.479582,60.462246 24.954885,61.817890 
	C24.277332,63.990841 23.599779,66.163795 23.070969,67.859718 
	C28.663553,68.311523 33.231953,68.680595 37.978626,69.457306 
	C37.978626,69.457306 38.060604,69.894608 38.079597,70.681435 
	C38.412907,72.474800 38.746220,74.268166 38.828922,76.485977 
	C38.611649,76.749939 38.336555,76.920830 37.941425,76.419189 
	C37.008926,77.399422 36.076427,78.379654 34.984081,79.701584 
	C34.848354,79.922440 34.664635,80.090950 33.628201,80.071327 
	C33.090557,80.051956 32.552917,80.032593 31.291195,79.694557 
	C29.748697,79.472946 28.206200,79.251328 26.337643,78.982872 
	C26.101868,82.186951 25.911465,84.774445 25.813646,86.103752 
	C23.949825,87.606262 22.899506,88.452972 21.122505,89.056938 
	C18.934904,89.060867 16.747303,89.064804 14.317196,88.206299 
	C14.257315,87.717712 14.115034,87.222885 14.151473,86.741592 
	C14.332550,84.349899 14.560710,81.961784 14.772288,79.572403 
	C13.025798,81.371376 11.070143,83.018677 9.613270,85.027672 
	C8.773679,86.185455 7.960578,88.657852 8.513634,89.248787 
	C9.529343,90.334076 11.563704,90.466034 13.303589,91.452637 
	C13.395457,91.759254 13.420447,92.071220 13.214535,93.153534 
	C13.027746,95.296646 12.840959,97.439751 12.654170,99.582863 
	C12.933621,99.506882 13.213073,99.430893 13.492524,99.354912 
	C14.225199,103.021500 14.957873,106.688087 15.715482,110.479454 
	C17.033321,110.334442 18.460817,110.177368 19.851828,110.742485 
	C19.884022,112.494781 19.916216,114.247086 19.978781,116.813171 
	C19.967579,120.253075 19.956375,123.692986 19.940615,127.869522 
	C19.999773,128.604675 20.058933,129.339813 19.594660,130.390625 
	C19.766527,131.237198 19.938395,132.083786 20.045607,133.794312 
	C20.411894,137.165405 20.277962,140.700317 21.310560,143.853180 
	C22.069258,146.169754 24.355654,147.985977 26.131968,150.750717 
	C28.361902,152.648300 30.414104,153.032867 32.846001,150.066284 
	C33.885639,151.070526 35.753662,152.023849 35.819073,153.087982 
	C36.078617,157.310272 39.130196,159.019897 42.289619,161.458496 
	C42.864815,161.321869 43.440010,161.185257 44.912472,161.042374 
	C47.605007,161.042297 50.297543,161.042236 53.396397,161.510712 
	C56.149014,160.684509 58.969738,159.903381 56.753578,155.312714 
	C56.492516,153.878128 56.231453,152.443527 55.915726,150.277222 
	C55.370934,148.380493 54.826141,146.483780 54.223934,144.387146 
	C56.207829,144.614166 57.611286,144.774780 59.899044,144.970612 
	C62.259922,144.954224 64.620804,144.937851 67.688690,144.955978 
	C68.470253,144.312256 69.251823,143.668533 70.660652,142.747498 
	C71.757927,142.509247 72.855194,142.270996 73.965385,142.816544 
	C73.664909,144.882431 73.364433,146.948318 73.033562,149.676193 
	C73.024193,150.117859 73.014824,150.559540 72.456146,151.461563 
	C72.313606,152.643753 72.171059,153.825928 72.015129,155.669281 
	C72.018837,156.110107 72.022545,156.550934 72.003616,157.738297 
	C71.932487,160.548126 72.816879,162.197357 76.671555,161.038742 
	C77.110771,161.037537 77.549980,161.036331 78.295975,161.466034 
	C78.865685,161.315506 79.435402,161.164963 80.772346,161.000549 
	C82.511078,160.654633 84.249817,160.308701 86.731575,159.977509 
	C90.053040,159.360474 92.025200,157.560486 91.994453,153.092728 
	C91.997856,150.395111 92.001251,147.697479 92.546516,144.530975 
	C92.667328,143.345032 92.788139,142.159103 92.946915,140.040543 
	C92.934143,133.693878 92.921364,127.347206 92.961487,120.206421 
	C92.946411,119.146187 92.931335,118.085953 92.967567,116.247635 
	C92.644699,114.831657 92.321831,113.415688 91.959229,111.409470 
	C91.658684,110.932777 91.358139,110.456085 91.052719,109.102936 
	C90.695969,106.404221 90.339211,103.705498 89.979660,100.302010 
	C89.337868,99.507545 88.696068,98.713081 88.041656,97.113411 
	C86.700264,93.896278 88.667130,88.846138 82.623703,87.631340 
	C82.463264,85.959061 82.403603,84.268776 82.109245,82.620407 
	C81.889214,81.388206 81.366425,80.210052 81.006248,78.353889 
	C81.011780,77.918381 81.017319,77.482880 81.706451,76.925636 
	C87.009827,72.112396 88.369667,65.717354 88.956367,58.244678 
	C89.005905,57.249588 89.055435,56.254498 89.589340,54.646362 
	C91.038475,51.414745 92.487610,48.183128 94.148392,44.616058 
	C94.148392,44.616058 94.303337,44.250935 94.804276,44.077442 
	C94.868584,43.384796 94.932892,42.692154 95.119370,41.424339 
	C95.191551,41.039059 95.263725,40.653774 95.966454,39.902485 
	C96.061394,38.510448 96.156334,37.118412 96.417549,34.999096 
	C96.267807,32.665012 96.118065,30.330931 96.456139,27.556677 
	C95.620285,25.389460 94.784431,23.222240 93.698036,20.425566 
	C90.475327,19.029589 87.217842,16.412285 84.037445,16.502823 
	C78.191597,16.669237 72.391113,18.429747 65.902344,19.249771 
	C65.229057,19.745419 64.555771,20.241068 63.961185,20.845060 
	C63.961185,20.845060 63.977478,20.977982 63.293655,20.856247 
	C62.831051,20.885220 62.368446,20.914190 61.279446,20.995085 
	C60.521568,21.344315 59.763695,21.693542 58.218853,22.032631 
	C56.432308,22.865866 54.645763,23.699099 52.161938,24.331217 
	C50.464993,24.934530 48.768051,25.537846 46.278183,26.089834 
	C45.775867,26.238571 45.273552,26.387308 43.991356,26.409792 
	C42.421734,26.486006 40.852116,26.562220 38.549942,26.291941 
	C36.938160,26.727249 35.326382,27.162558 33.141075,27.677057 
	C32.762444,27.751350 32.383812,27.825644 31.641253,27.502073 
	C30.758251,27.998592 29.875250,28.495110 28.257704,29.093576 
	C27.561409,29.331974 26.865114,29.570374 25.797800,29.564354 
	C25.422199,29.641951 25.288471,29.865044 24.789743,30.443615 
	C23.913540,31.061146 23.037338,31.678677 21.642065,32.258564 
	C21.472088,32.538040 21.302111,32.817520 21.048042,33.052261 
M28.593487,22.742990 
	C26.273062,21.953419 23.997221,20.890760 21.611479,20.501265 
	C20.577234,20.332411 18.486450,21.409950 18.357454,22.172155 
	C18.173763,23.257544 19.259895,25.553562 19.969006,25.622154 
	C23.057230,25.920881 26.675406,27.403408 28.593487,22.742990 
z"/>
<path fill="#DADAF2" opacity="1.000000" stroke="none" 
	d="
M25.961241,150.025192 
	C24.355654,147.985977 22.069258,146.169754 21.310560,143.853180 
	C20.277962,140.700317 20.411894,137.165405 20.273830,133.257874 
	C20.742355,132.525574 20.906063,132.278824 21.387211,131.985733 
	C29.476662,130.873199 31.114626,129.098816 32.216831,121.023117 
	C32.367104,119.922089 33.261738,118.942032 33.555069,117.837784 
	C34.756634,113.314461 35.859791,108.764992 36.996948,104.224594 
	C37.383869,102.679688 37.266445,100.297615 38.229084,99.724083 
	C44.109638,96.220520 42.203903,92.756027 36.707691,87.913353 
	C38.795368,86.759644 40.396004,85.875092 42.306843,85.146545 
	C44.454937,86.517502 46.292824,87.732445 48.403008,89.100952 
	C49.199825,90.134033 49.724342,91.013535 49.869957,91.951904 
	C47.609539,93.044281 45.728027,94.077797 43.846516,95.111320 
	C43.930637,95.586227 44.014759,96.061142 44.098881,96.536049 
	C47.399437,97.024849 50.699997,97.513641 54.356392,98.036972 
	C55.865852,98.349442 57.019478,98.627373 58.460068,98.964401 
	C59.219543,99.588326 59.692062,100.153152 60.112186,101.146454 
	C59.631405,105.356644 61.084652,107.744308 64.836555,109.037651 
	C67.675941,110.016441 70.289070,111.651604 72.963409,113.359459 
	C73.168961,115.248016 72.868851,117.435974 73.762505,118.169434 
	C76.314278,120.263771 79.323959,120.992416 82.377510,118.005234 
	C86.096809,119.146400 88.468552,123.586189 92.908585,121.000542 
	C92.921364,127.347206 92.934143,133.693878 92.563736,140.525513 
	C91.483398,141.562668 90.786224,142.114853 90.089050,142.667038 
	C90.727585,143.444641 91.366119,144.222260 92.004654,144.999863 
	C92.001251,147.697479 91.997856,150.395111 91.621193,153.549286 
	C89.494804,155.991486 87.741676,157.977142 85.988548,159.962784 
	C84.249817,160.308701 82.511078,160.654633 80.241539,160.778473 
	C79.136887,160.715973 78.563042,160.875549 77.989197,161.035126 
	C77.549980,161.036331 77.110771,161.037537 76.151733,160.760025 
	C74.430023,159.318130 73.228142,158.154938 72.026245,156.991760 
	C72.022545,156.550934 72.018837,156.110107 72.359497,155.279068 
	C72.804390,153.592972 72.904922,152.297089 73.005455,151.001205 
	C73.014824,150.559540 73.024193,150.117859 73.398514,149.270935 
	C74.712440,146.612534 77.753555,144.417267 73.952469,142.032745 
	C72.855194,142.270996 71.757927,142.509247 69.993431,142.881638 
	C68.544701,143.651001 67.763191,144.286240 66.981682,144.921463 
	C64.620804,144.937851 62.259922,144.954224 59.389202,144.603821 
	C57.173534,143.573792 55.493912,142.811951 53.735985,142.344788 
	C53.444439,142.267303 52.272587,143.713760 52.422050,144.052795 
	C53.470398,146.430771 54.758774,148.702942 55.970390,151.008942 
	C56.231453,152.443527 56.492516,153.878128 56.600201,155.790619 
	C55.294575,157.859726 54.142326,159.450958 52.990078,161.042175 
	C50.297543,161.042236 47.605007,161.042297 44.319954,160.811096 
	C43.149132,160.726151 42.570824,160.872498 41.992519,161.018845 
	C39.130196,159.019897 36.078617,157.310272 35.819073,153.087982 
	C35.753662,152.023849 33.885639,151.070526 32.020500,150.040710 
	C29.450413,150.018478 27.705826,150.021835 25.961241,150.025192 
z"/>
<path fill="#D6D8F6" opacity="1.000000" stroke="none" 
	d="
M59.005817,22.042772 
	C59.763695,21.693542 60.521568,21.344315 61.596832,21.412775 
	C61.435524,32.754349 66.872032,40.614208 75.265846,47.206848 
	C76.357933,47.887478 77.178825,48.443962 78.122238,49.224709 
	C78.534676,49.621490 78.824593,49.794003 79.239502,50.294518 
	C82.611320,52.168148 85.858147,53.713779 89.104965,55.259407 
	C89.055435,56.254498 89.005905,57.249588 88.582535,58.659752 
	C78.984482,60.773228 78.984482,60.773228 79.016609,66.989128 
	C78.987267,67.016342 78.926865,67.068840 78.577286,67.091385 
	C76.515114,68.241226 74.802521,69.368530 73.036301,70.364655 
	C72.874031,70.064301 72.719681,69.970726 72.408867,69.613770 
	C72.597183,67.565422 72.458656,65.600800 73.278595,64.195305 
	C75.593842,60.226604 75.606621,56.139236 72.540009,55.823795 
	C69.496735,55.510761 66.233887,57.332336 63.067341,58.217747 
	C64.167953,60.687363 65.150810,63.219200 66.411171,65.604408 
	C67.231773,67.157387 68.456062,68.497070 69.209915,70.018692 
	C67.039841,74.071945 65.090042,69.579285 62.806427,69.782440 
	C63.391884,71.454750 63.821377,72.681564 63.876038,74.060104 
	C59.998535,75.810005 56.495857,77.408165 52.691864,78.859543 
	C49.549461,76.070824 46.708374,73.428894 44.033913,70.495026 
	C47.864223,64.257469 51.527916,58.311840 55.477585,52.130745 
	C55.964672,50.564014 56.165779,49.232746 56.366890,47.901482 
	C54.614056,47.970165 52.861221,48.038849 50.777664,48.058136 
	C48.878326,46.252491 48.878326,46.252491 52.359612,43.799610 
	C54.569717,44.381985 56.391117,44.896236 58.963470,45.622513 
	C58.963470,43.413864 58.963470,41.210587 58.947311,38.687759 
	C58.619270,37.579418 58.307388,36.790630 57.969280,35.681313 
	C57.311306,34.546154 56.679550,33.731522 56.034683,32.568970 
	C55.971256,31.529816 55.920948,30.838579 56.242493,30.136990 
	C59.011257,31.074415 60.364201,30.518291 59.978153,27.690050 
	C59.719975,25.798626 59.334389,23.924589 59.005817,22.042772 
M54.050220,68.535240 
	C58.698811,72.556786 58.967949,67.294220 61.281353,65.410027 
	C59.435165,63.404175 57.846260,61.677860 56.135189,59.818813 
	C53.109425,62.286850 50.142811,64.170471 54.050220,68.535240 
z"/>
<path fill="#515BBC" opacity="1.000000" stroke="none" 
	d="
M26.168819,29.808773 
	C26.865114,29.570374 27.561409,29.331974 28.970753,29.097061 
	C30.457594,28.700342 31.231386,28.300138 32.005180,27.899937 
	C32.383812,27.825644 32.762444,27.751350 33.807655,27.768044 
	C36.076984,27.452166 37.679741,27.045300 39.282494,26.638433 
	C40.852116,26.562220 42.421734,26.486006 44.425980,26.779106 
	C44.969112,27.762646 45.077614,28.376871 45.109592,29.358387 
	C44.992043,30.473207 44.951015,31.220734 44.666801,32.183323 
	C44.229927,33.238438 44.036243,34.078491 43.651123,35.048561 
	C43.222595,35.401478 43.093853,35.675327 43.028900,36.323093 
	C42.957214,37.079838 42.930099,37.513622 42.641304,38.170376 
	C40.546303,43.594402 38.712982,48.795452 36.734131,54.268784 
	C35.740288,55.057690 34.891983,55.574322 34.027054,55.682564 
	C33.389881,53.100357 33.079807,50.755627 32.017113,48.825203 
	C31.489939,47.867569 29.610739,47.404938 28.280842,47.248478 
	C27.658888,47.175304 26.554895,48.225269 26.244406,48.997421 
	C24.950298,52.215725 28.348316,59.167435 31.390112,60.620308 
	C29.094856,60.967686 27.034920,61.012501 24.974983,61.057316 
	C24.479582,60.462246 23.984180,59.867172 23.206493,58.787926 
	C20.393528,54.365295 17.862850,50.426838 15.332174,46.488377 
	C15.282900,46.137985 15.233624,45.787598 15.140841,44.958996 
	C15.026628,44.179684 14.855088,43.955917 14.582714,43.809490 
	C14.733432,42.481998 14.884150,41.154510 15.452730,39.418449 
	C16.240782,38.351963 16.610970,37.694046 16.981155,37.036129 
	C16.981155,37.036129 16.994230,36.992733 17.258471,36.907974 
	C17.643822,36.517239 17.764933,36.211269 17.886044,35.905296 
	C18.076895,35.648190 18.294209,35.415829 19.054718,35.076645 
	C20.080574,34.340996 20.589695,33.736923 21.098816,33.132851 
	C21.098816,33.132851 21.048042,33.052261 21.319935,33.030060 
	C21.894831,32.861214 22.084599,32.623997 22.161137,32.296207 
	C23.037338,31.678677 23.913540,31.061146 25.247459,30.324724 
	C25.912321,30.134882 26.066870,30.002527 26.168819,29.808773 
z"/>
<path fill="#9298D6" opacity="1.000000" stroke="none" 
	d="
M34.043674,56.090954 
	C34.891983,55.574322 35.740288,55.057690 37.100945,54.236511 
	C42.694687,49.996429 45.005009,43.015022 42.902981,37.947403 
	C42.930099,37.513622 42.957214,37.079838 43.262146,36.311100 
	C43.640823,35.623608 43.741692,35.271076 43.842556,34.918541 
	C44.036243,34.078491 44.229927,33.238438 45.077644,32.195290 
	C46.820660,31.995861 47.909641,31.999533 49.006393,32.402374 
	C49.254597,33.742908 49.307770,34.793781 49.779270,35.600006 
	C50.490005,36.815300 51.493000,37.859673 52.371765,38.976692 
	C53.583672,37.979122 54.795582,36.981548 56.338852,35.987427 
	C57.111977,35.994534 57.553741,35.998188 57.995502,36.001842 
	C58.307388,36.790630 58.619270,37.579418 58.644070,38.840309 
	C56.228291,40.785439 54.099598,42.258465 51.970901,43.731491 
	C48.878326,46.252491 48.878326,46.252491 50.784500,48.453789 
	C50.510067,52.365005 53.247375,51.900204 55.191605,52.366211 
	C51.527916,58.311840 47.864223,64.257469 43.729027,70.613670 
	C42.834286,71.725342 42.411041,72.426430 41.682159,72.988510 
	C40.271210,71.864525 39.165909,70.879570 38.060604,69.894608 
	C38.060604,69.894608 37.978626,69.457306 37.898426,68.902695 
	C36.206661,65.551643 34.595097,62.755207 33.015282,59.621227 
	C33.379246,58.219440 33.711460,57.155197 34.043674,56.090954 
z"/>
<path fill="#5B63B4" opacity="1.000000" stroke="none" 
	d="
M95.968330,27.996849 
	C96.118065,30.330931 96.267807,32.665012 96.064743,35.567871 
	C95.586594,37.513927 95.461250,38.891209 95.335907,40.268494 
	C95.263725,40.653774 95.191551,41.039059 94.799911,41.905579 
	C94.421417,43.008194 94.362381,43.629562 94.303337,44.250935 
	C94.303337,44.250935 94.148392,44.616058 93.656860,44.766907 
	C92.139626,44.832584 91.113922,44.747414 89.938408,44.448162 
	C89.227699,43.802181 88.666794,43.370281 87.979164,42.679565 
	C87.280258,41.932774 86.708069,41.444794 86.098549,40.601330 
	C85.967705,39.539932 85.874207,38.834019 86.140732,38.123993 
	C87.805023,38.974903 89.109291,39.829933 91.480583,41.384453 
	C91.708008,37.283638 91.240807,33.748859 92.236038,30.689871 
	C93.579933,26.559196 91.753822,24.388653 89.304169,21.619160 
	C85.874832,17.742083 81.655991,19.164129 77.703049,19.131207 
	C76.201233,19.118696 74.687325,20.559681 73.178925,21.338196 
	C74.562881,22.528391 75.779816,24.113562 77.380791,24.790581 
	C78.800072,25.390768 80.673187,24.812962 82.295074,25.072792 
	C83.538795,25.272036 84.703262,25.965984 84.858093,26.027147 
	C84.052895,29.777811 83.475517,32.467289 82.570709,35.064911 
	C81.356056,34.059776 80.438347,33.173954 79.586731,32.228588 
	C75.361496,27.538214 70.795555,23.419178 64.090134,22.485647 
	C64.046631,21.781534 64.012054,21.379759 63.977478,20.977982 
	C63.977478,20.977982 63.961185,20.845060 64.238976,20.860714 
	C65.201759,20.426180 65.886742,19.975992 66.571724,19.525803 
	C72.391113,18.429747 78.191597,16.669237 84.037445,16.502823 
	C87.217842,16.412285 90.475327,19.029589 93.810562,21.119127 
	C94.604843,23.874075 95.286583,25.935463 95.968330,27.996849 
z"/>
<path fill="#5D63B5" opacity="1.000000" stroke="none" 
	d="
M19.945173,127.132889 
	C19.956375,123.692986 19.967579,120.253075 20.231001,116.121292 
	C21.884098,110.223824 23.284977,105.018234 24.785864,100.256836 
	C24.014198,107.296227 23.142527,113.891434 22.270853,120.486649 
	C25.585922,117.380295 27.868557,114.055542 29.872244,110.570404 
	C30.833876,108.897797 31.741158,106.949219 31.848822,105.078186 
	C32.125378,100.272034 31.941233,95.439369 31.941233,90.256363 
	C31.290024,90.200371 30.180893,90.105011 29.015404,89.744179 
	C28.930767,89.300018 28.902487,89.121323 28.922636,88.941696 
	C28.971067,88.940765 28.950878,88.846008 29.156183,88.799248 
	C29.647064,88.588913 29.748198,88.347939 29.866795,87.743561 
	C31.132433,85.672272 32.196163,83.886986 33.516460,81.953514 
	C33.992992,81.272591 34.212955,80.739853 34.432919,80.207115 
	C34.664635,80.090950 34.848354,79.922440 35.371284,79.478661 
	C36.487587,78.875267 37.216690,78.494804 37.954868,78.073372 
	C37.963943,78.032402 37.885021,78.060928 37.982658,78.280632 
	C38.310047,78.770020 38.599316,78.873924 39.154697,78.905197 
	C39.361301,78.998352 39.809669,79.064789 39.833080,79.438248 
	C39.365044,81.195709 38.772148,82.553024 38.399860,83.968369 
	C36.861450,89.816948 34.669445,95.615158 34.108501,101.563049 
	C33.607670,106.873520 34.458065,112.125908 29.485577,115.967163 
	C28.513830,116.717842 28.318853,118.627769 28.011328,120.055923 
	C27.064856,124.451393 24.739035,127.171608 19.945173,127.132889 
z"/>
<path fill="#D2D5F7" opacity="1.000000" stroke="none" 
	d="
M19.942894,127.501205 
	C24.739035,127.171608 27.064856,124.451393 28.011328,120.055923 
	C28.318853,118.627769 28.513830,116.717842 29.485577,115.967163 
	C34.458065,112.125908 33.607670,106.873520 34.108501,101.563049 
	C34.669445,95.615158 36.861450,89.816948 38.399860,83.968369 
	C38.772148,82.553024 39.365044,81.195709 40.218918,79.413284 
	C41.094959,78.992752 41.608574,78.970657 42.338757,79.136871 
	C42.752380,79.858734 42.949436,80.392303 42.852974,81.149963 
	C42.371845,82.579559 42.184242,83.785049 41.996643,84.990540 
	C40.396004,85.875092 38.795368,86.759644 36.707691,87.913353 
	C42.203903,92.756027 44.109638,96.220520 38.229084,99.724083 
	C37.266445,100.297615 37.383869,102.679688 36.996948,104.224594 
	C35.859791,108.764992 34.756634,113.314461 33.555069,117.837784 
	C33.261738,118.942032 32.367104,119.922089 32.216831,121.023117 
	C31.114626,129.098816 29.476662,130.873199 21.368782,131.706528 
	C20.676914,130.973526 20.397505,130.524246 20.118092,130.074966 
	C20.058933,129.339813 19.999773,128.604675 19.942894,127.501205 
z"/>
<path fill="#C7DFE8" opacity="1.000000" stroke="none" 
	d="
M42.122192,78.948563 
	C41.608574,78.970657 41.094959,78.992752 40.195503,79.039818 
	C39.809669,79.064789 39.361301,78.998352 39.028423,78.718246 
	C38.468979,78.218788 38.198807,78.093048 37.885021,78.060928 
	C37.885021,78.060928 37.963943,78.032402 37.970959,77.794250 
	C37.986530,77.370277 37.995090,77.184471 38.003647,76.998657 
	C38.336555,76.920830 38.611649,76.749939 39.261520,76.219055 
	C40.458675,75.010590 41.223236,74.069054 41.987801,73.127525 
	C42.411041,72.426430 42.834286,71.725342 43.562408,70.905602 
	C46.708374,73.428894 49.549461,76.070824 52.967987,79.146469 
	C56.808113,80.349846 60.045326,81.263000 63.340801,81.847939 
	C66.492157,82.407280 69.333366,81.984688 70.385757,78.026260 
	C74.164948,78.355286 77.571701,78.681557 80.978447,79.007835 
	C81.366425,80.210052 81.889214,81.388206 82.109245,82.620407 
	C82.403603,84.268776 82.463264,85.959061 82.807320,88.188354 
	C82.023926,90.173927 81.056908,91.602486 80.021706,92.604492 
	C79.552460,88.431709 79.151405,84.685471 78.868500,82.042854 
	C72.665916,82.585709 66.532799,83.765152 60.480961,83.438553 
	C56.041641,83.198959 51.708912,80.984238 47.241817,79.313683 
	C46.011723,77.524567 44.868488,76.071541 43.725250,74.618523 
	C43.289146,74.846565 42.853043,75.074608 42.416939,75.302650 
	C42.318691,76.517960 42.220440,77.733261 42.122192,78.948563 
z"/>
<path fill="#969BD4" opacity="1.000000" stroke="none" 
	d="
M63.635567,20.917114 
	C64.012054,21.379759 64.046631,21.781534 64.056686,22.899899 
	C63.931068,30.851538 70.124519,31.615086 74.311508,33.664860 
	C74.557999,37.366497 74.778839,40.683018 74.997627,44.384315 
	C74.995255,45.540295 74.994949,46.311493 74.994644,47.082695 
	C66.872032,40.614208 61.435524,32.754349 61.910034,21.386814 
	C62.368446,20.914190 62.831051,20.885220 63.635567,20.917114 
z"/>
<path fill="#DFDCF2" opacity="1.000000" stroke="none" 
	d="
M80.089897,93.031036 
	C81.056908,91.602486 82.023926,90.173927 82.997940,88.384201 
	C88.667130,88.846138 86.700264,93.896278 88.033691,97.878036 
	C88.677963,99.430695 89.330208,100.218742 89.982452,101.006783 
	C90.339211,103.705498 90.695969,106.404221 90.680786,109.548309 
	C89.203217,110.337006 88.097580,110.680328 86.702637,110.795921 
	C85.940842,108.889977 84.810959,107.079506 85.117058,105.557922 
	C86.101944,100.662186 82.963997,97.965004 80.175674,94.633438 
	C80.106056,93.888283 80.097977,93.459663 80.089897,93.031036 
z"/>
<path fill="#DDDDF0" opacity="1.000000" stroke="none" 
	d="
M79.045952,66.961914 
	C78.984482,60.773228 78.984482,60.773228 88.554733,59.032349 
	C88.369667,65.717354 87.009827,72.112396 81.361801,76.597656 
	C81.421432,75.239304 81.825668,74.208916 82.230019,73.178574 
	C83.514847,69.904655 83.301628,67.398056 79.045952,66.961914 
z"/>
<path fill="#CDD1EF" opacity="1.000000" stroke="none" 
	d="
M24.685856,99.812653 
	C23.284977,105.018234 21.884098,110.223824 20.215816,115.714394 
	C19.916216,114.247086 19.884022,112.494781 19.914799,109.966721 
	C19.013998,105.073982 18.050228,100.957016 17.376499,96.682854 
	C18.625351,94.973648 19.584162,93.421623 20.915287,92.000381 
	C22.933107,92.797340 24.578609,93.463516 26.178719,94.500793 
	C25.678476,96.539391 25.223631,98.206871 24.750248,99.855988 
	C24.731710,99.837608 24.685856,99.812653 24.685856,99.812653 
z"/>
<path fill="#E7EAF6" opacity="1.000000" stroke="none" 
	d="
M32.983532,59.958771 
	C34.595097,62.755207 36.206661,65.551643 37.809288,68.698868 
	C33.231953,68.680595 28.663553,68.311523 23.070969,67.859718 
	C23.599779,66.163795 24.277332,63.990841 24.964935,61.437603 
	C27.034920,61.012501 29.094856,60.967686 31.622334,60.599045 
	C32.387993,60.170380 32.685879,60.064899 32.983532,59.958771 
z"/>
<path fill="#D7DAF6" opacity="1.000000" stroke="none" 
	d="
M79.016609,66.989128 
	C83.301628,67.398056 83.514847,69.904655 82.230019,73.178574 
	C81.825668,74.208916 81.421432,75.239304 81.020004,76.658524 
	C81.017319,77.482880 81.011780,77.918381 80.992348,78.680862 
	C77.571701,78.681557 74.164948,78.355286 70.501617,77.729027 
	C70.151680,76.249687 70.058319,75.070320 70.075821,73.632614 
	C71.515274,73.396759 72.843849,73.419258 74.546906,73.375854 
	C78.778824,72.848358 78.542320,69.759308 78.926865,67.068840 
	C78.926865,67.068840 78.987267,67.016342 79.016609,66.989128 
z"/>
<path fill="#DADBEF" opacity="1.000000" stroke="none" 
	d="
M86.991943,111.023651 
	C88.097580,110.680328 89.203217,110.337006 90.683228,109.986542 
	C91.358139,110.456085 91.658684,110.932777 91.614319,111.774971 
	C89.302696,114.616928 88.906555,116.563934 92.916252,117.025719 
	C92.931335,118.085953 92.946411,119.146187 92.935043,120.603485 
	C88.468552,123.586189 86.096809,119.146400 82.367348,117.630905 
	C80.655289,115.848434 79.328270,114.445595 78.007172,112.755219 
	C78.014832,112.275970 78.016579,112.084251 78.390343,111.902420 
	C79.506302,111.934204 80.250244,111.956093 81.184113,112.256462 
	C82.986839,113.637871 84.599648,114.740791 86.758041,116.216797 
	C86.863235,113.881195 86.927589,112.452423 86.991943,111.023651 
z"/>
<path fill="#F7F8F9" opacity="1.000000" stroke="none" 
	d="
M17.086456,96.840042 
	C18.050228,100.957016 19.013998,105.073982 19.933043,109.605621 
	C18.460817,110.177368 17.033321,110.334442 15.715482,110.479454 
	C14.957873,106.688087 14.225199,103.021500 13.492524,99.354912 
	C13.213073,99.430893 12.933621,99.506882 12.654170,99.582863 
	C12.840959,97.439751 13.027746,95.296646 13.572918,92.950134 
	C14.983020,94.111176 16.034739,95.475609 17.086456,96.840042 
z"/>
<path fill="#F7F8F9" opacity="1.000000" stroke="none" 
	d="
M33.259895,82.101700 
	C32.196163,83.886986 31.132433,85.672272 29.707676,87.839294 
	C29.153952,88.390862 29.022030,88.599182 28.950878,88.846008 
	C28.950878,88.846008 28.971067,88.940765 28.525934,88.956551 
	C25.962288,89.325974 23.843775,89.679619 21.716845,89.843216 
	C21.708427,89.653160 21.849184,89.299683 21.849184,89.299683 
	C22.899506,88.452972 23.949825,87.606262 25.813646,86.103752 
	C25.911465,84.774445 26.101868,82.186951 26.337643,78.982872 
	C28.206200,79.251328 29.748697,79.472946 31.684090,80.179039 
	C32.471287,81.142914 32.865593,81.622307 33.259895,82.101700 
z"/>
<path fill="#A2A4D3" opacity="1.000000" stroke="none" 
	d="
M90.088211,44.662247 
	C91.113922,44.747414 92.139626,44.832584 93.551041,44.934631 
	C92.487610,48.183128 91.038475,51.414745 89.347153,54.952885 
	C85.858147,53.713779 82.611320,52.168148 79.551834,50.302586 
	C80.158119,49.989307 80.577080,49.995964 81.409279,50.007378 
	C85.967102,50.375412 89.191406,49.316849 90.088211,44.662247 
z"/>
<path fill="#F7F8F9" opacity="1.000000" stroke="none" 
	d="
M13.173428,90.995399 
	C11.563704,90.466034 9.529343,90.334076 8.513634,89.248787 
	C7.960578,88.657852 8.773679,86.185455 9.613270,85.027672 
	C11.070143,83.018677 13.025798,81.371376 14.772287,79.572403 
	C14.560710,81.961784 14.332550,84.349899 14.151473,86.741592 
	C14.115034,87.222885 14.257315,87.717712 14.336314,88.847054 
	C13.961431,89.990334 13.567429,90.492867 13.173428,90.995399 
z"/>
<path fill="#FEFFF6" opacity="1.000000" stroke="none" 
	d="
M28.699211,23.113434 
	C26.675406,27.403408 23.057230,25.920881 19.969006,25.622154 
	C19.259895,25.553562 18.173763,23.257544 18.357454,22.172155 
	C18.486450,21.409950 20.577234,20.332411 21.611479,20.501265 
	C23.997221,20.890760 26.273062,21.953419 28.699211,23.113434 
z"/>
<path fill="#DCE0EE" opacity="1.000000" stroke="none" 
	d="
M58.612335,22.037701 
	C59.334389,23.924589 59.719975,25.798626 59.978153,27.690050 
	C60.364201,30.518291 59.011257,31.074415 56.258926,30.124794 
	C55.903511,30.122953 55.919304,30.100853 55.909668,29.770773 
	C55.275360,28.958567 54.650684,28.476439 53.873283,27.710491 
	C53.433441,26.461893 53.146328,25.497114 52.859219,24.532333 
	C54.645763,23.699099 56.432308,22.865866 58.612335,22.037701 
z"/>
<path fill="#6D6EAD" opacity="1.000000" stroke="none" 
	d="
M13.238508,91.224014 
	C13.567429,90.492867 13.961431,89.990334 14.457567,89.278275 
	C16.747303,89.064804 18.934904,89.060867 21.485844,89.178314 
	C21.849184,89.299683 21.708427,89.653160 21.524803,90.036346 
	C21.075111,90.902901 20.809042,91.386253 20.542973,91.869606 
	C19.584162,93.421623 18.625351,94.973648 17.376499,96.682854 
	C16.034739,95.475609 14.983020,94.111176 13.654930,92.567635 
	C13.420447,92.071220 13.395457,91.759254 13.238508,91.224014 
z"/>
<path fill="#E7EAF6" opacity="1.000000" stroke="none" 
	d="
M15.161333,46.832859 
	C17.862850,50.426838 20.393528,54.365295 22.941931,58.660088 
	C18.172319,56.464706 14.407198,50.871201 15.161333,46.832859 
z"/>
<path fill="#E4E3F2" opacity="1.000000" stroke="none" 
	d="
M55.943058,150.643082 
	C54.758774,148.702942 53.470398,146.430771 52.422050,144.052795 
	C52.272587,143.713760 53.444439,142.267303 53.735985,142.344788 
	C55.493912,142.811951 57.173534,143.573792 58.947052,144.586197 
	C57.611286,144.774780 56.207829,144.614166 54.223934,144.387146 
	C54.826141,146.483780 55.370934,148.380493 55.943058,150.643082 
z"/>
<path fill="#A2A3D5" opacity="1.000000" stroke="none" 
	d="
M52.510578,24.431776 
	C53.146328,25.497114 53.433441,26.461893 53.870522,28.032528 
	C54.060146,29.065086 54.099804,29.491785 53.855949,29.942774 
	C53.383018,29.977575 53.193607,29.988089 53.002144,29.999224 
	C53.000088,29.999847 52.999847,29.996120 52.835556,29.748859 
	C52.116608,29.332041 51.561951,29.162483 51.003822,28.996170 
	C51.000351,28.999413 51.007889,28.989590 50.862251,28.699661 
	C49.501446,27.653540 48.286278,26.897350 47.071106,26.141159 
	C48.768051,25.537846 50.464993,24.934530 52.510578,24.431776 
z"/>
<path fill="#E4E3F2" opacity="1.000000" stroke="none" 
	d="
M86.360062,159.970154 
	C87.741676,157.977142 89.494804,155.991486 91.613770,153.998672 
	C92.025200,157.560486 90.053040,159.360474 86.360062,159.970154 
z"/>
<path fill="#E4E3F2" opacity="1.000000" stroke="none" 
	d="
M53.193237,161.276443 
	C54.142326,159.450958 55.294575,157.859726 56.749893,156.127472 
	C58.969738,159.903381 56.149014,160.684509 53.193237,161.276443 
z"/>
<path fill="#E4E3F2" opacity="1.000000" stroke="none" 
	d="
M92.941910,116.636673 
	C88.906555,116.563934 89.302696,114.616928 91.634186,112.070091 
	C92.321831,113.415688 92.644699,114.831657 92.941910,116.636673 
z"/>
<path fill="#E4E3F2" opacity="1.000000" stroke="none" 
	d="
M73.958923,142.424652 
	C77.753555,144.417267 74.712440,146.612534 73.413712,148.939941 
	C73.364433,146.948318 73.664909,144.882431 73.958923,142.424652 
z"/>
<path fill="#9298D6" opacity="1.000000" stroke="none" 
	d="
M46.674644,26.115498 
	C48.286278,26.897350 49.501446,27.653540 50.527222,28.703465 
	C49.891273,28.998970 49.444721,29.000744 48.614578,29.001961 
	C47.216026,28.997969 46.201073,28.994532 45.186115,28.991095 
	C45.077614,28.376871 44.969112,27.762646 44.815922,26.842234 
	C45.273552,26.387308 45.775867,26.238571 46.674644,26.115498 
z"/>
<path fill="#E7EAF6" opacity="1.000000" stroke="none" 
	d="
M41.682156,72.988510 
	C41.223236,74.069054 40.458675,75.010590 39.386822,76.006828 
	C38.746220,74.268166 38.412907,72.474800 38.070099,70.288025 
	C39.165909,70.879570 40.271210,71.864525 41.682156,72.988510 
z"/>
<path fill="#E4E3F2" opacity="1.000000" stroke="none" 
	d="
M26.046604,150.387955 
	C27.705826,150.021835 29.450413,150.018478 31.633049,150.034088 
	C30.414104,153.032867 28.361902,152.648300 26.046604,150.387955 
z"/>
<path fill="#E4E3F2" opacity="1.000000" stroke="none" 
	d="
M92.275589,144.765411 
	C91.366119,144.222260 90.727585,143.444641 90.089050,142.667038 
	C90.786224,142.114853 91.483398,141.562668 92.544754,140.991821 
	C92.788139,142.159103 92.667328,143.345032 92.275589,144.765411 
z"/>
<path fill="#A2A4D3" opacity="1.000000" stroke="none" 
	d="
M96.212234,27.776764 
	C95.286583,25.935463 94.604843,23.874075 93.935837,21.433855 
	C94.784431,23.222240 95.620285,25.389460 96.212234,27.776764 
z"/>
<path fill="#E4E3F2" opacity="1.000000" stroke="none" 
	d="
M72.014938,157.365021 
	C73.228142,158.154938 74.430023,159.318130 75.822327,160.760147 
	C72.816879,162.197357 71.932487,160.548126 72.014938,157.365021 
z"/>
<path fill="#A2A3D5" opacity="1.000000" stroke="none" 
	d="
M38.916218,26.465187 
	C37.679741,27.045300 36.076984,27.452166 34.094414,27.728451 
	C35.326382,27.162558 36.938160,26.727249 38.916218,26.465187 
z"/>
<path fill="#E4E3F2" opacity="1.000000" stroke="none" 
	d="
M72.730804,151.231384 
	C72.904922,152.297089 72.804390,153.592972 72.366188,154.948486 
	C72.171059,153.825928 72.313606,152.643753 72.730804,151.231384 
z"/>
<path fill="#E7EAF6" opacity="1.000000" stroke="none" 
	d="
M37.972534,76.708923 
	C37.995090,77.184471 37.986530,77.370277 37.961884,77.835220 
	C37.216690,78.494804 36.487587,78.875267 35.451210,79.307816 
	C36.076427,78.379654 37.008926,77.399422 37.972534,76.708923 
z"/>
<path fill="#A2A4D3" opacity="1.000000" stroke="none" 
	d="
M95.651184,40.085487 
	C95.461250,38.891209 95.586594,37.513927 95.981606,35.931511 
	C96.156334,37.118412 96.061394,38.510448 95.651184,40.085487 
z"/>
<path fill="#E4E3F2" opacity="1.000000" stroke="none" 
	d="
M89.981056,100.654396 
	C89.330208,100.218742 88.677963,99.430695 88.039993,98.280640 
	C88.696068,98.713081 89.337868,99.507545 89.981056,100.654396 
z"/>
<path fill="#E4E3F2" opacity="1.000000" stroke="none" 
	d="
M67.335190,144.938721 
	C67.763191,144.286240 68.544701,143.651001 69.679794,143.020294 
	C69.251823,143.668533 68.470253,144.312256 67.335190,144.938721 
z"/>
<path fill="#CDD1EF" opacity="1.000000" stroke="none" 
	d="
M19.856377,130.232788 
	C20.397505,130.524246 20.676914,130.973526 20.974752,131.702011 
	C20.906063,132.278824 20.742355,132.525574 20.306158,132.825897 
	C19.938395,132.083786 19.766527,131.237198 19.856377,130.232788 
z"/>
<path fill="#A2A3D5" opacity="1.000000" stroke="none" 
	d="
M31.823215,27.701004 
	C31.231386,28.300138 30.457594,28.700342 29.338024,29.046089 
	C29.875250,28.495110 30.758251,27.998592 31.823215,27.701004 
z"/>
<path fill="#E4E3F2" opacity="1.000000" stroke="none" 
	d="
M42.141068,161.238678 
	C42.570824,160.872498 43.149132,160.726151 43.871323,160.814224 
	C43.440010,161.185257 42.864815,161.321869 42.141068,161.238678 
z"/>
<path fill="#E7EAF6" opacity="1.000000" stroke="none" 
	d="
M33.516464,81.953514 
	C32.865593,81.622307 32.471287,81.142914 32.046127,80.338371 
	C32.552917,80.032593 33.090557,80.051956 34.030560,80.139221 
	C34.212955,80.739853 33.992992,81.272591 33.516464,81.953514 
z"/>
<path fill="#A2A4D3" opacity="1.000000" stroke="none" 
	d="
M94.553802,44.164188 
	C94.362381,43.629562 94.421417,43.008194 94.738831,42.193165 
	C94.932892,42.692154 94.868584,43.384796 94.553802,44.164188 
z"/>
<path fill="#A2A3D5" opacity="1.000000" stroke="none" 
	d="
M16.656612,37.064102 
	C16.610970,37.694046 16.240782,38.351963 15.579188,39.095062 
	C15.635878,38.484188 15.983973,37.788132 16.656612,37.064102 
z"/>
<path fill="#E4E3F2" opacity="1.000000" stroke="none" 
	d="
M78.142586,161.250580 
	C78.563042,160.875549 79.136887,160.715973 79.857925,160.785400 
	C79.435402,161.164963 78.865685,161.315506 78.142586,161.250580 
z"/>
<path fill="#A2A3D5" opacity="1.000000" stroke="none" 
	d="
M20.777885,33.126106 
	C20.589695,33.736923 20.080574,34.340996 19.248993,34.937462 
	C19.436672,34.326359 19.946812,33.722858 20.777885,33.126106 
z"/>
<path fill="#D6D8F6" opacity="1.000000" stroke="none" 
	d="
M66.237030,19.387787 
	C65.886742,19.975992 65.201759,20.426180 64.199623,20.806541 
	C64.555771,20.241068 65.229057,19.745419 66.237030,19.387787 
z"/>
<path fill="#A2A3D5" opacity="1.000000" stroke="none" 
	d="
M17.646526,35.989857 
	C17.764933,36.211269 17.643822,36.517239 17.278349,36.897095 
	C17.158329,36.672123 17.282671,36.373268 17.646526,35.989857 
z"/>
<path fill="#A2A3D5" opacity="1.000000" stroke="none" 
	d="
M14.495212,44.039383 
	C14.855088,43.955917 15.026628,44.179684 15.088416,44.697910 
	C14.709424,44.851673 14.485494,44.636421 14.495212,44.039383 
z"/>
<path fill="#A2A3D5" opacity="1.000000" stroke="none" 
	d="
M25.983311,29.686562 
	C26.066870,30.002527 25.912321,30.134882 25.550900,30.219734 
	C25.288471,29.865044 25.422199,29.641951 25.983311,29.686562 
z"/>
<path fill="#A2A3D5" opacity="1.000000" stroke="none" 
	d="
M21.901600,32.277386 
	C22.084599,32.623997 21.894831,32.861214 21.361980,33.052429 
	C21.302111,32.817520 21.472088,32.538040 21.901600,32.277386 
z"/>
<path fill="#77CAAF" opacity="1.000000" stroke="none" 
	d="
M80.994202,111.977974 
	C80.250244,111.956093 79.506302,111.934204 78.186905,111.634766 
	C71.795837,107.810799 65.980209,104.264397 60.164581,100.717987 
	C59.692062,100.153152 59.219543,99.588326 58.368866,98.649170 
	C57.276817,97.206245 56.562931,96.137657 56.222847,95.073257 
	C60.473103,96.702660 64.349564,98.327881 68.564270,100.136208 
	C70.734955,100.607491 72.567406,100.895676 74.779449,101.243561 
	C74.779449,98.826149 74.779449,97.120964 74.779449,94.888374 
	C72.260384,95.674141 70.143875,96.334335 67.723740,96.848610 
	C63.663452,93.013062 59.957096,89.270294 56.133644,85.651245 
	C53.266701,82.937553 50.942352,84.081703 48.758789,86.973038 
	C48.314873,86.978912 48.137302,86.981018 47.777695,86.696884 
	C46.652130,84.681816 45.708607,82.952988 44.999466,80.916672 
	C45.932129,80.289383 46.630405,79.969582 47.328682,79.649780 
	C51.708912,80.984238 56.041641,83.198959 60.480961,83.438553 
	C66.532799,83.765152 72.665916,82.585709 78.868500,82.042854 
	C79.151405,84.685471 79.552460,88.431709 80.021706,92.604492 
	C80.097977,93.459663 80.106056,93.888283 80.109406,95.040321 
	C80.757393,99.106682 81.669853,102.426895 81.965172,105.801132 
	C82.141533,107.816315 81.350418,109.916176 80.994202,111.977974 
M70.656326,91.939400 
	C72.775078,92.552681 74.893837,93.165955 78.313347,94.155746 
	C77.705505,91.191803 77.851685,88.360992 76.523720,86.731644 
	C75.700775,85.721931 72.387955,85.987343 70.689636,86.765175 
	C69.847290,87.150963 70.125916,89.984253 70.656326,91.939400 
z"/>
<path fill="#C7DFE8" opacity="1.000000" stroke="none" 
	d="
M60.112183,101.146461 
	C65.980209,104.264397 71.795837,107.810799 77.814896,111.624863 
	C78.016579,112.084251 78.014832,112.275970 77.590576,112.742233 
	C75.779663,113.009407 74.391281,113.002037 73.002892,112.994667 
	C70.289070,111.651604 67.675941,110.016441 64.836555,109.037651 
	C61.084652,107.744308 59.631405,105.356644 60.112183,101.146461 
z"/>
<path fill="#E2D6F2" opacity="1.000000" stroke="none" 
	d="
M72.963409,113.359459 
	C74.391281,113.002037 75.779663,113.009407 77.584656,113.029762 
	C79.328270,114.445595 80.655289,115.848434 81.992470,117.625595 
	C79.323959,120.992416 76.314278,120.263771 73.762505,118.169434 
	C72.868851,117.435974 73.168961,115.248016 72.963409,113.359459 
z"/>
<path fill="#D2DDEC" opacity="1.000000" stroke="none" 
	d="
M54.000553,98.002441 
	C50.699997,97.513641 47.399437,97.024849 44.098881,96.536049 
	C44.014759,96.061142 43.930637,95.586227 43.846516,95.111320 
	C45.728027,94.077797 47.609539,93.044281 50.136833,91.988586 
	C51.199749,92.291168 51.616890,92.615921 52.025234,93.297661 
	C52.677814,95.103920 53.339184,96.553177 54.000553,98.002441 
z"/>
<path fill="#D2DDEC" opacity="1.000000" stroke="none" 
	d="
M44.765079,81.224167 
	C45.708607,82.952988 46.652130,84.681816 47.796432,86.700439 
	C47.997204,86.990234 47.989841,86.958580 47.856667,87.038948 
	C47.723495,87.119316 47.635345,87.504036 47.635345,87.504036 
	C47.635345,87.504036 48.004364,87.680855 48.030067,87.998077 
	C48.080750,88.525993 48.105728,88.736687 48.130711,88.947388 
	C46.292824,87.732445 44.454937,86.517502 42.306847,85.146545 
	C42.184242,83.785049 42.371845,82.579559 43.124741,81.185249 
	C44.048378,81.072342 44.406731,81.148254 44.765079,81.224167 
z"/>
<path fill="#97CBBC" opacity="1.000000" stroke="none" 
	d="
M48.403008,89.100952 
	C48.105728,88.736687 48.080750,88.525993 48.010971,87.819336 
	C47.966175,87.323372 47.989841,86.958580 47.989841,86.958580 
	C47.989841,86.958580 47.997204,86.990234 47.978466,86.986679 
	C48.137302,86.981018 48.314873,86.978912 49.061081,87.130096 
	C51.360390,89.572441 53.091064,91.861496 54.519497,94.096992 
	C53.489513,93.675842 52.761768,93.308258 52.034027,92.940666 
	C51.616890,92.615921 51.199749,92.291168 50.515739,91.929733 
	C49.724342,91.013535 49.199825,90.134033 48.403008,89.100952 
z"/>
<path fill="#C7DFE8" opacity="1.000000" stroke="none" 
	d="
M52.025234,93.297661 
	C52.761768,93.308258 53.489513,93.675842 54.659336,94.284485 
	C55.302780,94.772552 55.551991,94.953720 55.849049,95.069061 
	C56.562931,96.137657 57.276817,97.206245 58.081902,98.590073 
	C57.019478,98.627373 55.865852,98.349442 54.356392,98.036972 
	C53.339184,96.553177 52.677814,95.103920 52.025234,93.297661 
z"/>
<path fill="#D9D9F0" opacity="1.000000" stroke="none" 
	d="
M69.964958,73.890961 
	C70.058319,75.070320 70.151680,76.249687 70.129181,77.726288 
	C69.333366,81.984688 66.492157,82.407280 63.340801,81.847939 
	C60.045326,81.263000 56.808113,80.349846 53.269302,79.293243 
	C56.495857,77.408165 59.998535,75.810005 64.180222,74.203308 
	C66.561142,74.093513 68.263046,73.992241 69.964958,73.890961 
z"/>
<path fill="#6266AF" opacity="1.000000" stroke="none" 
	d="
M69.499504,69.932304 
	C68.456062,68.497070 67.231773,67.157387 66.411171,65.604408 
	C65.150810,63.219200 64.167953,60.687363 63.067341,58.217747 
	C66.233887,57.332336 69.496735,55.510761 72.540009,55.823795 
	C75.606621,56.139236 75.593842,60.226604 73.278595,64.195305 
	C72.458656,65.600800 72.597183,67.565422 71.903252,69.640358 
	C70.838745,69.981392 70.169128,69.956848 69.499504,69.932304 
M65.603867,60.972546 
	C66.968590,61.501350 68.466660,62.630028 69.655121,62.365856 
	C70.577133,62.160919 71.323006,60.278595 71.697968,59.009186 
	C71.818443,58.601307 70.160225,57.108025 69.906654,57.240696 
	C68.278748,58.092403 66.815140,59.258129 65.603867,60.972546 
z"/>
<path fill="#D8DAED" opacity="1.000000" stroke="none" 
	d="
M53.777973,68.264137 
	C50.142811,64.170471 53.109425,62.286850 56.135189,59.818813 
	C57.846260,61.677860 59.435165,63.404175 61.281353,65.410027 
	C58.967949,67.294220 58.698811,72.556786 53.777973,68.264137 
z"/>
<path fill="#9192C0" opacity="1.000000" stroke="none" 
	d="
M69.209915,70.018692 
	C70.169128,69.956848 70.838745,69.981392 72.013985,69.979340 
	C72.719681,69.970726 72.874031,70.064301 73.103470,70.756004 
	C73.540329,71.999596 73.856384,72.720673 74.172432,73.441757 
	C72.843849,73.419258 71.515274,73.396759 70.075821,73.632614 
	C68.263046,73.992241 66.561142,74.093513 64.555054,74.051582 
	C63.821377,72.681564 63.391884,71.454750 62.806427,69.782440 
	C65.090042,69.579285 67.039841,74.071945 69.209915,70.018692 
z"/>
<path fill="#A2A5D2" opacity="1.000000" stroke="none" 
	d="
M52.359612,43.799614 
	C54.099598,42.258465 56.228291,40.785439 58.660225,39.159863 
	C58.963470,41.210587 58.963470,43.413864 58.963470,45.622513 
	C56.391117,44.896236 54.569717,44.381985 52.359612,43.799614 
z"/>
<path fill="#5F639F" opacity="1.000000" stroke="none" 
	d="
M55.477585,52.130745 
	C53.247375,51.900204 50.510067,52.365005 51.115227,48.503185 
	C52.861221,48.038849 54.614056,47.970165 56.366890,47.901482 
	C56.165779,49.232746 55.964672,50.564014 55.477585,52.130745 
z"/>
<path fill="#8B8EB7" opacity="1.000000" stroke="none" 
	d="
M74.546906,73.375854 
	C73.856384,72.720673 73.540329,71.999596 73.157104,70.887177 
	C74.802521,69.368530 76.515114,68.241226 78.577286,67.091385 
	C78.542320,69.759308 78.778824,72.848358 74.546906,73.375854 
z"/>
<path fill="#9096DE" opacity="1.000000" stroke="none" 
	d="
M80.996033,50.002625 
	C80.577080,49.995964 80.158119,49.989307 79.426834,49.974586 
	C78.824593,49.794003 78.534676,49.621490 78.122162,48.808479 
	C77.997757,46.780613 77.995949,45.393246 77.998734,44.001350 
	C78.003326,43.996830 78.012177,43.988464 78.323685,44.027260 
	C79.424103,44.708950 80.213013,45.351849 81.001511,46.395485 
	C80.999405,47.865025 80.997719,48.933826 80.996033,50.002625 
z"/>
<path fill="#9298D6" opacity="1.000000" stroke="none" 
	d="
M53.004200,29.998600 
	C53.193607,29.988089 53.383018,29.977575 54.150970,29.980118 
	C55.126106,30.029068 55.522705,30.064960 55.919304,30.100853 
	C55.919304,30.100853 55.903511,30.122953 55.887077,30.135149 
	C55.920948,30.838579 55.971256,31.529816 56.015934,32.918587 
	C56.005604,34.081272 56.000904,34.546413 55.630386,34.963612 
	C54.511112,33.276642 53.757656,31.637623 53.004200,29.998600 
z"/>
<path fill="#8E94DC" opacity="1.000000" stroke="none" 
	d="
M77.994141,44.005875 
	C77.995949,45.393246 77.997757,46.780613 77.999634,48.584213 
	C77.178825,48.443962 76.357933,47.887478 75.265846,47.206848 
	C74.994949,46.311493 74.995255,45.540295 75.371994,44.384544 
	C76.497002,44.001953 77.245567,44.003914 77.994141,44.005875 
z"/>
<path fill="#A2A3D5" opacity="1.000000" stroke="none" 
	d="
M55.996204,35.011559 
	C56.000904,34.546413 56.005604,34.081272 56.029053,33.266510 
	C56.679550,33.731522 57.311306,34.546154 57.969280,35.681313 
	C57.553741,35.998188 57.111977,35.994534 56.336933,35.744415 
	C56.003651,35.497948 55.996204,35.011559 55.996204,35.011559 
z"/>
<path fill="#4C56C5" opacity="1.000000" stroke="none" 
	d="
M33.015282,59.621227 
	C32.685879,60.064899 32.387993,60.170380 31.857653,60.296478 
	C28.348316,59.167435 24.950298,52.215725 26.244406,48.997421 
	C26.554895,48.225269 27.658888,47.175304 28.280842,47.248478 
	C29.610739,47.404938 31.489939,47.867569 32.017113,48.825203 
	C33.079807,50.755627 33.389881,53.100357 34.027054,55.682564 
	C33.711460,57.155197 33.379246,58.219440 33.015282,59.621227 
z"/>
<path fill="#8C94DE" opacity="1.000000" stroke="none" 
	d="
M42.641304,38.170376 
	C45.005009,43.015022 42.694687,49.996429 37.246475,53.964237 
	C38.712982,48.795452 40.546303,43.594402 42.641304,38.170376 
z"/>
<path fill="#8C94DE" opacity="1.000000" stroke="none" 
	d="
M45.109592,29.358387 
	C46.201073,28.994532 47.216026,28.997969 48.615265,29.376953 
	C48.999237,30.502733 48.998932,31.252970 48.998627,32.003204 
	C47.909641,31.999533 46.820660,31.995861 45.320831,31.980225 
	C44.951015,31.220734 44.992043,30.473207 45.109592,29.358387 
z"/>
<path fill="#8C94DE" opacity="1.000000" stroke="none" 
	d="
M43.651123,35.048561 
	C43.741692,35.271076 43.640823,35.623608 43.306717,35.988136 
	C43.093853,35.675327 43.222595,35.401478 43.651123,35.048561 
z"/>
<path fill="#9196E0" opacity="1.000000" stroke="none" 
	d="
M49.006393,32.402374 
	C48.998932,31.252970 48.999237,30.502733 48.998856,29.377508 
	C49.444721,29.000744 49.891273,28.998970 50.672859,28.993393 
	C51.007889,28.989590 51.000351,28.999413 51.167694,29.243858 
	C51.889977,29.657578 52.444912,29.826849 52.999847,29.996120 
	C52.999847,29.996120 53.000088,29.999847 53.002144,29.999224 
	C53.757656,31.637623 54.511112,33.276642 55.630386,34.963612 
	C55.996204,35.011559 56.003651,35.497948 56.005569,35.740959 
	C54.795582,36.981548 53.583672,37.979122 52.371765,38.976692 
	C51.493000,37.859673 50.490005,36.815300 49.779270,35.600006 
	C49.307770,34.793781 49.254597,33.742908 49.006393,32.402374 
z"/>
<path fill="#4C56C5" opacity="1.000000" stroke="none" 
	d="
M82.898132,35.156769 
	C83.475517,32.467289 84.052895,29.777811 84.858093,26.027147 
	C84.703262,25.965984 83.538795,25.272036 82.295074,25.072792 
	C80.673187,24.812962 78.800072,25.390768 77.380791,24.790581 
	C75.779816,24.113562 74.562881,22.528391 73.178925,21.338196 
	C74.687325,20.559681 76.201233,19.118696 77.703049,19.131207 
	C81.655991,19.164129 85.874832,17.742083 89.304169,21.619160 
	C91.753822,24.388653 93.579933,26.559196 92.236038,30.689871 
	C91.240807,33.748859 91.708008,37.283638 91.480583,41.384453 
	C89.109291,39.829933 87.805023,38.974903 85.875443,37.965832 
	C84.466125,36.926781 83.682137,36.041775 82.898132,35.156769 
z"/>
<path fill="#9096DE" opacity="1.000000" stroke="none" 
	d="
M82.570717,35.064911 
	C83.682137,36.041775 84.466125,36.926781 85.515411,37.969948 
	C85.874207,38.834019 85.967705,39.539932 85.727829,40.612740 
	C82.994476,40.755718 80.594513,40.531796 78.012177,40.290855 
	C78.012177,41.430443 78.012177,42.709454 78.012177,43.988464 
	C78.012177,43.988464 78.003326,43.996830 77.998734,44.001350 
	C77.245567,44.003914 76.497002,44.001953 75.374054,43.999763 
	C74.778839,40.683018 74.557999,37.366497 74.311508,33.664860 
	C70.124519,31.615086 63.931068,30.851538 64.065620,23.202236 
	C70.795555,23.419178 75.361496,27.538214 79.586731,32.228588 
	C80.438347,33.173954 81.356056,34.059776 82.570717,35.064911 
z"/>
<path fill="#8E94DC" opacity="1.000000" stroke="none" 
	d="
M81.409279,50.007378 
	C80.997719,48.933826 80.999405,47.865025 81.354721,46.361370 
	C83.840866,44.930470 85.973373,43.934425 88.105888,42.938377 
	C88.666794,43.370281 89.227699,43.802181 89.938408,44.448166 
	C89.191406,49.316849 85.967102,50.375412 81.409279,50.007378 
z"/>
<path fill="#8996D2" opacity="1.000000" stroke="none" 
	d="
M87.979164,42.679565 
	C85.973373,43.934425 83.840866,44.930470 81.355141,45.960632 
	C80.213013,45.351849 79.424103,44.708950 78.323685,44.027260 
	C78.012177,42.709454 78.012177,41.430443 78.012177,40.290855 
	C80.594513,40.531796 82.994476,40.755718 85.765167,40.968231 
	C86.708069,41.444794 87.280258,41.932774 87.979164,42.679565 
z"/>
<path fill="#5056C3" opacity="1.000000" stroke="none" 
	d="
M29.071762,90.009644 
	C30.180893,90.105011 31.290024,90.200371 31.941233,90.256363 
	C31.941233,95.439369 32.125378,100.272034 31.848822,105.078186 
	C31.741158,106.949219 30.833876,108.897797 29.872244,110.570404 
	C27.868557,114.055542 25.585922,117.380295 22.270853,120.486649 
	C23.142527,113.891434 24.014198,107.296227 24.785864,100.256836 
	C24.685856,99.812653 24.731710,99.837608 25.117065,99.745422 
	C26.001307,97.783081 26.500191,95.912918 27.086258,93.728920 
	C27.806215,92.279930 28.438988,91.144783 29.071762,90.009644 
z"/>
<path fill="#E7EAF6" opacity="1.000000" stroke="none" 
	d="
M29.015404,89.744179 
	C28.438988,91.144783 27.806215,92.279930 26.889614,93.724297 
	C26.605789,94.033516 26.224113,94.129684 26.224113,94.129684 
	C24.578609,93.463516 22.933107,92.797340 20.915287,92.000381 
	C20.809042,91.386253 21.075111,90.902901 21.533222,90.226402 
	C23.843775,89.679619 25.962288,89.325974 28.477503,88.957481 
	C28.902487,89.121323 28.930767,89.300018 29.015404,89.744179 
z"/>
<path fill="#D2D5F7" opacity="1.000000" stroke="none" 
	d="
M37.982658,78.280632 
	C38.198807,78.093048 38.468979,78.218788 38.821819,78.625092 
	C38.599316,78.873924 38.310047,78.770020 37.982658,78.280632 
z"/>
<path fill="#E7EAF6" opacity="1.000000" stroke="none" 
	d="
M29.156183,88.799248 
	C29.022030,88.599182 29.153952,88.390862 29.505766,88.125290 
	C29.748198,88.347939 29.647064,88.588913 29.156183,88.799248 
z"/>
<path fill="#97CBBC" opacity="1.000000" stroke="none" 
	d="
M44.999466,80.916672 
	C44.406731,81.148254 44.048378,81.072342 43.418262,80.961151 
	C42.949436,80.392303 42.752380,79.858734 42.338757,79.136871 
	C42.220440,77.733261 42.318691,76.517960 42.416939,75.302650 
	C42.853043,75.074608 43.289146,74.846565 43.725250,74.618523 
	C44.868488,76.071541 46.011723,77.524567 47.241821,79.313690 
	C46.630405,79.969582 45.932129,80.289383 44.999466,80.916672 
z"/>
<path fill="#C7DFE8" opacity="1.000000" stroke="none" 
	d="
M81.184113,112.256462 
	C81.350418,109.916176 82.141533,107.816315 81.965172,105.801132 
	C81.669853,102.426895 80.757393,99.106682 80.170944,95.356857 
	C82.963997,97.965004 86.101944,100.662186 85.117058,105.557922 
	C84.810959,107.079506 85.940842,108.889977 86.702637,110.795914 
	C86.927589,112.452423 86.863235,113.881195 86.758041,116.216797 
	C84.599648,114.740791 82.986839,113.637871 81.184113,112.256462 
z"/>
<path fill="#5D63B5" opacity="1.000000" stroke="none" 
	d="
M26.178719,94.500793 
	C26.224113,94.129684 26.605789,94.033516 26.802433,94.038139 
	C26.500191,95.912918 26.001307,97.783081 25.135603,99.763794 
	C25.223631,98.206871 25.678476,96.539391 26.178719,94.500793 
z"/>
<path fill="#D6D8F6" opacity="1.000000" stroke="none" 
	d="
M55.909668,29.770775 
	C55.522705,30.064960 55.126106,30.029068 54.434486,29.955830 
	C54.099804,29.491785 54.060146,29.065086 54.023251,28.316349 
	C54.650684,28.476439 55.275360,28.958567 55.909668,29.770775 
z"/>
<path fill="#9298D6" opacity="1.000000" stroke="none" 
	d="
M52.835556,29.748857 
	C52.444912,29.826849 51.889977,29.657578 51.171165,29.240616 
	C51.561951,29.162483 52.116608,29.332041 52.835556,29.748857 
z"/>
<path fill="#61D0A3" opacity="1.000000" stroke="none" 
	d="
M56.222847,95.073257 
	C55.551991,94.953720 55.302780,94.772552 54.961575,94.338058 
	C53.091064,91.861496 51.360390,89.572441 49.327431,87.126328 
	C50.942352,84.081703 53.266701,82.937553 56.133644,85.651245 
	C59.957096,89.270294 63.663452,93.013062 67.725952,97.219864 
	C68.096535,98.475723 68.161278,99.214409 68.226021,99.953094 
	C64.349564,98.327881 60.473103,96.702660 56.222847,95.073257 
z"/>
<path fill="#5FD1A1" opacity="1.000000" stroke="none" 
	d="
M70.276855,91.824829 
	C70.125916,89.984253 69.847290,87.150963 70.689636,86.765175 
	C72.387955,85.987343 75.700775,85.721931 76.523720,86.731644 
	C77.851685,88.360992 77.705505,91.191803 78.313347,94.155746 
	C74.893837,93.165955 72.775078,92.552681 70.276855,91.824829 
z"/>
<path fill="#E4FCF2" opacity="1.000000" stroke="none" 
	d="
M68.564270,100.136200 
	C68.161278,99.214409 68.096535,98.475723 68.029579,97.365784 
	C70.143875,96.334335 72.260384,95.674141 74.779449,94.888374 
	C74.779449,97.120964 74.779449,98.826149 74.779449,101.243561 
	C72.567406,100.895676 70.734955,100.607491 68.564270,100.136200 
z"/>
<path fill="#77CAAF" opacity="1.000000" stroke="none" 
	d="
M47.856667,87.038948 
	C47.989841,86.958580 47.966175,87.323372 47.985268,87.502113 
	C48.004364,87.680855 47.635345,87.504036 47.635345,87.504036 
	C47.635345,87.504036 47.723495,87.119316 47.856667,87.038948 
z"/>
<path fill="#4F54BF" opacity="1.000000" stroke="none" 
	d="
M65.450706,60.646610 
	C66.815140,59.258129 68.278748,58.092403 69.906654,57.240696 
	C70.160225,57.108025 71.818443,58.601307 71.697968,59.009186 
	C71.323006,60.278595 70.577133,62.160919 69.655121,62.365856 
	C68.466660,62.630028 66.968590,61.501350 65.450706,60.646610 
z"/>
</svg>