<?xml version="1.0" standalone="no"?>
<!DOCTYPE svg PUBLIC "-//W3C//DTD SVG 20010904//EN"
 "http://www.w3.org/TR/2001/REC-SVG-20010904/DTD/svg10.dtd">
<svg version="1.0" xmlns="http://www.w3.org/2000/svg"
 width="138.000000pt" height="145.000000pt" viewBox="0 0 138.000000 145.000000"
 preserveAspectRatio="xMidYMid meet">
<metadata>
Created by potrace 1.10, written by Peter Selinger 2001-2011
</metadata>
<g transform="translate(0.000000,145.000000) scale(0.100000,-0.100000)"
fill="#000000" stroke="none">
<path d="M300 1324 c0 -12 3 -14 13 -6 8 7 18 7 27 2 22 -14 30 -12 24 5 -8
21 -64 20 -64 -1z"/>
<path d="M328 1203 c-8 -19 -13 -105 -14 -258 -1 -142 -6 -247 -14 -275 -18
-69 -7 -260 20 -335 11 -33 25 -75 30 -94 8 -34 40 -76 40 -54 0 6 7 19 16 27
17 17 11 38 -9 30 -20 -7 -51 74 -64 169 -3 20 -9 37 -13 37 -14 0 -2 242 13
256 4 4 4 17 1 29 -3 13 -1 26 5 29 6 4 11 15 11 25 0 22 65 91 85 91 8 0 15
5 15 10 0 6 11 10 25 10 21 0 25 5 25 29 0 17 -4 32 -9 35 -5 3 -12 18 -16 33
-13 52 -107 233 -121 233 -8 0 -20 -12 -26 -27z m91 -143 c17 -35 31 -71 31
-80 0 -9 6 -22 13 -29 10 -10 5 -18 -23 -42 -19 -16 -40 -29 -47 -29 -7 0 -13
-7 -13 -15 0 -8 -9 -15 -20 -15 -20 0 -25 23 -23 100 0 14 2 66 3 115 1 50 4
94 7 98 7 12 38 -32 72 -103z"/>
<path d="M727 954 c-3 -4 -34 -10 -69 -14 -35 -4 -81 -15 -103 -24 l-40 -17
60 6 c33 4 76 8 95 11 57 7 62 -2 63 -117 1 -75 -3 -121 -17 -163 -9 -33 -21
-55 -24 -49 -10 15 -67 42 -83 39 -66 -13 -109 -55 -108 -105 l1 -36 10 30 c6
17 18 38 26 48 22 25 82 52 90 41 4 -5 16 -14 27 -20 11 -6 24 -20 30 -32 18
-41 25 -31 51 76 20 83 27 332 9 332 -6 0 -14 -3 -18 -6z"/>
<path d="M908 830 c-8 -18 -35 -159 -41 -217 -9 -78 18 -25 37 72 16 84 19
180 4 145z"/>
<path d="M571 511 c-16 -29 -13 -56 7 -74 27 -24 36 -21 67 19 34 45 25 68
-28 72 -27 2 -38 -2 -46 -17z"/>
<path d="M493 326 c-43 -41 -71 -76 -63 -76 18 0 157 137 148 146 -4 3 -42
-28 -85 -70z"/>
<path d="M430 170 c-32 -7 -31 -7 18 -9 33 -1 51 3 47 9 -7 11 -13 11 -65 0z"/>
</g>
</svg>
