<?xml version="1.0" standalone="no"?>
<!DOCTYPE svg PUBLIC "-//W3C//DTD SVG 20010904//EN"
 "http://www.w3.org/TR/2001/REC-SVG-20010904/DTD/svg10.dtd">
<svg version="1.0" xmlns="http://www.w3.org/2000/svg"
 width="121.000000pt" height="123.000000pt" viewBox="0 0 121.000000 123.000000"
 preserveAspectRatio="xMidYMid meet">
<metadata>
Created by potrace 1.10, written by Peter Selinger 2001-2011
</metadata>
<g transform="translate(0.000000,123.000000) scale(0.100000,-0.100000)"
fill="#000000" stroke="none">
<path d="M351 1049 c-71 -14 -127 -46 -145 -83 -21 -44 -21 -190 -1 -266 18
-70 45 -130 58 -130 16 0 66 62 124 155 118 191 201 267 305 281 27 4 47 8 45
10 -6 6 -286 44 -315 43 -15 -1 -47 -5 -71 -10z m178 -30 l65 -12 -35 -30
c-19 -16 -50 -45 -70 -63 -20 -18 -40 -30 -45 -26 -4 4 -4 2 0 -5 9 -17 -76
-147 -86 -131 -5 9 -8 6 -8 -8 0 -12 -15 -45 -34 -73 -30 -45 -36 -49 -49 -36
-8 8 -20 38 -26 67 -7 29 -17 72 -23 95 -21 86 15 179 81 205 22 9 94 21 150
27 8 0 44 -4 80 -10z"/>
<path d="M790 910 c-169 -22 -290 -94 -348 -205 -51 -98 -38 -323 25 -462 14
-29 28 -53 31 -53 15 0 192 181 187 190 -8 13 -25 13 -25 -1 0 -6 -33 -41 -72
-79 -69 -65 -73 -68 -89 -51 -9 10 -20 33 -24 52 -4 19 -11 39 -15 44 -16 20
-33 168 -27 240 4 55 13 88 33 125 15 27 29 48 31 47 2 -2 19 11 38 29 30 28
82 58 150 85 32 12 113 21 135 14 18 -6 20 -15 20 -106 0 -96 -13 -184 -31
-203 -5 -5 -14 -5 -22 2 -21 18 -92 25 -115 13 -42 -22 -68 -103 -46 -142 12
-23 13 -22 7 12 -15 98 84 157 148 88 l29 -31 11 29 c30 74 37 118 38 241 1
73 -2 131 -6 131 -4 -1 -33 -5 -63 -9z"/>
<path d="M977 685 c-10 -57 -10 -59 -8 -100 1 -25 3 -27 12 -13 5 10 9 50 7
90 l-3 73 -8 -50z"/>
<path d="M687 502 c-22 -24 -22 -71 1 -88 25 -19 27 -18 62 26 31 39 32 42 15
60 -23 25 -57 26 -78 2z m53 -32 c0 -3 -5 -12 -10 -20 -9 -13 -11 -13 -20 0
-15 22 -12 29 10 27 11 -1 20 -4 20 -7z"/>
<path d="M793 275 c-25 -24 -29 -35 -14 -35 5 0 19 14 31 30 25 35 15 38 -17
5z"/>
</g>
</svg>
