<?xml version="1.0" standalone="no"?>
<!DOCTYPE svg PUBLIC "-//W3C//DTD SVG 20010904//EN"
 "http://www.w3.org/TR/2001/REC-SVG-20010904/DTD/svg10.dtd">
<svg version="1.0" xmlns="http://www.w3.org/2000/svg"
 width="147.000000pt" height="131.000000pt" viewBox="0 0 147.000000 131.000000"
 preserveAspectRatio="xMidYMid meet">
<metadata>
Created by potrace 1.10, written by Peter Selinger 2001-2011
</metadata>
<g transform="translate(0.000000,131.000000) scale(0.100000,-0.100000)"
fill="#000000" stroke="none">
<path d="M530 1130 c-108 -17 -229 -76 -266 -129 -54 -76 -5 -361 87 -507 l31
-47 29 31 c34 37 89 127 89 147 0 8 5 15 10 15 6 0 10 6 10 14 0 7 10 33 23
57 13 24 31 63 40 87 48 120 219 290 293 292 13 0 33 -43 35 -75 6 -76 -4
-225 -17 -266 -9 -27 -17 -49 -18 -49 -1 0 -21 9 -44 20 -50 24 -80 25 -112 3
-54 -37 -74 -85 -54 -129 l14 -29 -4 29 c-6 44 10 78 49 105 55 37 116 18 140
-44 6 -17 9 -15 24 20 30 68 40 126 42 250 3 118 2 122 -24 157 -23 30 -35 36
-80 42 -100 12 -242 15 -297 6z m218 -36 c23 -3 42 -8 42 -12 0 -4 -14 -16
-30 -28 -37 -25 -131 -132 -151 -171 -7 -15 -17 -30 -20 -33 -4 -3 -19 -34
-34 -70 -15 -36 -42 -92 -60 -125 -18 -34 -36 -75 -40 -93 -3 -18 -10 -30 -14
-27 -5 2 -16 -4 -26 -15 -25 -28 -32 -26 -57 22 -40 77 -74 202 -83 312 -6 73
18 161 42 152 8 -3 11 -1 8 4 -3 5 16 19 42 31 45 21 60 27 108 45 11 4 47 9
80 11 33 3 61 6 63 8 3 3 43 0 130 -11z"/>
<path d="M1033 730 c0 -36 2 -50 4 -32 2 17 2 47 0 65 -2 17 -4 3 -4 -33z"/>
<path d="M744 632 c-19 -12 -33 -48 -28 -68 3 -10 17 -25 32 -32 25 -12 29
-11 59 25 36 42 39 53 21 71 -13 13 -67 16 -84 4z m49 -28 c7 1 9 1 5 -1 -5
-3 -8 -11 -8 -19 0 -9 -4 -12 -10 -9 -6 3 -7 -1 -4 -9 4 -11 0 -16 -10 -16 -9
0 -16 8 -16 20 0 22 23 54 28 40 2 -5 9 -8 15 -6z"/>
<path d="M642 410 c-56 -55 -106 -100 -111 -100 -14 0 -26 22 -22 44 1 10 -2
16 -7 12 -5 -3 -12 13 -15 36 -3 23 -15 50 -27 62 l-22 21 6 -30 c7 -28 65
-186 71 -193 4 -4 245 235 245 242 0 17 -25 -3 -118 -94z"/>
<path d="M875 360 c-26 -17 -51 -57 -42 -66 2 -2 21 14 42 36 44 45 44 59 0
30z"/>
</g>
</svg>
