<svg version="1.1" id="Layer_1" xmlns="http://www.w3.org/2000/svg" xmlns:xlink="http://www.w3.org/1999/xlink" x="0px" y="0px"
	 width="100%" viewBox="0 0 149 116" enable-background="new 0 0 149 116" xml:space="preserve">
<path fill="#FEFEFE" opacity="1.000000" stroke="none" 
	d="
M104.000000,117.000000 
	C69.333336,117.000000 35.166668,117.000000 1.000000,117.000000 
	C1.000000,78.333336 1.000000,39.666668 1.000000,1.000000 
	C50.666668,1.000000 100.333336,1.000000 150.000000,1.000000 
	C150.000000,39.666668 150.000000,78.333336 150.000000,117.000000 
	C134.833328,117.000000 119.666664,117.000000 104.000000,117.000000 
M113.001709,67.998970 
	C113.001709,67.998970 113.037018,67.940666 113.133202,68.681076 
	C115.100616,69.534180 117.068039,70.387291 119.727829,71.540619 
	C119.878677,68.745323 119.974663,66.966621 120.172974,64.676567 
	C120.407692,64.433548 120.642410,64.190529 121.654907,63.914303 
	C128.550079,61.838032 129.350067,59.662384 125.503563,53.120918 
	C125.684250,52.744488 125.864937,52.368057 126.633369,51.536030 
	C127.024254,49.526508 127.415138,47.516991 127.756027,44.736343 
	C129.577942,35.830368 128.058136,32.683670 119.470375,28.412489 
	C108.032608,22.723829 96.173347,23.241470 83.285156,26.135887 
	C80.599686,26.168634 77.914207,26.201384 74.455750,25.838463 
	C70.250504,25.609089 66.045250,25.379715 61.180286,25.098541 
	C60.747955,25.164518 60.315620,25.230494 59.010326,25.161751 
	C55.358253,24.868710 51.707741,24.554331 48.053791,24.286947 
	C39.773090,23.680996 31.779230,24.528502 24.334940,28.642782 
	C20.267040,30.891014 17.555737,34.506687 18.350559,38.764488 
	C19.920143,47.172630 22.453770,55.415104 24.881763,63.639580 
	C25.567078,65.960976 27.518494,67.126167 30.436440,65.556175 
	C30.642115,65.582878 30.847792,65.609589 31.216700,66.340569 
	C31.320387,66.558090 31.424074,66.775620 31.377350,67.701584 
	C32.900280,70.971245 34.423210,74.240913 35.921131,78.093956 
	C36.264778,78.738914 36.608421,79.383865 36.974335,80.791054 
	C38.291054,84.108612 39.156307,87.714523 41.042789,90.668175 
	C43.228043,94.089615 46.311073,96.937653 49.634727,100.060135 
	C50.055416,100.064529 50.476105,100.068916 50.944138,100.808105 
	C51.939976,104.817436 54.388641,105.658112 58.403004,104.591507 
	C60.937935,105.367264 63.472870,106.143021 66.540009,107.528839 
	C67.177261,107.674522 67.823555,107.978523 68.450447,107.942741 
	C84.366821,107.034119 95.740280,99.186325 103.754082,84.973839 
	C104.549118,83.575050 105.588966,82.258629 106.092552,80.761780 
	C107.510727,76.546463 108.708382,72.256943 110.758751,68.003532 
	C111.524422,67.988159 112.290100,67.972786 113.001709,67.998970 
z"/>
<path fill="#D9D9F2" opacity="1.000000" stroke="none" 
	d="
M103.069527,85.195755 
	C95.740280,99.186325 84.366821,107.034119 68.450447,107.942741 
	C67.823555,107.978523 67.177261,107.674522 66.299248,106.926788 
	C66.447342,105.632286 66.836205,104.939827 67.545853,104.127480 
	C69.288902,101.022942 70.711159,98.038300 72.489975,95.022148 
	C75.232285,93.488037 77.618042,91.985428 80.003799,90.482819 
	C79.769928,89.948288 79.536057,89.413757 79.302185,88.879219 
	C75.133858,88.980576 70.333855,92.162903 67.199768,86.648750 
	C67.130943,86.413376 66.876411,85.994141 67.006088,85.664490 
	C68.138443,82.986069 69.141113,80.637291 70.467194,78.166832 
	C73.045555,74.037483 70.356285,71.772736 67.296326,71.515114 
	C63.617645,71.205399 59.802944,72.511299 56.033318,72.728088 
	C56.013000,71.558784 56.006500,70.779106 56.371254,69.959274 
	C60.410622,69.306221 64.078735,68.693321 67.711113,68.086395 
	C67.743286,67.598259 67.903114,67.075874 67.765564,66.979958 
	C64.863083,64.956017 61.927071,62.980160 58.998055,60.566154 
	C58.999580,58.421875 59.000679,56.706326 59.290569,54.851646 
	C60.053032,53.809139 60.526703,52.905750 61.313217,51.837353 
	C62.568424,49.798794 63.581932,47.956982 64.435364,46.043766 
	C65.532066,43.585201 64.487419,42.307568 61.945919,41.546383 
	C61.955654,38.061615 61.980293,35.030823 62.349770,31.943840 
	C63.581234,30.084145 67.704315,27.791687 61.936138,26.683380 
	C61.891651,25.967457 61.865826,25.558899 61.840000,25.150341 
	C66.045250,25.379715 70.250504,25.609089 74.779190,26.378727 
	C74.719032,28.276512 74.335419,29.634033 73.793167,31.314449 
	C72.588554,34.424469 71.031212,37.136387 70.607857,40.015079 
	C69.833786,45.278511 68.146111,50.906513 73.063400,55.647381 
	C73.888824,56.619778 74.722229,57.281094 75.618881,58.311592 
	C76.748520,60.170242 77.814903,61.659714 78.936859,63.471581 
	C79.937134,64.614510 80.881836,65.435043 81.933807,66.443100 
	C82.224144,66.864487 82.455818,67.030525 82.837585,67.448212 
	C83.924652,68.546501 84.910240,69.325333 85.892822,70.123650 
	C85.889809,70.143143 85.861290,70.174225 85.927017,70.507889 
	C91.685005,75.626282 97.377266,80.411018 103.069527,85.195755 
z"/>
<path fill="#505ABD" opacity="1.000000" stroke="none" 
	d="
M120.877136,63.947510 
	C120.642410,64.190529 120.407692,64.433548 119.802734,65.076279 
	C117.300667,66.297554 115.168839,67.119110 113.037018,67.940666 
	C113.037018,67.940666 113.001709,67.998970 112.879570,67.696045 
	C111.840790,66.907570 110.924141,66.422012 110.042847,65.896332 
	C110.078201,65.856209 110.014427,65.770340 109.882149,65.483047 
	C99.212433,54.073509 90.802307,41.457703 83.726204,27.705486 
	C83.950363,27.060568 84.069069,26.689497 84.187775,26.318426 
	C96.173347,23.241470 108.032608,22.723829 119.470375,28.412489 
	C128.058136,32.683670 129.577942,35.830368 127.522980,45.409393 
	C126.875168,48.052174 126.460396,50.021900 126.045624,51.991627 
	C125.864937,52.368057 125.684250,52.744488 125.197693,53.632576 
	C123.553589,57.411991 122.215355,60.679749 120.877136,63.947510 
M122.107918,37.215969 
	C122.308289,40.038883 122.508667,42.861794 122.709038,45.684708 
	C126.972763,42.731846 126.138702,39.565014 124.834930,36.464882 
	C124.712914,36.174740 123.232391,36.455917 122.107918,37.215969 
z"/>
<path fill="#9198D7" opacity="1.000000" stroke="none" 
	d="
M61.510143,25.124443 
	C61.865826,25.558899 61.891651,25.967457 61.710907,26.908691 
	C61.671207,28.960924 61.838074,30.480478 62.004936,32.000034 
	C61.980293,35.030823 61.955654,38.061615 61.799583,41.904716 
	C61.055992,45.779015 60.443825,48.840996 59.438858,51.953259 
	C58.079704,51.894279 57.040520,51.978134 56.158455,51.645428 
	C48.598206,48.793766 45.651764,50.915707 45.710518,58.958183 
	C43.872814,59.671047 42.465889,60.362888 41.058964,61.054729 
	C42.373566,62.372971 43.688168,63.691216 44.966621,65.358795 
	C43.637768,68.158722 42.345066,70.609322 41.026093,73.030464 
	C40.999821,73.000999 41.059765,73.052086 40.648811,73.034714 
	C37.667328,73.150154 35.467567,72.988602 34.636204,69.744148 
	C34.351871,68.634499 32.605919,67.899384 31.527760,66.993141 
	C31.424074,66.775620 31.320387,66.558090 31.065445,65.723618 
	C30.870514,64.927383 30.826838,64.748108 30.881554,64.243515 
	C32.022575,61.624714 33.065205,59.331226 34.141525,56.854713 
	C34.175217,56.671692 34.193520,56.299946 34.512642,56.158524 
	C36.879253,52.346584 38.926746,48.676060 41.328094,44.967331 
	C43.765293,41.598324 45.848640,38.267529 47.944527,34.950348 
	C47.957058,34.963959 47.946545,34.965706 48.118797,34.908260 
	C48.371666,34.764172 48.537289,34.640053 48.518425,34.597271 
	C48.428955,34.394333 48.289162,34.213581 48.159863,33.797924 
	C48.152431,33.570923 48.119911,33.117844 48.134716,33.111832 
	C48.149521,33.105820 48.178867,33.133739 48.522099,33.067001 
	C52.537983,30.432333 56.210636,27.864401 59.883289,25.296469 
	C60.315620,25.230494 60.747955,25.164518 61.510143,25.124443 
z"/>
<path fill="#D8DAF2" opacity="1.000000" stroke="none" 
	d="
M56.000000,69.999420 
	C56.006500,70.779106 56.013000,71.558784 55.993835,73.144501 
	C55.187443,78.742836 57.041004,82.336853 61.002636,85.238396 
	C61.015038,85.669518 61.009968,85.842155 60.722084,86.137222 
	C59.966381,86.924026 59.493481,87.588402 58.601974,88.255875 
	C55.211235,87.675690 52.239101,87.092415 47.932549,86.247261 
	C50.424587,89.485344 52.170036,91.753342 53.617249,94.178894 
	C51.880798,96.235832 50.442577,98.135223 49.004364,100.034615 
	C46.311073,96.937653 43.228043,94.089615 41.042789,90.668175 
	C39.156307,87.714523 38.291054,84.108612 37.292343,80.264458 
	C38.919674,79.074890 40.350445,78.576538 41.515041,77.717392 
	C44.729542,75.345978 48.003761,73.006073 50.907074,70.283379 
	C52.334969,68.944313 52.994610,66.786034 54.344460,65.003372 
	C55.183903,65.755257 55.903419,66.444580 56.115955,67.265198 
	C56.334728,68.109932 56.059223,69.082687 56.000000,69.999420 
z"/>
<path fill="#5C62BA" opacity="1.000000" stroke="none" 
	d="
M34.107826,57.037735 
	C33.065205,59.331226 32.022575,61.624714 30.723019,64.317703 
	C30.259026,64.824844 30.088062,64.973846 29.953199,65.164223 
	C27.518494,67.126167 25.567078,65.960976 24.881763,63.639580 
	C22.453770,55.415104 19.920143,47.172630 18.350559,38.764488 
	C17.555737,34.506687 20.267040,30.891014 24.334940,28.642782 
	C31.779230,24.528502 39.773090,23.680996 48.053791,24.286947 
	C51.707741,24.554331 55.358253,24.868710 59.446808,25.229111 
	C56.210636,27.864401 52.537983,30.432333 48.497250,32.694855 
	C49.197968,30.753578 50.266769,29.117712 51.395641,27.389902 
	C43.788116,25.353285 36.325336,25.650740 29.353882,29.155533 
	C26.253222,30.714344 21.779804,33.196598 21.385143,35.786335 
	C20.281570,43.027939 20.182911,50.648727 24.874044,57.269238 
	C25.982874,58.834114 26.370691,60.909882 27.389303,63.515900 
	C28.573256,62.176914 29.490145,60.994320 30.559418,59.970947 
	C31.665150,58.912682 32.918854,58.009026 34.107826,57.037735 
z"/>
<path fill="#D3D6F7" opacity="1.000000" stroke="none" 
	d="
M54.001907,64.998474 
	C52.994610,66.786034 52.334969,68.944313 50.907074,70.283379 
	C48.003761,73.006073 44.729542,75.345978 41.515041,77.717392 
	C40.350445,78.576538 38.919674,79.074890 37.281208,79.883347 
	C36.608421,79.383865 36.264778,78.738914 36.255424,77.656128 
	C38.079731,75.829567 39.569748,74.440826 41.059765,73.052086 
	C41.059765,73.052086 40.999821,73.000999 41.333649,72.893448 
	C44.470814,69.369514 47.274143,65.953148 50.458420,62.519455 
	C52.532429,60.347332 54.225491,58.192539 56.246750,56.007622 
	C57.383888,55.648590 58.192833,55.319679 59.001778,54.990768 
	C59.000679,56.706326 58.999580,58.421875 58.646206,60.602341 
	C56.863258,62.377659 55.432587,63.688068 54.001907,64.998474 
z"/>
<path fill="#9A9ED1" opacity="1.000000" stroke="none" 
	d="
M103.411804,85.084793 
	C97.377266,80.411018 91.685005,75.626282 86.318977,70.454590 
	C89.472954,71.796631 92.445007,73.332481 95.088669,75.307846 
	C97.845177,77.367523 100.285095,79.850899 102.458435,81.788048 
	C105.203613,75.968620 107.609024,70.869484 110.014427,65.770340 
	C110.014427,65.770340 110.078201,65.856209 110.023056,66.239731 
	C109.976265,67.081070 109.984627,67.538872 109.992981,67.996681 
	C108.708382,72.256943 107.510727,76.546463 106.092552,80.761780 
	C105.588966,82.258629 104.549118,83.575050 103.411804,85.084793 
z"/>
<path fill="#EDF0F9" opacity="1.000000" stroke="none" 
	d="
M121.266022,63.930908 
	C122.215355,60.679749 123.553589,57.411991 125.143883,53.942154 
	C129.350067,59.662384 128.550079,61.838032 121.266022,63.930908 
z"/>
<path fill="#989DCD" opacity="1.000000" stroke="none" 
	d="
M40.648811,73.034714 
	C39.569748,74.440826 38.079731,75.829567 36.267929,77.364441 
	C34.423210,74.240913 32.900280,70.971245 31.452555,67.347366 
	C32.605919,67.899384 34.351871,68.634499 34.636204,69.744148 
	C35.467567,72.988602 37.667328,73.150154 40.648811,73.034714 
z"/>
<path fill="#CD92A9" opacity="1.000000" stroke="none" 
	d="
M67.225067,104.247368 
	C66.836205,104.939827 66.447342,105.632286 66.033142,106.621765 
	C63.472870,106.143021 60.937935,105.367264 58.220596,103.946228 
	C57.761505,102.181595 57.484821,101.062241 57.158691,99.623642 
	C57.072403,98.877197 57.035564,98.449997 57.335625,98.071442 
	C60.714909,100.151787 62.026577,104.935898 67.027176,104.031128 
	C67.094276,104.102165 67.225060,104.247368 67.225067,104.247368 
z"/>
<path fill="#DED7F9" opacity="1.000000" stroke="none" 
	d="
M56.998726,98.022797 
	C57.035564,98.449997 57.072403,98.877197 56.703865,99.639725 
	C54.497921,100.007797 52.697357,100.040558 50.896793,100.073311 
	C50.476105,100.068916 50.055416,100.064529 49.319542,100.047379 
	C50.442577,98.135223 51.880798,96.235832 53.884628,94.277672 
	C55.184120,94.816589 55.917995,95.414291 56.743183,96.340782 
	C56.889236,97.120651 56.943981,97.571724 56.998726,98.022797 
z"/>
<path fill="#9CA1CE" opacity="1.000000" stroke="none" 
	d="
M83.736465,26.227158 
	C84.069069,26.689497 83.950363,27.060568 83.375961,27.709988 
	C79.930779,28.989408 76.941299,29.990482 73.951813,30.991554 
	C74.335419,29.634033 74.719032,28.276512 75.165688,26.576561 
	C77.914207,26.201384 80.599686,26.168634 83.736465,26.227158 
z"/>
<path fill="#DFDCE3" opacity="1.000000" stroke="none" 
	d="
M50.920464,100.440712 
	C52.697357,100.040558 54.497921,100.007797 56.753311,99.958969 
	C57.484821,101.062241 57.761505,102.181595 58.003883,103.665100 
	C54.388641,105.658112 51.939976,104.817436 50.920464,100.440712 
z"/>
<path fill="#EDF0F9" opacity="1.000000" stroke="none" 
	d="
M113.085114,68.310867 
	C115.168839,67.119110 117.300667,66.297554 119.751564,65.331955 
	C119.974663,66.966621 119.878677,68.745323 119.727829,71.540619 
	C117.068039,70.387291 115.100616,69.534180 113.085114,68.310867 
z"/>
<path fill="#EDF0F9" opacity="1.000000" stroke="none" 
	d="
M126.339500,51.763828 
	C126.460396,50.021900 126.875168,48.052174 127.547974,45.794956 
	C127.415138,47.516991 127.024254,49.526508 126.339500,51.763828 
z"/>
<path fill="#EDF0F9" opacity="1.000000" stroke="none" 
	d="
M110.375870,68.000107 
	C109.984627,67.538872 109.976265,67.081070 109.987701,66.279861 
	C110.924141,66.422012 111.840790,66.907570 112.906601,67.675270 
	C112.290100,67.972786 111.524422,67.988159 110.375870,68.000107 
z"/>
<path fill="#989DCD" opacity="1.000000" stroke="none" 
	d="
M30.194820,65.360199 
	C30.088062,64.973846 30.259026,64.824844 30.624626,64.643028 
	C30.826838,64.748108 30.870514,64.927383 30.983829,65.371483 
	C30.847792,65.609589 30.642115,65.582878 30.194820,65.360199 
z"/>
<path fill="#9096D9" opacity="1.000000" stroke="none" 
	d="
M73.793167,31.314449 
	C76.941299,29.990482 79.930779,28.989408 83.270508,27.983837 
	C90.802307,41.457703 99.212433,54.073509 109.882149,65.483047 
	C107.609024,70.869484 105.203613,75.968620 102.458435,81.788048 
	C100.285095,79.850899 97.845177,77.367523 95.088669,75.307846 
	C92.445007,73.332481 89.472954,71.796631 86.253250,70.120926 
	C85.861290,70.174225 85.889809,70.143143 85.893974,69.761322 
	C84.844124,68.629257 83.790115,67.878998 82.736099,67.128746 
	C82.455818,67.030525 82.224144,66.864487 82.081192,66.130630 
	C82.008759,64.691284 81.896202,63.751938 81.971382,62.533363 
	C82.739548,60.882099 83.319992,59.510063 84.195999,57.912987 
	C86.004517,53.924206 83.597473,51.833790 80.792549,50.776199 
	C76.779564,49.263107 74.963661,52.624062 73.071381,55.336300 
	C68.146111,50.906513 69.833786,45.278511 70.607857,40.015079 
	C71.031212,37.136387 72.588554,34.424469 73.793167,31.314449 
z"/>
<path fill="#4D55BF" opacity="1.000000" stroke="none" 
	d="
M61.004894,86.014801 
	C61.009968,85.842155 61.015038,85.669518 61.011288,84.850204 
	C60.313473,82.604744 59.146210,81.031433 59.059402,79.400597 
	C58.956390,77.465309 59.118206,74.577263 60.330528,73.684509 
	C64.150024,70.871819 69.142258,73.454330 70.143784,78.288513 
	C69.141113,80.637291 68.138443,82.986069 66.599976,85.668106 
	C64.705406,86.003784 63.346630,86.006210 61.742073,86.003448 
	C61.496292,85.998268 61.004894,86.014801 61.004894,86.014801 
z"/>
<path fill="#675DA3" opacity="1.000000" stroke="none" 
	d="
M60.722084,86.137222 
	C61.004894,86.014801 61.496292,85.998268 61.900173,86.300644 
	C63.958900,86.696724 65.613747,86.790421 67.268593,86.884125 
	C70.333855,92.162903 75.133858,88.980576 79.302185,88.879219 
	C79.536057,89.413757 79.769928,89.948288 80.003799,90.482819 
	C77.618042,91.985428 75.232285,93.488037 72.240120,94.940514 
	C71.461609,94.861809 71.289505,94.833244 71.082031,94.449844 
	C67.877121,89.056969 65.189232,88.445709 60.591404,91.643127 
	C59.807644,92.188156 58.862694,92.501389 58.002365,92.572845 
	C58.348545,90.900246 58.684563,89.576515 59.020580,88.252777 
	C59.493481,87.588402 59.966381,86.924026 60.722084,86.137222 
z"/>
<path fill="#DADBEC" opacity="1.000000" stroke="none" 
	d="
M54.344463,65.003372 
	C55.432587,63.688068 56.863258,62.377659 58.645779,61.031067 
	C61.927071,62.980160 64.863083,64.956017 67.765564,66.979958 
	C67.903114,67.075874 67.743286,67.598259 67.711113,68.086395 
	C64.078735,68.693321 60.410622,69.306221 56.371254,69.959274 
	C56.059223,69.082687 56.334728,68.109932 56.115955,67.265198 
	C55.903419,66.444580 55.183903,65.755257 54.344463,65.003372 
z"/>
<path fill="#E2E8F8" opacity="1.000000" stroke="none" 
	d="
M59.290569,54.851646 
	C58.192833,55.319679 57.383888,55.648590 55.901337,55.854622 
	C49.967064,54.248180 48.813404,54.892132 47.609299,59.767399 
	C46.970528,59.429512 46.555912,59.183338 46.141296,58.937160 
	C45.651764,50.915707 48.598206,48.793766 56.158455,51.645428 
	C57.040520,51.978134 58.079704,51.894279 59.730885,51.988552 
	C60.610603,51.983166 60.805489,51.992764 61.000370,52.002361 
	C60.526703,52.905750 60.053032,53.809139 59.290569,54.851646 
z"/>
<path fill="#6963AD" opacity="1.000000" stroke="none" 
	d="
M70.467194,78.166832 
	C69.142258,73.454330 64.150024,70.871819 60.330528,73.684509 
	C59.118206,74.577263 58.956390,77.465309 59.059402,79.400597 
	C59.146210,81.031433 60.313473,82.604744 60.993820,84.591721 
	C57.041004,82.336853 55.187443,78.742836 56.007652,73.534119 
	C59.802944,72.511299 63.617645,71.205399 67.296326,71.515114 
	C70.356285,71.772736 73.045555,74.037483 70.467194,78.166832 
z"/>
<path fill="#E6EEF9" opacity="1.000000" stroke="none" 
	d="
M73.063400,55.647381 
	C74.963661,52.624062 76.779564,49.263107 80.792549,50.776199 
	C83.597473,51.833790 86.004517,53.924206 84.050369,57.556442 
	C81.206207,57.282360 78.803246,57.139782 76.312210,57.108467 
	C76.106720,57.370548 76.007492,57.532513 75.864281,57.812637 
	C75.802109,57.919647 75.555641,57.942410 75.555641,57.942410 
	C74.722229,57.281094 73.888824,56.619778 73.063400,55.647381 
z"/>
<path fill="#5458BD" opacity="1.000000" stroke="none" 
	d="
M76.400276,56.997204 
	C78.803246,57.139782 81.206207,57.282360 83.754807,57.781479 
	C83.319992,59.510063 82.739548,60.882099 81.611168,62.570274 
	C80.335915,62.973999 79.608604,63.061592 78.881294,63.149181 
	C77.814903,61.659714 76.748520,60.170242 75.618881,58.311592 
	C75.555641,57.942410 75.802109,57.919647 76.089378,57.823681 
	C76.376648,57.727715 76.649994,57.371025 76.649994,57.371025 
	C76.649994,57.371025 76.400276,56.997204 76.400276,56.997204 
z"/>
<path fill="#D3D6F7" opacity="1.000000" stroke="none" 
	d="
M61.313217,51.837353 
	C60.805489,51.992764 60.610603,51.983166 60.123688,51.938271 
	C60.443825,48.840996 61.055992,45.779015 61.814491,42.358696 
	C64.487419,42.307568 65.532066,43.585201 64.435364,46.043766 
	C63.581932,47.956982 62.568424,49.798794 61.313217,51.837353 
z"/>
<path fill="#CD92A9" opacity="1.000000" stroke="none" 
	d="
M71.117401,94.804672 
	C71.289505,94.833244 71.461609,94.861809 71.883568,94.972015 
	C70.711159,98.038300 69.288902,101.022942 67.545853,104.127480 
	C67.225060,104.247368 67.094276,104.102165 67.048904,103.648567 
	C68.374825,100.398201 69.746109,97.601440 71.117401,94.804672 
z"/>
<path fill="#D3D6F7" opacity="1.000000" stroke="none" 
	d="
M62.349773,31.943840 
	C61.838074,30.480478 61.671207,28.960924 61.729572,27.216059 
	C67.704315,27.791687 63.581234,30.084145 62.349773,31.943840 
z"/>
<path fill="#9A9ED1" opacity="1.000000" stroke="none" 
	d="
M78.936859,63.471581 
	C79.608604,63.061592 80.335915,62.973999 81.423439,62.849499 
	C81.896202,63.751938 82.008759,64.691284 81.973923,65.943108 
	C80.881836,65.435043 79.937134,64.614510 78.936859,63.471581 
z"/>
<path fill="#6963AD" opacity="1.000000" stroke="none" 
	d="
M67.199768,86.648750 
	C65.613747,86.790421 63.958900,86.696724 62.145958,86.305832 
	C63.346630,86.006210 64.705406,86.003784 66.470291,85.997749 
	C66.876411,85.994141 67.130943,86.413376 67.199768,86.648750 
z"/>
<path fill="#9A9ED1" opacity="1.000000" stroke="none" 
	d="
M82.837585,67.448212 
	C83.790115,67.878998 84.844124,68.629257 85.896988,69.741837 
	C84.910240,69.325333 83.924652,68.546501 82.837585,67.448212 
z"/>
<path fill="#4E55C8" opacity="1.000000" stroke="none" 
	d="
M122.245270,36.843903 
	C123.232391,36.455917 124.712914,36.174740 124.834930,36.464882 
	C126.138702,39.565014 126.972763,42.731846 122.709038,45.684708 
	C122.508667,42.861794 122.308289,40.038883 122.245270,36.843903 
z"/>
<path fill="#4C56C1" opacity="1.000000" stroke="none" 
	d="
M34.141521,56.854713 
	C32.918854,58.009026 31.665150,58.912682 30.559418,59.970947 
	C29.490145,60.994320 28.573256,62.176914 27.389303,63.515900 
	C26.370691,60.909882 25.982874,58.834114 24.874044,57.269238 
	C20.182911,50.648727 20.281570,43.027939 21.385143,35.786335 
	C21.779804,33.196598 26.253222,30.714344 29.353882,29.155533 
	C36.325336,25.650740 43.788116,25.353285 51.395641,27.389902 
	C50.266769,29.117712 49.197968,30.753578 48.154018,32.761593 
	C48.178867,33.133739 48.149521,33.105820 47.794624,33.113651 
	C46.999443,33.782307 46.559155,34.443127 46.072304,35.054695 
	C46.025738,35.005444 46.099262,35.119011 45.727905,35.118580 
	C44.610741,36.472004 43.864929,37.825859 43.059128,39.509941 
	C42.297424,41.218613 41.595715,42.597054 40.514862,43.983696 
	C39.093117,44.534252 37.882351,44.890198 37.037758,45.652069 
	C33.824749,48.550385 34.823040,52.658302 34.193520,56.299946 
	C34.193520,56.299946 34.175217,56.671692 34.141521,56.854713 
M30.569098,55.303619 
	C29.832417,54.213715 29.095737,53.123814 28.359058,52.033909 
	C27.803694,52.674625 27.248331,53.315338 26.692968,53.956055 
	C27.798170,54.555130 28.903374,55.154202 30.569098,55.303619 
z"/>
<path fill="#9196E4" opacity="1.000000" stroke="none" 
	d="
M45.710518,58.958183 
	C46.555912,59.183338 46.970528,59.429512 47.763168,60.024078 
	C48.437340,60.886406 48.733486,61.400341 48.890724,62.219719 
	C47.502132,63.353260 46.252449,64.181358 45.002769,65.009460 
	C43.688168,63.691216 42.373566,62.372971 41.058964,61.054729 
	C42.465889,60.362888 43.872814,59.671047 45.710518,58.958183 
z"/>
<path fill="#5C62BA" opacity="1.000000" stroke="none" 
	d="
M34.512642,56.158524 
	C34.823040,52.658302 33.824749,48.550385 37.037758,45.652069 
	C37.882351,44.890198 39.093117,44.534252 40.542938,44.240738 
	C40.958176,44.661564 40.966209,44.833549 40.974243,45.005539 
	C38.926746,48.676060 36.879253,52.346584 34.512642,56.158524 
z"/>
<path fill="#989DCD" opacity="1.000000" stroke="none" 
	d="
M44.966618,65.358795 
	C46.252449,64.181358 47.502132,63.353260 49.179062,62.330994 
	C49.763363,62.270142 49.920422,62.403465 50.077477,62.536781 
	C47.274143,65.953148 44.470814,69.369514 41.359924,72.922913 
	C42.345066,70.609322 43.637768,68.158722 44.966618,65.358795 
z"/>
<path fill="#8A92E3" opacity="1.000000" stroke="none" 
	d="
M41.328094,44.967331 
	C40.966209,44.833549 40.958176,44.661564 40.922073,44.232536 
	C41.595715,42.597054 42.297424,41.218613 43.334175,39.329891 
	C44.479229,37.586079 45.289249,36.352547 46.099266,35.119011 
	C46.099262,35.119011 46.025738,35.005444 46.374741,35.039368 
	C47.126495,35.027767 47.529243,34.982250 47.931992,34.936733 
	C45.848640,38.267529 43.765293,41.598324 41.328094,44.967331 
z"/>
<path fill="#5C62BA" opacity="1.000000" stroke="none" 
	d="
M47.944527,34.950348 
	C47.529243,34.982250 47.126495,35.027767 46.421310,35.088619 
	C46.559155,34.443127 46.999443,33.782307 47.779823,33.119663 
	C48.119911,33.117844 48.152431,33.570923 48.081482,34.027637 
	C48.010529,34.484352 47.946545,34.965706 47.946545,34.965706 
	C47.946545,34.965706 47.957058,34.963959 47.944527,34.950348 
z"/>
<path fill="#8A92E3" opacity="1.000000" stroke="none" 
	d="
M48.118797,34.908260 
	C47.946545,34.965706 48.010529,34.484352 48.088913,34.254639 
	C48.289162,34.213581 48.428955,34.394333 48.518425,34.597271 
	C48.537289,34.640053 48.371666,34.764172 48.118797,34.908260 
z"/>
<path fill="#6963AD" opacity="1.000000" stroke="none" 
	d="
M58.601974,88.255875 
	C58.684563,89.576515 58.348545,90.900246 57.954094,92.911621 
	C57.481068,94.403503 57.066467,95.207741 56.651871,96.011986 
	C55.917995,95.414291 55.184120,94.816589 54.182861,94.120117 
	C52.170036,91.753342 50.424587,89.485344 47.932549,86.247261 
	C52.239101,87.092415 55.211235,87.675690 58.601974,88.255875 
z"/>
<path fill="#575DB2" opacity="1.000000" stroke="none" 
	d="
M50.458424,62.519455 
	C49.920422,62.403465 49.763363,62.270142 49.317970,62.025551 
	C48.733486,61.400341 48.437340,60.886406 47.987320,60.115791 
	C48.813404,54.892132 49.967064,54.248180 55.573143,55.884750 
	C54.225491,58.192539 52.532429,60.347332 50.458424,62.519455 
z"/>
<path fill="#D97C92" opacity="1.000000" stroke="none" 
	d="
M56.743179,96.340782 
	C57.066467,95.207741 57.481068,94.403503 57.943939,93.260483 
	C58.862694,92.501389 59.807644,92.188156 60.591404,91.643127 
	C65.189232,88.445709 67.877121,89.056969 71.082031,94.449844 
	C69.746109,97.601440 68.374825,100.398201 66.981812,103.577530 
	C62.026577,104.935898 60.714909,100.151787 57.335625,98.071442 
	C56.943981,97.571724 56.889236,97.120651 56.743179,96.340782 
z"/>
<path fill="#D9D9F2" opacity="1.000000" stroke="none" 
	d="
M76.312210,57.108467 
	C76.400276,56.997204 76.649994,57.371025 76.649994,57.371025 
	C76.649994,57.371025 76.376648,57.727715 76.151550,57.716675 
	C76.007492,57.532513 76.106720,57.370548 76.312210,57.108467 
z"/>
<path fill="#5C62BA" opacity="1.000000" stroke="none" 
	d="
M30.288837,55.528450 
	C28.903374,55.154202 27.798170,54.555130 26.692968,53.956055 
	C27.248331,53.315338 27.803694,52.674625 28.359058,52.033909 
	C29.095737,53.123814 29.832417,54.213715 30.288837,55.528450 
z"/>
<path fill="#5C62BA" opacity="1.000000" stroke="none" 
	d="
M45.727905,35.118584 
	C45.289249,36.352547 44.479229,37.586079 43.394165,38.999660 
	C43.864929,37.825859 44.610741,36.472004 45.727905,35.118584 
z"/>
</svg>