<svg version="1.1" id="Layer_1" xmlns="http://www.w3.org/2000/svg" xmlns:xlink="http://www.w3.org/1999/xlink" x="0px" y="0px"
	 width="100%" viewBox="0 0 147 113" enable-background="new 0 0 147 113" xml:space="preserve">
<path fill="#FEFEFE" opacity="1.000000" stroke="none" 
	d="
M95.000000,114.000000 
	C63.333332,114.000000 32.166668,114.000000 1.000000,114.000000 
	C1.000000,76.333336 1.000000,38.666668 1.000000,1.000000 
	C50.000000,1.000000 99.000000,1.000000 148.000000,1.000000 
	C148.000000,38.666668 148.000000,76.333336 148.000000,114.000000 
	C130.500000,114.000000 113.000000,114.000000 95.000000,114.000000 
M27.357542,25.176195 
	C22.277309,27.765158 20.136665,32.323341 21.192091,37.481403 
	C22.694891,44.825848 25.153261,51.987999 27.499903,59.130619 
	C27.810534,60.076096 29.863472,60.449158 31.753435,61.309036 
	C33.505024,64.868706 35.256611,68.428383 36.997364,72.743454 
	C37.728580,74.530457 38.227276,76.462418 39.234180,78.077545 
	C42.377506,83.119637 45.712975,88.041946 49.066216,93.707893 
	C55.434483,102.475037 71.406578,104.613785 81.751816,98.953270 
	C91.628922,96.055405 97.473457,88.811478 102.651382,79.828796 
	C104.737358,73.722328 106.823341,67.615860 109.632080,61.776981 
	C114.344406,64.904297 115.885468,64.969208 118.496544,59.811508 
	C121.395721,54.084732 123.504646,47.889671 125.360146,41.718838 
	C128.105164,32.589722 126.408920,29.531588 117.675201,25.176859 
	C106.740364,19.724632 95.513634,20.218796 83.218758,23.085781 
	C80.804565,23.052771 78.390366,23.019760 75.142105,22.945162 
	C71.078026,22.646278 67.013939,22.347395 62.254204,21.992119 
	C61.795734,22.046251 61.337269,22.100384 60.006332,22.047424 
	C56.046997,21.764225 52.089294,21.455420 48.127972,21.203453 
	C41.096600,20.756210 34.274208,21.419481 27.357542,25.176195 
z"/>
<path fill="#D7D8F3" opacity="1.000000" stroke="none" 
	d="
M102.009270,80.157082 
	C97.473457,88.811478 91.628922,96.055405 81.164688,98.717361 
	C80.132149,98.301025 79.700073,98.070290 79.239227,97.948044 
	C75.156219,96.864960 72.456909,94.790146 70.813499,91.505882 
	C70.691811,91.262688 70.281380,91.163986 70.124870,90.725700 
	C71.225502,90.453285 72.206451,90.453285 73.435356,90.453285 
	C71.559555,88.752579 69.985695,87.325630 68.325172,85.528412 
	C67.446358,82.641312 66.928802,80.491104 69.478302,78.217278 
	C70.966125,76.890327 71.164856,74.117989 72.050797,71.610153 
	C71.803909,67.479843 68.987259,66.697433 66.137604,66.974541 
	C63.225704,67.257683 59.847618,67.759132 57.782082,69.488754 
	C56.836674,70.280418 58.547859,74.244606 59.206409,77.094612 
	C62.182064,79.762695 64.200859,82.326180 61.416786,86.186646 
	C58.954746,86.560715 56.812241,86.863632 54.669731,87.166557 
	C54.524929,87.427780 54.380123,87.689011 54.235317,87.950233 
	C56.491642,88.618370 58.747963,89.286499 60.805321,90.238983 
	C57.562943,95.252983 52.955021,92.666046 48.973961,93.010689 
	C45.712975,88.041946 42.377506,83.119637 39.234180,78.077545 
	C38.227276,76.462418 37.728580,74.530457 37.280556,72.253418 
	C38.375950,71.187485 39.188152,70.611595 40.364182,70.036667 
	C44.856461,66.076073 48.984921,62.114529 53.393311,57.960625 
	C54.778786,55.846489 55.884327,53.924709 57.249924,51.823490 
	C57.699123,51.048676 57.888271,50.453300 58.437263,49.849770 
	C59.886078,47.192017 61.638908,44.613522 61.931820,41.878666 
	C62.635601,35.307648 62.654579,28.663282 62.949860,22.048512 
	C67.013939,22.347395 71.078026,22.646278 75.498482,23.326172 
	C74.059052,29.164434 71.962959,34.546139 70.564774,40.103428 
	C69.493279,44.362244 70.268875,48.568287 73.982986,52.062912 
	C74.785736,52.562222 75.397995,52.782402 75.967957,53.395767 
	C77.246330,55.368946 78.566994,56.948936 79.857681,58.867210 
	C80.755814,60.532990 81.473282,62.095123 82.647102,63.148937 
	C89.039108,68.887444 95.543526,74.500717 102.009270,80.157082 
z"/>
<path fill="#4F59BE" opacity="1.000000" stroke="none" 
	d="
M84.115067,23.228155 
	C95.513634,20.218796 106.740364,19.724632 117.675201,25.176859 
	C126.408920,29.531588 128.105164,32.589722 125.360146,41.718838 
	C123.504646,47.889671 121.395721,54.084732 118.496544,59.811508 
	C115.885468,64.969208 114.344406,64.904297 109.135986,61.378471 
	C100.852333,50.134956 93.005478,39.331444 85.353165,28.391840 
	C84.409142,27.042276 84.502449,24.967091 84.115067,23.228155 
z"/>
<path fill="#9198D7" opacity="1.000000" stroke="none" 
	d="
M83.666916,23.156967 
	C84.502449,24.967091 84.409142,27.042276 85.353165,28.391840 
	C93.005478,39.331444 100.852333,50.134956 108.774612,61.244675 
	C106.823341,67.615860 104.737358,73.722328 102.330322,79.992935 
	C95.543526,74.500717 89.039108,68.887444 82.647102,63.148937 
	C81.473282,62.095123 80.755814,60.532990 80.168976,58.688118 
	C81.738144,57.066990 82.966049,55.963238 84.440247,54.675568 
	C86.363655,50.102592 83.886894,47.501789 80.256584,46.676582 
	C76.830460,45.897797 74.367233,48.062576 73.792503,51.783775 
	C70.268875,48.568287 69.493279,44.362244 70.564774,40.103428 
	C71.962959,34.546139 74.059052,29.164434 75.915512,23.346966 
	C78.390366,23.019760 80.804565,23.052771 83.666916,23.156967 
z"/>
<path fill="#8F96DB" opacity="1.000000" stroke="none" 
	d="
M40.000355,70.035706 
	C39.188152,70.611595 38.375950,71.187485 37.285973,71.875717 
	C35.256611,68.428383 33.505024,64.868706 31.478462,60.894466 
	C31.791212,59.653816 32.378933,58.827732 33.089542,57.764439 
	C33.499191,57.078747 33.785950,56.630264 34.363499,55.990662 
	C35.782688,53.543568 36.911091,51.287594 38.032249,49.018597 
	C38.025009,49.005569 38.023602,49.027199 38.280022,48.869926 
	C38.717598,48.152096 38.898750,47.591530 39.043350,47.016281 
	C39.006798,47.001595 39.059277,47.060349 39.333534,46.854553 
	C41.409863,43.102001 43.211941,39.555241 45.281990,35.815498 
	C49.450478,30.614424 53.532162,25.830086 59.976753,24.421959 
	C59.991756,29.882071 59.826054,34.878632 60.058784,39.856560 
	C60.216469,43.229290 58.829453,43.937370 55.701546,44.126671 
	C52.013130,44.349892 48.306671,45.280781 44.772633,46.416866 
	C43.754181,46.744267 42.534164,48.979710 42.740551,50.093079 
	C43.295353,53.086010 44.038284,56.301868 45.690880,58.770157 
	C47.902473,62.073345 46.001110,63.498280 44.034050,65.408264 
	C42.571072,66.828796 41.336605,68.484665 40.000355,70.035706 
M52.470127,32.372604 
	C50.229206,34.847012 47.988285,37.321423 45.747364,39.795830 
	C46.003605,40.325085 46.259846,40.854343 46.516090,41.383598 
	C48.302399,41.383598 51.463264,41.843826 51.643330,41.306023 
	C52.549835,38.598587 52.678574,35.630733 52.470127,32.372604 
z"/>
<path fill="#969CD1" opacity="1.000000" stroke="none" 
	d="
M40.364182,70.036667 
	C41.336605,68.484665 42.571072,66.828796 44.034050,65.408264 
	C46.001110,63.498280 47.902473,62.073345 45.690880,58.770157 
	C44.038284,56.301868 43.295353,53.086010 42.740551,50.093079 
	C42.534164,48.979710 43.754181,46.744267 44.772633,46.416866 
	C48.306671,45.280781 52.013130,44.349892 55.701546,44.126671 
	C58.829453,43.937370 60.216469,43.229290 60.058784,39.856560 
	C59.826054,34.878632 59.991756,29.882071 60.083260,24.193327 
	C60.412090,23.046978 60.645443,22.600746 60.878799,22.154516 
	C61.337269,22.100384 61.795734,22.046251 62.602032,22.020315 
	C62.654579,28.663282 62.635601,35.307648 61.931820,41.878666 
	C61.638908,44.613522 59.886078,47.192017 58.358768,49.511894 
	C56.837772,48.265076 55.461315,46.384361 54.726570,46.608376 
	C52.355236,47.331367 49.817635,48.431076 48.117622,50.150398 
	C46.684490,51.599804 46.116920,54.186455 49.739494,55.141987 
	C50.969261,56.373241 52.041321,57.263107 53.113380,58.152977 
	C48.984921,62.114529 44.856461,66.076073 40.364182,70.036667 
z"/>
<path fill="#525CBA" opacity="1.000000" stroke="none" 
	d="
M60.442566,22.100971 
	C60.645443,22.600746 60.412090,23.046978 60.072227,23.721840 
	C53.532162,25.830086 49.450478,30.614424 45.028477,35.813107 
	C44.338043,36.002361 44.169098,36.001026 44.005806,35.628510 
	C45.007793,32.838364 46.004128,30.419397 47.332615,27.950329 
	C47.965576,27.206305 48.266380,26.512386 48.567184,25.818468 
	C48.202946,25.691399 47.838703,25.564329 47.474464,25.437260 
	C47.316158,26.291355 47.157852,27.145449 46.655560,27.945545 
	C45.821198,27.478708 45.386868,26.954756 44.829945,26.673859 
	C43.156902,25.830017 41.436043,25.080976 39.733841,24.294950 
	C39.155499,26.047699 38.547314,27.791534 38.019279,29.559309 
	C37.883022,30.015467 38.135189,30.597275 37.973755,31.034542 
	C37.406216,32.571800 36.736267,34.071247 36.105186,35.585045 
	C35.403996,34.142082 34.093517,32.687782 34.120117,31.258360 
	C34.189560,27.526484 33.086903,25.474884 28.813896,25.922422 
	C28.342300,25.664869 28.158224,25.433218 28.055031,25.137287 
	C34.274208,21.419481 41.096600,20.756210 48.127972,21.203453 
	C52.089294,21.455420 56.046997,21.764225 60.442566,22.100971 
z"/>
<path fill="#DEDAEB" opacity="1.000000" stroke="none" 
	d="
M49.020088,93.359291 
	C52.955021,92.666046 57.562943,95.252983 61.093773,90.486252 
	C62.747845,92.317780 63.575302,95.354660 65.151596,95.812302 
	C68.454865,96.771347 69.346252,93.640350 70.005180,90.998116 
	C70.281380,91.163986 70.691811,91.262688 70.813499,91.505882 
	C72.456909,94.790146 75.156219,96.864960 79.239227,97.948044 
	C79.700073,98.070290 80.132149,98.301025 80.798088,98.759659 
	C71.406578,104.613785 55.434483,102.475037 49.020088,93.359291 
z"/>
<path fill="#525BB3" opacity="1.000000" stroke="none" 
	d="
M27.706287,25.156742 
	C28.158224,25.433218 28.342300,25.664869 28.806690,26.349773 
	C28.928019,28.333668 28.849915,29.800032 28.776951,31.169886 
	C22.993034,32.918911 21.455515,36.307316 23.654070,42.202698 
	C25.389273,46.855606 27.072342,51.542599 29.154840,56.040230 
	C29.628435,57.063065 31.654924,57.366882 32.966652,58.001648 
	C32.378933,58.827732 31.791212,59.653816 31.156494,60.783607 
	C29.863472,60.449158 27.810534,60.076096 27.499903,59.130619 
	C25.153261,51.987999 22.694891,44.825848 21.192091,37.481403 
	C20.136665,32.323341 22.277309,27.765158 27.706287,25.156742 
z"/>
<path fill="#575AB8" opacity="1.000000" stroke="none" 
	d="
M61.736313,86.115501 
	C64.200859,82.326180 62.182064,79.762695 59.188019,76.799744 
	C59.017204,75.785278 59.016953,75.390305 59.362839,75.033295 
	C60.018970,75.180168 60.409149,75.204529 60.626709,75.410881 
	C63.171127,77.824196 65.254211,76.342270 66.904579,74.381920 
	C67.516640,73.654900 67.137505,72.093430 67.210396,70.912506 
	C65.241379,70.994980 63.265820,71.008408 61.306572,71.194008 
	C60.525681,71.267998 59.780838,71.722557 59.056664,71.634766 
	C61.646034,67.698792 65.262573,66.963562 68.597557,69.371529 
	C69.745872,70.200653 70.830070,71.118584 71.943558,71.995941 
	C71.164856,74.117989 70.966125,76.890327 69.478302,78.217278 
	C66.928802,80.491104 67.446358,82.641312 68.079094,85.751419 
	C65.858559,86.268303 63.797436,86.191902 61.736313,86.115501 
z"/>
<path fill="#C689A6" opacity="1.000000" stroke="none" 
	d="
M61.416786,86.186646 
	C63.797436,86.191902 65.858559,86.268303 68.165756,86.121689 
	C69.985695,87.325630 71.559555,88.752579 73.435356,90.453285 
	C72.206451,90.453285 71.225502,90.453285 70.124870,90.725700 
	C69.346252,93.640350 68.454865,96.771347 65.151596,95.812302 
	C63.575302,95.354660 62.747845,92.317780 61.292740,90.201904 
	C58.747963,89.286499 56.491642,88.618370 54.235317,87.950233 
	C54.380123,87.689011 54.524929,87.427780 54.669731,87.166557 
	C56.812241,86.863632 58.954746,86.560715 61.416786,86.186646 
z"/>
<path fill="#DFE5F6" opacity="1.000000" stroke="none" 
	d="
M49.581783,54.800598 
	C46.116920,54.186455 46.684490,51.599804 48.117622,50.150398 
	C49.817635,48.431076 52.355236,47.331367 54.726570,46.608376 
	C55.461315,46.384361 56.837772,48.265076 57.998924,49.520046 
	C57.888271,50.453300 57.699123,51.048676 56.937000,51.670280 
	C53.016403,50.356449 51.176144,52.309887 49.581783,54.800598 
z"/>
<path fill="#E3E8F7" opacity="1.000000" stroke="none" 
	d="
M73.982986,52.062912 
	C74.367233,48.062576 76.830460,45.897797 80.256584,46.676582 
	C83.886894,47.501789 86.363655,50.102592 84.314209,54.348412 
	C81.864761,50.066235 79.121185,50.323029 76.010262,53.002583 
	C75.397995,52.782402 74.785736,52.562222 73.982986,52.062912 
z"/>
<path fill="#5759B4" opacity="1.000000" stroke="none" 
	d="
M75.967957,53.395767 
	C79.121185,50.323029 81.864761,50.066235 84.067909,54.532326 
	C82.966049,55.963238 81.738144,57.066990 80.198959,58.349838 
	C78.566994,56.948936 77.246330,55.368946 75.967957,53.395767 
z"/>
<path fill="#595EA7" opacity="1.000000" stroke="none" 
	d="
M72.050797,71.610153 
	C70.830070,71.118584 69.745872,70.200653 68.597557,69.371529 
	C65.262573,66.963562 61.646034,67.698792 59.051567,72.008667 
	C59.011829,73.499557 59.014263,74.247444 59.016697,74.995323 
	C59.016953,75.390305 59.017204,75.785278 59.035851,76.475128 
	C58.547859,74.244606 56.836674,70.280418 57.782082,69.488754 
	C59.847618,67.759132 63.225704,67.257683 66.137604,66.974541 
	C68.987259,66.697433 71.803909,67.479843 72.050797,71.610153 
z"/>
<path fill="#595BB1" opacity="1.000000" stroke="none" 
	d="
M49.739494,55.141987 
	C51.176144,52.309887 53.016403,50.356449 56.676949,51.849716 
	C55.884327,53.924709 54.778786,55.846489 53.393311,57.960625 
	C52.041321,57.263107 50.969261,56.373241 49.739494,55.141987 
z"/>
<path fill="#4D55C4" opacity="1.000000" stroke="none" 
	d="
M33.089539,57.764439 
	C31.654924,57.366882 29.628435,57.063065 29.154840,56.040230 
	C27.072342,51.542599 25.389273,46.855606 23.654070,42.202698 
	C21.455515,36.307316 22.993034,32.918911 28.776951,31.169886 
	C28.849915,29.800032 28.928019,28.333668 29.013329,26.439951 
	C33.086903,25.474884 34.189560,27.526484 34.120117,31.258360 
	C34.093517,32.687782 35.403996,34.142082 36.105186,35.585045 
	C36.736267,34.071247 37.406216,32.571800 37.973755,31.034542 
	C38.135189,30.597275 37.883022,30.015467 38.019279,29.559309 
	C38.547314,27.791534 39.155499,26.047699 39.733841,24.294950 
	C41.436043,25.080976 43.156902,25.830017 44.829945,26.673859 
	C45.386868,26.954756 45.821198,27.478708 46.655785,27.945774 
	C47.000000,28.000000 47.000458,28.000433 47.000458,28.000433 
	C46.004128,30.419397 45.007793,32.838364 43.671570,35.773521 
	C38.308155,38.452152 38.329884,42.615894 39.059277,47.060349 
	C39.059277,47.060349 39.006798,47.001595 38.778088,47.166428 
	C38.374119,47.896572 38.198860,48.461887 38.023602,49.027199 
	C38.023602,49.027199 38.025009,49.005569 37.678413,49.060173 
	C36.245449,51.470448 35.159081,53.826115 34.072708,56.181782 
	C33.785950,56.630264 33.499191,57.078747 33.089539,57.764439 
M31.401266,45.900246 
	C35.469769,41.595798 29.713835,40.253803 28.757614,37.430168 
	C25.654291,41.071152 28.523115,43.413242 31.401266,45.900246 
z"/>
<path fill="#8F97D4" opacity="1.000000" stroke="none" 
	d="
M52.775238,32.563454 
	C52.678574,35.630733 52.549835,38.598587 51.643330,41.306023 
	C51.463264,41.843826 48.302399,41.383598 46.516090,41.383598 
	C46.259846,40.854343 46.003605,40.325085 45.747364,39.795830 
	C47.988285,37.321423 50.229206,34.847012 52.775238,32.563454 
z"/>
<path fill="#4E58B5" opacity="1.000000" stroke="none" 
	d="
M39.333534,46.854553 
	C38.329884,42.615894 38.308155,38.452152 43.665916,36.144707 
	C44.169098,36.001026 44.338043,36.002361 44.760502,36.006088 
	C43.211941,39.555241 41.409863,43.102001 39.333534,46.854553 
z"/>
<path fill="#525BB3" opacity="1.000000" stroke="none" 
	d="
M34.363503,55.990662 
	C35.159081,53.826115 36.245449,51.470448 37.685654,49.073204 
	C36.911091,51.287594 35.782688,53.543568 34.363503,55.990662 
z"/>
<path fill="#4E58B5" opacity="1.000000" stroke="none" 
	d="
M38.280022,48.869926 
	C38.198860,48.461887 38.374119,47.896572 38.814644,47.181114 
	C38.898750,47.591530 38.717598,48.152096 38.280022,48.869926 
z"/>
<path fill="#4D55C4" opacity="1.000000" stroke="none" 
	d="
M46.999771,27.999771 
	C47.157852,27.145449 47.316158,26.291355 47.474464,25.437260 
	C47.838703,25.564329 48.202946,25.691399 48.567184,25.818468 
	C48.266380,26.512386 47.965576,27.206305 47.332615,27.950329 
	C47.000458,28.000433 47.000000,28.000000 46.999771,27.999771 
z"/>
<path fill="#4B56C4" opacity="1.000000" stroke="none" 
	d="
M59.362839,75.033295 
	C59.014263,74.247444 59.011829,73.499557 59.014488,72.377777 
	C59.780838,71.722557 60.525681,71.267998 61.306572,71.194008 
	C63.265820,71.008408 65.241379,70.994980 67.210396,70.912506 
	C67.137505,72.093430 67.516640,73.654900 66.904579,74.381920 
	C65.254211,76.342270 63.171127,77.824196 60.626709,75.410881 
	C60.409149,75.204529 60.018970,75.180168 59.362839,75.033295 
z"/>
<path fill="#525BB3" opacity="1.000000" stroke="none" 
	d="
M31.028299,45.906277 
	C28.523115,43.413242 25.654291,41.071152 28.757614,37.430168 
	C29.713835,40.253803 35.469769,41.595798 31.028299,45.906277 
z"/>
</svg>