<svg version="1.1" id="Layer_1" xmlns="http://www.w3.org/2000/svg" xmlns:xlink="http://www.w3.org/1999/xlink" x="0px" y="0px"
	 width="100%" viewBox="0 0 138 115" enable-background="new 0 0 138 115" xml:space="preserve">
<path fill="#FEFEFE" opacity="1.000000" stroke="none" 
	d="
M82.000000,116.000000 
	C54.666672,116.000000 27.833340,116.000000 1.000007,116.000000 
	C1.000005,77.666672 1.000005,39.333347 1.000002,1.000018 
	C46.999985,1.000012 92.999969,1.000012 138.999969,1.000006 
	C138.999969,39.333317 138.999969,77.666634 138.999985,115.999969 
	C120.166664,116.000000 101.333336,116.000000 82.000000,116.000000 
M28.972155,67.810715 
	C30.307322,71.558289 31.642487,75.305862 33.061249,79.783081 
	C34.993137,83.954361 36.615570,88.305939 38.919621,92.260376 
	C44.141888,101.223351 51.005852,107.971359 62.363556,108.003632 
	C78.597290,108.049767 89.815231,100.269440 97.731369,85.955467 
	C98.606613,84.457817 99.785004,83.056892 100.299561,81.444160 
	C101.770241,76.834724 102.971245,72.139252 104.862823,67.998978 
	C108.874245,71.846977 112.085548,69.723457 113.861031,65.973831 
	C116.535233,60.326206 118.695610,54.376831 120.477768,48.378464 
	C123.419510,38.477196 120.961388,34.222366 111.544846,30.330196 
	C100.803604,25.890490 90.030815,26.007582 78.205849,29.068079 
	C75.814560,29.056307 73.423264,29.044535 70.207130,28.898851 
	C66.151024,28.591595 62.094913,28.284340 57.326176,27.945023 
	C56.858276,28.008532 56.390377,28.072042 55.052834,28.017229 
	C51.415005,27.730984 47.777573,27.439508 44.139259,27.159584 
	C36.718277,26.588634 29.638903,27.616486 22.934086,31.124752 
	C18.025412,33.693195 15.518181,37.963127 16.490938,42.941257 
	C17.970154,50.511208 20.582478,57.874943 22.966450,65.244446 
	C23.772221,67.735306 25.653305,68.598763 28.402782,66.775223 
	C28.599760,66.857750 28.796736,66.940285 28.972155,67.810715 
z"/>
<path fill="#D9DAF1" opacity="1.000000" stroke="none" 
	d="
M97.006561,86.078102 
	C89.815231,100.269440 78.597290,108.049767 62.363556,108.003632 
	C51.005852,107.971359 44.141888,101.223351 38.919621,92.260376 
	C36.615570,88.305939 34.993137,83.954361 33.329514,79.273743 
	C38.501915,74.165375 43.406048,69.566338 48.649055,64.920738 
	C54.049469,63.830276 54.510708,60.187550 54.303654,55.969116 
	C54.999908,55.862251 55.395226,55.783543 55.975769,56.050289 
	C59.970222,59.682354 56.563953,62.330025 54.913967,65.214180 
	C58.780117,66.817932 61.750336,65.584084 63.227982,62.710484 
	C63.803787,61.590706 61.699413,59.079624 60.781647,57.219131 
	C60.644711,56.941540 60.127506,56.768452 60.113033,56.527393 
	C60.035641,55.238216 60.061970,53.942818 60.052444,52.649567 
	C61.283474,52.989540 62.740929,53.026016 63.694721,53.737595 
	C65.295631,54.931957 66.575951,56.556061 68.035103,58.367821 
	C70.700241,65.720360 74.501213,71.613258 82.444489,73.997101 
	C83.144501,74.456718 83.548737,74.867775 83.974503,75.637497 
	C85.042793,80.872765 86.251404,81.874374 90.352287,81.024689 
	C91.753693,81.475365 92.815224,81.883430 93.949150,82.600769 
	C95.016556,83.966064 96.011559,85.022087 97.006561,86.078102 
M53.136448,97.485863 
	C54.346996,99.577095 55.291992,99.395142 56.391994,96.997139 
	C56.391994,96.997139 56.812252,96.934158 57.675739,96.978149 
	C59.406918,97.304611 61.171158,97.997231 62.859093,97.844795 
	C64.278000,97.716675 65.608055,96.604645 67.196724,95.457336 
	C67.651573,95.230850 68.106422,95.004356 69.377968,94.893616 
	C70.917389,95.378937 72.436424,95.954941 74.005661,96.307556 
	C74.689529,96.461227 75.762856,96.410156 76.135620,95.988785 
	C76.506180,95.569908 76.388931,94.521164 76.191910,93.832657 
	C75.308640,90.745895 74.320641,87.689095 73.276413,84.317947 
	C72.581207,84.385300 71.045769,84.534065 68.761711,84.755363 
	C69.254509,82.978325 69.446259,81.745232 69.928970,80.639130 
	C72.115959,75.627869 68.654762,70.136200 63.151157,70.008186 
	C61.327175,69.965759 59.501305,69.991470 57.676418,70.003784 
	C53.757133,70.030220 49.284801,73.187866 49.476093,76.732857 
	C49.664368,80.221855 50.843601,83.918861 55.766499,85.237305 
	C56.872990,85.840187 57.979481,86.443077 58.831394,87.708160 
	C58.230629,89.474396 57.629864,91.240631 56.398014,93.294853 
	C55.252781,92.759216 54.053921,92.312218 52.978321,91.661484 
	C52.020981,91.082306 51.200157,90.277473 49.939781,88.901779 
	C48.403683,87.824768 46.867584,86.747757 45.331482,85.670746 
	C45.238918,88.304802 45.615089,90.063858 46.404980,91.611786 
	C47.814659,94.374298 49.060814,97.581299 53.236736,96.708771 
	C53.236736,96.708771 53.182030,96.788673 53.136448,97.485863 
z"/>
<path fill="#9197D8" opacity="1.000000" stroke="none" 
	d="
M97.368965,86.016785 
	C96.011559,85.022087 95.016556,83.966064 93.985451,82.197128 
	C89.442261,76.287163 85.030640,70.968025 77.699448,68.872803 
	C76.551682,67.334480 75.697151,65.931175 75.182373,64.332397 
	C76.397484,62.715282 77.272842,61.293640 78.451645,59.935532 
	C79.427284,59.373608 80.723846,58.247822 80.681496,58.194969 
	C79.127602,56.255856 77.773232,53.479069 75.717300,52.768887 
	C72.056129,51.504219 69.934616,54.674885 67.770576,57.071533 
	C66.983032,53.689831 65.595108,50.463940 66.112106,47.579479 
	C67.236755,41.304878 69.332909,35.204407 71.031975,29.032763 
	C73.423264,29.044535 75.814560,29.056307 78.626991,29.499578 
	C80.340958,32.330238 81.633789,34.729401 82.951569,37.347588 
	C82.976532,37.566616 83.058449,37.999825 83.165741,38.324684 
	C85.158966,41.454937 87.044907,44.260323 89.086166,47.362667 
	C90.807602,49.787315 92.373711,51.915005 93.991730,54.386368 
	C97.455208,58.979233 100.866760,63.228424 104.278320,67.477615 
	C102.971245,72.139252 101.770241,76.834724 100.299561,81.444160 
	C99.785004,83.056892 98.606613,84.457817 97.368965,86.016785 
z"/>
<path fill="#515BBD" opacity="1.000000" stroke="none" 
	d="
M27.895851,66.379150 
	C25.653305,68.598763 23.772221,67.735306 22.966450,65.244446 
	C20.582478,57.874943 17.970154,50.511208 16.490938,42.941257 
	C15.518181,37.963127 18.025412,33.693195 22.934086,31.124752 
	C29.638903,27.616486 36.718277,26.588634 44.139259,27.159584 
	C47.777573,27.439508 51.415005,27.730984 55.458397,28.365509 
	C55.197723,29.376188 54.531487,30.038588 53.510395,30.779806 
	C51.177727,31.993271 48.883682,32.793941 47.274368,34.317760 
	C38.091644,43.012634 34.263252,54.888676 28.893494,65.869957 
	C28.876251,65.885010 28.838797,65.911331 28.646721,65.894043 
	C28.194319,65.961845 28.008055,66.129311 27.895851,66.379150 
z"/>
<path fill="#9399D6" opacity="1.000000" stroke="none" 
	d="
M53.865250,30.700987 
	C54.531487,30.038588 55.197723,29.376188 55.893219,28.424671 
	C56.390377,28.072042 56.858276,28.008532 57.671364,28.431772 
	C57.274548,37.847294 56.532547,46.776062 55.790543,55.704834 
	C55.395226,55.783543 54.999908,55.862251 54.149654,55.653751 
	C52.617523,54.375954 51.607666,52.665306 50.447971,52.556850 
	C48.516907,52.376247 45.736465,52.581631 44.697956,53.802235 
	C43.460209,55.257011 43.370144,57.971439 43.495472,60.098152 
	C43.525761,60.612114 46.357033,60.961010 48.116444,61.445320 
	C48.166691,62.358768 48.238438,63.663040 48.310181,64.967300 
	C43.406048,69.566338 38.501915,74.165375 33.287720,78.908920 
	C31.642487,75.305862 30.307322,71.558289 28.958187,67.136871 
	C28.909079,66.279129 28.873938,66.095230 28.838797,65.911331 
	C28.838797,65.911331 28.876251,65.885010 29.256836,65.884247 
	C32.588806,61.920387 37.081837,58.327736 38.143234,53.910511 
	C39.892445,46.630798 43.631916,41.724907 49.319992,37.433868 
	C51.364571,35.891457 52.380089,32.984951 53.865250,30.700987 
z"/>
<path fill="#D8D9F6" opacity="1.000000" stroke="none" 
	d="
M55.975769,56.050289 
	C56.532547,46.776062 57.274548,37.847294 58.027679,28.447803 
	C62.094913,28.284340 66.151024,28.591595 70.619553,28.965807 
	C69.332909,35.204407 67.236755,41.304878 66.112106,47.579479 
	C65.595108,50.463940 66.983032,53.689831 67.761185,57.224377 
	C68.015213,57.687855 67.991158,57.999348 67.991158,57.999348 
	C66.575951,56.556061 65.295631,54.931957 63.694721,53.737595 
	C62.740929,53.026016 61.283474,52.989540 60.052444,52.649567 
	C60.061970,53.942818 60.035641,55.238216 60.113033,56.527393 
	C60.127506,56.768452 60.644711,56.941540 60.781647,57.219131 
	C61.699413,59.079624 63.803787,61.590706 63.227982,62.710484 
	C61.750336,65.584084 58.780117,66.817932 54.913967,65.214180 
	C56.563953,62.330025 59.970222,59.682354 55.975769,56.050289 
z"/>
<path fill="#5B63B3" opacity="1.000000" stroke="none" 
	d="
M104.570572,67.738297 
	C100.866760,63.228424 97.455208,58.979233 94.360184,54.380474 
	C98.191429,57.623272 101.664986,61.257431 105.245285,64.783195 
	C106.356712,65.877686 108.448051,67.724861 108.902260,67.425308 
	C110.547424,66.340317 111.992363,64.652412 112.937241,62.884396 
	C114.000137,60.895531 114.398026,58.558907 115.159775,56.399868 
	C116.736107,51.932022 118.513611,47.526886 119.866043,42.993824 
	C120.227333,41.782856 119.318436,38.968609 119.047974,38.975780 
	C114.449318,39.097736 113.465492,34.553776 110.539192,32.594498 
	C104.108147,28.288658 96.979675,30.357164 90.147018,30.054878 
	C83.117836,29.743895 83.106850,29.992287 82.926613,37.128559 
	C81.633789,34.729401 80.340958,32.330238 79.069626,29.576332 
	C90.030815,26.007582 100.803604,25.890490 111.544846,30.330196 
	C120.961388,34.222366 123.419510,38.477196 120.477768,48.378464 
	C118.695610,54.376831 116.535233,60.326206 113.861031,65.973831 
	C112.085548,69.723457 108.874245,71.846977 104.570572,67.738297 
z"/>
<path fill="#8C94E1" opacity="1.000000" stroke="none" 
	d="
M28.646721,65.894043 
	C28.873938,66.095230 28.909079,66.279129 28.968966,66.742920 
	C28.796736,66.940285 28.599760,66.857750 28.149317,66.577187 
	C28.008055,66.129311 28.194319,65.961845 28.646721,65.894043 
z"/>
<path fill="#D2D4F6" opacity="1.000000" stroke="none" 
	d="
M55.200996,84.920822 
	C50.843601,83.918861 49.664368,80.221855 49.476093,76.732857 
	C49.284801,73.187866 53.757133,70.030220 57.676418,70.003784 
	C59.501305,69.991470 61.327175,69.965759 63.151157,70.008186 
	C68.654762,70.136200 72.115959,75.627869 69.928970,80.639130 
	C69.446259,81.745232 69.254509,82.978325 68.761711,84.755363 
	C71.045769,84.534065 72.581207,84.385300 73.276413,84.317947 
	C74.320641,87.689095 75.308640,90.745895 76.191910,93.832657 
	C76.388931,94.521164 76.506180,95.569908 76.135620,95.988785 
	C75.762856,96.410156 74.689529,96.461227 74.005661,96.307556 
	C72.436424,95.954941 70.917389,95.378937 69.116058,94.513443 
	C69.383492,92.484917 69.912842,90.836555 70.442192,89.188202 
	C70.039711,89.041840 69.637230,88.895485 69.234756,88.749123 
	C68.193123,90.526344 67.151489,92.303566 65.795776,94.616669 
	C64.212830,92.696213 63.101635,91.348091 61.949272,89.723175 
	C61.834183,89.275101 61.760254,89.103813 61.716805,88.572861 
	C61.889095,87.510506 62.030910,86.807816 62.519592,86.038437 
	C64.196007,83.981911 65.825958,82.124741 66.778313,79.968323 
	C67.943375,77.330299 67.011810,74.276360 64.136162,74.280212 
	C60.444515,74.285156 55.623470,70.895454 53.254177,75.117653 
	C52.072876,77.222786 54.356293,81.272362 55.073723,84.442116 
	C55.110146,84.603043 55.158302,84.761314 55.200996,84.920822 
z"/>
<path fill="#545CBA" opacity="1.000000" stroke="none" 
	d="
M55.483749,85.079063 
	C55.158302,84.761314 55.110146,84.603043 55.073723,84.442116 
	C54.356293,81.272362 52.072876,77.222786 53.254177,75.117653 
	C55.623470,70.895454 60.444515,74.285156 64.136162,74.280212 
	C67.011810,74.276360 67.943375,77.330299 66.778313,79.968323 
	C65.825958,82.124741 64.196007,83.981911 62.240681,86.149002 
	C61.638706,87.195000 61.662518,88.063759 61.686325,88.932518 
	C61.760254,89.103813 61.834183,89.275101 61.624306,89.680176 
	C60.588993,88.957962 59.837482,88.001961 59.085972,87.045959 
	C57.979481,86.443077 56.872990,85.840187 55.483749,85.079063 
z"/>
<path fill="#DDE6F7" opacity="1.000000" stroke="none" 
	d="
M68.035103,58.367821 
	C67.991158,57.999348 68.015213,57.687855 68.024612,57.535011 
	C69.934616,54.674885 72.056129,51.504219 75.717300,52.768887 
	C77.773232,53.479069 79.127602,56.255856 80.681496,58.194969 
	C80.723846,58.247822 79.427284,59.373608 78.290451,59.599354 
	C74.621376,56.501793 72.636787,58.125610 70.605148,61.501129 
	C72.082886,62.556652 73.462753,63.542267 74.842621,64.527878 
	C75.697151,65.931175 76.551682,67.334480 77.830978,69.167801 
	C79.553398,71.048065 80.851059,72.498306 82.148712,73.948547 
	C74.501213,71.613258 70.700241,65.720360 68.035103,58.367821 
z"/>
<path fill="#DBE1F4" opacity="1.000000" stroke="none" 
	d="
M48.649055,64.920746 
	C48.238438,63.663040 48.166691,62.358768 48.116444,61.445320 
	C46.357033,60.961010 43.525761,60.612114 43.495472,60.098152 
	C43.370144,57.971439 43.460209,55.257011 44.697956,53.802235 
	C45.736465,52.581631 48.516907,52.376247 50.447971,52.556850 
	C51.607666,52.665306 52.617523,54.375954 53.848717,55.681908 
	C54.510708,60.187550 54.049469,63.830276 48.649055,64.920746 
z"/>
<path fill="#6F71AC" opacity="1.000000" stroke="none" 
	d="
M58.958683,87.377060 
	C59.837482,88.001961 60.588993,88.957962 61.665474,89.956970 
	C63.101635,91.348091 64.212830,92.696213 65.795776,94.616669 
	C67.151489,92.303566 68.193123,90.526344 69.234756,88.749123 
	C69.637230,88.895485 70.039711,89.041840 70.442192,89.188202 
	C69.912842,90.836555 69.383492,92.484917 68.707710,94.455566 
	C68.106422,95.004356 67.651573,95.230850 66.706985,95.740906 
	C64.611588,95.182594 63.059605,94.196808 61.374352,93.568420 
	C60.683369,93.310768 59.704693,93.824677 58.622009,93.875389 
	C57.934448,93.511070 57.481770,93.258972 57.029099,93.006866 
	C57.629864,91.240631 58.230629,89.474396 58.958683,87.377060 
z"/>
<path fill="#9499CE" opacity="1.000000" stroke="none" 
	d="
M82.444489,73.997101 
	C80.851059,72.498306 79.553398,71.048065 78.124214,69.302826 
	C85.030640,70.968025 89.442261,76.287163 93.913048,81.887848 
	C92.815224,81.883430 91.753693,81.475365 90.201340,80.734978 
	C87.791328,78.694710 85.872147,76.986771 83.952965,75.278831 
	C83.548737,74.867775 83.144501,74.456718 82.444489,73.997101 
z"/>
<path fill="#D8DAFA" opacity="1.000000" stroke="none" 
	d="
M53.257469,96.614174 
	C49.060814,97.581299 47.814659,94.374298 46.404980,91.611786 
	C45.615089,90.063858 45.238918,88.304802 45.331482,85.670746 
	C46.867584,86.747757 48.403683,87.824768 50.091778,89.545105 
	C51.248341,92.330353 52.252903,94.472260 53.257469,96.614174 
z"/>
<path fill="#7777B1" opacity="1.000000" stroke="none" 
	d="
M53.247101,96.661469 
	C52.252903,94.472260 51.248341,92.330353 50.281425,89.880341 
	C51.200157,90.277473 52.020981,91.082306 52.978321,91.661484 
	C54.053921,92.312218 55.252781,92.759216 56.713554,93.150864 
	C57.481770,93.258972 57.934448,93.511070 58.549500,94.168655 
	C58.078671,95.360809 57.445461,96.147484 56.812248,96.934158 
	C56.812252,96.934158 56.391994,96.997139 55.844139,97.001526 
	C54.591534,96.933495 53.886780,96.861084 53.182030,96.788673 
	C53.182030,96.788673 53.236736,96.708771 53.247101,96.661469 
z"/>
<path fill="#D8DAFA" opacity="1.000000" stroke="none" 
	d="
M57.243996,96.956154 
	C57.445461,96.147484 58.078671,95.360809 58.784386,94.280869 
	C59.704693,93.824677 60.683369,93.310768 61.374352,93.568420 
	C63.059605,94.196808 64.611588,95.182594 66.597343,95.976334 
	C65.608055,96.604645 64.278000,97.716675 62.859093,97.844795 
	C61.171158,97.997231 59.406918,97.304611 57.243996,96.956154 
z"/>
<path fill="#DDE6F7" opacity="1.000000" stroke="none" 
	d="
M83.974503,75.637497 
	C85.872147,76.986771 87.791328,78.694710 89.861450,80.692368 
	C86.251404,81.874374 85.042793,80.872765 83.974503,75.637497 
z"/>
<path fill="#D8DAFA" opacity="1.000000" stroke="none" 
	d="
M53.159241,97.137268 
	C53.886780,96.861084 54.591534,96.933495 55.646233,97.078857 
	C55.291992,99.395142 54.346996,99.577095 53.159241,97.137268 
z"/>
<path fill="#4B56C1" opacity="1.000000" stroke="none" 
	d="
M82.951569,37.347588 
	C83.106850,29.992287 83.117836,29.743895 90.147018,30.054878 
	C96.979675,30.357164 104.108147,28.288658 110.539192,32.594498 
	C113.465492,34.553776 114.449318,39.097736 119.047974,38.975780 
	C119.318436,38.968609 120.227333,41.782856 119.866043,42.993824 
	C118.513611,47.526886 116.736107,51.932022 115.159775,56.399868 
	C114.398026,58.558907 114.000137,60.895531 112.937241,62.884396 
	C111.992363,64.652412 110.547424,66.340317 108.902260,67.425308 
	C108.448051,67.724861 106.356712,65.877686 105.245285,64.783195 
	C101.664986,61.257431 98.191429,57.623272 94.308266,54.036800 
	C92.373711,51.915005 90.807602,49.787315 89.229820,47.048286 
	C89.691635,41.779892 87.524559,39.050632 83.058449,37.999825 
	C83.058449,37.999825 82.976532,37.566616 82.951569,37.347588 
z"/>
<path fill="#5255B1" opacity="1.000000" stroke="none" 
	d="
M75.182373,64.332397 
	C73.462753,63.542267 72.082886,62.556652 70.605148,61.501129 
	C72.636787,58.125610 74.621376,56.501793 77.987015,59.535820 
	C77.272842,61.293640 76.397484,62.715282 75.182373,64.332397 
z"/>
<path fill="#5B63B3" opacity="1.000000" stroke="none" 
	d="
M83.165741,38.324684 
	C87.524559,39.050632 89.691635,41.779892 89.074493,46.751335 
	C87.044907,44.260323 85.158966,41.454937 83.165741,38.324684 
z"/>
<path fill="#8C94E1" opacity="1.000000" stroke="none" 
	d="
M53.510391,30.779804 
	C52.380089,32.984951 51.364571,35.891457 49.319992,37.433868 
	C43.631916,41.724907 39.892445,46.630798 38.143234,53.910511 
	C37.081837,58.327736 32.588806,61.920387 29.274078,65.869186 
	C34.263252,54.888676 38.091644,43.012634 47.274368,34.317760 
	C48.883682,32.793941 51.177727,31.993271 53.510391,30.779804 
z"/>
<path fill="#6F71AC" opacity="1.000000" stroke="none" 
	d="
M61.716805,88.572861 
	C61.662518,88.063759 61.638706,87.195000 61.893814,86.215683 
	C62.030910,86.807816 61.889095,87.510506 61.716805,88.572861 
z"/>
</svg>