<?xml version="1.0" standalone="no"?>
<!DOCTYPE svg PUBLIC "-//W3C//DTD SVG 20010904//EN"
 "http://www.w3.org/TR/2001/REC-SVG-20010904/DTD/svg10.dtd">
<svg version="1.0" xmlns="http://www.w3.org/2000/svg"
 width="131.000000pt" height="142.000000pt" viewBox="0 0 131.000000 142.000000"
 preserveAspectRatio="xMidYMid meet">
<metadata>
Created by potrace 1.10, written by Peter Selinger 2001-2011
</metadata>
<g transform="translate(0.000000,142.000000) scale(0.100000,-0.100000)"
fill="#000000" stroke="none">
<path d="M625 1235 c-11 -2 -60 -7 -108 -10 -88 -7 -88 -7 -116 -45 -27 -37
-27 -39 -24 -170 3 -128 15 -194 50 -278 l14 -34 17 33 c13 25 26 36 54 43 83
21 143 -32 135 -119 -2 -22 -2 -32 0 -22 3 9 9 17 14 17 29 0 -13 121 -48 135
-53 21 -79 24 -110 13 -18 -7 -33 -15 -33 -19 0 -4 -9 -9 -19 -12 -16 -4 -22
5 -36 57 -21 75 -26 299 -7 318 7 7 12 20 12 30 0 23 14 22 66 -1 81 -37 195
-156 244 -256 8 -16 19 -33 25 -37 5 -4 10 -11 10 -15 2 -22 53 -143 88 -208
6 -11 15 -29 21 -40 27 -51 81 -115 94 -113 33 7 110 185 142 328 16 76 12
200 -9 246 -37 81 -190 149 -358 157 -54 3 -107 4 -118 2z m203 -46 c87 -12
179 -51 217 -92 33 -36 48 -98 43 -176 -3 -39 -10 -76 -16 -83 -5 -7 -10 -29
-10 -48 0 -40 -36 -153 -45 -143 -4 3 -7 -5 -7 -18 0 -14 -9 -35 -20 -47 -11
-12 -20 -26 -20 -31 0 -6 -13 -3 -29 7 -16 9 -27 20 -25 24 3 4 -4 16 -16 28
-11 11 -20 27 -20 35 0 8 -3 15 -8 15 -4 0 -15 22 -25 50 -10 27 -23 55 -30
62 -7 7 -19 33 -27 58 -7 25 -21 56 -31 70 -9 14 -28 45 -42 69 -37 68 -97
134 -152 171 -30 20 -44 35 -36 38 10 3 11 6 1 12 -8 5 -1 7 16 6 16 -1 54 0
84 4 61 7 78 6 198 -11z"/>
<path d="M261 809 c0 -24 4 -53 9 -64 5 -12 6 4 3 40 -7 72 -13 85 -12 24z"/>
<path d="M493 688 c-30 -15 -29 -22 12 -73 31 -38 39 -42 63 -36 37 10 52 53
31 89 -16 30 -67 40 -106 20z m79 -43 c13 -17 9 -45 -7 -45 -9 0 -12 6 -9 15
4 10 2 13 -8 10 -8 -3 -21 1 -28 10 -10 12 -10 18 0 30 10 12 16 13 29 3 9 -7
19 -17 23 -23z"/>
<path d="M573 541 c51 -65 129 -142 189 -188 21 -15 40 -36 44 -46 3 -10 10
-17 16 -15 10 4 17 20 51 113 20 56 30 125 17 125 -5 0 -10 -7 -10 -15 0 -8
-4 -15 -9 -15 -4 0 -6 -11 -3 -25 2 -15 0 -25 -7 -25 -7 0 -11 -6 -10 -12 2
-14 -5 -37 -24 -76 -10 -21 -12 -21 -36 -6 -14 9 -45 36 -68 60 -23 24 -44 44
-47 44 -10 0 -75 74 -76 85 0 6 -9 11 -19 11 -16 0 -18 -3 -8 -15z"/>
<path d="M406 398 c14 -25 59 -67 72 -68 20 0 14 14 -19 48 -31 31 -68 45 -53
20z"/>
</g>
</svg>
