<?xml version="1.0" standalone="no"?>
<!DOCTYPE svg PUBLIC "-//W3C//DTD SVG 20010904//EN"
 "http://www.w3.org/TR/2001/REC-SVG-20010904/DTD/svg10.dtd">
<svg version="1.0" xmlns="http://www.w3.org/2000/svg"
 width="141.000000pt" height="148.000000pt" viewBox="0 0 141.000000 148.000000"
 preserveAspectRatio="xMidYMid meet">
<metadata>
Created by potrace 1.10, written by Peter Selinger 2001-2011
</metadata>
<g transform="translate(0.000000,148.000000) scale(0.100000,-0.100000)"
fill="#000000" stroke="none">
<path d="M928 1141 c-58 -63 -146 -174 -155 -196 -3 -9 7 -16 31 -21 20 -3 36
-10 36 -16 0 -5 5 -6 11 -2 7 4 1 15 -16 28 l-28 22 47 55 c25 30 64 74 86 97
l40 44 0 -74 c-1 -74 -16 -217 -25 -226 -2 -3 -20 7 -39 22 -38 28 -46 31 -46
16 0 -5 6 -10 13 -10 16 0 67 -78 67 -105 2 -93 69 242 70 346 0 32 -6 51 -19
63 -17 16 -21 14 -73 -43z"/>
<path d="M330 978 c0 -2 -3 -40 -6 -84 -7 -93 4 -240 16 -228 7 7 14 215 10
302 0 9 -20 19 -20 10z"/>
<path d="M530 944 c-6 -16 -14 -38 -19 -49 -25 -54 -51 -149 -51 -186 0 -34
26 -139 35 -139 2 0 12 16 24 35 18 32 25 35 65 35 36 0 48 -5 65 -26 12 -15
21 -33 21 -40 0 -8 4 -14 9 -14 19 0 4 51 -23 79 -29 30 -28 30 -128 15 -35
-6 -37 -5 -46 30 -11 38 -7 58 30 151 11 28 22 59 25 71 7 29 37 46 66 35 35
-13 133 -13 119 1 -6 6 -21 12 -34 13 -161 19 -147 20 -158 -11z"/>
<path d="M959 745 c-2 -12 -1 -14 17 -83 16 -61 17 -65 6 -59 -4 3 -5 -20 -2
-51 7 -76 -24 -225 -64 -314 l-13 -28 -44 33 c-52 37 -79 61 -158 138 -59 58
-101 87 -101 70 0 -10 168 -171 179 -171 4 0 34 -25 66 -55 66 -60 85 -67 85
-31 0 13 3 26 8 28 14 6 52 161 61 248 12 117 2 232 -24 266 -8 11 -15 15 -16
9z"/>
<path d="M558 569 c-24 -13 -23 -61 0 -82 20 -18 42 -22 42 -8 0 5 9 11 20 14
40 10 15 87 -28 87 -9 0 -25 -5 -34 -11z m51 -33 c10 -12 8 -17 -7 -25 -19
-10 -32 -6 -32 10 0 5 8 5 18 2 15 -6 15 -5 3 10 -7 9 -9 17 -3 17 5 0 15 -6
21 -14z"/>
</g>
</svg>
