<?xml version="1.0" standalone="no"?>
<!DOCTYPE svg PUBLIC "-//W3C//DTD SVG 20010904//EN"
 "http://www.w3.org/TR/2001/REC-SVG-20010904/DTD/svg10.dtd">
<svg version="1.0" xmlns="http://www.w3.org/2000/svg"
 width="133.000000pt" height="152.000000pt" viewBox="0 0 133.000000 152.000000"
 preserveAspectRatio="xMidYMid meet">
<metadata>
Created by potrace 1.10, written by Peter Selinger 2001-2011
</metadata>
<g transform="translate(0.000000,152.000000) scale(0.100000,-0.100000)"
fill="#000000" stroke="none">
<path d="M585 1173 c4 -10 24 -71 46 -136 22 -64 53 -146 69 -181 17 -34 30
-68 30 -74 0 -6 3 -12 8 -14 4 -2 20 -29 37 -61 16 -31 39 -69 51 -84 l21 -26
45 31 c62 43 190 233 203 304 6 31 -19 71 -77 123 -89 81 -239 135 -372 135
-61 0 -67 -2 -61 -17z m176 -26 c96 -11 270 -114 284 -167 3 -14 8 -33 12 -44
4 -13 2 -16 -7 -11 -9 6 -11 4 -5 -4 7 -12 -3 -42 -26 -81 -5 -8 -17 -30 -26
-47 -9 -18 -23 -33 -31 -33 -8 0 -12 -6 -9 -14 6 -15 -15 -41 -71 -87 l-31
-26 -24 26 c-34 38 -109 189 -101 204 4 6 3 9 -1 4 -5 -4 -15 7 -23 25 -16 37
-59 185 -69 237 l-6 33 44 -5 c24 -3 65 -7 90 -10z"/>
<path d="M342 1007 c-31 -75 -45 -169 -38 -259 9 -109 12 -114 46 -78 31 33
57 37 99 15 33 -17 41 -33 41 -83 1 -38 10 -32 25 17 5 18 4 22 -5 16 -9 -5
-11 -4 -6 3 10 17 -11 50 -43 66 -18 10 -46 14 -79 11 l-51 -4 -3 57 c-3 65
22 206 42 239 13 19 21 21 80 18 37 -2 87 -11 111 -19 42 -15 62 -14 43 2 -20
17 -181 52 -238 52 -1 0 -12 -24 -24 -53z"/>
<path d="M367 612 c-25 -28 -21 -48 21 -93 121 -134 246 -237 307 -254 100
-28 94 -32 126 75 31 101 50 240 32 240 -6 0 -11 -18 -11 -39 0 -22 -5 -48
-10 -58 -5 -10 -13 -39 -16 -65 -4 -26 -11 -50 -17 -53 -5 -4 -9 -19 -9 -35 0
-35 -36 -66 -56 -49 -7 6 -17 8 -21 6 -16 -10 -71 22 -129 73 -33 29 -85 76
-116 104 -61 55 -68 66 -40 66 40 0 57 54 26 84 -21 22 -67 20 -87 -2z m74
-40 c-6 -2 -9 -7 -7 -11 3 -4 -4 -7 -14 -8 -10 -1 -20 7 -23 17 -7 26 1 31 30
17 14 -6 20 -13 14 -15z"/>
</g>
</svg>
