<svg version="1.1" id="Layer_1" xmlns="http://www.w3.org/2000/svg" xmlns:xlink="http://www.w3.org/1999/xlink" x="0px" y="0px"
	 width="100%" viewBox="0 0 148 160" enable-background="new 0 0 148 160" xml:space="preserve">
<path fill="#FFFFFE" opacity="1.000000" stroke="none" 
	d="
M149.000000,66.000000 
	C149.000000,98.000000 149.000000,129.500000 149.000000,161.000000 
	C99.666664,161.000000 50.333332,161.000000 1.000000,161.000000 
	C1.000000,107.666664 1.000000,54.333332 1.000000,1.000000 
	C50.333332,1.000000 99.666664,1.000000 149.000000,1.000000 
	C149.000000,22.500000 149.000000,44.000000 149.000000,66.000000 
M102.427681,63.732197 
	C102.277924,63.826069 102.128159,63.919941 101.124252,63.925896 
	C99.426125,64.081261 97.727997,64.236626 95.149063,64.141251 
	C92.426819,63.958790 89.704567,63.776333 86.935020,63.067490 
	C86.288353,63.031799 85.641678,62.996105 84.196693,62.917648 
	C82.634636,62.853798 81.072571,62.789951 79.256660,62.373592 
	C79.256660,62.373592 78.984825,62.034763 79.030014,61.520596 
	C79.034912,61.348633 79.039810,61.176674 79.539024,60.580181 
	C79.146240,59.849289 78.886581,58.630089 78.335503,58.479843 
	C76.737404,58.044159 75.022308,58.037590 73.378784,57.370007 
	C73.378784,57.370007 73.618309,56.938759 74.412537,56.753635 
	C80.082245,55.014256 81.888206,51.508602 79.936020,45.278076 
	C80.064819,44.827911 80.193619,44.377750 80.965340,43.815483 
	C80.939484,42.529442 80.913620,41.243404 80.806564,39.058971 
	C80.834229,36.052952 80.861893,33.046928 81.448143,29.662617 
	C80.931641,28.791410 80.415138,27.920202 79.335526,26.865593 
	C78.869232,26.257185 78.402946,25.648777 78.448410,24.616043 
	C76.068275,23.885813 73.688133,23.155581 70.510048,22.554703 
	C65.684151,23.092716 60.858253,23.630730 55.668053,23.556980 
	C54.170303,23.212978 52.092045,22.064907 51.270744,22.657858 
	C46.583889,26.041603 42.174702,26.339193 37.352848,21.825047 
	C37.352848,24.284079 37.352848,25.950119 37.352848,28.308605 
	C35.018120,27.830118 33.006771,27.417906 30.986443,26.232216 
	C29.740635,24.902155 28.726768,22.997805 27.193830,22.378689 
	C24.979286,21.484293 22.352465,21.102833 19.970703,21.307463 
	C18.361374,21.445728 16.871090,22.969631 15.327559,23.873739 
	C16.556580,25.251263 17.785599,26.628786 19.000391,28.717743 
	C17.992838,30.639896 16.985285,32.562050 15.513346,34.815945 
	C15.333421,34.876957 15.153495,34.937969 14.572686,35.139660 
	C14.317428,35.284935 14.132054,35.492592 13.428445,36.033958 
	C12.852287,36.614140 12.276129,37.194317 11.186641,38.085667 
	C10.376746,38.959549 9.566851,39.833435 8.060069,40.926617 
	C3.929066,44.602192 7.493848,48.297321 7.483238,52.429470 
	C7.995384,56.177708 7.312116,60.718872 13.659470,61.224922 
	C14.451744,62.118362 15.244019,63.011803 16.094227,64.599892 
	C18.415230,66.060265 20.736233,67.520638 23.436487,69.403336 
	C23.933371,69.672310 24.430252,69.941284 25.040403,70.885765 
	C29.357889,75.267052 33.675377,79.648346 38.108994,84.712502 
	C39.742134,85.471634 41.375278,86.230766 43.000153,87.000000 
	C43.000153,87.000000 43.010483,86.991081 43.000423,87.851593 
	C42.957077,93.215302 43.987560,98.073692 49.307190,101.479340 
	C49.281971,101.823288 49.256752,102.167236 49.042782,103.278984 
	C47.758312,106.286652 46.141788,104.702415 44.957745,103.368355 
	C43.108902,101.285271 41.694862,98.809013 39.797604,96.778755 
	C38.564686,95.459396 36.800591,94.636406 35.274479,93.591026 
	C34.751884,94.114738 34.229290,94.638443 33.706696,95.162155 
	C37.055450,100.190445 40.826576,104.998840 43.600372,110.326477 
	C45.368183,113.721909 45.734032,117.870010 46.584759,121.712463 
	C47.191242,124.451767 47.558613,127.244026 48.047493,130.787033 
	C47.935986,131.811783 47.824482,132.836533 47.102570,134.072464 
	C47.191578,135.444626 47.280586,136.816772 47.638203,138.844650 
	C47.870045,139.513718 48.101887,140.182800 47.567200,140.988144 
	C46.467731,141.591370 45.368263,142.194611 43.898975,143.000748 
	C49.761566,145.907928 54.417370,144.336899 59.895020,142.007294 
	C62.597359,142.006866 65.299698,142.006439 68.401634,142.514587 
	C69.267036,142.006454 70.132439,141.498322 71.464073,140.962631 
	C71.464073,140.962631 71.931114,140.959747 72.669830,140.916382 
	C74.112701,138.540253 76.200798,136.321625 76.829346,133.746719 
	C77.557091,130.765411 76.717148,127.431778 77.142708,124.331383 
	C77.312347,123.095520 79.047295,122.074509 80.986229,120.959320 
	C89.664886,121.639320 98.343536,122.319321 107.031067,123.838242 
	C106.638229,126.630310 106.426079,129.462585 105.815559,132.206223 
	C104.477097,138.221191 104.830544,138.751389 111.487488,139.174210 
	C111.487488,139.174210 111.588829,139.179611 112.464775,139.257568 
	C113.342621,139.189575 114.220474,139.121582 115.492050,139.095703 
	C115.492050,139.095703 115.887749,139.081055 116.134453,139.827560 
	C119.376938,139.896820 122.623985,139.881058 125.860863,140.054764 
	C131.022141,140.331741 132.497833,137.561295 131.972382,132.054642 
	C131.956314,127.368942 131.940247,122.683250 131.962860,117.166519 
	C131.956024,115.780205 131.949203,114.393898 131.982986,112.234283 
	C131.670090,110.817421 131.357178,109.400551 131.045105,107.245331 
	C131.057800,106.507141 131.070496,105.768944 131.700546,104.670174 
	C136.061050,97.473557 135.741760,89.819649 133.883987,81.375900 
	C133.258698,80.913475 132.633408,80.451057 132.000000,79.999390 
	C132.000000,79.999390 132.008957,79.993744 132.013382,79.193306 
	C131.697617,74.520874 127.618858,68.833900 123.713684,67.419785 
	C122.483284,66.609673 121.252892,65.799561 119.795677,64.732941 
	C119.795677,64.732941 119.687035,64.408218 119.845497,63.867924 
	C119.714615,63.542500 119.583725,63.217072 119.452850,62.891651 
	C119.301758,63.259529 119.150658,63.627411 118.357948,63.916126 
	C117.950462,63.780289 117.542984,63.644451 116.854393,62.847511 
	C115.729797,62.726597 114.605209,62.605682 112.785393,62.549267 
	C110.846161,62.648109 108.906929,62.746956 106.561821,62.357265 
	C105.349869,62.755142 104.137924,63.153019 102.427681,63.732197 
z"/>
<path fill="#DADCED" opacity="1.000000" stroke="none" 
	d="
M71.931114,140.959747 
	C71.931114,140.959747 71.464073,140.962631 70.892540,140.978882 
	C69.548019,141.332092 68.775032,141.669052 68.002037,142.006012 
	C65.299698,142.006439 62.597359,142.006866 59.447075,141.754486 
	C58.999065,141.331726 58.998997,141.161774 59.003662,140.616562 
	C60.658020,136.836899 63.964989,134.036224 62.444672,129.475204 
	C62.174892,128.665833 63.720673,127.282372 64.363693,126.128143 
	C64.906052,125.154610 66.042618,123.772758 65.736877,123.182632 
	C63.204819,118.295403 60.398312,113.550362 57.775833,108.431152 
	C63.707581,100.992928 67.675873,92.953400 70.280754,84.027977 
	C77.359367,84.152252 74.655525,90.387909 76.707047,93.489822 
	C87.622910,95.165306 98.503487,97.663231 109.349365,91.921005 
	C111.136848,91.196136 112.773422,90.772408 113.961632,89.800514 
	C116.114571,88.039558 118.000290,85.951889 120.357323,84.038971 
	C122.399147,85.045410 123.981773,86.296677 125.781822,86.928726 
	C131.289963,88.862770 132.816681,93.925926 129.019714,98.388962 
	C128.198959,99.353706 127.158745,100.131744 125.591843,101.573364 
	C127.666641,102.879677 129.374924,103.955215 131.083191,105.030754 
	C131.070496,105.768944 131.057800,106.507141 130.764526,107.847519 
	C130.970108,109.969002 131.456238,111.488289 131.942368,113.007584 
	C131.949203,114.393898 131.956024,115.780205 131.541809,117.581734 
	C130.295944,117.916374 129.451019,117.923859 128.649567,117.740898 
	C123.553276,116.577469 122.282440,117.845757 123.484116,122.954529 
	C123.976311,125.047028 124.867302,127.146431 124.822800,129.226562 
	C124.796242,130.467865 123.306641,131.677872 122.474731,132.901947 
	C121.322952,131.825439 119.464790,130.911270 119.172020,129.637344 
	C118.626457,127.263382 119.573280,124.475487 118.790306,122.249916 
	C118.184402,120.527672 116.003021,118.453339 114.313652,118.247749 
	C112.195206,117.989929 108.162483,115.929535 107.987694,121.330307 
	C107.646286,122.081390 107.334244,122.540359 107.022202,122.999321 
	C98.343536,122.319321 89.664886,121.639320 80.445694,120.608978 
	C76.001976,117.961288 75.040634,120.168762 75.023376,123.538651 
	C74.992676,129.531357 75.750923,135.646072 71.931114,140.959747 
z"/>
<path fill="#D5D9F1" opacity="1.000000" stroke="none" 
	d="
M37.992863,84.029633 
	C33.675377,79.648346 29.357889,75.267052 25.286758,70.361618 
	C27.645607,66.868393 29.758099,63.899319 32.233189,60.999119 
	C33.763351,62.943134 34.745094,64.975990 36.159092,66.641968 
	C37.230423,67.904228 38.852875,68.698730 40.219437,69.723709 
	C40.208794,69.746025 40.203777,69.795036 40.109108,70.169388 
	C39.672482,71.982780 39.330517,73.421829 38.809765,74.995399 
	C38.408676,75.344963 38.270714,75.604782 37.944626,76.093773 
	C38.495148,76.825058 39.318123,77.371956 40.462578,78.080116 
	C44.516750,77.551117 48.249443,76.860855 51.916767,76.182686 
	C49.731293,73.923836 48.223621,72.365555 46.902340,70.509689 
	C47.213295,67.732765 47.337860,65.253426 47.462425,62.774078 
	C45.293896,62.776772 43.125301,62.770664 40.956882,62.787464 
	C40.298622,62.792564 39.640854,62.860931 38.988075,62.502495 
	C37.943939,59.644001 36.894588,57.183323 35.853958,54.481194 
	C35.871300,53.918087 35.867512,53.596581 35.993179,52.940842 
	C36.396885,51.687698 36.658722,50.768932 36.936520,49.540543 
	C37.008549,48.821514 37.064621,48.412113 37.548130,48.001930 
	C40.000328,47.996418 42.025093,47.991676 44.282799,48.153748 
	C48.284019,50.164722 46.354191,45.615707 48.464279,45.129322 
	C51.339081,44.878712 53.698990,44.865761 53.821472,48.096481 
	C51.959538,48.696255 50.519444,49.306602 49.079346,49.916954 
	C49.823280,51.454948 50.158089,53.688084 51.382935,54.408974 
	C56.326679,57.318626 61.593071,59.673817 66.633324,62.429462 
	C68.202339,63.287292 69.433594,64.762909 70.520874,66.019135 
	C69.815399,66.722115 69.408508,67.361671 68.659126,68.034424 
	C67.225998,68.396042 66.135353,68.724464 65.021439,68.651917 
	C63.693481,67.186516 62.388805,66.122093 61.084137,65.057671 
	C60.390114,66.615143 59.380554,68.112419 59.069462,69.742950 
	C58.469707,72.886459 60.709179,73.126358 62.988564,73.385063 
	C61.309586,76.512070 59.672550,79.289818 57.808224,82.197380 
	C57.399204,82.619995 57.217476,82.912796 56.640713,83.184280 
	C52.389717,84.183708 48.533760,85.204453 44.531403,86.331474 
	C44.216206,86.621391 44.087757,86.829933 44.007408,87.030029 
	C44.015167,86.996674 44.079369,87.020515 43.812141,87.013367 
	C43.366772,87.001175 43.188625,86.996124 43.010483,86.991081 
	C43.010483,86.991081 43.000153,87.000000 42.950981,86.650719 
	C41.265495,85.544167 39.629177,84.786903 37.992863,84.029633 
M31.108578,69.864761 
	C31.771658,70.741440 32.434738,71.618126 33.279205,72.734619 
	C34.879288,69.575096 36.132744,66.920158 31.447128,65.150223 
	C31.284184,66.673515 31.153072,67.899193 31.108578,69.864761 
z"/>
<path fill="#4C56C3" opacity="1.000000" stroke="none" 
	d="
M96.029869,64.391998 
	C97.727997,64.236626 99.426125,64.081261 101.715881,64.213089 
	C102.857239,64.658768 103.406975,64.817253 104.246918,65.271118 
	C107.175995,65.715279 109.851974,65.652245 112.437538,66.105247 
	C113.666962,66.320641 115.670105,67.490654 115.694008,68.277679 
	C115.792656,71.526817 116.188103,75.267212 114.801750,77.968643 
	C110.407295,86.531708 102.671715,88.331451 93.162468,88.403831 
	C87.702080,88.445396 83.595924,85.576515 78.830063,84.210068 
	C78.842369,84.176819 78.912521,84.177391 78.781075,83.887894 
	C78.061867,83.427788 77.474113,83.257164 76.922638,83.055756 
	C76.958923,83.024963 76.943420,83.118874 76.859528,82.872597 
	C76.507607,82.416153 76.239594,82.205986 75.887138,81.775589 
	C75.802704,81.555351 75.793839,81.083710 76.055679,80.914978 
	C75.800056,80.228111 75.282593,79.709969 74.733566,79.227600 
	C74.701996,79.263382 74.613167,79.298264 74.727081,78.896706 
	C74.895676,77.662941 74.950348,76.830727 75.230911,75.851547 
	C75.297882,75.133766 75.138954,74.562943 74.980240,73.593369 
	C74.981056,72.131264 74.981651,71.067902 75.320557,69.972260 
	C77.118469,68.602768 78.578064,67.265572 80.478935,65.931519 
	C82.388275,65.319336 83.856346,64.703995 85.467468,64.151535 
	C85.806404,64.262711 85.996727,64.327362 86.573029,64.555511 
	C91.176353,66.321487 90.451385,68.339821 87.558342,70.732285 
	C86.513733,71.596146 85.780609,72.836655 84.905342,73.905281 
	C85.135529,74.345634 85.365715,74.785980 85.595901,75.226334 
	C93.325508,75.226334 101.055107,75.226334 109.904205,75.226334 
	C107.562599,73.070396 105.646690,70.311111 104.715935,70.610855 
	C98.642372,72.566833 98.090599,67.553162 96.029869,64.391998 
z"/>
<path fill="#DADAF6" opacity="1.000000" stroke="none" 
	d="
M108.017052,121.038193 
	C108.162483,115.929535 112.195206,117.989929 114.313652,118.247749 
	C116.003021,118.453339 118.184402,120.527672 118.790306,122.249916 
	C119.573280,124.475487 118.626457,127.263382 119.172020,129.637344 
	C119.464790,130.911270 121.322952,131.825439 122.474731,132.901947 
	C123.306641,131.677872 124.796242,130.467865 124.822800,129.226562 
	C124.867302,127.146431 123.976311,125.047028 123.484116,122.954529 
	C122.282440,117.845757 123.553276,116.577469 128.649567,117.740898 
	C129.451019,117.923859 130.295944,117.916374 131.522476,117.997253 
	C131.940247,122.683250 131.956314,127.368942 131.589417,132.532013 
	C126.100204,135.033279 120.993980,137.057159 115.887749,139.081055 
	C115.887749,139.081055 115.492050,139.095703 115.247711,138.610901 
	C114.622574,132.592941 114.241760,127.059799 113.827339,121.038193 
	C111.557327,121.038193 109.787193,121.038193 108.017052,121.038193 
z"/>
<path fill="#85CCB3" opacity="1.000000" stroke="none" 
	d="
M44.677803,86.225197 
	C48.533760,85.204453 52.389717,84.183708 56.634041,83.402626 
	C57.022411,83.642288 57.031544,84.082680 56.888290,84.368149 
	C57.507431,86.063972 58.269821,87.474342 58.631310,88.933846 
	C55.901020,89.543655 53.571632,90.104324 51.242241,90.664993 
	C51.015110,91.169365 50.787975,91.673737 50.560841,92.178108 
	C52.631603,93.604713 54.702366,95.031311 56.773125,96.457916 
	C57.894608,94.292229 59.016090,92.126534 60.512390,90.020836 
	C68.011406,93.201424 65.649536,86.704819 67.258377,84.095932 
	C68.165916,84.186920 68.854836,84.194138 69.644402,84.180939 
	C69.745049,84.160515 69.917915,84.049599 69.917915,84.049599 
	C67.675873,92.953400 63.707581,100.992928 57.436737,108.460526 
	C56.305290,108.889229 55.613926,108.957413 54.617043,109.018311 
	C53.700348,109.006958 53.089165,109.002876 52.342182,108.637115 
	C51.214764,106.354012 50.223148,104.432594 49.231533,102.511185 
	C49.256752,102.167236 49.281971,101.823288 49.234718,100.842697 
	C47.467953,95.810883 45.773663,91.415695 44.079369,87.020515 
	C44.079369,87.020515 44.015167,86.996674 44.178391,86.940437 
	C44.540089,86.708527 44.652149,86.488853 44.677803,86.225197 
M60.099369,101.375137 
	C59.655159,100.256622 59.390011,98.291344 58.738411,98.153564 
	C53.522514,97.050583 51.697521,100.444405 54.423050,107.793167 
	C56.390415,105.591995 58.009052,103.780983 60.099369,101.375137 
z"/>
<path fill="#9B9DD1" opacity="1.000000" stroke="none" 
	d="
M52.477982,108.998802 
	C53.089165,109.002876 53.700348,109.006958 54.679901,109.385391 
	C57.902256,112.898727 58.521946,116.667946 58.059509,120.704659 
	C57.295666,127.372368 56.480572,134.034210 55.275192,140.734772 
	C52.686783,140.797974 50.510258,140.824921 48.333725,140.851868 
	C48.101887,140.182800 47.870045,139.513718 47.686886,138.109436 
	C47.728039,136.203232 47.720505,135.032257 47.712975,133.861282 
	C47.824482,132.836533 47.935986,131.811783 48.328121,130.130325 
	C49.898495,122.648682 51.188240,115.823738 52.477982,108.998802 
z"/>
<path fill="#979CD1" opacity="1.000000" stroke="none" 
	d="
M37.120693,48.002708 
	C37.064621,48.412113 37.008549,48.821514 36.518841,49.586010 
	C33.530128,50.267475 30.975050,50.593845 28.419971,50.920219 
	C28.254887,51.349922 28.089804,51.779625 27.924719,52.209328 
	C33.474064,53.560104 34.569344,56.547939 31.870588,60.930244 
	C29.758099,63.899319 27.645607,66.868393 25.230125,70.023857 
	C24.430252,69.941284 23.933371,69.672310 23.203602,68.852280 
	C22.587231,67.230141 22.203749,66.159050 22.150436,64.929794 
	C24.527788,63.531960 26.574970,62.292290 29.644733,60.433395 
	C26.879005,58.442593 24.488930,56.722183 22.068638,54.595600 
	C22.390966,52.125534 22.743509,50.061646 23.456465,47.955521 
	C26.473396,46.796719 29.160885,45.747505 31.777573,44.544315 
	C34.308002,43.380791 34.936401,41.816467 32.542397,39.749626 
	C31.570618,38.910648 30.765163,37.879021 29.943640,36.600662 
	C31.292788,35.158604 32.582325,34.050934 34.058044,33.283924 
	C35.203045,38.417290 36.161869,43.209999 37.120693,48.002708 
z"/>
<path fill="#575EAC" opacity="1.000000" stroke="none" 
	d="
M78.817757,84.243317 
	C83.595924,85.576515 87.702080,88.445396 93.162468,88.403831 
	C102.671715,88.331451 110.407295,86.531708 114.801750,77.968643 
	C116.188103,75.267212 115.792656,71.526817 115.694008,68.277679 
	C115.670105,67.490654 113.666962,66.320641 112.437538,66.105247 
	C109.851974,65.652245 107.175995,65.715279 104.261993,65.038940 
	C103.986862,64.511375 104.011993,64.046211 104.341957,63.972816 
	C105.437180,63.548214 106.202438,63.197010 106.967697,62.845802 
	C108.906929,62.746956 110.846161,62.648109 113.334641,62.791660 
	C114.967766,63.192238 116.051628,63.350426 117.135498,63.508614 
	C117.542984,63.644451 117.950462,63.780289 118.816658,64.115486 
	C119.275368,64.314842 119.687035,64.408218 119.687035,64.408218 
	C119.687035,64.408218 119.795677,64.732941 119.898933,65.322533 
	C120.962936,78.525093 118.201828,83.437340 106.637573,89.053062 
	C103.497841,90.001060 100.731499,90.920593 97.662094,91.589096 
	C95.736778,91.420685 94.114532,91.503304 92.124603,91.482635 
	C90.496239,91.214272 89.235558,91.049194 87.737778,90.643921 
	C86.844421,90.432693 86.188148,90.461662 85.182495,90.424393 
	C82.827995,88.319878 80.822876,86.281593 78.817757,84.243317 
z"/>
<path fill="#F2FAFB" opacity="1.000000" stroke="none" 
	d="
M52.342186,108.637115 
	C51.188240,115.823738 49.898495,122.648682 48.320721,129.743134 
	C47.558613,127.244026 47.191242,124.451767 46.584759,121.712463 
	C45.734032,117.870010 45.368183,113.721909 43.600372,110.326477 
	C40.826576,104.998840 37.055450,100.190445 33.706696,95.162155 
	C34.229290,94.638443 34.751884,94.114738 35.274479,93.591026 
	C36.800591,94.636406 38.564686,95.459396 39.797604,96.778755 
	C41.694862,98.809013 43.108902,101.285271 44.957745,103.368355 
	C46.141788,104.702415 47.758312,106.286652 49.137157,102.895081 
	C50.223148,104.432594 51.214764,106.354012 52.342186,108.637115 
z"/>
<path fill="#EEF1F9" opacity="1.000000" stroke="none" 
	d="
M15.977733,34.484200 
	C16.985285,32.562050 17.992838,30.639896 19.429432,28.361263 
	C23.570791,27.671753 27.283106,27.338722 30.995422,27.005693 
	C33.006771,27.417906 35.018120,27.830118 37.352848,28.308605 
	C37.352848,25.950119 37.352848,24.284079 37.352848,21.825047 
	C42.174702,26.339193 46.583889,26.041603 51.270744,22.657858 
	C52.092045,22.064907 54.170303,23.212978 55.646912,24.127964 
	C52.733219,26.108688 49.840672,27.518429 46.598785,28.894611 
	C45.162376,29.242100 44.075310,29.623146 42.611717,30.042740 
	C39.504936,30.718489 36.774673,31.355694 33.746841,31.763195 
	C29.972862,32.084000 26.496458,32.634506 22.661211,33.141754 
	C21.074121,33.606331 19.845879,34.114166 18.331408,34.639191 
	C17.668722,34.722736 17.292267,34.789089 16.686203,34.750221 
	C16.296974,34.591396 16.137352,34.537800 15.977733,34.484200 
z"/>
<path fill="#DBDBE7" opacity="1.000000" stroke="none" 
	d="
M131.391876,104.850464 
	C129.374924,103.955215 127.666641,102.879677 125.591843,101.573364 
	C127.158745,100.131744 128.198959,99.353706 129.019714,98.388962 
	C132.816681,93.925926 131.289963,88.862770 125.781822,86.928726 
	C123.981773,86.296677 122.399147,85.045410 120.400223,83.674713 
	C123.052872,82.184448 126.022392,81.096802 129.369019,80.005768 
	C130.500412,79.999496 131.254684,79.996620 132.008957,79.993744 
	C132.008957,79.993744 132.000000,79.999390 132.037872,80.311264 
	C132.688492,81.088211 133.301224,81.553276 133.913956,82.018341 
	C135.741760,89.819649 136.061050,97.473557 131.391876,104.850464 
z"/>
<path fill="#4B57BB" opacity="1.000000" stroke="none" 
	d="
M95.589462,64.266624 
	C98.090599,67.553162 98.642372,72.566833 104.715935,70.610855 
	C105.646690,70.311111 107.562599,73.070396 109.904205,75.226334 
	C101.055107,75.226334 93.325508,75.226334 85.595901,75.226334 
	C85.365715,74.785980 85.135529,74.345634 84.905342,73.905281 
	C85.780609,72.836655 86.513733,71.596146 87.558342,70.732285 
	C90.451385,68.339821 91.176353,66.321487 86.818863,64.395798 
	C86.776199,63.923923 86.879257,63.758900 86.982323,63.593872 
	C89.704567,63.776333 92.426819,63.958790 95.589462,64.266624 
z"/>
<path fill="#686DB5" opacity="1.000000" stroke="none" 
	d="
M46.948120,28.928169 
	C49.840672,27.518429 52.733219,26.108688 55.829063,24.433846 
	C60.858253,23.630730 65.684151,23.092716 71.090256,22.806555 
	C73.759201,23.719061 75.847923,24.379713 77.936653,25.040367 
	C78.402946,25.648777 78.869232,26.257185 79.625565,27.284536 
	C80.240257,28.482622 80.564903,29.261766 80.889557,30.040909 
	C80.861893,33.046928 80.834229,36.052952 80.636200,39.703072 
	C80.290764,40.895573 80.115692,41.443974 79.673065,41.736008 
	C79.254082,38.433411 79.366623,35.339294 78.826759,32.363533 
	C78.597366,31.099136 77.001045,30.082727 75.841385,28.628292 
	C72.103676,27.529615 68.548508,26.164192 64.998055,26.176352 
	C62.314892,26.185541 59.637756,27.955070 56.605370,28.986496 
	C54.829338,30.651503 53.405876,32.271160 51.646053,33.872597 
	C49.911667,32.850201 48.513645,31.846020 47.093086,30.524445 
	C47.029747,29.780754 46.988934,29.354460 46.948120,28.928169 
z"/>
<path fill="#CED2F2" opacity="1.000000" stroke="none" 
	d="
M128.991913,80.009155 
	C126.022392,81.096802 123.052872,82.184448 120.040451,83.636353 
	C118.000290,85.951889 116.114571,88.039558 113.961632,89.800514 
	C112.773422,90.772408 111.136848,91.196136 109.223801,91.651123 
	C108.167122,90.631706 107.589043,89.828148 107.010971,89.024590 
	C118.201828,83.437340 120.962936,78.525093 120.012344,65.450790 
	C121.252892,65.799561 122.483284,66.609673 123.712631,68.036781 
	C124.475716,70.566475 125.158310,72.517143 126.026588,74.381332 
	C126.920784,76.301170 127.995941,78.136726 128.991913,80.009155 
z"/>
<path fill="#999DD1" opacity="1.000000" stroke="none" 
	d="
M107.987694,121.330307 
	C109.787193,121.038193 111.557327,121.038193 113.827339,121.038193 
	C114.241760,127.059799 114.622574,132.592941 115.050850,138.589844 
	C114.220474,139.121582 113.342621,139.189575 112.088760,139.044189 
	C111.603867,138.946625 111.494980,139.062439 111.386093,139.178253 
	C104.830544,138.751389 104.477097,138.221191 105.815559,132.206223 
	C106.426079,129.462585 106.638229,126.630310 107.026634,123.418777 
	C107.334244,122.540359 107.646286,122.081390 107.987694,121.330307 
z"/>
<path fill="#9AA1D0" opacity="1.000000" stroke="none" 
	d="
M70.819473,65.955711 
	C69.433594,64.762909 68.202339,63.287292 66.633324,62.429462 
	C61.593071,59.673817 56.326679,57.318626 51.382935,54.408974 
	C50.158089,53.688084 49.823280,51.454948 49.079346,49.916954 
	C50.519444,49.306602 51.959538,48.696255 54.059578,48.221935 
	C53.394531,53.522636 57.055756,55.292011 60.676189,57.049221 
	C66.924370,60.081829 68.495857,59.121033 69.390472,52.010693 
	C70.520737,52.007732 71.274765,52.008408 72.102470,52.331642 
	C72.267433,53.085186 72.358711,53.516163 72.353096,54.250874 
	C72.722420,55.187611 73.188644,55.820614 73.609543,56.572182 
	C73.564224,56.690739 73.618309,56.938759 73.618309,56.938759 
	C73.618309,56.938759 73.378784,57.370007 73.164986,57.825737 
	C73.323990,59.699871 73.696793,61.118275 74.117294,62.869904 
	C73.440903,64.809212 72.716805,66.415291 71.730415,68.015762 
	C71.293274,68.004570 71.118423,67.999001 70.948273,67.652557 
	C70.908470,66.859695 70.863968,66.407700 70.819473,65.955711 
z"/>
<path fill="#FBFFF6" opacity="1.000000" stroke="none" 
	d="
M30.990932,26.618954 
	C27.283106,27.338722 23.570791,27.671753 19.436546,28.005547 
	C17.785599,26.628786 16.556580,25.251263 15.327559,23.873739 
	C16.871090,22.969631 18.361374,21.445728 19.970703,21.307463 
	C22.352465,21.102833 24.979286,21.484293 27.193830,22.378689 
	C28.726768,22.997805 29.740635,24.902155 30.990932,26.618954 
z"/>
<path fill="#E2E1ED" opacity="1.000000" stroke="none" 
	d="
M116.011101,139.454315 
	C120.993980,137.057159 126.100204,135.033279 131.575348,132.996948 
	C132.497833,137.561295 131.022141,140.331741 125.860863,140.054764 
	C122.623985,139.881058 119.376938,139.896820 116.011101,139.454315 
z"/>
<path fill="#4669A3" opacity="1.000000" stroke="none" 
	d="
M71.992706,68.021378 
	C72.716805,66.415291 73.440903,64.809212 74.482246,62.762680 
	C75.540001,62.152100 76.280495,61.981956 77.331467,61.951775 
	C78.089569,62.072746 78.537201,62.053753 78.984825,62.034760 
	C78.984825,62.034763 79.256660,62.373592 79.058998,62.705406 
	C78.593498,63.668808 78.325661,64.300392 77.784279,65.121513 
	C76.667900,66.875542 75.825073,68.440041 74.982254,70.004547 
	C74.981651,71.067902 74.981056,72.131264 74.758545,73.742905 
	C74.692764,74.860298 74.848892,75.429413 75.005020,75.998520 
	C74.950348,76.830727 74.895676,77.662941 74.413284,78.807541 
	C73.033638,78.580788 72.081711,78.041649 71.122314,77.119537 
	C71.407471,73.831497 71.700089,70.926437 71.992706,68.021378 
z"/>
<path fill="#F7F9FC" opacity="1.000000" stroke="none" 
	d="
M72.300476,140.938065 
	C75.750923,135.646072 74.992676,129.531357 75.023376,123.538651 
	C75.040634,120.168762 76.001976,117.961288 79.987404,120.607162 
	C79.047295,122.074509 77.312347,123.095520 77.142708,124.331383 
	C76.717148,127.431778 77.557091,130.765411 76.829346,133.746719 
	C76.200798,136.321625 74.112701,138.540253 72.300476,140.938065 
z"/>
<path fill="#E1E0EB" opacity="1.000000" stroke="none" 
	d="
M129.369019,80.005760 
	C127.995941,78.136726 126.920784,76.301170 126.026588,74.381332 
	C125.158310,72.517143 124.475716,70.566475 123.853615,68.334015 
	C127.618858,68.833900 131.697617,74.520874 132.011169,79.593521 
	C131.254684,79.996620 130.500412,79.999496 129.369019,80.005760 
z"/>
<path fill="#EEF1F9" opacity="1.000000" stroke="none" 
	d="
M72.449989,53.947144 
	C72.358711,53.516163 72.267433,53.085186 72.133705,52.026794 
	C72.137512,50.994354 72.183769,50.589329 72.546188,50.219429 
	C78.346436,54.013374 78.127068,48.292511 79.960663,45.983868 
	C81.888206,51.508602 80.082245,55.014256 74.015427,56.846199 
	C73.618309,56.938759 73.564224,56.690739 73.692871,56.244606 
	C73.364334,55.181366 72.907166,54.564255 72.449989,53.947144 
z"/>
<path fill="#F7F9FC" opacity="1.000000" stroke="none" 
	d="
M47.950462,140.920013 
	C50.510258,140.824921 52.686783,140.797974 55.685989,140.833710 
	C57.338757,140.928192 58.168846,140.960022 58.998932,140.991837 
	C58.998997,141.161774 58.999065,141.331726 58.996651,141.756683 
	C54.417370,144.336899 49.761566,145.907928 43.898975,143.000748 
	C45.368263,142.194611 46.467731,141.591370 47.950462,140.920013 
z"/>
<path fill="#686DB5" opacity="1.000000" stroke="none" 
	d="
M79.948341,45.630974 
	C78.127068,48.292511 78.346436,54.013374 72.210876,50.127350 
	C71.100441,49.961769 70.641487,49.923397 70.127846,49.592476 
	C70.042496,48.904968 70.011833,48.510002 70.218811,47.825729 
	C73.511826,46.388645 76.567215,45.240864 79.794518,44.038895 
	C79.966438,43.984699 80.322418,43.927586 80.322418,43.927586 
	C80.193619,44.377750 80.064819,44.827911 79.948341,45.630974 
z"/>
<path fill="#8487C5" opacity="1.000000" stroke="none" 
	d="
M8.031972,51.984760 
	C7.493848,48.297321 3.929066,44.602192 8.481619,41.190720 
	C8.901085,41.960564 8.899000,42.466301 8.639670,43.225685 
	C9.134180,46.180511 9.864100,48.888023 10.644434,51.580921 
	C11.296771,53.832100 12.008093,56.066185 12.382772,58.181335 
	C10.725490,56.031471 9.378731,54.008114 8.031972,51.984760 
z"/>
<path fill="#F2FAFB" opacity="1.000000" stroke="none" 
	d="
M43.812141,87.013367 
	C45.773663,91.415695 47.467953,95.810883 49.169189,100.590736 
	C43.987560,98.073692 42.957077,93.215302 43.005455,87.421341 
	C43.188625,86.996124 43.366772,87.001175 43.812141,87.013367 
z"/>
<path fill="#ECEFFA" opacity="1.000000" stroke="none" 
	d="
M7.757605,52.207115 
	C9.378731,54.008114 10.725490,56.031471 12.436132,58.364017 
	C12.800016,58.673210 12.993830,59.002052 12.979789,59.327900 
	C13.021308,60.084553 13.076868,60.515354 13.132429,60.946159 
	C7.312116,60.718872 7.995384,56.177708 7.757605,52.207115 
z"/>
<path fill="#5358AB" opacity="1.000000" stroke="none" 
	d="
M8.896915,42.972038 
	C8.899000,42.466301 8.901085,41.960564 8.830063,41.081070 
	C9.566851,39.833435 10.376746,38.959549 11.812063,37.998131 
	C13.947918,37.237659 15.458348,36.564720 16.979609,36.290092 
	C16.577734,41.726280 11.675215,40.981129 8.896915,42.972038 
z"/>
<path fill="#EEF1F9" opacity="1.000000" stroke="none" 
	d="
M77.020996,61.811813 
	C76.280495,61.981956 75.540001,62.152100 74.434547,62.429462 
	C73.696793,61.118275 73.323990,59.699871 73.152161,58.072052 
	C75.022308,58.037590 76.737404,58.044159 78.335503,58.479843 
	C78.886581,58.630089 79.146240,59.849289 79.002335,60.800995 
	C77.984093,61.285141 77.502541,61.548477 77.020996,61.811813 
z"/>
<path fill="#ECEFFA" opacity="1.000000" stroke="none" 
	d="
M21.820267,65.087959 
	C22.203749,66.159050 22.587231,67.230141 23.013977,68.641121 
	C20.736233,67.520638 18.415230,66.060265 16.433762,64.262909 
	C17.483280,63.802048 18.193262,63.678162 19.224098,63.655136 
	C20.303389,64.199989 21.061827,64.643974 21.820267,65.087959 
z"/>
<path fill="#6E73B7" opacity="1.000000" stroke="none" 
	d="
M78.057831,64.931984 
	C78.325661,64.300392 78.593498,63.668808 79.185928,62.881660 
	C81.072571,62.789951 82.634636,62.853798 84.598152,63.140251 
	C85.106300,63.605495 85.214569,63.847427 85.324417,64.088654 
	C83.856346,64.703995 82.388275,65.319336 80.305847,65.697144 
	C79.146935,65.283737 78.602386,65.107857 78.057831,64.931984 
z"/>
<path fill="#8487C5" opacity="1.000000" stroke="none" 
	d="
M18.903244,63.554276 
	C18.193262,63.678162 17.483280,63.802048 16.404797,63.915588 
	C15.244019,63.011803 14.451744,62.118362 13.395949,61.085541 
	C13.076868,60.515354 13.021308,60.084553 13.345947,59.359341 
	C15.535057,59.856422 17.343966,60.647915 19.116692,61.700600 
	C19.021420,62.492622 18.962332,63.023449 18.903244,63.554276 
z"/>
<path fill="#EEF1F9" opacity="1.000000" stroke="none" 
	d="
M78.192535,24.828205 
	C75.847923,24.379713 73.759201,23.719061 71.489235,22.741879 
	C73.688133,23.155581 76.068275,23.885813 78.192535,24.828205 
z"/>
<path fill="#E2E1ED" opacity="1.000000" stroke="none" 
	d="
M131.962677,112.620934 
	C131.456238,111.488289 130.970108,109.969002 130.764130,108.216705 
	C131.357178,109.400551 131.670090,110.817421 131.962677,112.620934 
z"/>
<path fill="#8487C5" opacity="1.000000" stroke="none" 
	d="
M16.968781,35.891785 
	C15.458348,36.564720 13.947918,37.237659 12.068729,37.842545 
	C12.276129,37.194317 12.852287,36.614140 13.952692,35.883057 
	C14.789947,35.587727 14.955490,35.343334 14.973570,34.998978 
	C15.153495,34.937969 15.333421,34.876957 15.745539,34.650070 
	C16.137352,34.537800 16.296974,34.591396 16.708281,35.009125 
	C16.962904,35.546097 16.965841,35.718941 16.968781,35.891785 
z"/>
<path fill="#F2FAFB" opacity="1.000000" stroke="none" 
	d="
M38.050926,84.371063 
	C39.629177,84.786903 41.265495,85.544167 42.955116,86.645660 
	C41.375278,86.230766 39.742134,85.471634 38.050926,84.371063 
z"/>
<path fill="#D5D6F3" opacity="1.000000" stroke="none" 
	d="
M47.407772,133.966873 
	C47.720505,135.032257 47.728039,136.203232 47.552582,137.781570 
	C47.280586,136.816772 47.191578,135.444626 47.407772,133.966873 
z"/>
<path fill="#EEF1F9" opacity="1.000000" stroke="none" 
	d="
M79.940628,41.992371 
	C80.115692,41.443974 80.290764,40.895573 80.676788,40.152267 
	C80.913620,41.243404 80.939484,42.529442 80.643875,43.871536 
	C80.322418,43.927586 79.966438,43.984699 79.932007,43.705093 
	C79.911926,42.947781 79.926277,42.470074 79.940628,41.992371 
z"/>
<path fill="#CED2F2" opacity="1.000000" stroke="none" 
	d="
M106.764755,62.601532 
	C106.202438,63.197010 105.437180,63.548214 104.061195,63.869202 
	C103.275635,63.742950 103.100800,63.646919 102.925972,63.550892 
	C104.137924,63.153019 105.349869,62.755142 106.764755,62.601532 
z"/>
<path fill="#F7F9FC" opacity="1.000000" stroke="none" 
	d="
M68.201836,142.260300 
	C68.775032,141.669052 69.548019,141.332092 70.659424,140.992661 
	C70.132439,141.498322 69.267036,142.006454 68.201836,142.260300 
z"/>
<path fill="#EEF1F9" opacity="1.000000" stroke="none" 
	d="
M81.168854,29.851765 
	C80.564903,29.261766 80.240257,28.482622 79.907127,27.376238 
	C80.415138,27.920202 80.931641,28.791410 81.168854,29.851765 
z"/>
<path fill="#CED2F2" opacity="1.000000" stroke="none" 
	d="
M85.467468,64.151535 
	C85.214569,63.847427 85.106300,63.605495 84.997314,63.161633 
	C85.641678,62.996105 86.288353,63.031799 86.958672,63.330681 
	C86.879257,63.758900 86.776199,63.923923 86.427315,64.248657 
	C85.996727,64.327362 85.806404,64.262711 85.467468,64.151535 
z"/>
<path fill="#CED2F2" opacity="1.000000" stroke="none" 
	d="
M116.994949,63.178062 
	C116.051628,63.350426 114.967766,63.192238 113.682251,62.759415 
	C114.605209,62.605682 115.729797,62.726597 116.994949,63.178062 
z"/>
<path fill="#E2E1ED" opacity="1.000000" stroke="none" 
	d="
M133.898972,81.697121 
	C133.301224,81.553276 132.688492,81.088211 132.041931,80.305893 
	C132.633408,80.451057 133.258698,80.913475 133.898972,81.697121 
z"/>
<path fill="#CED2F2" opacity="1.000000" stroke="none" 
	d="
M119.766266,64.138069 
	C119.687035,64.408218 119.275368,64.314842 119.137466,64.155067 
	C119.150658,63.627411 119.301758,63.259529 119.452850,62.891647 
	C119.583725,63.217072 119.714615,63.542500 119.766266,64.138069 
z"/>
<path fill="#DDE2F6" opacity="1.000000" stroke="none" 
	d="
M77.331467,61.951775 
	C77.502541,61.548477 77.984093,61.285141 78.755173,61.013260 
	C79.039810,61.176674 79.034912,61.348633 79.007416,61.777679 
	C78.537201,62.053753 78.089569,62.072746 77.331467,61.951775 
z"/>
<path fill="#6E73B7" opacity="1.000000" stroke="none" 
	d="
M102.676826,63.641544 
	C103.100800,63.646919 103.275635,63.742950 103.731232,63.942596 
	C104.011993,64.046211 103.986862,64.511375 103.971786,64.743561 
	C103.406975,64.817253 102.857239,64.658768 102.142952,64.257050 
	C102.128159,63.919941 102.277924,63.826069 102.676826,63.641544 
z"/>
<path fill="#EEF1F9" opacity="1.000000" stroke="none" 
	d="
M14.773129,35.069321 
	C14.955490,35.343334 14.789947,35.587727 14.246753,35.747391 
	C14.132054,35.492592 14.317428,35.284935 14.773129,35.069321 
z"/>
<path fill="#DADAF6" opacity="1.000000" stroke="none" 
	d="
M111.436790,139.176239 
	C111.494980,139.062439 111.603867,138.946625 111.650787,139.005203 
	C111.588829,139.179611 111.487488,139.174210 111.436790,139.176239 
z"/>
<path fill="#CFD4F1" opacity="1.000000" stroke="none" 
	d="
M71.129776,77.502510 
	C72.081711,78.041649 73.033638,78.580788 74.299370,79.209091 
	C74.613167,79.298264 74.701996,79.263382 74.760818,79.504684 
	C75.144371,80.191895 75.469101,80.637802 75.793839,81.083710 
	C75.793839,81.083710 75.802704,81.555351 75.923401,82.047791 
	C76.343864,82.733109 76.643639,82.925995 76.943420,83.118881 
	C76.943420,83.118874 76.958923,83.024963 77.059875,83.336525 
	C77.744728,83.824524 78.328629,84.000954 78.912521,84.177391 
	C78.912521,84.177391 78.842369,84.176819 78.830063,84.210068 
	C80.822876,86.281593 82.827995,88.319878 85.330872,90.646591 
	C86.544044,90.918060 87.259453,90.901085 87.974869,90.884117 
	C89.235558,91.049194 90.496239,91.214272 92.332748,91.763626 
	C94.594101,92.045311 96.279625,91.942719 97.965157,91.840118 
	C100.731499,90.920593 103.497841,90.001060 106.637573,89.053062 
	C107.589043,89.828148 108.167122,90.631706 108.870758,91.705139 
	C98.503487,97.663231 87.622910,95.165306 76.707047,93.489822 
	C74.655525,90.387909 77.359367,84.152252 70.280754,84.027977 
	C69.917915,84.049599 69.745049,84.160515 69.776230,83.761795 
	C70.248207,81.409546 70.688988,79.456032 71.129776,77.502510 
z"/>
<path fill="#D5D6F3" opacity="1.000000" stroke="none" 
	d="
M59.003662,140.616562 
	C58.168846,140.960022 57.338757,140.928192 56.097870,140.797455 
	C56.480572,134.034210 57.295666,127.372368 58.059509,120.704659 
	C58.521946,116.667946 57.902256,112.898727 54.985413,109.392670 
	C55.613926,108.957413 56.305290,108.889229 57.335751,108.791672 
	C60.398312,113.550362 63.204819,118.295403 65.736877,123.182632 
	C66.042618,123.772758 64.906052,125.154610 64.363693,126.128143 
	C63.720673,127.282372 62.174892,128.665833 62.444672,129.475204 
	C63.964989,134.036224 60.658020,136.836899 59.003662,140.616562 
z"/>
<path fill="#9196D8" opacity="1.000000" stroke="none" 
	d="
M69.014221,52.014324 
	C68.495857,59.121033 66.924370,60.081829 60.676189,57.049221 
	C57.055756,55.292011 53.394531,53.522636 54.481415,48.232510 
	C53.698990,44.865761 51.339081,44.878712 48.310677,44.769356 
	C46.737980,39.942070 42.495560,35.602238 47.115620,30.841841 
	C48.513645,31.846020 49.911667,32.850201 51.842697,34.158272 
	C55.597794,37.279194 58.819885,40.096230 62.027260,43.347012 
	C61.939655,45.246563 62.000343,46.733845 61.768730,48.174122 
	C61.085339,52.423779 62.112476,53.558498 66.182266,52.785477 
	C67.136444,52.604240 68.060631,52.265144 69.000580,52.000614 
	C69.002541,52.002556 69.014221,52.014324 69.014221,52.014324 
z"/>
<path fill="#D2D5F6" opacity="1.000000" stroke="none" 
	d="
M34.044415,31.992899 
	C36.774673,31.355694 39.504936,30.718489 42.608524,30.463074 
	C41.523548,36.671925 41.143101,42.431831 44.049854,47.986938 
	C42.025093,47.991676 40.000328,47.996418 37.548130,48.001930 
	C36.161869,43.209999 35.203045,38.417290 34.096134,33.045483 
	C33.948044,32.466385 34.044415,31.992899 34.044415,31.992899 
z"/>
<path fill="#CBCFF3" opacity="1.000000" stroke="none" 
	d="
M32.233189,60.999119 
	C34.569344,56.547939 33.474064,53.560104 27.924719,52.209328 
	C28.089804,51.779625 28.254887,51.349922 28.419971,50.920219 
	C30.975050,50.593845 33.530128,50.267475 36.502884,49.895638 
	C36.658722,50.768932 36.396885,51.687698 35.792175,53.017517 
	C35.581280,53.859932 35.713257,54.291290 35.845230,54.722649 
	C36.894588,57.183323 37.943939,59.644001 38.809464,62.825577 
	C39.160450,65.598122 39.695263,67.649757 40.230080,69.701393 
	C38.852875,68.698730 37.230423,67.904228 36.159092,66.641968 
	C34.745094,64.975990 33.763351,62.943134 32.233189,60.999119 
z"/>
<path fill="#5859B5" opacity="1.000000" stroke="none" 
	d="
M40.219437,69.723709 
	C39.695263,67.649757 39.160450,65.598122 38.804249,63.223400 
	C39.640854,62.860931 40.298622,62.792564 40.956882,62.787464 
	C43.125301,62.770664 45.293896,62.776772 47.462425,62.774078 
	C47.337860,65.253426 47.213295,67.732765 46.531849,70.568832 
	C45.235176,71.086746 44.495384,71.247940 43.462929,71.258408 
	C42.181431,70.670143 41.192604,70.232590 40.203777,69.795036 
	C40.203777,69.795036 40.208794,69.746025 40.219437,69.723709 
z"/>
<path fill="#989CCD" opacity="1.000000" stroke="none" 
	d="
M44.282799,48.153748 
	C41.143101,42.431831 41.523548,36.671925 42.985046,30.424528 
	C44.075310,29.623146 45.162376,29.242100 46.598785,28.894611 
	C46.988934,29.354460 47.029747,29.780754 47.093086,30.524445 
	C42.495560,35.602238 46.737980,39.942070 47.914257,44.794662 
	C46.354191,45.615707 48.284019,50.164722 44.282799,48.153748 
z"/>
<path fill="#BBE2DE" opacity="1.000000" stroke="none" 
	d="
M58.035515,82.067574 
	C59.672550,79.289818 61.309586,76.512070 62.982307,73.376755 
	C63.017990,73.019196 63.031956,73.027443 63.350723,72.981873 
	C64.110352,72.290535 64.551208,71.644783 65.002289,70.674377 
	C65.023239,69.917450 65.033974,69.485168 65.044716,69.052887 
	C66.135353,68.724464 67.225998,68.396042 68.716049,68.090591 
	C69.115463,68.113571 69.229439,68.225861 69.169487,68.583038 
	C67.411407,71.960823 65.713272,74.981415 63.727432,78.148056 
	C61.987511,79.600082 60.535290,80.906067 58.822044,82.169678 
	C58.385853,82.107399 58.210686,82.087486 58.035515,82.067574 
z"/>
<path fill="#999ACA" opacity="1.000000" stroke="none" 
	d="
M43.755592,71.409134 
	C44.495384,71.247940 45.235176,71.086746 46.345459,70.866409 
	C48.223621,72.365555 49.731293,73.923836 51.916767,76.182686 
	C48.249443,76.860855 44.516750,77.551117 40.322701,77.833237 
	C39.313255,76.919868 38.765167,76.414635 38.217083,75.909393 
	C38.270714,75.604782 38.408676,75.344963 39.148743,75.059616 
	C40.747421,75.498474 41.828327,76.007645 43.755592,76.915489 
	C43.755592,74.649284 43.755592,73.029213 43.755592,71.409134 
z"/>
<path fill="#E0D6FA" opacity="1.000000" stroke="none" 
	d="
M65.021439,68.651917 
	C65.033974,69.485168 65.023239,69.917450 64.680740,70.715637 
	C63.909966,71.730179 63.470959,72.378815 63.031956,73.027443 
	C63.031956,73.027443 63.017990,73.019196 63.024250,73.027504 
	C60.709179,73.126358 58.469707,72.886459 59.069462,69.742950 
	C59.380554,68.112419 60.390114,66.615143 61.084137,65.057671 
	C62.388805,66.122093 63.693481,67.186516 65.021439,68.651917 
z"/>
<path fill="#CBCFF3" opacity="1.000000" stroke="none" 
	d="
M43.462929,71.258408 
	C43.755592,73.029213 43.755592,74.649284 43.755592,76.915489 
	C41.828327,76.007645 40.747421,75.498474 39.327530,74.925095 
	C39.330517,73.421829 39.672482,71.982780 40.109108,70.169388 
	C41.192604,70.232590 42.181431,70.670143 43.462929,71.258408 
z"/>
<path fill="#D8DEE5" opacity="1.000000" stroke="none" 
	d="
M31.065269,69.494812 
	C31.153072,67.899193 31.284184,66.673515 31.447128,65.150223 
	C36.132744,66.920158 34.879288,69.575096 33.279205,72.734619 
	C32.434738,71.618126 31.771658,70.741440 31.065269,69.494812 
z"/>
<path fill="#CBCFF3" opacity="1.000000" stroke="none" 
	d="
M37.944626,76.093773 
	C38.765167,76.414635 39.313255,76.919868 40.001221,77.671982 
	C39.318123,77.371956 38.495148,76.825058 37.944626,76.093773 
z"/>
<path fill="#BBE2DE" opacity="1.000000" stroke="none" 
	d="
M70.520874,66.019135 
	C70.863968,66.407700 70.908470,66.859695 70.660118,67.676147 
	C69.987991,68.102364 69.608719,68.164116 69.229439,68.225861 
	C69.229439,68.225861 69.115463,68.113571 69.058540,68.057404 
	C69.408508,67.361671 69.815399,66.722115 70.520874,66.019135 
z"/>
<path fill="#84C5BA" opacity="1.000000" stroke="none" 
	d="
M57.808224,82.197380 
	C58.210686,82.087486 58.385853,82.107399 58.750977,82.463760 
	C58.304470,83.227707 57.668007,83.655190 57.031540,84.082672 
	C57.031544,84.082680 57.022411,83.642288 57.029083,83.423950 
	C57.217476,82.912796 57.399204,82.619995 57.808224,82.197380 
z"/>
<path fill="#979CD1" opacity="1.000000" stroke="none" 
	d="
M35.853954,54.481194 
	C35.713257,54.291290 35.581280,53.859932 35.650307,53.351894 
	C35.867512,53.596581 35.871300,53.918087 35.853954,54.481194 
z"/>
<path fill="#F2FAFB" opacity="1.000000" stroke="none" 
	d="
M44.531403,86.331474 
	C44.652149,86.488853 44.540089,86.708527 44.170631,86.973785 
	C44.087757,86.829933 44.216206,86.621391 44.531403,86.331474 
z"/>
<path fill="#4B57BB" opacity="1.000000" stroke="none" 
	d="
M77.784279,65.121513 
	C78.602386,65.107857 79.146935,65.283737 79.864578,65.693985 
	C78.578064,67.265572 77.118469,68.602768 75.320557,69.972260 
	C75.825073,68.440041 76.667900,66.875542 77.784279,65.121513 
z"/>
<path fill="#4669A3" opacity="1.000000" stroke="none" 
	d="
M76.055679,80.914978 
	C75.469101,80.637802 75.144371,80.191895 74.792381,79.468903 
	C75.282593,79.709969 75.800056,80.228111 76.055679,80.914978 
z"/>
<path fill="#4B57BB" opacity="1.000000" stroke="none" 
	d="
M75.230911,75.851547 
	C74.848892,75.429413 74.692764,74.860298 74.758331,74.141663 
	C75.138954,74.562943 75.297882,75.133766 75.230911,75.851547 
z"/>
<path fill="#575EAC" opacity="1.000000" stroke="none" 
	d="
M78.781075,83.887894 
	C78.328629,84.000954 77.744728,83.824524 77.023590,83.367317 
	C77.474113,83.257164 78.061867,83.427788 78.781075,83.887894 
z"/>
<path fill="#575EAC" opacity="1.000000" stroke="none" 
	d="
M76.859528,82.872604 
	C76.643639,82.925995 76.343864,82.733109 76.007828,82.268021 
	C76.239594,82.205986 76.507607,82.416153 76.859528,82.872604 
z"/>
<path fill="#67CBA4" opacity="1.000000" stroke="none" 
	d="
M56.888290,84.368141 
	C57.668007,83.655190 58.304470,83.227707 59.012001,82.506134 
	C60.535290,80.906067 61.987511,79.600082 64.041573,78.310081 
	C65.442192,80.221428 66.240974,82.116798 67.039749,84.012169 
	C65.649536,86.704819 68.011406,93.201424 60.346542,89.822739 
	C59.547989,89.337997 59.290104,89.111351 59.032215,88.884705 
	C58.269821,87.474342 57.507431,86.063972 56.888290,84.368141 
z"/>
<path fill="#84C5BA" opacity="1.000000" stroke="none" 
	d="
M67.258377,84.095932 
	C66.240974,82.116798 65.442192,80.221428 64.329277,78.164032 
	C65.713272,74.981415 67.411407,71.960823 69.169487,68.583046 
	C69.608719,68.164116 69.987991,68.102364 70.655426,68.017029 
	C71.118423,67.999001 71.293274,68.004570 71.730415,68.015762 
	C71.700089,70.926437 71.407471,73.831497 71.122314,77.119537 
	C70.688988,79.456032 70.248207,81.409546 69.675583,83.782211 
	C68.854836,84.194138 68.165916,84.186920 67.258377,84.095932 
z"/>
<path fill="#66CCA9" opacity="1.000000" stroke="none" 
	d="
M59.863529,101.672562 
	C58.009052,103.780983 56.390415,105.591995 54.423050,107.793167 
	C51.697521,100.444405 53.522514,97.050583 58.738411,98.153564 
	C59.390011,98.291344 59.655159,100.256622 59.863529,101.672562 
z"/>
<path fill="#D0F8E9" opacity="1.000000" stroke="none" 
	d="
M58.631313,88.933846 
	C59.290104,89.111351 59.547989,89.337997 59.971725,89.762749 
	C59.016090,92.126534 57.894608,94.292229 56.773125,96.457916 
	C54.702366,95.031311 52.631603,93.604713 50.560841,92.178108 
	C50.787975,91.673737 51.015110,91.169365 51.242241,90.664993 
	C53.571632,90.104324 55.901020,89.543655 58.631313,88.933846 
z"/>
<path fill="#4F58BF" opacity="1.000000" stroke="none" 
	d="
M16.979607,36.290092 
	C16.965841,35.718941 16.962904,35.546097 16.937889,35.114349 
	C17.292267,34.789089 17.668722,34.722736 18.670044,34.781830 
	C19.533897,34.956760 19.772888,35.006237 20.125500,35.247581 
	C20.608372,35.507507 20.977627,35.575558 21.346882,35.643612 
	C21.221914,35.418850 21.096947,35.194088 21.152861,34.753281 
	C21.867125,34.416065 22.400509,34.294899 23.188244,34.414986 
	C24.663412,35.459148 25.884232,36.262062 26.925493,37.372681 
	C25.529308,41.119507 24.312681,44.558632 23.096054,47.997757 
	C22.743509,50.061646 22.390966,52.125534 21.881786,54.895866 
	C20.867727,57.548004 20.010302,59.493706 19.152874,61.439407 
	C17.343966,60.647915 15.535057,59.856422 13.359989,59.033493 
	C12.993830,59.002052 12.800016,58.673210 12.746656,58.490524 
	C12.008093,56.066185 11.296771,53.832100 10.644434,51.580921 
	C9.864100,48.888023 9.134180,46.180511 8.639670,43.225685 
	C11.675215,40.981129 16.577734,41.726280 16.979607,36.290092 
z"/>
<path fill="#8E93DD" opacity="1.000000" stroke="none" 
	d="
M23.456467,47.955521 
	C24.312681,44.558632 25.529308,41.119507 27.272064,37.353493 
	C28.493473,36.996082 29.188751,36.965565 29.884029,36.935051 
	C30.765163,37.879021 31.570618,38.910648 32.542397,39.749626 
	C34.936401,41.816467 34.308002,43.380791 31.777573,44.544315 
	C29.160885,45.747505 26.473396,46.796719 23.456467,47.955521 
z"/>
<path fill="#9298E2" opacity="1.000000" stroke="none" 
	d="
M19.116692,61.700600 
	C20.010302,59.493706 20.867727,57.548004 21.912003,55.302040 
	C24.488930,56.722183 26.879005,58.442593 29.644733,60.433395 
	C26.574970,62.292290 24.527788,63.531960 22.150436,64.929794 
	C21.061827,64.643974 20.303389,64.199989 19.224098,63.655140 
	C18.962332,63.023449 19.021420,62.492622 19.116692,61.700600 
z"/>
<path fill="#7A7BB8" opacity="1.000000" stroke="none" 
	d="
M29.943640,36.600658 
	C29.188751,36.965565 28.493473,36.996082 27.451624,37.045788 
	C25.884232,36.262062 24.663412,35.459148 23.215677,34.167427 
	C22.988764,33.678619 23.020056,33.185013 23.020056,33.185013 
	C26.496458,32.634506 29.972862,32.084000 33.746841,31.763195 
	C34.044415,31.992899 33.948044,32.466385 33.909954,32.704826 
	C32.582325,34.050934 31.292788,35.158604 29.943640,36.600658 
z"/>
<path fill="#7C81BA" opacity="1.000000" stroke="none" 
	d="
M97.662094,91.589096 
	C96.279625,91.942719 94.594101,92.045311 92.700424,91.866913 
	C94.114532,91.503304 95.736778,91.420685 97.662094,91.589096 
z"/>
<path fill="#7C81BA" opacity="1.000000" stroke="none" 
	d="
M87.737778,90.643921 
	C87.259453,90.901085 86.544044,90.918060 85.680252,90.712830 
	C86.188148,90.461662 86.844421,90.432693 87.737778,90.643921 
z"/>
<path fill="#8487C5" opacity="1.000000" stroke="none" 
	d="
M22.661211,33.141754 
	C23.020056,33.185013 22.988764,33.678619 22.961330,33.926178 
	C22.400509,34.294899 21.867125,34.416065 20.911903,34.763527 
	C20.490067,34.989822 20.011879,35.055714 20.011879,35.055714 
	C19.772888,35.006237 19.533897,34.956760 18.956272,34.764641 
	C19.845879,34.114166 21.074121,33.606331 22.661211,33.141754 
z"/>
<path fill="#4C57BE" opacity="1.000000" stroke="none" 
	d="
M62.041981,42.913261 
	C58.819885,40.096230 55.597794,37.279194 52.179054,34.176491 
	C53.405876,32.271160 54.829338,30.651503 56.780128,29.313789 
	C62.694294,33.470238 68.595848,31.329048 74.318680,30.938480 
	C74.930077,30.896751 75.458847,29.644379 76.025948,28.953619 
	C77.001045,30.082727 78.597366,31.099136 78.826759,32.363533 
	C79.366623,35.339294 79.254082,38.433411 79.673065,41.736008 
	C79.926277,42.470074 79.911926,42.947781 79.760086,43.759285 
	C76.567215,45.240864 73.511826,46.388645 69.885757,47.734974 
	C66.890709,46.260101 64.466347,44.586681 62.041981,42.913261 
z"/>
<path fill="#4F55C7" opacity="1.000000" stroke="none" 
	d="
M75.841385,28.628292 
	C75.458847,29.644379 74.930077,30.896751 74.318680,30.938480 
	C68.595848,31.329048 62.694294,33.470238 57.132698,29.268440 
	C59.637756,27.955070 62.314892,26.185541 64.998055,26.176352 
	C68.548508,26.164192 72.103676,27.529615 75.841385,28.628292 
z"/>
<path fill="#9196D8" opacity="1.000000" stroke="none" 
	d="
M70.182533,49.885017 
	C70.641487,49.923397 71.100441,49.961769 71.894714,50.092220 
	C72.183769,50.589329 72.137512,50.994354 72.060020,51.704231 
	C71.274765,52.008408 70.520737,52.007732 69.390472,52.010693 
	C69.014221,52.014324 69.002541,52.002556 69.029099,51.680229 
	C69.431274,50.866943 69.806900,50.375980 70.182533,49.885017 
z"/>
<path fill="#DDE2F6" opacity="1.000000" stroke="none" 
	d="
M72.353096,54.250874 
	C72.907166,54.564255 73.364334,55.181366 73.738190,56.126049 
	C73.188644,55.820614 72.722420,55.187611 72.353096,54.250874 
z"/>
<path fill="#8C93E1" opacity="1.000000" stroke="none" 
	d="
M70.127846,49.592476 
	C69.806900,50.375980 69.431274,50.866943 69.027130,51.678291 
	C68.060631,52.265144 67.136444,52.604240 66.182266,52.785477 
	C62.112476,53.558498 61.085339,52.423779 61.768730,48.174122 
	C62.000343,46.733845 61.939655,45.246563 62.027260,43.347012 
	C64.466347,44.586681 66.890709,46.260101 69.648125,48.024277 
	C70.011833,48.510002 70.042496,48.904968 70.127846,49.592476 
z"/>
<path fill="#D5D9F1" opacity="1.000000" stroke="none" 
	d="
M63.350723,72.981873 
	C63.470959,72.378815 63.909966,71.730179 64.670517,71.040283 
	C64.551208,71.644783 64.110352,72.290535 63.350723,72.981873 
z"/>
<path fill="#5358AB" opacity="1.000000" stroke="none" 
	d="
M20.125500,35.247581 
	C20.011879,35.055714 20.490067,34.989822 20.731024,34.979576 
	C21.096947,35.194088 21.221914,35.418850 21.346882,35.643612 
	C20.977627,35.575558 20.608372,35.507507 20.125500,35.247581 
z"/>
</svg>