<svg version="1.1" id="Layer_1" xmlns="http://www.w3.org/2000/svg" xmlns:xlink="http://www.w3.org/1999/xlink" x="0px" y="0px"
	 width="100%" viewBox="0 0 213 170" enable-background="new 0 0 213 170" xml:space="preserve">
<path fill="#FFFFFF" opacity="1.000000" stroke="none" 
	d="
M136.000000,171.000000 
	C90.695946,171.000000 45.891895,171.000000 1.043920,171.000000 
	C1.043920,114.399651 1.043920,57.799259 1.043920,1.099433 
	C71.887222,1.099433 142.774628,1.099433 213.831024,1.099433 
	C213.831024,57.666256 213.831024,114.333084 213.831024,171.000000 
	C188.132889,171.000000 162.316437,171.000000 136.000000,171.000000 
M103.689560,50.980755 
	C103.741920,50.298412 103.794273,49.616070 103.852432,48.010357 
	C103.855789,44.516514 104.218079,40.969749 103.713966,37.550724 
	C103.454437,35.790482 101.652000,34.257729 100.453918,32.553410 
	C100.453918,32.553410 100.404846,32.448822 100.338707,31.980276 
	C100.197159,31.693703 100.061539,31.404350 99.859833,30.385445 
	C96.596710,28.978184 93.364090,27.485537 90.024391,26.292688 
	C89.681709,26.170294 88.698494,27.841242 87.513824,28.950113 
	C87.227112,29.188484 86.940407,29.426855 86.339371,29.600704 
	C86.339371,29.600704 86.029594,29.684359 85.684288,29.318405 
	C85.123817,29.537031 84.563354,29.755657 83.271095,29.970184 
	C82.550751,30.080166 81.830414,30.190147 80.350945,30.092398 
	C79.565582,30.134188 78.780228,30.175980 77.870453,29.412695 
	C72.017349,26.004923 64.205650,29.058102 60.211720,36.022869 
	C59.161259,36.029671 58.110798,36.036469 56.507309,35.606640 
	C50.297035,26.319134 42.270134,27.257174 33.674477,31.961699 
	C34.022789,37.441750 31.574299,41.111561 25.859268,42.265694 
	C21.498066,40.013641 20.413464,40.705814 19.911318,46.761444 
	C14.372733,53.696720 22.374657,59.212181 21.263941,65.671249 
	C24.325089,65.401421 26.761740,65.186646 29.668596,65.431808 
	C31.479834,67.601471 33.291069,69.771133 35.123997,72.477951 
	C35.823936,72.389366 36.523880,72.300781 37.803982,72.111656 
	C38.183609,72.012482 38.563236,71.913300 39.111023,72.529297 
	C40.766823,74.983322 42.422623,77.437340 44.087955,80.601288 
	C45.057358,81.724785 46.026760,82.848274 47.338104,84.488274 
	C48.230042,85.327003 49.121979,86.165726 50.075298,87.690414 
	C51.720512,89.112755 53.365723,90.535095 55.522552,92.196777 
	C56.016357,92.467743 56.510162,92.738708 57.130615,93.711166 
	C59.373947,95.448051 62.145260,96.800636 63.748615,99.003357 
	C66.901642,103.335068 64.867561,109.939896 69.729393,113.750626 
	C69.979385,113.946564 69.980736,114.790787 69.784973,115.172867 
	C67.936790,118.779984 70.709541,120.242737 72.838997,122.649948 
	C72.734489,123.072937 72.629974,123.495926 71.932594,124.169380 
	C71.624039,126.445641 71.315483,128.721893 71.012825,131.788300 
	C70.927635,132.836899 70.842445,133.885498 70.052597,135.178192 
	C69.801224,136.917603 69.549850,138.657013 69.274231,141.192108 
	C69.293098,142.513504 69.311966,143.834885 68.739594,145.539841 
	C68.804092,148.070862 68.868591,150.601898 69.037971,153.693756 
	C69.694939,153.775894 70.351906,153.858032 71.862129,154.005386 
	C73.572021,153.983215 75.281921,153.961029 77.491737,154.532761 
	C79.085327,154.880859 80.673111,155.258575 82.273499,155.571991 
	C89.546196,156.996323 98.609879,153.013092 98.125786,142.997589 
	C97.934959,139.049500 99.372948,135.022675 100.687378,131.051392 
	C101.099632,131.047684 101.511887,131.043961 102.080811,131.711075 
	C103.050362,132.092850 104.019920,132.474609 105.849541,132.922409 
	C107.575531,132.930969 109.301529,132.939514 111.339211,133.449448 
	C111.890488,133.596313 112.441757,133.743195 113.927299,133.950134 
	C119.286217,133.953720 124.645126,133.957291 130.273270,134.460251 
	C130.594864,134.648102 130.916443,134.835968 131.217194,135.773392 
	C131.288223,136.515533 131.359253,137.257690 131.184219,138.775879 
	C130.534866,141.854553 129.885513,144.933228 129.032761,148.776352 
	C130.195465,150.098083 131.147186,152.171524 132.568848,152.570526 
	C134.869202,153.216095 137.478333,152.761490 140.458450,153.426147 
	C141.573303,153.619263 142.686737,153.971100 143.803238,153.981201 
	C156.325378,154.094666 157.074371,153.343735 157.129074,140.177094 
	C157.372314,135.448486 157.615570,130.719864 157.937134,125.087555 
	C158.213104,121.821388 158.059875,118.445511 158.860535,115.313469 
	C160.235748,109.933945 161.057449,110.017128 165.222672,113.587814 
	C168.894592,116.735626 173.033478,119.338745 177.096298,122.880585 
	C177.527008,123.577721 177.830185,124.731689 178.410278,124.893616 
	C181.042755,125.628471 183.844971,126.797516 186.413757,126.467773 
	C190.033417,126.003113 190.708588,122.155296 190.299423,119.518646 
	C190.076752,118.083794 186.754883,117.006973 184.711304,116.014885 
	C182.946243,115.158020 181.012192,114.649284 178.995026,113.303352 
	C174.232651,107.042877 169.521545,100.742531 164.693481,94.533127 
	C159.855301,88.310699 154.900391,82.179039 150.003006,75.177856 
	C150.195648,74.045868 150.728470,72.841896 150.507431,71.797455 
	C150.095337,69.850105 149.508331,66.560066 148.525909,66.379753 
	C145.900345,65.897827 142.273163,65.504822 141.071091,70.015625 
	C138.650070,70.012573 136.199661,69.777039 133.817108,70.078239 
	C131.824112,70.330193 129.910477,71.209770 127.242996,71.982910 
	C126.505791,72.004105 125.768593,72.025299 124.461563,71.436874 
	C120.296051,71.644318 116.130547,71.851761 111.311691,72.112061 
	C110.884880,72.027710 110.458061,71.943359 109.843597,71.142250 
	C107.436111,70.083801 105.028625,69.025352 102.396729,67.868240 
	C102.305153,68.547295 102.161720,69.610817 101.277115,70.815727 
	C100.528931,70.818161 99.780739,70.820595 98.903214,70.095848 
	C95.327057,66.005539 97.307068,62.447750 100.123138,58.461910 
	C100.260803,58.146492 100.398476,57.831070 101.095619,57.206982 
	C101.317619,56.435894 101.539612,55.664806 101.908974,54.917953 
	C101.908974,54.917953 102.029968,55.005489 102.690552,54.990993 
	C103.304558,54.619427 103.918556,54.247860 104.532555,53.876289 
	C104.010963,53.577744 103.489372,53.279198 102.988228,52.250515 
	C102.870491,51.784901 102.752747,51.319286 102.883148,50.917027 
	C102.883148,50.917027 103.103317,51.047855 103.689560,50.980755 
z"/>
<path fill="#DBDBED" opacity="1.000000" stroke="none" 
	d="
M101.924141,131.040237 
	C101.511887,131.043961 101.099632,131.047684 100.003746,131.067108 
	C97.500450,131.586823 95.986412,132.736923 94.606598,129.749741 
	C92.922554,126.103966 90.033394,126.075966 87.855400,129.582382 
	C86.359093,131.991364 85.655495,135.001801 85.085533,137.841354 
	C84.656143,139.980591 85.000610,142.275146 85.000610,144.500565 
	C84.328232,144.619537 83.655861,144.738495 82.983482,144.857452 
	C82.573982,143.328720 81.901596,141.816895 81.801910,140.268219 
	C81.431633,134.515976 81.249832,128.751587 81.002701,122.607986 
	C82.373787,118.181984 83.739426,114.139763 85.450439,110.029556 
	C89.197662,108.307907 92.599518,106.654236 96.252304,105.207382 
	C95.741364,107.521927 94.696541,109.582016 94.330544,111.756371 
	C94.131454,112.939110 95.085632,114.315964 95.519653,115.605270 
	C96.551857,114.934593 97.764862,114.431061 98.574783,113.554901 
	C99.857712,112.167068 100.870872,110.529861 102.377609,109.041359 
	C104.503273,109.390984 106.249496,109.697433 108.081161,110.388985 
	C109.320450,111.182350 110.488228,111.973549 111.625740,111.932190 
	C116.398125,111.758698 121.449081,110.175400 125.862495,111.269188 
	C132.960251,113.028267 137.988510,109.493446 143.421387,106.656631 
	C144.631668,106.024681 145.080444,103.934326 145.879822,102.515442 
	C144.496475,102.214279 143.099167,101.965248 141.733170,101.599304 
	C139.845276,101.093559 137.536865,104.715012 136.325668,100.861595 
	C139.113144,98.780800 141.597961,96.880829 144.012558,94.895477 
	C145.079102,94.018555 146.003265,92.968475 147.274506,92.255371 
	C147.885956,94.241234 148.214951,95.968712 148.632004,98.158455 
	C150.013992,97.540474 151.013550,96.714729 152.002380,96.727364 
	C154.316986,96.756950 157.318893,96.402748 158.753326,97.666847 
	C160.353455,99.076981 161.101074,102.085251 161.183685,104.434357 
	C161.298935,107.711967 158.573624,107.836906 155.877823,108.130318 
	C152.253387,108.524811 149.990005,110.432304 149.910553,114.702805 
	C149.800461,120.621231 154.149445,122.987831 157.858810,125.991249 
	C157.615570,130.719864 157.372314,135.448486 156.650009,140.586395 
	C155.115677,139.928497 153.427826,139.005539 153.144363,137.762344 
	C152.642746,135.562424 153.196014,133.141434 152.897919,130.866669 
	C152.766861,129.866638 151.424774,128.111023 150.982971,128.213226 
	C147.937225,128.917847 144.984100,130.022781 141.750732,130.999207 
	C141.333313,130.999207 141.166351,130.998993 140.993668,130.655487 
	C139.902176,128.956223 135.843231,129.354065 133.607452,130.999420 
	C132.147491,131.987808 131.075760,132.974350 130.004044,133.960876 
	C124.645126,133.957291 119.286217,133.953720 113.427460,133.643097 
	C112.294250,133.206726 111.660889,133.077393 111.027519,132.948059 
	C109.301529,132.939514 107.575531,132.930969 105.357628,132.559052 
	C103.885193,131.810547 102.904663,131.425385 101.924141,131.040237 
z"/>
<path fill="#D8DCF3" opacity="1.000000" stroke="none" 
	d="
M50.013916,87.004456 
	C49.121979,86.165726 48.230042,85.327003 47.165161,83.875977 
	C46.282040,82.142937 45.571861,81.022209 45.040115,79.611084 
	C47.750717,75.009140 50.282887,70.697586 53.040264,66.450310 
	C53.265476,66.514587 53.722820,66.461159 53.794270,66.856613 
	C54.249191,71.743507 57.119884,68.929764 59.011101,69.367798 
	C59.033199,70.219109 59.051910,70.705406 58.938545,71.476631 
	C55.994373,75.548019 59.514259,77.481834 61.119232,80.307648 
	C62.011589,82.436371 62.987438,84.208954 64.251007,85.976677 
	C64.730042,85.957573 64.921356,85.943321 65.510246,85.930969 
	C66.720558,86.002968 67.546349,86.199013 68.343246,86.116386 
	C69.888138,85.956215 71.940765,86.147964 72.811577,85.250900 
	C73.771164,84.262390 73.639137,82.214233 73.982643,80.627678 
	C73.597656,80.573593 73.212677,80.519508 72.827698,80.465424 
	C72.214470,81.675430 71.601242,82.885437 70.785004,84.496010 
	C69.294998,83.129395 68.132065,82.062775 67.070099,80.643204 
	C67.486252,77.527016 67.801437,74.763794 68.423378,71.809097 
	C69.446754,70.184547 70.163361,68.751465 70.827049,67.424217 
	C77.980171,64.980255 74.306549,74.379585 79.102280,74.908455 
	C79.751251,73.599442 80.347801,72.396156 81.104126,70.870583 
	C83.988876,73.515022 86.577454,76.371658 90.435043,72.741341 
	C91.261681,73.182106 91.777710,73.536232 91.980774,74.070930 
	C89.778946,76.171402 87.890068,78.091301 85.954803,79.687180 
	C84.681084,79.838287 83.453758,80.313431 82.226440,80.788574 
	C83.148605,81.526321 84.070763,82.264076 84.831680,83.328247 
	C84.105835,85.731606 83.541222,87.808540 82.727554,90.045593 
	C81.944359,90.454430 81.410210,90.703156 80.507385,91.011993 
	C77.095413,91.720329 74.052124,92.368538 70.652611,93.017639 
	C69.532158,93.689072 68.767929,94.359596 67.816376,95.270905 
	C67.045906,95.664482 66.462753,95.817284 65.604683,95.747940 
	C62.554497,94.687080 59.779232,93.848373 57.003967,93.009674 
	C56.510162,92.738708 56.016357,92.467743 55.257389,91.721191 
	C53.332790,89.831886 51.673355,88.418167 50.013916,87.004456 
z"/>
<path fill="#DCDCE9" opacity="1.000000" stroke="none" 
	d="
M157.897980,125.539398 
	C154.149445,122.987831 149.800461,120.621231 149.910553,114.702805 
	C149.990005,110.432304 152.253387,108.524811 155.877823,108.130318 
	C158.573624,107.836906 161.298935,107.711967 161.183685,104.434357 
	C161.101074,102.085251 160.353455,99.076981 158.753326,97.666847 
	C157.318893,96.402748 154.316986,96.756950 152.002380,96.727364 
	C151.013550,96.714729 150.013992,97.540474 148.632004,98.158455 
	C148.214951,95.968712 147.885956,94.241234 147.275681,91.816269 
	C147.319809,85.783752 147.645218,80.448708 148.238495,75.187737 
	C149.003113,75.510399 149.499878,75.759003 149.996628,76.007599 
	C154.900391,82.179039 159.855301,88.310699 164.693481,94.533127 
	C169.521545,100.742531 174.232651,107.042877 178.790543,113.830109 
	C176.938721,116.736145 174.947296,119.044197 176.966171,122.182388 
	C173.033478,119.338745 168.894592,116.735626 165.222672,113.587814 
	C161.057449,110.017128 160.235748,109.933945 158.860535,115.313469 
	C158.059875,118.445511 158.213104,121.821388 157.897980,125.539398 
z"/>
<path fill="#4D58BE" opacity="1.000000" stroke="none" 
	d="
M81.110069,30.300133 
	C81.830414,30.190147 82.550751,30.080166 83.727448,30.195118 
	C84.397011,30.675423 84.665405,30.841711 85.244949,31.220600 
	C86.951279,31.690620 88.408646,31.813633 89.850685,32.036030 
	C93.726494,32.633770 97.705612,33.768780 98.682899,37.963573 
	C100.244987,44.668472 101.497070,51.641762 94.653564,56.928230 
	C86.794662,50.628799 79.291962,44.331882 71.995865,37.739452 
	C75.171669,35.062672 78.140869,32.681400 81.110069,30.300133 
z"/>
<path fill="#DADBF2" opacity="1.000000" stroke="none" 
	d="
M80.997253,122.991760 
	C81.249832,128.751587 81.431633,134.515976 81.801910,140.268219 
	C81.901596,141.816895 82.573982,143.328720 82.983482,144.857452 
	C83.655861,144.738495 84.328232,144.619537 85.000610,144.500565 
	C85.000610,142.275146 84.656143,139.980591 85.085533,137.841354 
	C85.655495,135.001801 86.359093,131.991364 87.855400,129.582382 
	C90.033394,126.075966 92.922554,126.103966 94.606598,129.749741 
	C95.986412,132.736923 97.500450,131.586823 99.694672,131.057251 
	C99.372948,135.022675 97.934959,139.049500 98.125786,142.997589 
	C98.609879,153.013092 89.546196,156.996323 82.273499,155.571991 
	C80.673111,155.258575 79.085327,154.880859 77.268967,153.897766 
	C77.270874,152.171402 77.495560,151.080048 77.814087,149.572998 
	C78.536499,141.777283 79.165062,134.397232 79.823578,126.689972 
	C79.171867,125.256882 78.490196,124.151016 78.208755,123.028305 
	C79.405067,123.004906 80.201164,122.998329 80.997253,122.991760 
z"/>
<path fill="#F4F7FC" opacity="1.000000" stroke="none" 
	d="
M26.003344,43.003445 
	C31.574299,41.111561 34.022789,37.441750 33.674477,31.961699 
	C42.270134,27.257174 50.297035,26.319134 56.707718,36.168938 
	C55.911312,37.177189 54.914501,37.623142 53.569702,38.061680 
	C51.813675,38.677906 50.405640,39.301548 48.654465,40.081825 
	C45.204967,40.447609 42.066406,40.442616 38.997974,40.903999 
	C27.401848,42.647652 23.122368,50.220940 27.586182,60.838722 
	C28.159107,62.201504 28.662687,63.593433 29.198391,64.971863 
	C26.761740,65.186646 24.325089,65.401421 21.263941,65.671249 
	C22.374657,59.212181 14.372733,53.696720 20.277164,46.520744 
	C24.027946,47.802338 25.302778,45.872623 26.003344,43.003445 
z"/>
<path fill="#D6D8F7" opacity="1.000000" stroke="none" 
	d="
M53.917690,38.069096 
	C54.914501,37.623142 55.911312,37.177189 56.984230,36.387253 
	C58.110798,36.036469 59.161259,36.029671 60.987907,36.038410 
	C62.268490,36.121883 62.772884,36.189812 63.217278,36.697418 
	C63.093777,41.557079 63.017776,45.976921 62.970398,50.397072 
	C62.926003,54.538845 64.494370,56.659256 69.015045,55.080940 
	C69.083267,55.083992 69.143166,54.961258 69.119827,55.371605 
	C68.987633,58.728474 68.777603,61.739483 73.144836,62.236794 
	C78.139725,65.120804 82.998543,67.687569 88.019928,70.482864 
	C88.829803,71.359161 89.477119,72.006935 90.124443,72.654709 
	C86.577454,76.371658 83.988876,73.515022 81.104126,70.870583 
	C80.347801,72.396156 79.751251,73.599442 79.102280,74.908455 
	C74.306549,74.379585 77.980171,64.980255 70.827049,67.424217 
	C70.163361,68.751465 69.446754,70.184547 68.293060,71.486343 
	C66.448448,70.863174 65.044586,69.995293 63.632393,69.981506 
	C62.115883,69.966705 60.591541,70.754272 59.070618,71.191711 
	C59.051910,70.705406 59.033199,70.219109 59.263374,69.173134 
	C59.884697,67.896378 60.116680,66.691574 60.651287,66.537628 
	C66.025017,64.990135 63.924442,61.753632 62.927338,58.955620 
	C60.655846,58.586815 58.822021,58.289074 56.988041,57.538452 
	C56.375057,52.701576 55.762234,48.317574 55.112679,43.556587 
	C54.689857,41.476101 54.303772,39.772598 53.917690,38.069096 
M59.515808,38.415897 
	C59.515808,38.415897 59.575237,38.520897 59.515808,38.415897 
z"/>
<path fill="#DDDDF2" opacity="1.000000" stroke="none" 
	d="
M142.001190,130.999008 
	C144.984100,130.022781 147.937225,128.917847 150.982971,128.213226 
	C151.424774,128.111023 152.766861,129.866638 152.897919,130.866669 
	C153.196014,133.141434 152.642746,135.562424 153.144363,137.762344 
	C153.427826,139.005539 155.115677,139.928497 156.595245,140.999069 
	C157.074371,153.343735 156.325378,154.094666 143.803238,153.981201 
	C142.686737,153.971100 141.573303,153.619263 140.180298,152.811646 
	C139.902725,151.809189 139.903305,151.421249 140.241013,150.891693 
	C141.654739,150.356644 142.754837,150.017181 143.804062,149.560791 
	C149.587265,147.045273 142.545517,140.149063 147.858047,137.329910 
	C147.950363,137.280930 147.209274,134.889465 146.384003,134.064041 
	C145.142822,132.822647 143.483017,131.999802 142.001190,130.999008 
z"/>
<path fill="#656AB7" opacity="1.000000" stroke="none" 
	d="
M125.031387,72.046494 
	C125.768593,72.025299 126.505791,72.004105 128.062164,71.993149 
	C133.846741,72.378731 138.812134,72.754074 143.985229,73.444366 
	C144.696686,76.259750 145.753250,78.792152 145.610779,81.255203 
	C144.902969,93.492981 135.877731,98.599731 126.000870,101.596626 
	C120.843811,103.161400 114.450081,102.901344 109.230049,101.369408 
	C104.094772,99.862350 98.779648,96.814766 96.881485,90.616341 
	C96.638809,89.823853 95.067734,89.438171 94.112724,88.576355 
	C94.357498,87.561989 94.601593,86.835289 95.207260,86.085419 
	C96.051147,86.048264 96.533447,86.034286 97.275658,86.258179 
	C99.804169,95.098984 106.833733,98.148262 114.298935,99.927689 
	C121.401443,101.620651 127.983040,99.806831 133.011124,94.013527 
	C133.000000,94.000198 133.025772,94.022255 133.397400,94.018692 
	C140.319031,91.505295 143.662415,86.797913 143.032043,80.566483 
	C142.423264,77.635818 143.336975,74.114296 138.611572,74.008141 
	C133.820160,73.687233 129.426910,73.366936 125.023163,72.796631 
	C125.018883,72.379906 125.025131,72.213203 125.031387,72.046494 
z"/>
<path fill="#939AD6" opacity="1.000000" stroke="none" 
	d="
M79.793625,127.017197 
	C79.165062,134.397232 78.536499,141.777283 77.417221,149.576691 
	C72.905243,150.720276 70.281151,149.251709 69.330833,145.156281 
	C69.311966,143.834885 69.293098,142.513504 69.557930,140.700623 
	C70.211227,140.098969 70.580826,139.988815 71.159676,140.149628 
	C75.535599,140.147354 73.979462,136.975220 73.753860,135.020828 
	C73.156143,129.842712 74.742874,127.485619 79.793625,127.017197 
z"/>
<path fill="#656CB5" opacity="1.000000" stroke="none" 
	d="
M29.433495,65.201836 
	C28.662687,63.593433 28.159107,62.201504 27.586182,60.838722 
	C23.122368,50.220940 27.401848,42.647652 38.997974,40.903999 
	C42.066406,40.442616 45.204967,40.447609 48.646996,40.445831 
	C48.044510,41.828949 47.106354,43.004692 46.052788,43.790039 
	C43.039894,40.921516 40.273384,41.476608 37.657082,43.834698 
	C35.559311,45.725430 33.846088,48.541435 31.407166,49.439587 
	C27.635925,50.828373 27.131100,53.659737 28.178293,56.102444 
	C30.360121,61.191826 30.965061,68.206512 39.062347,68.373535 
	C39.031979,69.131752 39.011951,69.565086 38.943848,70.308884 
	C38.915829,71.034096 38.935883,71.448845 38.950829,71.856041 
	C38.945713,71.848488 38.942863,71.814117 38.942863,71.814117 
	C38.563236,71.913300 38.183609,72.012482 37.167419,72.063599 
	C36.054676,71.990631 35.578491,71.965714 35.102306,71.940796 
	C33.291069,69.771133 31.479834,67.601471 29.433495,65.201836 
z"/>
<path fill="#EAEEF7" opacity="1.000000" stroke="none" 
	d="
M177.031235,122.531487 
	C174.947296,119.044197 176.938721,116.736145 178.869446,114.171761 
	C181.012192,114.649284 182.946243,115.158020 184.711304,116.014885 
	C186.754883,117.006973 190.076752,118.083794 190.299423,119.518646 
	C190.708588,122.155296 190.033417,126.003113 186.413757,126.467773 
	C183.844971,126.797516 181.042755,125.628471 178.410278,124.893616 
	C177.830185,124.731689 177.527008,123.577721 177.031235,122.531487 
z"/>
<path fill="#9B9ECB" opacity="1.000000" stroke="none" 
	d="
M139.903900,151.033295 
	C139.903305,151.421249 139.902725,151.809189 139.929596,152.484299 
	C137.478333,152.761490 134.869202,153.216095 132.568848,152.570526 
	C131.147186,152.171524 130.195465,150.098083 129.490387,148.445633 
	C131.587845,148.083038 133.870361,148.689941 134.701218,147.854019 
	C135.690140,146.859055 136.109818,144.346344 135.552917,142.995560 
	C134.766479,141.087982 132.858704,139.642731 131.430283,137.999832 
	C131.359253,137.257690 131.288223,136.515533 131.475281,135.265686 
	C132.488220,134.181946 133.243057,133.605927 134.409683,133.032288 
	C136.183289,133.102142 137.545120,133.169601 138.907837,133.690018 
	C139.240463,139.773087 139.572174,145.403183 139.903900,151.033295 
z"/>
<path fill="#545BAC" opacity="1.000000" stroke="none" 
	d="
M95.009758,56.930740 
	C101.497070,51.641762 100.244987,44.668472 98.682899,37.963573 
	C97.705612,33.768780 93.726494,32.633770 89.850685,32.036030 
	C88.408646,31.813633 86.951279,31.690620 85.486267,31.077698 
	C85.657616,30.316858 85.843605,30.000608 86.029594,29.684357 
	C86.029594,29.684359 86.339371,29.600704 86.900330,29.731907 
	C87.734238,29.820412 88.007195,29.777714 88.563416,29.719570 
	C89.224678,29.714050 89.602684,29.723974 90.135841,30.010696 
	C91.193649,30.193298 92.096291,30.099104 93.315170,30.024248 
	C94.043709,30.133520 94.456009,30.223452 94.990372,30.630951 
	C96.876572,31.448622 98.640709,31.948721 100.404846,32.448822 
	C100.404846,32.448822 100.453918,32.553410 100.373627,32.987549 
	C100.888855,36.387238 101.555367,39.340858 102.056450,42.322277 
	C102.427055,44.527420 102.582253,46.768761 102.846588,49.342094 
	C102.940933,50.142757 103.022125,50.595306 103.103317,51.047855 
	C103.103317,51.047855 102.883148,50.917027 102.503159,50.950439 
	C102.084419,51.656898 102.045670,52.329945 101.980698,53.338051 
	C101.979645,54.117241 102.004807,54.561363 102.029968,55.005489 
	C102.029968,55.005489 101.908974,54.917953 101.511780,55.018379 
	C100.921776,55.917751 100.728958,56.716702 100.536140,57.515652 
	C100.398476,57.831070 100.260803,58.146492 99.664612,58.692543 
	C98.195740,58.812069 97.185387,58.700958 96.063309,58.426754 
	C95.754639,58.078327 95.527313,57.944664 95.196884,57.631851 
	C95.124176,57.401028 95.009758,56.930740 95.009758,56.930740 
z"/>
<path fill="#DDEFF1" opacity="1.000000" stroke="none" 
	d="
M57.067291,93.360413 
	C59.779232,93.848373 62.554497,94.687080 65.636047,96.159729 
	C67.530212,100.970963 69.118095,105.148254 70.737045,109.606384 
	C70.854019,110.253777 70.939926,110.620338 71.045227,111.366669 
	C72.074921,114.840843 73.085213,117.935242 73.942657,121.249268 
	C73.485565,121.644806 73.181328,121.820717 72.877090,121.996628 
	C70.709541,120.242737 67.936790,118.779984 69.784973,115.172867 
	C69.980736,114.790787 69.979385,113.946564 69.729393,113.750626 
	C64.867561,109.939896 66.901642,103.335068 63.748615,99.003357 
	C62.145260,96.800636 59.373947,95.448051 57.067291,93.360413 
z"/>
<path fill="#9B9FC9" opacity="1.000000" stroke="none" 
	d="
M52.815048,66.386032 
	C50.282887,70.697586 47.750717,75.009140 44.844601,79.616394 
	C44.470650,79.912102 44.078426,79.891357 44.078423,79.891357 
	C42.422623,77.437340 40.766823,74.983322 39.026943,72.171707 
	C38.942863,71.814117 38.945713,71.848488 39.385719,71.899757 
	C44.204166,72.531570 47.896263,71.947990 48.984417,66.715065 
	C49.054108,66.379913 49.752018,66.175400 50.442078,65.924324 
	C51.422657,66.087700 52.118855,66.236870 52.815048,66.386032 
z"/>
<path fill="#F5F9FD" opacity="1.000000" stroke="none" 
	d="
M63.277279,36.257736 
	C62.772884,36.189812 62.268490,36.121883 61.382927,36.029861 
	C64.205650,29.058102 72.017349,26.004923 77.650330,30.005381 
	C74.293098,32.075775 71.155998,33.553486 67.664978,35.056976 
	C65.966476,35.474419 64.621880,35.866077 63.277279,36.257736 
z"/>
<path fill="#9FA2CC" opacity="1.000000" stroke="none" 
	d="
M72.858047,122.323288 
	C73.181328,121.820717 73.485565,121.644806 74.183006,121.352043 
	C75.036957,121.485764 75.497704,121.736336 76.201401,122.101089 
	C76.899078,122.491890 77.353806,122.768517 77.808533,123.045143 
	C78.490196,124.151016 79.171867,125.256882 79.823578,126.689972 
	C74.742874,127.485619 73.156143,129.842712 73.753860,135.020828 
	C73.979462,136.975220 75.535599,140.147354 71.145203,139.740540 
	C70.866730,137.684998 70.811989,136.309540 70.757256,134.934097 
	C70.842445,133.885498 70.927635,132.836899 71.278397,131.143570 
	C71.871132,128.305527 72.198303,126.112221 72.525467,123.918915 
	C72.629974,123.495926 72.734489,123.072937 72.858047,122.323288 
z"/>
<path fill="#FAFCF7" opacity="1.000000" stroke="none" 
	d="
M149.999817,75.592728 
	C149.499878,75.759003 149.003113,75.510399 147.970764,75.036430 
	C146.622833,74.207581 145.810501,73.604095 144.949493,72.675316 
	C143.933426,71.575943 142.966034,70.801865 141.998627,70.027786 
	C142.273163,65.504822 145.900345,65.897827 148.525909,66.379753 
	C149.508331,66.560066 150.095337,69.850105 150.507431,71.797455 
	C150.728470,72.841896 150.195648,74.045868 149.999817,75.592728 
z"/>
<path fill="#E2E4F9" opacity="1.000000" stroke="none" 
	d="
M96.175034,58.589848 
	C97.185387,58.700958 98.195740,58.812069 99.588516,58.939342 
	C97.307068,62.447750 95.327057,66.005539 98.644386,70.541107 
	C97.813232,71.556374 97.240906,72.126381 96.464874,72.731293 
	C96.261162,72.766190 95.873421,72.912766 95.503494,72.803726 
	C94.764153,68.798607 94.394745,64.902534 94.082924,60.663536 
	C94.818680,59.743690 95.496857,59.166767 96.175034,58.589848 
z"/>
<path fill="#9B9FDA" opacity="1.000000" stroke="none" 
	d="
M131.307251,138.387848 
	C132.858704,139.642731 134.766479,141.087982 135.552917,142.995560 
	C136.109818,144.346344 135.690140,146.859055 134.701218,147.854019 
	C133.870361,148.689941 131.587845,148.083038 129.592072,148.063416 
	C129.885513,144.933228 130.534866,141.854553 131.307251,138.387848 
z"/>
<path fill="#9FA2CC" opacity="1.000000" stroke="none" 
	d="
M69.035217,145.348053 
	C70.281151,149.251709 72.905243,150.720276 77.323380,149.992371 
	C77.495560,151.080048 77.270874,152.171402 77.018997,153.600800 
	C75.281921,153.961029 73.572021,153.983215 71.265808,153.721588 
	C70.090691,153.336166 69.511887,153.234543 68.933090,153.132919 
	C68.868591,150.601898 68.804092,148.070862 69.035217,145.348053 
z"/>
<path fill="#858BC4" opacity="1.000000" stroke="none" 
	d="
M68.018890,35.031193 
	C71.155998,33.553486 74.293098,32.075775 77.712540,30.407919 
	C78.780228,30.175980 79.565582,30.134188 80.730507,30.196266 
	C78.140869,32.681400 75.171669,35.062672 71.700111,37.729359 
	C70.798042,38.003746 70.398323,37.992710 69.890137,37.764366 
	C69.583176,37.276112 69.324387,37.088188 68.898117,36.731018 
	C68.533592,35.996235 68.276237,35.513714 68.018890,35.031193 
z"/>
<path fill="#656AB7" opacity="1.000000" stroke="none" 
	d="
M96.668587,72.696396 
	C97.240906,72.126381 97.813232,71.556374 98.709061,70.904694 
	C99.780739,70.820595 100.528931,70.818161 101.822815,71.130058 
	C104.922768,71.582596 107.477005,71.720802 110.031250,71.859009 
	C110.458061,71.943359 110.884880,72.027710 111.647171,72.334679 
	C111.982643,72.557297 111.962326,73.055420 111.681885,73.342896 
	C107.919861,74.067612 104.438263,74.504845 100.638794,74.951538 
	C99.896454,74.952477 99.471985,74.943954 98.895401,74.641541 
	C98.051712,73.797234 97.360153,73.246819 96.668587,72.696396 
z"/>
<path fill="#858BC4" opacity="1.000000" stroke="none" 
	d="
M102.833420,48.993977 
	C102.582253,46.768761 102.427055,44.527420 102.056450,42.322277 
	C101.555367,39.340858 100.888855,36.387238 100.420044,33.021935 
	C101.652000,34.257729 103.454437,35.790482 103.713966,37.550724 
	C104.218079,40.969749 103.855789,44.516514 103.596611,48.489098 
	C103.171669,48.976551 103.002541,48.985264 102.833420,48.993977 
z"/>
<path fill="#E2E4F9" opacity="1.000000" stroke="none" 
	d="
M141.534851,70.021706 
	C142.966034,70.801865 143.933426,71.575943 144.643555,72.699860 
	C144.183350,73.076271 143.980438,73.102852 143.777527,73.129425 
	C138.812134,72.754074 133.846741,72.378731 128.421524,71.907410 
	C129.910477,71.209770 131.824112,70.330193 133.817108,70.078239 
	C136.199661,69.777039 138.650070,70.012573 141.534851,70.021706 
z"/>
<path fill="#FCFEF4" opacity="1.000000" stroke="none" 
	d="
M25.931305,42.634567 
	C25.302778,45.872623 24.027946,47.802338 20.323359,46.141319 
	C20.413464,40.705814 21.498066,40.013641 25.931305,42.634567 
z"/>
<path fill="#DBE0F6" opacity="1.000000" stroke="none" 
	d="
M89.980682,29.733898 
	C89.602684,29.723974 89.224678,29.714050 88.483833,29.459476 
	C88.084831,29.036562 88.048668,28.858297 88.012512,28.680035 
	C88.698494,27.841242 89.681709,26.170294 90.024391,26.292688 
	C93.364090,27.485537 96.596710,28.978184 99.525650,30.713966 
	C97.750412,30.799452 96.309364,30.556417 94.868309,30.313385 
	C94.456009,30.223452 94.043709,30.133520 93.124191,29.805637 
	C91.738213,29.623091 90.859451,29.678493 89.980682,29.733898 
z"/>
<path fill="#E2E4F9" opacity="1.000000" stroke="none" 
	d="
M111.962326,73.055420 
	C111.962326,73.055420 111.982643,72.557297 111.973839,72.308243 
	C116.130547,71.851761 120.296051,71.644318 124.746475,71.741684 
	C125.025131,72.213203 125.018883,72.379906 124.616516,72.753952 
	C123.152679,73.128944 122.084984,73.296593 120.628525,73.324127 
	C119.154091,73.269524 118.068420,73.355049 116.580566,73.314537 
	C114.773033,73.144150 113.367683,73.099785 111.962326,73.055420 
z"/>
<path fill="#E2E4F9" opacity="1.000000" stroke="none" 
	d="
M109.937424,71.500626 
	C107.477005,71.720802 104.922768,71.582596 102.193405,71.059372 
	C102.161720,69.610817 102.305153,68.547295 102.396729,67.868240 
	C105.028625,69.025352 107.436111,70.083801 109.937424,71.500626 
z"/>
<path fill="#DDEFF1" opacity="1.000000" stroke="none" 
	d="
M50.044609,87.347435 
	C51.673355,88.418167 53.332790,89.831886 55.001579,91.601517 
	C53.365723,90.535095 51.720512,89.112755 50.044609,87.347435 
z"/>
<path fill="#D6D9F7" opacity="1.000000" stroke="none" 
	d="
M133.997894,133.029892 
	C133.243057,133.605927 132.488220,134.181946 131.485718,134.890900 
	C130.916443,134.835968 130.594864,134.648102 130.138657,134.210571 
	C131.075760,132.974350 132.147491,131.987808 133.609009,131.338013 
	C133.998505,132.126450 133.998199,132.578171 133.997894,133.029892 
z"/>
<path fill="#DDEFF1" opacity="1.000000" stroke="none" 
	d="
M72.229034,124.044144 
	C72.198303,126.112221 71.871132,128.305527 71.275452,130.748505 
	C71.315483,128.721893 71.624039,126.445641 72.229034,124.044144 
z"/>
<path fill="#858BC4" opacity="1.000000" stroke="none" 
	d="
M94.990372,30.630953 
	C96.309364,30.556417 97.750412,30.799452 99.561653,31.077353 
	C100.061539,31.404350 100.197159,31.693703 100.371780,32.214550 
	C98.640709,31.948721 96.876572,31.448622 94.990372,30.630953 
z"/>
<path fill="#DDEFF1" opacity="1.000000" stroke="none" 
	d="
M70.404922,135.056152 
	C70.811989,136.309540 70.866730,137.684998 70.935944,139.469543 
	C70.580826,139.988815 70.211227,140.098969 69.570053,140.302765 
	C69.549850,138.657013 69.801224,136.917603 70.404922,135.056152 
z"/>
<path fill="#DDEFF1" opacity="1.000000" stroke="none" 
	d="
M44.083191,80.246323 
	C44.078426,79.891357 44.470650,79.912102 44.666164,79.906784 
	C45.571861,81.022209 46.282040,82.142937 46.994194,83.617722 
	C46.026760,82.848274 45.057358,81.724785 44.083191,80.246323 
z"/>
<path fill="#DADBF2" opacity="1.000000" stroke="none" 
	d="
M102.002472,131.375656 
	C102.904663,131.425385 103.885193,131.810547 104.927597,132.526031 
	C104.019920,132.474609 103.050362,132.092850 102.002472,131.375656 
z"/>
<path fill="#DBE0F6" opacity="1.000000" stroke="none" 
	d="
M102.360260,54.998241 
	C102.004807,54.561363 101.979645,54.117241 102.220551,53.316902 
	C102.486626,52.960690 102.967781,52.980652 102.967781,52.980652 
	C103.489372,53.279198 104.010963,53.577744 104.532555,53.876289 
	C103.918556,54.247860 103.304558,54.619427 102.360260,54.998241 
z"/>
<path fill="#858BC4" opacity="1.000000" stroke="none" 
	d="
M100.815880,57.361317 
	C100.728958,56.716702 100.921776,55.917751 101.438095,55.006260 
	C101.539612,55.664806 101.317619,56.435894 100.815880,57.361317 
z"/>
<path fill="#858BC4" opacity="1.000000" stroke="none" 
	d="
M102.978004,52.615585 
	C102.967781,52.980652 102.486626,52.960690 102.246773,52.981838 
	C102.045670,52.329945 102.084419,51.656898 102.379089,50.918762 
	C102.752747,51.319286 102.870491,51.784901 102.978004,52.615585 
z"/>
<path fill="#DBE0F6" opacity="1.000000" stroke="none" 
	d="
M102.846581,49.342094 
	C103.002541,48.985264 103.171669,48.976551 103.593712,48.950783 
	C103.794273,49.616070 103.741920,50.298412 103.396439,51.014305 
	C103.022125,50.595306 102.940933,50.142757 102.846581,49.342094 
z"/>
<path fill="#9B9FC9" opacity="1.000000" stroke="none" 
	d="
M35.113152,72.209373 
	C35.578491,71.965714 36.054676,71.990631 36.877342,72.113876 
	C36.523880,72.300781 35.823936,72.389366 35.113152,72.209373 
z"/>
<path fill="#DADBF2" opacity="1.000000" stroke="none" 
	d="
M111.183365,133.198761 
	C111.660889,133.077393 112.294250,133.206726 112.960327,133.613068 
	C112.441757,133.743195 111.890488,133.596313 111.183365,133.198761 
z"/>
<path fill="#DADBF2" opacity="1.000000" stroke="none" 
	d="
M68.985527,153.413330 
	C69.511887,153.234543 70.090691,153.336166 70.839188,153.688995 
	C70.351906,153.858032 69.694939,153.775894 68.985527,153.413330 
z"/>
<path fill="#858BC4" opacity="1.000000" stroke="none" 
	d="
M85.856941,29.501381 
	C85.843605,30.000608 85.657616,30.316858 85.230316,30.776012 
	C84.665405,30.841711 84.397011,30.675423 84.093346,30.197166 
	C84.563354,29.755657 85.123817,29.537031 85.856941,29.501381 
z"/>
<path fill="#858BC4" opacity="1.000000" stroke="none" 
	d="
M87.763168,28.815075 
	C88.048668,28.858297 88.084831,29.036562 88.200577,29.474918 
	C88.007195,29.777714 87.734238,29.820412 87.057495,29.764168 
	C86.940407,29.426855 87.227112,29.188484 87.763168,28.815075 
z"/>
<path fill="#D0D3F5" opacity="1.000000" stroke="none" 
	d="
M143.985229,73.444374 
	C143.980438,73.102852 144.183350,73.076271 144.692215,73.025146 
	C145.810501,73.604095 146.622833,74.207581 147.702896,74.962364 
	C147.645218,80.448708 147.319809,85.783752 146.993225,91.557892 
	C146.003265,92.968475 145.079102,94.018555 144.012558,94.895477 
	C141.597961,96.880829 139.113144,98.780800 135.981308,100.891022 
	C134.205994,101.380966 133.106232,101.695366 131.684158,102.046204 
	C130.906998,102.722038 130.452164,103.361427 129.781067,104.284622 
	C127.711670,105.047882 125.858536,105.527328 123.595200,106.012001 
	C119.125595,106.007454 115.066200,105.997688 110.797882,105.710785 
	C107.724655,104.614441 104.860336,103.795227 101.737595,102.800156 
	C100.656418,102.075584 99.833679,101.526878 98.974747,100.639816 
	C97.959351,99.529778 96.980133,98.758087 96.000290,97.587143 
	C94.968079,95.061447 93.936501,92.935005 92.918137,90.507668 
	C92.955971,89.803383 92.980591,89.399979 93.283768,88.979080 
	C93.745560,88.929070 93.928802,88.896553 94.112045,88.864037 
	C95.067734,89.438171 96.638809,89.823853 96.881485,90.616341 
	C98.779648,96.814766 104.094772,99.862350 109.230049,101.369408 
	C114.450081,102.901344 120.843811,103.161400 126.000870,101.596626 
	C135.877731,98.599731 144.902969,93.492981 145.610779,81.255203 
	C145.753250,78.792152 144.696686,76.259750 143.985229,73.444374 
z"/>
<path fill="#DCDCE7" opacity="1.000000" stroke="none" 
	d="
M132.006485,102.009766 
	C133.106232,101.695366 134.205994,101.380966 135.650101,101.037140 
	C137.536865,104.715012 139.845276,101.093559 141.733170,101.599304 
	C143.099167,101.965248 144.496475,102.214279 145.879822,102.515442 
	C145.080444,103.934326 144.631668,106.024681 143.421387,106.656631 
	C137.988510,109.493446 132.960251,113.028267 125.862495,111.269188 
	C121.449081,110.175400 116.398125,111.758698 111.625740,111.932190 
	C110.488228,111.973549 109.320450,111.182350 108.421959,110.353531 
	C109.451859,108.954926 110.226387,107.976883 111.366104,107.037384 
	C113.070229,107.680023 114.454842,108.200676 115.739532,108.903877 
	C119.604195,111.019241 122.198517,109.676910 124.005402,106.006775 
	C125.858536,105.527328 127.711670,105.047882 130.101624,104.243416 
	C131.094452,103.282188 131.550461,102.645973 132.006485,102.009766 
z"/>
<path fill="#D6D9F7" opacity="1.000000" stroke="none" 
	d="
M140.241013,150.891693 
	C139.572174,145.403183 139.240463,139.773087 138.967987,133.341599 
	C139.684631,132.026413 140.342010,131.512589 140.999390,130.998779 
	C141.166351,130.998993 141.333313,130.999207 141.750732,130.999207 
	C143.483017,131.999802 145.142822,132.822647 146.384003,134.064041 
	C147.209274,134.889465 147.950363,137.280930 147.858047,137.329910 
	C142.545517,140.149063 149.587265,147.045273 143.804062,149.560791 
	C142.754837,150.017181 141.654739,150.356644 140.241013,150.891693 
z"/>
<path fill="#CBDEE8" opacity="1.000000" stroke="none" 
	d="
M92.904922,90.808556 
	C93.936501,92.935005 94.968079,95.061447 95.997742,98.005585 
	C95.998230,100.216248 96.000641,101.609207 96.002060,103.335236 
	C96.001167,104.112381 96.001274,104.556473 96.001373,105.000565 
	C92.599518,106.654236 89.197662,108.307907 85.417892,109.999733 
	C85.039970,110.037888 84.977867,109.978668 85.019669,109.617416 
	C86.273407,106.365372 87.473328,103.469475 88.700455,100.585144 
	C90.089218,97.320869 91.502365,94.066963 92.904922,90.808556 
z"/>
<path fill="#E2D9E9" opacity="1.000000" stroke="none" 
	d="
M96.252304,105.207382 
	C96.001274,104.556473 96.001167,104.112381 96.324295,103.308449 
	C97.435333,102.291794 98.223137,101.634987 99.010933,100.978172 
	C99.833679,101.526878 100.656418,102.075584 101.738808,103.231277 
	C101.998360,105.558228 101.998268,107.278198 101.998169,108.998169 
	C100.870872,110.529861 99.857712,112.167068 98.574783,113.554901 
	C97.764862,114.431061 96.551857,114.934593 95.519653,115.605270 
	C95.085632,114.315964 94.131454,112.939110 94.330544,111.756371 
	C94.696541,109.582016 95.741364,107.521927 96.252304,105.207382 
z"/>
<path fill="#D9DEE6" opacity="1.000000" stroke="none" 
	d="
M102.377609,109.041351 
	C101.998268,107.278198 101.998360,105.558228 101.997238,103.407135 
	C104.860336,103.795227 107.724655,104.614441 110.795486,105.963593 
	C111.001640,106.661964 111.001274,106.830406 111.000916,106.998840 
	C110.226387,107.976883 109.451859,108.954926 108.336533,109.968430 
	C106.249496,109.697433 104.503273,109.390984 102.377609,109.041351 
z"/>
<path fill="#CBDEE8" opacity="1.000000" stroke="none" 
	d="
M78.208755,123.028305 
	C77.353806,122.768517 76.899078,122.491890 76.234726,121.804153 
	C76.361191,120.690849 76.697273,119.988663 77.400909,119.224777 
	C78.705376,118.138832 79.720688,117.174683 80.562126,116.077217 
	C82.088638,114.086235 83.511650,112.015884 84.977867,109.978668 
	C84.977867,109.978668 85.039970,110.037888 85.072510,110.067711 
	C83.739426,114.139763 82.373787,118.181984 81.002701,122.607986 
	C80.201164,122.998329 79.405067,123.004906 78.208755,123.028305 
z"/>
<path fill="#DDDDF2" opacity="1.000000" stroke="none" 
	d="
M140.993668,130.655487 
	C140.342010,131.512589 139.684631,132.026413 138.967102,132.888641 
	C137.545120,133.169601 136.183289,133.102142 134.409683,133.032288 
	C133.998199,132.578171 133.998505,132.126450 133.997238,131.336151 
	C135.843231,129.354065 139.902176,128.956223 140.993668,130.655487 
z"/>
<path fill="#6DCAA8" opacity="1.000000" stroke="none" 
	d="
M85.019669,109.617416 
	C83.511650,112.015884 82.088638,114.086235 80.562126,116.077217 
	C79.720688,117.174683 78.705376,118.138832 77.348160,118.842606 
	C76.081116,116.939453 75.403778,115.228622 74.333992,113.814713 
	C73.478996,112.684677 72.146423,111.915970 71.025826,110.986893 
	C70.939926,110.620338 70.854019,110.253777 70.942902,109.267883 
	C72.179535,108.017548 73.241364,107.386559 74.630287,106.854568 
	C78.079262,108.835899 80.313721,107.204430 81.276566,104.554039 
	C81.788803,103.144035 80.863953,99.807793 79.953392,99.545792 
	C77.111107,98.727959 73.620705,97.941429 71.662125,101.970901 
	C70.520325,99.986870 69.752403,98.050972 69.213364,95.981506 
	C69.690842,95.602104 69.939445,95.356270 70.408028,95.150009 
	C70.628006,95.189575 71.073853,95.157326 71.494461,95.137695 
	C75.427635,94.859756 79.358086,95.500290 80.876068,90.951874 
	C81.410210,90.703156 81.944359,90.454430 83.040512,89.945953 
	C85.389923,87.774323 87.177322,85.862434 89.347717,83.978714 
	C90.822220,85.670113 91.913719,87.333344 93.005219,88.996582 
	C92.980591,89.399979 92.955971,89.803383 92.918137,90.507668 
	C91.502365,94.066963 90.089218,97.320869 88.700455,100.585144 
	C87.473328,103.469475 86.273407,106.365372 85.019669,109.617416 
z"/>
<path fill="#6161B9" opacity="1.000000" stroke="none" 
	d="
M58.938545,71.476639 
	C60.591541,70.754272 62.115883,69.966705 63.632393,69.981506 
	C65.044586,69.995293 66.448448,70.863174 67.986298,71.677811 
	C67.801437,74.763794 67.486252,77.527016 66.753342,80.640488 
	C65.914436,80.959183 65.493271,80.927635 64.832657,80.648849 
	C63.463051,80.251572 62.332886,80.101540 61.202721,79.951500 
	C59.514259,77.481834 55.994373,75.548019 58.938545,71.476639 
z"/>
<path fill="#D6D7EE" opacity="1.000000" stroke="none" 
	d="
M56.988205,57.991333 
	C58.822021,58.289074 60.655846,58.586815 62.927338,58.955620 
	C63.924442,61.753632 66.025017,64.990135 60.651287,66.537628 
	C60.116680,66.691574 59.884697,67.896378 59.259987,68.808121 
	C57.119884,68.929764 54.249191,71.743507 53.789429,66.547775 
	C53.837101,64.187576 53.961063,62.531670 53.951851,60.602242 
	C54.875183,59.549595 55.931694,58.770466 56.988205,57.991333 
z"/>
<path fill="#94A2CD" opacity="1.000000" stroke="none" 
	d="
M94.025345,61.006458 
	C94.394745,64.902534 94.764153,68.798607 95.562881,73.151550 
	C95.628563,74.394989 95.264931,75.181557 94.592148,75.977692 
	C93.871193,75.992149 93.459381,75.997040 93.027802,75.710403 
	C92.769920,74.909378 92.531830,74.399872 92.293739,73.890366 
	C91.777710,73.536232 91.261681,73.182106 90.435043,72.741341 
	C89.477119,72.006935 88.829803,71.359161 88.200836,70.183067 
	C88.242180,68.359055 88.811668,66.642883 88.194016,65.840096 
	C85.447311,62.270100 88.656029,61.591675 90.656593,60.627541 
	C91.518463,60.212185 92.886993,60.848122 94.025345,61.006458 
z"/>
<path fill="#C4E1E9" opacity="1.000000" stroke="none" 
	d="
M91.980774,74.070930 
	C92.531830,74.399872 92.769920,74.909378 92.861755,76.011772 
	C91.465233,79.053291 90.214973,81.501915 88.964714,83.950539 
	C87.177322,85.862434 85.389923,87.774323 83.289566,89.785843 
	C83.541222,87.808540 84.105835,85.731606 84.837059,82.990936 
	C85.336182,81.555199 85.668686,80.783203 86.001190,80.011208 
	C87.890068,78.091301 89.778946,76.171402 91.980774,74.070930 
z"/>
<path fill="#8ACAB4" opacity="1.000000" stroke="none" 
	d="
M74.303192,106.755569 
	C73.241364,107.386559 72.179535,108.017548 70.911835,108.987045 
	C69.118095,105.148254 67.530212,100.970963 65.910965,96.381874 
	C66.462753,95.817284 67.045906,95.664482 68.053955,95.289383 
	C68.478867,95.067078 68.954636,95.037773 68.971138,95.306847 
	C68.986588,95.755638 68.985535,95.935356 68.984482,96.115074 
	C69.752403,98.050972 70.520325,99.986870 71.803391,102.269058 
	C72.980095,103.995415 73.641647,105.375496 74.303192,106.755569 
z"/>
<path fill="#7F85B8" opacity="1.000000" stroke="none" 
	d="
M65.072098,80.896095 
	C65.493271,80.927635 65.914436,80.959183 66.652374,80.993439 
	C68.132065,82.062775 69.294998,83.129395 70.785004,84.496010 
	C71.601242,82.885437 72.214470,81.675430 72.827698,80.465424 
	C73.212677,80.519508 73.597656,80.573593 73.982643,80.627678 
	C73.639137,82.214233 73.771164,84.262390 72.811577,85.250900 
	C71.940765,86.147964 69.888138,85.956215 68.343246,86.116386 
	C67.546349,86.199013 66.720558,86.002968 65.463257,85.535751 
	C64.969810,83.822525 64.920921,82.506409 64.922119,81.116791 
	C64.972198,81.043282 65.072098,80.896095 65.072098,80.896095 
z"/>
<path fill="#6669AD" opacity="1.000000" stroke="none" 
	d="
M54.085026,60.875763 
	C53.961063,62.531670 53.837101,64.187576 53.717979,66.152328 
	C53.722820,66.461159 53.265476,66.514587 53.040260,66.450310 
	C52.118855,66.236870 51.422657,66.087700 50.433945,65.699585 
	C50.141426,65.460632 50.104633,65.010338 50.116055,64.633240 
	C51.446659,63.129345 52.765842,62.002552 54.085026,60.875763 
z"/>
<path fill="#C4E1E9" opacity="1.000000" stroke="none" 
	d="
M80.507385,91.011993 
	C79.358086,95.500290 75.427635,94.859756 71.470016,94.779762 
	C71.019592,93.966560 71.014214,93.491653 71.008835,93.016747 
	C74.052124,92.368538 77.095413,91.720329 80.507385,91.011993 
z"/>
<path fill="#7F85B8" opacity="1.000000" stroke="none" 
	d="
M61.119232,80.307648 
	C62.332886,80.101540 63.463051,80.251572 64.832657,80.648849 
	C65.072098,80.896095 64.972198,81.043282 64.639412,81.330009 
	C64.192177,83.071671 64.077728,84.526604 63.963284,85.981537 
	C62.987438,84.208954 62.011589,82.436371 61.119232,80.307648 
z"/>
<path fill="#D6D8F7" opacity="1.000000" stroke="none" 
	d="
M85.954796,79.687180 
	C85.668686,80.783203 85.336182,81.555199 84.998306,82.664520 
	C84.070763,82.264076 83.148605,81.526321 82.226440,80.788574 
	C83.453758,80.313431 84.681084,79.838287 85.954796,79.687180 
z"/>
<path fill="#DDEFF1" opacity="1.000000" stroke="none" 
	d="
M70.652618,93.017639 
	C71.014214,93.491653 71.019592,93.966560 71.049408,94.799393 
	C71.073853,95.157326 70.628006,95.189575 70.099831,95.115089 
	C69.365982,95.039665 69.160309,95.038719 68.954636,95.037773 
	C68.954636,95.037773 68.478867,95.067078 68.241287,95.048599 
	C68.767929,94.359596 69.532158,93.689072 70.652618,93.017639 
z"/>
<path fill="#C1CAE0" opacity="1.000000" stroke="none" 
	d="
M64.251007,85.976677 
	C64.077728,84.526604 64.192177,83.071671 64.589333,81.403519 
	C64.920921,82.506409 64.969810,83.822525 65.065689,85.533859 
	C64.921356,85.943321 64.730042,85.957573 64.251007,85.976677 
z"/>
<path fill="#8B91DF" opacity="1.000000" stroke="none" 
	d="
M69.998611,37.981674 
	C70.398323,37.992710 70.798042,38.003746 71.493507,38.024872 
	C79.291962,44.331882 86.794662,50.628799 94.653564,56.928230 
	C95.009758,56.930740 95.124176,57.401028 94.795998,57.707134 
	C90.507233,59.840855 87.871552,58.274220 84.977379,55.299435 
	C82.123619,52.366199 78.524521,49.896057 74.821640,48.121788 
	C70.804749,46.197044 68.541985,42.459576 69.998611,37.981674 
z"/>
<path fill="#9298DA" opacity="1.000000" stroke="none" 
	d="
M50.104633,65.010338 
	C50.104633,65.010338 50.141426,65.460632 50.149559,65.685371 
	C49.752018,66.175400 49.054108,66.379913 48.984417,66.715065 
	C47.896263,71.947990 44.204166,72.531570 39.390831,71.907310 
	C38.935883,71.448845 38.915829,71.034096 39.345123,70.309723 
	C41.889709,69.351616 43.984947,68.703140 46.080181,68.054665 
	C46.083015,67.447365 46.085850,66.840057 46.088684,66.232758 
	C44.367287,65.149445 42.645893,64.066139 40.936527,62.558060 
	C42.688438,56.149006 44.428322,50.164722 46.168205,44.180435 
	C47.106354,43.004692 48.044510,41.828949 48.990135,40.289200 
	C50.405640,39.301548 51.813675,38.677906 53.569702,38.061680 
	C54.303772,39.772598 54.689857,41.476101 54.824192,43.764011 
	C53.846317,46.568310 53.674561,49.273403 52.259434,50.890247 
	C50.313175,53.113926 47.426117,54.514183 44.162395,56.817528 
	C46.371418,59.863201 48.238026,62.436768 50.104633,65.010338 
z"/>
<path fill="#949AD8" opacity="1.000000" stroke="none" 
	d="
M69.890137,37.764366 
	C68.541985,42.459576 70.804749,46.197044 74.821640,48.121788 
	C78.524521,49.896057 82.123619,52.366199 84.977379,55.299435 
	C87.871552,58.274220 90.507233,59.840855 94.868706,57.937958 
	C95.527313,57.944664 95.754639,58.078327 96.063309,58.426754 
	C95.496857,59.166767 94.818680,59.743690 94.082924,60.663536 
	C92.886993,60.848122 91.518463,60.212185 90.656593,60.627541 
	C88.656029,61.591675 85.447311,62.270100 88.194016,65.840096 
	C88.811668,66.642883 88.242180,68.359055 88.038284,69.954544 
	C82.998543,67.687569 78.139725,65.120804 73.298569,61.953457 
	C74.110931,60.593002 74.905617,59.833134 75.983269,58.802704 
	C73.765648,57.140190 73.700058,52.437149 69.143166,54.961258 
	C69.143166,54.961258 69.083267,55.083992 69.033127,54.665375 
	C68.663574,52.692963 68.795334,50.810711 67.945358,49.643173 
	C64.564079,44.998589 65.342430,40.924416 69.005287,36.983284 
	C69.324387,37.088188 69.583176,37.276112 69.890137,37.764366 
z"/>
<path fill="#99A0D1" opacity="1.000000" stroke="none" 
	d="
M50.116055,64.633240 
	C48.238026,62.436768 46.371418,59.863201 44.162395,56.817528 
	C47.426117,54.514183 50.313175,53.113926 52.259434,50.890247 
	C53.674561,49.273403 53.846317,46.568310 54.860928,44.140999 
	C55.762234,48.317574 56.375057,52.701576 56.988045,57.538452 
	C55.931694,58.770466 54.875183,59.549595 53.951851,60.602242 
	C52.765842,62.002552 51.446659,63.129345 50.116055,64.633240 
z"/>
<path fill="#979BCB" opacity="1.000000" stroke="none" 
	d="
M68.898117,36.731018 
	C65.342430,40.924416 64.564079,44.998589 67.945358,49.643173 
	C68.795334,50.810711 68.663574,52.692963 68.964905,54.662319 
	C64.494370,56.659256 62.926003,54.538845 62.970398,50.397072 
	C63.017776,45.976921 63.093777,41.557079 63.217278,36.697418 
	C64.621880,35.866077 65.966476,35.474419 67.664978,35.056976 
	C68.276237,35.513714 68.533592,35.996235 68.898117,36.731018 
z"/>
<path fill="#6A6F9E" opacity="1.000000" stroke="none" 
	d="
M69.119827,55.371605 
	C73.700058,52.437149 73.765648,57.140190 75.983269,58.802704 
	C74.905617,59.833134 74.110931,60.593002 73.162506,61.636208 
	C68.777603,61.739483 68.987633,58.728474 69.119827,55.371605 
z"/>
<path fill="#F4F7FC" opacity="1.000000" stroke="none" 
	d="
M59.545525,38.468399 
	C59.575237,38.520897 59.515808,38.415897 59.545525,38.468399 
z"/>
<path fill="#4D56BE" opacity="1.000000" stroke="none" 
	d="
M121.017281,73.464249 
	C122.084984,73.296593 123.152679,73.128944 124.627029,73.003967 
	C129.426910,73.366936 133.820160,73.687233 138.566772,74.373596 
	C138.318787,75.895981 137.063049,77.178001 137.255875,78.181755 
	C137.627228,80.114815 138.817947,81.890488 139.668884,83.731422 
	C140.792206,82.808792 141.915527,81.886162 143.038849,80.963539 
	C143.662415,86.797913 140.319031,91.505295 133.424377,93.654709 
	C135.856171,87.874886 129.502777,86.658203 128.252716,83.064049 
	C128.076782,82.558243 126.390747,82.577667 125.403709,82.353973 
	C129.345749,87.184578 129.243423,90.852036 122.822815,94.682053 
	C127.334717,94.392220 130.178482,94.209534 133.022247,94.026855 
	C127.983040,99.806831 121.401443,101.620651 114.298935,99.927689 
	C106.833733,98.148262 99.804169,95.098984 97.300629,85.910339 
	C97.379265,84.217743 97.692841,83.110855 98.384811,82.002701 
	C100.551895,81.023987 102.340584,80.046539 104.403679,78.919151 
	C102.797058,77.065468 101.876862,76.003777 100.956673,74.942085 
	C104.438263,74.504845 107.919861,74.067612 111.681885,73.342896 
	C113.367683,73.099785 114.773033,73.144150 116.675217,73.603119 
	C118.453789,73.833237 119.735535,73.648743 121.017281,73.464249 
M115.827591,96.999939 
	C117.807327,96.603493 119.787071,96.207054 121.766808,95.810608 
	C121.567101,95.234398 121.367386,94.658180 121.167679,94.081970 
	C119.595177,96.329910 115.350998,91.531395 114.518753,97.024727 
	C114.243446,97.142197 113.968140,97.259659 113.692825,97.377121 
	C113.779854,97.500824 113.866890,97.624527 113.953926,97.748230 
	C114.302765,97.499023 114.651604,97.249817 115.827591,96.999939 
z"/>
<path fill="#4D54C9" opacity="1.000000" stroke="none" 
	d="
M143.032043,80.566483 
	C141.915527,81.886162 140.792206,82.808792 139.668884,83.731422 
	C138.817947,81.890488 137.627228,80.114815 137.255875,78.181755 
	C137.063049,77.178001 138.318787,75.895981 138.964966,74.374207 
	C143.336975,74.114296 142.423264,77.635818 143.032043,80.566483 
z"/>
<path fill="#87BCBD" opacity="1.000000" stroke="none" 
	d="
M89.347717,83.978714 
	C90.214973,81.501915 91.465233,79.053291 92.881538,76.303299 
	C93.459381,75.997040 93.871193,75.992149 94.625397,76.412796 
	C94.927086,79.928413 94.886383,83.018509 94.845680,86.108597 
	C94.601593,86.835289 94.357498,87.561989 94.112724,88.576355 
	C93.928802,88.896553 93.745560,88.929070 93.283768,88.979080 
	C91.913719,87.333344 90.822220,85.670113 89.347717,83.978714 
z"/>
<path fill="#3F5EB0" opacity="1.000000" stroke="none" 
	d="
M95.207260,86.085419 
	C94.886383,83.018509 94.927086,79.928413 94.934547,76.403221 
	C95.264931,75.181557 95.628563,74.394989 95.932808,73.260597 
	C95.873421,72.912766 96.261162,72.766190 96.464874,72.731293 
	C97.360153,73.246819 98.051712,73.797234 98.874756,75.051346 
	C98.672966,77.838013 98.339684,79.920990 98.006409,82.003967 
	C97.692841,83.110855 97.379265,84.217743 97.040726,85.672470 
	C96.533447,86.034286 96.051147,86.048264 95.207260,86.085419 
z"/>
<path fill="#4F58BF" opacity="1.000000" stroke="none" 
	d="
M46.052788,43.790039 
	C44.428322,50.164722 42.688438,56.149006 40.685097,62.799454 
	C39.971989,64.993294 39.522335,66.520973 39.072681,68.048653 
	C30.965061,68.206512 30.360121,61.191826 28.178293,56.102444 
	C27.131100,53.659737 27.635925,50.828373 31.407166,49.439587 
	C33.846088,48.541435 35.559311,45.725430 37.657082,43.834698 
	C40.273384,41.476608 43.039894,40.921516 46.052788,43.790039 
z"/>
<path fill="#8892E6" opacity="1.000000" stroke="none" 
	d="
M39.062347,68.373535 
	C39.522335,66.520973 39.971989,64.993294 40.673065,63.224224 
	C42.645893,64.066139 44.367287,65.149445 46.088684,66.232758 
	C46.085850,66.840057 46.083015,67.447365 46.080181,68.054665 
	C43.984947,68.703140 41.889709,69.351616 39.393200,69.999252 
	C39.011951,69.565086 39.031979,69.131752 39.062347,68.373535 
z"/>
<path fill="#858BC4" opacity="1.000000" stroke="none" 
	d="
M90.135841,30.010696 
	C90.859451,29.678493 91.738213,29.623091 92.807961,29.786297 
	C92.096291,30.099104 91.193649,30.193298 90.135841,30.010696 
z"/>
<path fill="#8ACAB4" opacity="1.000000" stroke="none" 
	d="
M71.045227,111.366669 
	C72.146423,111.915970 73.478996,112.684677 74.333992,113.814713 
	C75.403778,115.228622 76.081116,116.939453 76.980606,118.904297 
	C76.697273,119.988663 76.361191,120.690849 75.991783,121.689972 
	C75.497704,121.736336 75.036957,121.485764 74.335861,121.132416 
	C73.085213,117.935242 72.074921,114.840843 71.045227,111.366669 
z"/>
<path fill="#4A58CB" opacity="1.000000" stroke="none" 
	d="
M98.384796,82.002701 
	C98.339684,79.920990 98.672966,77.838013 99.026886,75.345230 
	C99.471985,74.943954 99.896454,74.952477 100.638794,74.951538 
	C101.876862,76.003777 102.797058,77.065468 104.403679,78.919151 
	C102.340584,80.046539 100.551895,81.023987 98.384796,82.002701 
z"/>
<path fill="#656AB7" opacity="1.000000" stroke="none" 
	d="
M120.628525,73.324127 
	C119.735535,73.648743 118.453789,73.833237 117.077393,73.729149 
	C118.068420,73.355049 119.154091,73.269524 120.628525,73.324127 
z"/>
<path fill="#DBDBED" opacity="1.000000" stroke="none" 
	d="
M111.366104,107.037384 
	C111.001274,106.830406 111.001640,106.661964 111.004395,106.240723 
	C115.066200,105.997688 119.125595,106.007454 123.595200,106.012009 
	C122.198517,109.676910 119.604195,111.019241 115.739532,108.903877 
	C114.454842,108.200676 113.070229,107.680023 111.366104,107.037384 
z"/>
<path fill="#DBDBED" opacity="1.000000" stroke="none" 
	d="
M98.974747,100.639816 
	C98.223137,101.634987 97.435333,102.291794 96.325294,102.975388 
	C96.000641,101.609207 95.998230,100.216248 95.998367,98.404839 
	C96.980133,98.758087 97.959351,99.529778 98.974747,100.639816 
z"/>
<path fill="#DBDBED" opacity="1.000000" stroke="none" 
	d="
M131.684158,102.046204 
	C131.550461,102.645973 131.094452,103.282188 130.317871,103.959610 
	C130.452164,103.361427 130.906998,102.722038 131.684158,102.046204 
z"/>
<path fill="#CDF7E3" opacity="1.000000" stroke="none" 
	d="
M74.630295,106.854568 
	C73.641647,105.375496 72.980095,103.995415 72.177269,102.317184 
	C73.620705,97.941429 77.111107,98.727959 79.953392,99.545792 
	C80.863953,99.807793 81.788803,103.144035 81.276566,104.554039 
	C80.313721,107.204430 78.079262,108.835899 74.630295,106.854568 
z"/>
<path fill="#D8DCF3" opacity="1.000000" stroke="none" 
	d="
M68.971138,95.306847 
	C69.160309,95.038719 69.365982,95.039665 69.879852,95.075523 
	C69.939445,95.356270 69.690842,95.602104 69.213356,95.981506 
	C68.985535,95.935356 68.986588,95.755638 68.971138,95.306847 
z"/>
<path fill="#4D57C8" opacity="1.000000" stroke="none" 
	d="
M133.011124,94.013527 
	C130.178482,94.209534 127.334717,94.392220 122.822815,94.682053 
	C129.243423,90.852036 129.345749,87.184578 125.403709,82.353973 
	C126.390747,82.577667 128.076782,82.558243 128.252716,83.064049 
	C129.502777,86.658203 135.856171,87.874886 133.052765,93.658272 
	C133.025772,94.022255 133.000000,94.000198 133.011124,94.013527 
z"/>
<path fill="#4D57C8" opacity="1.000000" stroke="none" 
	d="
M114.999390,96.999390 
	C115.350998,91.531395 119.595177,96.329910 121.167679,94.081970 
	C121.367386,94.658180 121.567101,95.234398 121.766808,95.810608 
	C119.787071,96.207054 117.807327,96.603493 115.413795,96.999969 
	C115.000000,97.000000 114.999390,96.999390 114.999390,96.999390 
z"/>
<path fill="#4D57C8" opacity="1.000000" stroke="none" 
	d="
M115.000221,97.000305 
	C114.651604,97.249817 114.302765,97.499023 113.953926,97.748230 
	C113.866890,97.624527 113.779854,97.500824 113.692825,97.377121 
	C113.968140,97.259659 114.243446,97.142197 114.759071,97.012054 
	C114.999390,96.999390 115.000000,97.000000 115.000221,97.000305 
z"/>
</svg>