<svg version="1.1" id="Layer_1" xmlns="http://www.w3.org/2000/svg" xmlns:xlink="http://www.w3.org/1999/xlink" x="0px" y="0px"
	 width="100%" viewBox="0 0 171 161" enable-background="new 0 0 171 161" xml:space="preserve">
<path fill="#FEFEFF" opacity="1.000000" stroke="none" 
	d="
M95.000000,162.000000 
	C63.333336,162.000000 32.166676,162.000000 1.000008,162.000000 
	C1.000006,108.333344 1.000006,54.666687 1.000003,1.000023 
	C57.999985,1.000015 114.999969,1.000015 171.999969,1.000008 
	C171.999969,54.666641 171.999969,108.333282 171.999985,161.999969 
	C146.500000,162.000000 121.000000,162.000000 95.000000,162.000000 
M91.171600,66.986290 
	C89.799240,66.896431 88.426888,66.806572 86.621407,66.252228 
	C85.427521,65.911598 84.233643,65.570969 82.786804,64.548340 
	C80.310043,57.713104 85.143845,61.256176 86.809738,61.494011 
	C87.379707,58.811939 87.999077,56.550594 88.288391,54.247780 
	C88.423782,53.170059 87.921715,52.012253 87.722649,50.247623 
	C87.834404,49.835129 87.946159,49.422630 88.710838,48.909489 
	C88.759003,47.920933 88.807159,46.932373 88.825829,45.024914 
	C88.848610,41.024139 88.871391,37.023365 89.437599,32.620167 
	C89.927444,27.423832 87.033142,24.676661 82.462135,23.435413 
	C80.817055,22.988695 78.857574,23.658613 77.236862,23.170517 
	C70.611687,21.175283 64.151749,23.324621 58.158852,25.001650 
	C53.930698,26.184837 50.683720,30.874271 46.509144,34.007957 
	C46.509144,34.007957 46.020580,34.040497 45.157898,34.015301 
	C41.319466,34.315517 37.482441,34.784950 33.641773,34.816948 
	C32.426376,34.827072 31.201246,33.668697 30.412928,32.492661 
	C31.526173,31.331898 32.639416,30.171135 33.752659,29.010370 
	C31.751610,28.211849 29.662619,26.600140 27.770060,26.804810 
	C24.909229,27.114197 22.260887,29.151232 19.386009,29.621849 
	C14.728280,30.384321 14.322739,32.803291 15.687083,36.901394 
	C17.963049,35.867466 20.000122,34.942059 21.944679,34.736778 
	C20.373526,36.204967 18.678717,37.565495 17.274155,39.178730 
	C16.318197,40.276711 15.768545,41.728439 14.517776,43.364376 
	C14.336412,44.573772 14.155049,45.783165 13.950260,47.649685 
	C13.833488,48.071026 13.716717,48.492371 13.019162,49.113747 
	C13.365585,51.713436 13.712009,54.313126 14.025803,57.707485 
	C14.325752,60.339645 15.466441,63.241684 14.728465,65.540665 
	C13.623418,68.983185 14.331245,71.393097 16.588276,74.440468 
	C18.676620,70.254532 21.051949,70.531441 23.661234,73.017540 
	C21.341663,74.633789 19.231241,76.104317 16.848667,77.764473 
	C19.136356,79.032280 20.639042,79.480141 21.598940,80.459824 
	C27.580702,86.564911 28.342484,86.585419 32.440536,80.032990 
	C34.621460,81.355736 36.804840,82.679962 39.429142,84.222275 
	C39.703350,84.424072 39.890167,84.687790 39.702602,85.677719 
	C38.923435,91.227470 39.930668,92.385208 44.734806,92.313454 
	C46.159664,92.292175 47.601532,93.409760 49.104046,94.716614 
	C50.191818,98.312981 50.840054,102.127563 52.487572,105.446037 
	C54.231461,108.958626 56.926048,111.999214 58.856487,115.867920 
	C58.514549,118.545975 58.172607,121.224037 57.159191,124.096695 
	C57.066536,125.727745 56.973881,127.358803 56.908253,129.827408 
	C56.772778,131.486008 56.637299,133.144608 55.928650,135.116226 
	C54.967613,138.052200 54.006580,140.988190 52.911903,144.648911 
	C52.051060,145.348801 51.251308,146.147263 50.315994,146.727005 
	C48.639381,147.766251 46.881233,148.673950 45.157166,149.636642 
	C47.070911,151.240250 48.916145,152.938660 50.934441,154.397629 
	C51.671120,154.930176 52.821121,154.885788 53.779377,155.117752 
	C62.661713,157.267960 64.598335,155.732361 64.749611,146.991699 
	C65.499748,146.973114 66.249878,146.954544 67.709244,147.270584 
	C76.677765,149.335419 82.883682,144.628937 83.035240,135.825897 
	C83.083252,133.037033 83.358841,130.168823 84.144485,127.519028 
	C84.437134,126.532005 86.509499,125.418602 87.727982,125.465401 
	C96.161812,125.789291 104.584473,126.404114 113.316948,127.440392 
	C113.866653,127.633461 114.416359,127.826523 114.990120,128.831436 
	C114.909920,130.180893 114.829727,131.530334 114.210899,133.019150 
	C114.154037,133.686295 114.097176,134.353439 113.997421,135.778564 
	C111.419052,144.284164 112.032402,145.055862 121.278732,144.908646 
	C121.771713,144.900803 122.263290,144.805664 123.577118,144.908249 
	C126.379654,144.928070 129.182190,144.947876 132.826874,144.984924 
	C138.992523,144.842148 139.938934,143.897003 139.982162,137.625504 
	C140.020020,132.131577 139.757751,126.624207 140.063293,121.147049 
	C140.308685,116.747894 141.246933,112.390335 141.804840,108.005035 
	C142.928543,99.172668 145.211655,90.268715 139.701050,81.895988 
	C139.185287,81.112373 139.751541,78.891579 140.560028,78.077965 
	C146.214294,72.387878 151.202820,65.823822 159.544022,63.477753 
	C160.482788,63.213715 160.750229,60.562908 161.328979,59.018906 
	C158.985947,58.271774 156.492340,56.590378 154.326004,56.939537 
	C145.036575,58.436787 137.561264,63.535221 130.273682,70.051979 
	C129.781921,70.079514 129.290161,70.107048 128.351196,69.772385 
	C127.714767,69.362961 127.078339,68.953537 125.976295,68.000648 
	C120.614479,65.267494 115.318756,65.865372 109.425194,68.282532 
	C109.007210,68.346352 108.589218,68.410172 107.269691,68.178726 
	C104.124847,68.265854 100.980011,68.352982 97.085442,68.306725 
	C96.324715,68.270477 95.563980,68.234238 94.462578,67.646370 
	C93.630096,67.504829 92.797615,67.363289 91.171600,66.986290 
z"/>
<path fill="#DADBED" opacity="1.000000" stroke="none" 
	d="
M113.010719,126.925514 
	C104.584473,126.404114 96.161812,125.789291 87.727982,125.465401 
	C86.509499,125.418602 84.437134,126.532005 84.144485,127.519028 
	C83.358841,130.168823 83.083252,133.037033 83.035240,135.825897 
	C82.883682,144.628937 76.677765,149.335419 67.354919,146.716934 
	C67.241699,143.304611 67.512444,140.448044 67.717644,137.586807 
	C68.130318,131.832672 68.725990,126.075218 68.705917,120.321014 
	C68.702118,119.230438 66.197197,118.148567 64.586578,116.924461 
	C63.822590,116.195297 63.318348,115.604347 63.122871,114.848511 
	C71.058510,107.760399 74.868668,98.846619 77.124008,88.740768 
	C78.313026,86.576645 79.218231,84.645699 80.397499,82.904358 
	C81.816055,84.393288 82.960548,85.692589 84.089172,87.349380 
	C85.715950,89.129135 87.358582,90.551414 89.080803,92.211838 
	C89.420563,92.643913 89.680733,92.837845 90.051086,93.381195 
	C94.762062,95.115410 99.362854,96.500206 104.217178,98.187050 
	C109.226456,97.253708 114.095474,96.329056 118.690857,94.653778 
	C121.041893,93.796700 122.903000,91.595718 125.260452,89.811050 
	C131.163239,84.178856 133.271759,77.750465 131.012222,70.096710 
	C137.561264,63.535221 145.036575,58.436787 154.326004,56.939537 
	C156.492340,56.590378 158.985947,58.271774 161.328979,59.018906 
	C160.750229,60.562908 160.482788,63.213715 159.544022,63.477753 
	C151.202820,65.823822 146.214294,72.387878 140.560028,78.077965 
	C139.751541,78.891579 139.185287,81.112373 139.701050,81.895988 
	C145.211655,90.268715 142.928543,99.172668 141.804840,108.005035 
	C141.246933,112.390335 140.308685,116.747894 140.063293,121.147049 
	C139.757751,126.624207 140.020020,132.131577 139.982162,137.625504 
	C139.938934,143.897003 138.992523,144.842148 132.181580,144.711456 
	C130.809570,143.407669 129.240433,141.985977 129.505112,141.416214 
	C130.534348,139.200745 132.147873,137.257156 133.539963,135.209671 
	C134.659790,133.562622 136.903275,131.661896 136.607651,130.324921 
	C136.228714,128.611206 134.042862,126.755661 132.210648,126.021149 
	C128.758194,124.637093 125.047905,123.651787 121.357841,123.178009 
	C118.087326,122.758110 114.037071,121.822044 113.010719,126.925514 
z"/>
<path fill="#F7F9FA" opacity="1.000000" stroke="none" 
	d="
M38.988220,84.004189 
	C36.804840,82.679962 34.621460,81.355736 32.440536,80.032990 
	C28.342484,86.585419 27.580702,86.564911 21.598940,80.459824 
	C20.639042,79.480141 19.136356,79.032280 16.848667,77.764473 
	C19.231241,76.104317 21.341663,74.633789 23.661234,73.017540 
	C21.051949,70.531441 18.676620,70.254532 16.588276,74.440468 
	C14.331245,71.393097 13.623418,68.983185 14.728465,65.540665 
	C15.466441,63.241684 14.325752,60.339645 14.376621,57.334110 
	C15.175787,56.962048 15.624133,56.963364 16.227360,57.022369 
	C16.382240,57.080067 16.706812,57.142689 16.739613,57.490242 
	C17.633255,59.704086 18.494101,61.570377 19.322426,63.745979 
	C19.747894,64.402626 20.205881,64.749962 20.853676,65.375305 
	C22.339243,66.375580 23.635000,67.097839 25.286861,67.877983 
	C28.048994,70.117722 30.455023,72.299576 32.902248,74.793289 
	C34.264065,76.425491 35.584686,77.745834 37.043503,79.339569 
	C37.774689,80.413162 38.367683,81.213356 38.967308,82.345284 
	C38.978699,83.119408 38.983459,83.561798 38.988220,84.004189 
z"/>
<path fill="#DADBF5" opacity="1.000000" stroke="none" 
	d="
M113.163834,127.182953 
	C114.037071,121.822044 118.087326,122.758110 121.357841,123.178009 
	C125.047905,123.651787 128.758194,124.637093 132.210648,126.021149 
	C134.042862,126.755661 136.228714,128.611206 136.607651,130.324921 
	C136.903275,131.661896 134.659790,133.562622 133.539963,135.209671 
	C132.147873,137.257156 130.534348,139.200745 129.505112,141.416214 
	C129.240433,141.985977 130.809570,143.407669 131.760498,144.702820 
	C129.182190,144.947876 126.379654,144.928070 123.245834,144.392578 
	C122.886826,139.379974 123.205627,134.846771 122.739845,130.395660 
	C122.209427,125.326767 119.208641,124.547302 114.966057,128.019592 
	C114.416359,127.826523 113.866653,127.633461 113.163834,127.182953 
z"/>
<path fill="#979ED4" opacity="1.000000" stroke="none" 
	d="
M62.814102,115.013397 
	C63.318348,115.604347 63.822590,116.195297 64.670761,117.332207 
	C65.157402,122.954872 65.786819,128.079773 65.290329,133.093170 
	C64.886108,137.174850 63.133778,141.123001 61.552055,145.089661 
	C59.400341,145.058121 57.675827,145.067307 55.962769,145.044952 
	C55.974228,145.013428 55.921436,145.054855 55.947350,144.618896 
	C56.149452,141.056366 56.325634,137.929779 56.501816,134.803207 
	C56.637299,133.144608 56.772778,131.486008 57.197659,129.171967 
	C57.601601,126.978378 57.716133,125.440239 57.830666,123.902092 
	C58.172607,121.224037 58.514549,118.545975 59.239838,115.489639 
	C59.623192,115.111359 60.046490,114.987930 60.393684,114.993454 
	C61.431957,115.003784 62.123032,115.008591 62.814102,115.013397 
z"/>
<path fill="#ECF2FA" opacity="1.000000" stroke="none" 
	d="
M46.998688,33.998306 
	C50.683720,30.874271 53.930698,26.184837 58.158852,25.001650 
	C64.151749,23.324621 70.611687,21.175283 77.236862,23.170517 
	C78.857574,23.658613 80.817055,22.988695 82.462135,23.435413 
	C87.033142,24.676661 89.927444,27.423832 88.900459,32.619728 
	C85.901474,31.115286 83.439636,29.611284 80.645279,28.005165 
	C79.391769,27.817646 78.470779,27.732243 77.324738,27.355137 
	C72.340271,28.007715 67.580872,28.951998 62.457687,29.933237 
	C60.012802,30.934587 57.931694,31.898981 55.635376,32.866821 
	C55.420170,32.870266 55.003071,32.976696 54.632538,32.946709 
	C52.885048,33.306492 51.508095,33.696259 49.740387,34.050468 
	C48.565983,34.009377 47.782337,34.003841 46.998688,33.998306 
z"/>
<path fill="#5B60AE" opacity="1.000000" stroke="none" 
	d="
M103.963654,97.884995 
	C99.362854,96.500206 94.762062,95.115410 90.446472,93.371391 
	C93.171135,93.625191 95.610596,94.238220 98.451920,94.845932 
	C100.803307,94.562820 102.746063,94.218102 104.703644,94.020042 
	C110.094063,93.474663 114.926613,91.917587 118.360748,86.951782 
	C123.006332,83.670540 126.033463,79.832947 124.951927,73.642868 
	C124.617157,71.843925 124.313713,70.412308 124.423401,68.953873 
	C125.371651,68.799416 125.906784,68.671761 126.441910,68.544113 
	C127.078339,68.953537 127.714767,69.362961 128.577560,70.380066 
	C128.624924,73.252136 128.906281,75.680573 128.170105,77.746422 
	C126.684341,81.915726 124.645561,85.887962 122.498009,90.034332 
	C116.095306,92.713127 110.029480,95.299065 103.963654,97.884995 
z"/>
<path fill="#9EA0D0" opacity="1.000000" stroke="none" 
	d="
M114.978088,128.425507 
	C119.208641,124.547302 122.209427,125.326767 122.739845,130.395660 
	C123.205627,134.846771 122.886826,139.379974 122.835037,144.314056 
	C122.263290,144.805664 121.771713,144.900803 121.278732,144.908646 
	C112.032402,145.055862 111.419052,144.284164 114.268204,135.216797 
	C114.609161,134.063278 114.679344,133.471542 114.749527,132.879791 
	C114.829727,131.530334 114.909920,130.180893 114.978088,128.425507 
z"/>
<path fill="#FAFDFA" opacity="1.000000" stroke="none" 
	d="
M63.999348,147.009628 
	C64.598335,155.732361 62.661713,157.267960 53.779377,155.117752 
	C52.821121,154.885788 51.671120,154.930176 50.934441,154.397629 
	C48.916145,152.938660 47.070911,151.240250 45.157166,149.636642 
	C46.881233,148.673950 48.639381,147.766251 50.315994,146.727005 
	C51.251308,146.147263 52.051060,145.348801 53.258705,144.429855 
	C54.377487,144.492157 55.149460,144.773499 55.921436,145.054855 
	C55.921436,145.054855 55.974228,145.013428 56.050148,145.402710 
	C57.754719,146.155121 59.383369,146.518265 61.384602,146.912277 
	C62.504570,146.965302 63.251961,146.987473 63.999348,147.009628 
z"/>
<path fill="#D6D8F8" opacity="1.000000" stroke="none" 
	d="
M46.753914,34.003132 
	C47.782337,34.003841 48.565983,34.009377 49.717979,34.471428 
	C50.102482,40.219486 50.118633,45.511036 50.048561,51.171677 
	C48.601456,54.325336 47.364067,57.181538 45.812862,59.855698 
	C45.268322,60.794434 43.953384,61.286282 42.988876,61.580894 
	C43.349026,58.795448 43.710529,56.411297 44.069374,53.576569 
	C43.992966,50.147858 43.919212,47.169727 43.876408,43.861721 
	C43.567993,43.014576 43.228634,42.497303 42.868721,41.688232 
	C42.832497,41.006748 42.816822,40.617058 42.862122,39.857895 
	C42.623451,38.322575 42.323818,37.156734 42.397110,35.992119 
	C43.853550,35.342400 44.937065,34.691448 46.020580,34.040497 
	C46.020580,34.040497 46.509144,34.007957 46.753914,34.003132 
z"/>
<path fill="#FDFEF7" opacity="1.000000" stroke="none" 
	d="
M22.037195,34.016655 
	C20.000122,34.942059 17.963049,35.867466 15.687083,36.901394 
	C14.322739,32.803291 14.728280,30.384321 19.386009,29.621849 
	C22.260887,29.151232 24.909229,27.114197 27.770060,26.804810 
	C29.662619,26.600140 31.751610,28.211849 33.752663,29.010372 
	C32.639416,30.171135 31.526173,31.331898 29.787498,32.761883 
	C26.787113,33.359623 24.412153,33.688141 22.037195,34.016655 
z"/>
<path fill="#D7D8F8" opacity="1.000000" stroke="none" 
	d="
M64.374481,147.000671 
	C63.251961,146.987473 62.504570,146.965302 61.490158,146.685944 
	C61.475174,145.995956 61.727215,145.563171 61.979256,145.130371 
	C63.133778,141.123001 64.886108,137.174850 65.290329,133.093170 
	C65.786819,128.079773 65.157402,122.954872 64.930496,117.470428 
	C66.197197,118.148567 68.702118,119.230438 68.705917,120.321014 
	C68.725990,126.075218 68.130318,131.832672 67.717644,137.586807 
	C67.512444,140.448044 67.241699,143.304611 67.000305,146.549622 
	C66.249878,146.954544 65.499748,146.973114 64.374481,147.000671 
z"/>
<path fill="#7078BA" opacity="1.000000" stroke="none" 
	d="
M80.977791,28.107281 
	C83.439636,29.611284 85.901474,31.115286 88.628738,32.820938 
	C88.871391,37.023365 88.848610,41.024139 88.598785,45.714775 
	C88.267128,47.273136 88.162521,48.141636 88.057915,49.010136 
	C87.946159,49.422630 87.834404,49.835129 87.451538,50.777359 
	C85.935776,55.104706 83.600357,56.599693 79.579659,54.818031 
	C79.436279,54.796329 79.146271,54.799541 78.947418,54.553886 
	C77.830162,53.265686 76.911743,52.223141 76.244843,50.879745 
	C77.281433,50.408501 78.059929,50.134418 78.852646,50.083984 
	C85.593559,49.655170 86.991615,48.187439 87.011864,41.365051 
	C87.019157,38.907242 86.973099,36.449272 86.818665,33.680717 
	C84.783218,31.615799 82.880501,29.861542 80.977791,28.107281 
z"/>
<path fill="#666CB6" opacity="1.000000" stroke="none" 
	d="
M13.599945,48.913712 
	C13.716717,48.492371 13.833488,48.071026 14.227230,47.129601 
	C15.114348,45.453262 15.724495,44.297001 16.600460,42.951447 
	C23.860256,38.081337 31.718473,36.378532 39.920536,36.357399 
	C39.205173,37.413597 38.546314,38.167679 37.612839,39.083435 
	C35.995522,40.186920 34.652817,41.128727 32.985558,41.874393 
	C31.208681,41.149624 29.629372,39.953018 28.324703,40.201050 
	C20.010515,41.781647 16.438421,45.976212 15.444370,54.169708 
	C14.651053,52.244801 14.125499,50.579254 13.599945,48.913712 
z"/>
<path fill="#E4E7F7" opacity="1.000000" stroke="none" 
	d="
M39.977043,36.055286 
	C31.718473,36.378532 23.860256,38.081337 16.276424,42.905785 
	C15.470116,43.040268 15.253662,43.031128 15.037208,43.021988 
	C15.768545,41.728439 16.318197,40.276711 17.274155,39.178730 
	C18.678717,37.565495 20.373526,36.204967 21.990936,34.376717 
	C24.412153,33.688141 26.787113,33.359623 29.571321,33.038086 
	C31.201246,33.668697 32.426376,34.827072 33.641773,34.816948 
	C37.482441,34.784950 41.319466,34.315517 45.589241,34.027901 
	C44.937065,34.691448 43.853550,35.342400 42.163876,35.980423 
	C41.557716,35.967499 41.091255,35.959969 40.809074,35.941372 
	C40.343605,35.966949 40.160324,36.011120 39.977043,36.055286 
z"/>
<path fill="#DEF8F3" opacity="1.000000" stroke="none" 
	d="
M60.046490,114.987930 
	C60.046490,114.987930 59.623192,115.111359 59.414291,115.178665 
	C56.926048,111.999214 54.231461,108.958626 52.487572,105.446037 
	C50.840054,102.127563 50.191818,98.312981 49.326691,94.152481 
	C49.698002,92.729126 49.846668,91.869896 50.241928,91.105972 
	C50.939621,91.476891 51.390724,91.752510 52.014542,92.345490 
	C54.073650,97.126892 55.960045,101.590950 57.884460,106.378021 
	C58.033157,107.120094 58.143822,107.539154 58.224537,108.321251 
	C58.811890,110.785500 59.429188,112.886711 60.046490,114.987930 
z"/>
<path fill="#5058AF" opacity="1.000000" stroke="none" 
	d="
M94.803253,68.197983 
	C95.563980,68.234238 96.324715,68.270477 97.592331,68.736328 
	C101.456558,68.935287 104.813896,68.704636 108.171234,68.473991 
	C108.589218,68.410172 109.007210,68.346352 110.045670,68.529083 
	C112.782166,68.816452 114.898193,68.857254 117.009926,69.295975 
	C116.162849,70.669113 115.419586,72.335335 114.456322,72.474075 
	C112.520256,72.752922 110.336685,71.652252 108.480362,72.085464 
	C101.489838,73.716820 95.203171,71.755127 89.310226,68.967537 
	C90.444962,68.709801 91.254021,68.471664 92.406586,68.246918 
	C93.434486,68.239532 94.118866,68.218758 94.803253,68.197983 
z"/>
<path fill="#D9DFF0" opacity="1.000000" stroke="none" 
	d="
M51.841827,92.028137 
	C51.390724,91.752510 50.939621,91.476891 49.938934,90.955078 
	C46.256100,88.810402 43.122849,86.911911 39.989594,85.013420 
	C39.890167,84.687790 39.703350,84.424072 39.208679,84.113235 
	C38.983459,83.561798 38.978699,83.119408 39.308014,82.340332 
	C40.095406,82.001541 40.548721,81.999435 41.362774,82.036987 
	C46.760033,85.264114 51.849453,88.163445 57.994087,85.406837 
	C57.294319,87.152679 56.639133,88.563263 55.610603,90.004501 
	C54.105446,90.699478 52.973637,91.363808 51.841827,92.028137 
z"/>
<path fill="#ECF2FA" opacity="1.000000" stroke="none" 
	d="
M79.723038,54.839733 
	C83.600357,56.599693 85.935776,55.104706 87.444489,51.098919 
	C87.921715,52.012253 88.423782,53.170059 88.288391,54.247780 
	C87.999077,56.550594 87.379707,58.811939 86.809738,61.494011 
	C85.143845,61.256176 80.310043,57.713104 82.783501,65.128906 
	C82.458786,66.352852 82.137375,66.996239 81.657768,67.795631 
	C81.499573,67.951645 81.177284,68.254425 80.925011,68.083229 
	C80.416557,67.602631 80.160370,67.293221 79.951736,66.567291 
	C79.909897,64.757698 79.820503,63.364635 79.794662,61.533371 
	C79.813156,59.010021 79.768097,56.924877 79.723038,54.839733 
z"/>
<path fill="#CCD1F2" opacity="1.000000" stroke="none" 
	d="
M122.834885,89.941483 
	C124.645561,85.887962 126.684341,81.915726 128.170105,77.746422 
	C128.906281,75.680573 128.624924,73.252136 128.801163,70.561172 
	C129.290161,70.107048 129.781921,70.079514 130.642944,70.074341 
	C133.271759,77.750465 131.163239,84.178856 124.902260,89.807983 
	C123.791046,89.977821 123.312965,89.959648 122.834885,89.941483 
z"/>
<path fill="#F7F9FA" opacity="1.000000" stroke="none" 
	d="
M39.846100,85.345566 
	C43.122849,86.911911 46.256100,88.810402 49.692345,90.859787 
	C49.846668,91.869896 49.698002,92.729126 49.292473,93.796921 
	C47.601532,93.409760 46.159664,92.292175 44.734806,92.313454 
	C39.930668,92.385208 38.923435,91.227470 39.846100,85.345566 
z"/>
<path fill="#8B91CB" opacity="1.000000" stroke="none" 
	d="
M117.014214,68.898064 
	C114.898193,68.857254 112.782166,68.816452 110.362976,68.546066 
	C115.318756,65.865372 120.614479,65.267494 126.209106,68.272385 
	C125.906784,68.671761 125.371651,68.799416 123.985733,68.929283 
	C121.094696,68.920357 119.054459,68.909210 117.014214,68.898064 
z"/>
<path fill="#D2D8EB" opacity="1.000000" stroke="none" 
	d="
M55.947350,144.618896 
	C55.149460,144.773499 54.377487,144.492157 53.325531,144.067474 
	C54.006580,140.988190 54.967613,138.052200 56.215233,134.959717 
	C56.325634,137.929779 56.149452,141.056366 55.947350,144.618896 
z"/>
<path fill="#8B91CB" opacity="1.000000" stroke="none" 
	d="
M107.720459,68.326355 
	C104.813896,68.704636 101.456558,68.935287 97.967194,68.803024 
	C100.980011,68.352982 104.124847,68.265854 107.720459,68.326355 
z"/>
<path fill="#D6D9F2" opacity="1.000000" stroke="none" 
	d="
M13.309553,49.013729 
	C14.125499,50.579254 14.651053,52.244801 15.513618,54.482208 
	C15.924580,55.690945 15.998529,56.327808 16.072479,56.964676 
	C15.624133,56.963364 15.175787,56.962048 14.392937,56.936775 
	C13.712009,54.313126 13.365585,51.713436 13.309553,49.013729 
z"/>
<path fill="#95B2D4" opacity="1.000000" stroke="none" 
	d="
M81.815964,67.639618 
	C82.137375,66.996239 82.458786,66.352852 82.909973,65.469910 
	C84.233643,65.570969 85.427521,65.911598 86.811859,66.779213 
	C86.982903,67.501526 86.963509,67.696854 86.613708,67.965714 
	C85.833214,68.079498 85.383110,68.119736 84.547661,68.073441 
	C83.380196,67.871140 82.598076,67.755379 81.815964,67.639618 
z"/>
<path fill="#D2D8EB" opacity="1.000000" stroke="none" 
	d="
M57.494926,123.999390 
	C57.716133,125.440239 57.601601,126.978378 57.184147,128.753189 
	C56.973881,127.358803 57.066536,125.727745 57.494926,123.999390 
z"/>
<path fill="#8B91CB" opacity="1.000000" stroke="none" 
	d="
M86.944107,67.892181 
	C86.963509,67.696854 86.982903,67.501526 87.028412,67.011459 
	C88.426888,66.806572 89.799240,66.896431 91.586761,67.356934 
	C92.022301,67.896225 92.042686,68.064880 92.063072,68.233528 
	C91.254021,68.471664 90.444962,68.709801 89.052872,68.834869 
	C87.961258,68.445267 87.452682,68.168724 86.944107,67.892181 
z"/>
<path fill="#D6D9F2" opacity="1.000000" stroke="none" 
	d="
M14.777492,43.193184 
	C15.253662,43.031128 15.470116,43.040268 16.010607,43.095078 
	C15.724495,44.297001 15.114348,45.453262 14.238944,46.801041 
	C14.155049,45.783165 14.336412,44.573772 14.777492,43.193184 
z"/>
<path fill="#ECF2FA" opacity="1.000000" stroke="none" 
	d="
M88.384377,48.959812 
	C88.162521,48.141636 88.267128,47.273136 88.613533,46.174225 
	C88.807159,46.932373 88.759003,47.920933 88.384377,48.959812 
z"/>
<path fill="#DADBF5" opacity="1.000000" stroke="none" 
	d="
M114.480217,132.949463 
	C114.679344,133.471542 114.609161,134.063278 114.289642,134.837799 
	C114.097176,134.353439 114.154037,133.686295 114.480217,132.949463 
z"/>
<path fill="#95B2D4" opacity="1.000000" stroke="none" 
	d="
M92.406586,68.246918 
	C92.042686,68.064880 92.022301,67.896225 91.983521,67.474655 
	C92.797615,67.363289 93.630096,67.504829 94.632919,67.922180 
	C94.118866,68.218758 93.434486,68.239532 92.406586,68.246918 
z"/>
<path fill="#8ECBB6" opacity="1.000000" stroke="none" 
	d="
M60.393684,114.993454 
	C59.429188,112.886711 58.811890,110.785500 58.533932,108.393555 
	C59.800022,109.829353 60.726765,111.555885 61.653511,113.282417 
	C62.589695,112.897713 63.525879,112.513016 64.462067,112.128311 
	C65.656158,108.763153 66.850250,105.397987 68.337013,101.878899 
	C70.393440,99.464851 72.157196,97.204727 73.935684,94.621078 
	C73.967461,93.866058 73.984497,93.434570 74.213196,92.894501 
	C74.689857,92.578156 74.838051,92.306633 75.005997,91.678589 
	C75.422386,90.587105 75.702202,89.788361 76.196594,88.987411 
	C76.411163,88.985207 76.840195,88.973930 76.840195,88.973930 
	C74.868668,98.846619 71.058510,107.760399 63.122871,114.848511 
	C62.123032,115.008591 61.431957,115.003784 60.393684,114.993454 
z"/>
<path fill="#5560B7" opacity="1.000000" stroke="none" 
	d="
M98.050049,94.851242 
	C95.610596,94.238220 93.171135,93.625191 90.336288,93.021973 
	C89.680733,92.837845 89.420563,92.643913 89.024063,91.867615 
	C87.293510,89.854134 85.699272,88.423019 84.105034,86.991898 
	C82.960548,85.692589 81.816055,84.393288 80.409904,82.716766 
	C80.148239,82.339554 80.137886,81.960762 80.448196,81.972870 
	C81.174683,81.990082 81.590874,81.995193 82.367981,82.160690 
	C84.622444,82.713104 86.515999,83.105133 87.341782,83.276093 
	C89.148346,85.643570 90.400337,88.686127 91.667480,88.692444 
	C96.187347,88.715004 97.072739,91.638611 98.050049,94.851242 
z"/>
<path fill="#CACDF0" opacity="1.000000" stroke="none" 
	d="
M122.498001,90.034332 
	C123.312965,89.959648 123.791046,89.977821 124.627335,89.999054 
	C122.903000,91.595718 121.041893,93.796700 118.690857,94.653778 
	C114.095474,96.329056 109.226456,97.253708 104.217178,98.187050 
	C110.029480,95.299065 116.095306,92.713127 122.498001,90.034332 
z"/>
<path fill="#8EC4B7" opacity="1.000000" stroke="none" 
	d="
M80.137886,81.960762 
	C80.137886,81.960762 80.148239,82.339554 80.135834,82.527145 
	C79.218231,84.645699 78.313026,86.576645 77.124008,88.740768 
	C76.840195,88.973930 76.411163,88.985207 76.197174,88.589401 
	C75.996208,87.131294 76.009232,86.068977 76.283005,84.782181 
	C75.606972,83.296532 74.670189,82.035362 73.803383,80.432220 
	C74.686745,78.386360 75.500122,76.682495 76.600952,75.020096 
	C77.594337,75.370872 78.300262,75.680168 79.018784,76.397057 
	C79.400215,78.523346 79.769051,80.242058 80.137886,81.960762 
z"/>
<path fill="#5B60AE" opacity="1.000000" stroke="none" 
	d="
M84.089172,87.349380 
	C85.699272,88.423019 87.293510,89.854134 88.944489,91.629471 
	C87.358582,90.551414 85.715950,89.129135 84.089172,87.349380 
z"/>
<path fill="#4E57BD" opacity="1.000000" stroke="none" 
	d="
M16.227360,57.022369 
	C15.998529,56.327808 15.924580,55.690945 15.781381,54.741577 
	C16.438421,45.976212 20.010515,41.781647 28.324703,40.201050 
	C29.629372,39.953018 31.208681,41.149624 32.861156,42.238400 
	C32.068939,46.197937 31.076563,49.597321 29.999668,53.381168 
	C28.620296,57.850597 27.325441,61.935570 25.704697,65.876602 
	C24.270250,64.081184 23.385105,62.201221 21.992880,60.839832 
	C20.476095,59.356655 18.488920,58.354530 16.706812,57.142689 
	C16.706812,57.142689 16.382240,57.080067 16.227360,57.022369 
z"/>
<path fill="#9EA1CF" opacity="1.000000" stroke="none" 
	d="
M32.861053,74.481422 
	C30.455023,72.299576 28.048994,70.117722 25.379412,67.676254 
	C25.290730,67.161804 25.525705,66.988434 26.237339,66.931412 
	C30.381510,66.970291 34.109131,66.974281 37.743370,67.294601 
	C36.415451,69.703560 35.180920,71.796181 33.648209,73.987778 
	C33.187038,74.218323 33.024044,74.349869 32.861053,74.481422 
z"/>
<path fill="#DAD9F2" opacity="1.000000" stroke="none" 
	d="
M41.002041,81.997330 
	C40.548721,81.999435 40.095406,82.001541 39.301380,82.008598 
	C38.367683,81.213356 37.774689,80.413162 37.321812,79.131226 
	C37.641132,77.766624 37.820343,76.883766 38.145042,75.667145 
	C39.230946,73.501434 40.171360,71.669510 41.111774,69.837578 
	C41.752342,70.044357 42.392910,70.251137 43.033478,70.457916 
	C42.356331,74.304390 41.679188,78.150856 41.002041,81.997330 
z"/>
<path fill="#666CB6" opacity="1.000000" stroke="none" 
	d="
M25.820789,66.896507 
	C25.525705,66.988434 25.290730,67.161804 25.023308,67.618362 
	C23.635000,67.097839 22.339243,66.375580 20.840614,65.088684 
	C20.210144,64.161591 19.782545,63.799126 19.354946,63.436665 
	C18.494101,61.570377 17.633255,59.704086 16.739613,57.490242 
	C18.488920,58.354530 20.476095,59.356655 21.992880,60.839832 
	C23.385105,62.201221 24.270250,64.081184 25.673866,66.100677 
	C25.968924,66.468689 25.820789,66.896507 25.820789,66.896507 
z"/>
<path fill="#D9DFF0" opacity="1.000000" stroke="none" 
	d="
M37.999554,76.000916 
	C37.820343,76.883766 37.641132,77.766624 37.183617,78.857819 
	C35.584686,77.745834 34.264065,76.425491 32.902248,74.793289 
	C33.024044,74.349869 33.187038,74.218323 33.834118,74.272896 
	C35.545322,74.972984 36.772438,75.486946 37.999554,76.000916 
z"/>
<path fill="#D6D9F2" opacity="1.000000" stroke="none" 
	d="
M19.322426,63.745979 
	C19.782545,63.799126 20.210144,64.161591 20.650805,64.810669 
	C20.205881,64.749962 19.747894,64.402626 19.322426,63.745979 
z"/>
<path fill="#D2D8EB" opacity="1.000000" stroke="none" 
	d="
M61.552055,145.089661 
	C61.727215,145.563171 61.475174,145.995956 61.117577,146.655090 
	C59.383369,146.518265 57.754719,146.155121 56.038692,145.434235 
	C57.675827,145.067307 59.400341,145.058121 61.552055,145.089661 
z"/>
<path fill="#9197D4" opacity="1.000000" stroke="none" 
	d="
M79.579659,54.818031 
	C79.768097,56.924877 79.813156,59.010021 79.484619,61.612949 
	C78.077614,63.738491 77.044197,65.346245 76.002762,66.968513 
	C75.994751,66.983025 76.003998,67.014854 75.637390,66.990402 
	C73.858612,66.613312 72.446442,66.260681 70.863907,65.614914 
	C67.830002,63.823051 64.966461,62.324326 61.898155,60.552582 
	C60.024078,59.203262 58.354752,58.126957 55.675240,56.399330 
	C58.329983,55.051052 60.428787,53.985123 62.762432,52.799923 
	C61.973362,48.344807 58.508438,48.985950 54.937363,49.004753 
	C49.641445,43.412144 53.243259,38.218124 55.003071,32.976696 
	C55.003071,32.976696 55.420170,32.870266 55.730621,33.202637 
	C57.099564,34.643383 58.158051,35.751762 59.192757,37.190056 
	C59.791248,38.624359 60.413521,39.728745 61.175358,41.117516 
	C61.897434,41.581367 62.479950,41.760834 63.032528,41.935028 
	C63.002590,41.929752 63.062969,41.913666 63.074265,42.280060 
	C64.135857,44.283562 64.828239,46.474648 66.315445,47.435547 
	C68.927917,49.123486 69.247284,50.998318 68.693611,53.749184 
	C68.421471,55.101257 68.703529,57.584217 69.453720,57.912495 
	C71.061409,58.616005 73.295837,58.737034 74.973640,58.184956 
	C76.563683,57.661755 77.770767,55.974743 79.146271,54.799541 
	C79.146271,54.799541 79.436279,54.796329 79.579659,54.818031 
z"/>
<path fill="#9B9FCC" opacity="1.000000" stroke="none" 
	d="
M54.632538,32.946709 
	C53.243259,38.218124 49.641445,43.412144 54.827835,49.301117 
	C54.708401,50.554054 54.356228,51.332253 53.657234,52.090546 
	C52.251869,51.647957 51.193325,51.225269 50.134785,50.802582 
	C50.118633,45.511036 50.102482,40.219486 50.108734,34.506985 
	C51.508095,33.696259 52.885048,33.306492 54.632538,32.946709 
z"/>
<path fill="#565DAC" opacity="1.000000" stroke="none" 
	d="
M59.216537,36.860138 
	C58.158051,35.751762 57.099564,34.643383 55.945827,33.199188 
	C57.931694,31.898981 60.012802,30.934587 62.859749,29.962669 
	C65.428993,29.632437 67.232407,29.309729 68.968246,29.338882 
	C65.672630,32.080544 62.444584,34.470341 59.216537,36.860138 
z"/>
<path fill="#565DAC" opacity="1.000000" stroke="none" 
	d="
M80.645279,28.005165 
	C82.880501,29.861542 84.783218,31.615799 86.473763,33.680557 
	C85.171829,33.664810 84.082069,33.338558 82.673721,32.849045 
	C79.239197,31.795135 76.123268,30.904488 72.699089,29.986292 
	C71.904922,29.619102 71.419014,29.279459 71.241623,28.665695 
	C73.550026,28.143328 75.549911,27.895084 77.549789,27.646839 
	C78.470779,27.732243 79.391769,27.817646 80.645279,28.005165 
z"/>
<path fill="#7078BA" opacity="1.000000" stroke="none" 
	d="
M77.324738,27.355137 
	C75.549911,27.895084 73.550026,28.143328 70.926147,28.676237 
	C69.880043,28.969608 69.457932,28.978315 69.035820,28.987020 
	C67.232407,29.309729 65.428993,29.632437 63.223526,29.925713 
	C67.580872,28.951998 72.340271,28.007715 77.324738,27.355137 
z"/>
<path fill="#4C56C1" opacity="1.000000" stroke="none" 
	d="
M98.451920,94.845932 
	C97.072739,91.638611 96.187347,88.715004 91.667480,88.692444 
	C90.400337,88.686127 89.148346,85.643570 87.341782,83.276093 
	C86.515999,83.105133 84.622444,82.713104 82.364655,81.724182 
	C82.977943,76.804848 83.955475,72.482414 84.933014,68.159981 
	C85.383110,68.119736 85.833214,68.079498 86.613708,67.965714 
	C87.452682,68.168724 87.961258,68.445267 88.727188,68.854477 
	C95.203171,71.755127 101.489838,73.716820 108.480362,72.085464 
	C110.336685,71.652252 112.520256,72.752922 114.456322,72.474075 
	C115.419586,72.335335 116.162849,70.669113 117.009926,69.295975 
	C119.054459,68.909210 121.094696,68.920357 123.572601,68.956100 
	C124.313713,70.412308 124.617157,71.843925 124.562820,73.592407 
	C122.337074,73.805054 119.427788,72.934448 118.821236,73.758598 
	C117.615547,75.396797 117.388695,77.955933 117.296028,80.157219 
	C117.200432,82.428268 117.745110,84.726273 118.009674,87.012489 
	C114.926613,91.917587 110.094063,93.474663 104.703644,94.020042 
	C102.746063,94.218102 100.803307,94.562820 98.451920,94.845932 
M88.517021,81.411400 
	C88.517021,81.411400 88.583908,81.523247 88.517021,81.411400 
z"/>
<path fill="#4E55C9" opacity="1.000000" stroke="none" 
	d="
M118.360756,86.951782 
	C117.745110,84.726273 117.200432,82.428268 117.296028,80.157219 
	C117.388695,77.955933 117.615547,75.396797 118.821236,73.758598 
	C119.427788,72.934448 122.337074,73.805054 124.594147,73.959732 
	C126.033463,79.832947 123.006332,83.670540 118.360756,86.951782 
z"/>
<path fill="#9498D1" opacity="1.000000" stroke="none" 
	d="
M39.920536,36.357399 
	C40.160324,36.011120 40.343605,35.966949 40.791237,36.313229 
	C41.637444,37.878242 42.219299,39.052807 42.801151,40.227367 
	C42.816822,40.617058 42.832497,41.006748 42.677368,41.879326 
	C42.952862,42.972008 43.399162,43.581802 43.845463,44.191593 
	C43.919212,47.169727 43.992966,50.147858 43.694763,53.570274 
	C37.625973,51.446587 35.649746,52.611965 34.509468,58.989506 
	C29.617035,57.785389 34.144180,54.844627 33.157616,52.678902 
	C35.154518,48.240463 37.006355,44.127918 38.775764,39.980213 
	C38.857510,39.788586 38.200436,39.281776 37.887459,38.921761 
	C38.546314,38.167679 39.205173,37.413597 39.920536,36.357399 
z"/>
<path fill="#CDCEEA" opacity="1.000000" stroke="none" 
	d="
M50.048561,51.171677 
	C51.193325,51.225269 52.251869,51.647957 53.496132,52.428146 
	C53.238548,57.135628 50.478226,61.551056 53.645729,65.805382 
	C51.151657,66.174248 49.060986,66.525383 46.966118,66.508011 
	C45.635414,64.757179 44.308903,63.374840 42.988914,61.995159 
	C42.995438,61.997810 42.990231,61.982189 42.990231,61.982189 
	C43.953384,61.286282 45.268322,60.794434 45.812862,59.855698 
	C47.364067,57.181538 48.601456,54.325336 50.048561,51.171677 
z"/>
<path fill="#C3C5EE" opacity="1.000000" stroke="none" 
	d="
M34.869026,58.999748 
	C35.649746,52.611965 37.625973,51.446587 43.697422,54.020851 
	C43.710529,56.411297 43.349026,58.795448 42.988876,61.580894 
	C42.990231,61.982189 42.995438,61.997810 42.684544,62.012558 
	C41.644573,62.371971 40.915501,62.716637 40.148956,62.649979 
	C40.111481,60.520512 40.111481,58.802368 40.111481,57.797436 
	C38.214840,58.232414 36.541935,58.616081 34.869026,58.999748 
z"/>
<path fill="#C3C5EE" opacity="1.000000" stroke="none" 
	d="
M42.862122,39.857895 
	C42.219299,39.052807 41.637444,37.878242 41.073421,36.331825 
	C41.091255,35.959969 41.557716,35.967499 41.790947,35.979195 
	C42.323818,37.156734 42.623451,38.322575 42.862122,39.857895 
z"/>
<path fill="#C3C5EE" opacity="1.000000" stroke="none" 
	d="
M43.876408,43.861721 
	C43.399162,43.581802 42.952862,42.972008 42.697918,42.171124 
	C43.228634,42.497303 43.567993,43.014576 43.876408,43.861721 
z"/>
<path fill="#4E58BC" opacity="1.000000" stroke="none" 
	d="
M68.968246,29.338882 
	C69.457932,28.978315 69.880043,28.969608 70.617630,28.950359 
	C71.419014,29.279459 71.904922,29.619102 72.628769,30.345375 
	C70.952538,31.525455 68.957886,32.174267 67.159126,33.175121 
	C66.296455,33.655121 65.246712,34.838894 65.300705,35.634823 
	C65.355057,36.436108 66.585144,37.664696 67.453606,37.814220 
	C70.858131,38.400387 74.317253,38.856148 77.767273,38.950085 
	C83.845016,39.115566 83.848442,38.989613 82.992310,33.012306 
	C84.082069,33.338558 85.171829,33.664810 86.606491,33.991219 
	C86.973099,36.449272 87.019157,38.907242 87.011864,41.365051 
	C86.991615,48.187439 85.593559,49.655170 78.852646,50.083984 
	C78.059929,50.134418 77.281433,50.408501 75.918839,50.769413 
	C73.945374,49.858765 72.582092,48.712769 71.146385,47.666138 
	C68.474182,45.718098 65.759796,43.827927 63.062969,41.913666 
	C63.062969,41.913666 63.002590,41.929752 62.875839,41.672710 
	C62.177990,41.221489 61.606892,41.027309 61.035797,40.833130 
	C60.413521,39.728745 59.791248,38.624359 59.192753,37.190056 
	C62.444584,34.470341 65.672630,32.080544 68.968246,29.338882 
z"/>
<path fill="#8D96DF" opacity="1.000000" stroke="none" 
	d="
M63.074265,42.280060 
	C65.759796,43.827927 68.474182,45.718098 71.146385,47.666138 
	C72.582092,48.712769 73.945374,49.858765 75.667336,51.070259 
	C76.911743,52.223141 77.830162,53.265686 78.947418,54.553886 
	C77.770767,55.974743 76.563683,57.661755 74.973640,58.184956 
	C73.295837,58.737034 71.061409,58.616005 69.453720,57.912495 
	C68.703529,57.584217 68.421471,55.101257 68.693611,53.749184 
	C69.247284,50.998318 68.927917,49.123486 66.315445,47.435547 
	C64.828239,46.474648 64.135857,44.283562 63.074265,42.280060 
z"/>
<path fill="#8C94E0" opacity="1.000000" stroke="none" 
	d="
M37.612839,39.083435 
	C38.200436,39.281776 38.857510,39.788586 38.775764,39.980213 
	C37.006355,44.127918 35.154518,48.240463 32.792805,52.679398 
	C31.539412,52.998238 30.811800,52.997475 30.084187,52.996712 
	C31.076563,49.597321 32.068939,46.197937 33.185715,42.434544 
	C34.652817,41.128727 35.995522,40.186920 37.612839,39.083435 
z"/>
<path fill="#8ECBB6" opacity="1.000000" stroke="none" 
	d="
M52.014542,92.345490 
	C52.973637,91.363808 54.105446,90.699478 56.012268,90.029617 
	C58.840904,89.664497 60.894524,89.304909 63.151176,89.217529 
	C64.588089,90.937164 65.821968,92.384598 66.622551,93.869774 
	C57.892296,94.368721 57.753181,94.554878 60.882080,101.146858 
	C59.779079,102.996422 58.812756,104.525719 57.846436,106.055008 
	C55.960045,101.590950 54.073650,97.126892 52.014542,92.345490 
z"/>
<path fill="#6CCAA9" opacity="1.000000" stroke="none" 
	d="
M57.884460,106.378021 
	C58.812756,104.525719 59.779079,102.996422 61.284897,101.218132 
	C63.176365,100.955635 64.528343,100.942131 66.197876,100.968216 
	C67.025070,101.349472 67.534706,101.691154 68.044342,102.032829 
	C66.850250,105.397987 65.656158,108.763153 64.462067,112.128311 
	C63.525879,112.513016 62.589695,112.897713 61.653511,113.282417 
	C60.726765,111.555885 59.800022,109.829353 58.563881,108.030518 
	C58.143822,107.539154 58.033157,107.120094 57.884460,106.378021 
z"/>
<path fill="#D6D8F8" opacity="1.000000" stroke="none" 
	d="
M40.186428,63.061302 
	C40.915501,62.716637 41.644573,62.371971 42.678020,62.009903 
	C44.308903,63.374840 45.635414,64.757179 46.815964,66.862747 
	C43.657166,71.253609 47.833237,72.661224 49.041447,75.333237 
	C49.717209,76.099968 50.356506,76.546799 51.022060,77.359520 
	C50.900627,78.646759 50.752937,79.568092 50.595531,80.550049 
	C49.084656,80.037827 47.855503,79.621124 46.278042,79.086334 
	C48.438534,84.905754 50.296242,85.242241 54.383251,81.005585 
	C57.474964,79.998016 60.224991,78.988853 63.241554,78.185814 
	C63.668964,79.260712 63.829834,80.129486 63.825554,81.088173 
	C63.770103,81.452843 63.879810,81.727608 63.993729,82.261108 
	C64.003860,82.692253 64.009781,82.864670 63.910023,83.252243 
	C63.609203,83.736160 63.353008,83.919708 62.729828,84.031990 
	C61.945278,84.373833 61.466652,84.701714 60.618843,85.031006 
	C59.512661,85.045479 58.775661,85.058533 58.038666,85.071587 
	C51.849453,88.163445 46.760033,85.264114 41.362774,82.036987 
	C41.679188,78.150856 42.356331,74.304390 43.033478,70.457916 
	C42.392910,70.251137 41.752342,70.044357 41.111774,69.837578 
	C40.171360,71.669510 39.230946,73.501434 38.145042,75.667145 
	C36.772438,75.486946 35.545322,74.972984 34.132298,74.173904 
	C35.180920,71.796181 36.415451,69.703560 37.849754,66.977982 
	C38.761826,65.250450 39.474129,64.155876 40.186428,63.061302 
z"/>
<path fill="#C0E3E1" opacity="1.000000" stroke="none" 
	d="
M57.994087,85.406837 
	C58.775661,85.058533 59.512661,85.045479 60.796585,85.253418 
	C61.907589,84.988953 62.471668,84.503487 63.035748,84.018028 
	C63.353008,83.919708 63.609203,83.736160 64.284012,83.241745 
	C65.513199,83.010414 66.262703,83.004723 67.246170,83.147629 
	C67.950569,83.845741 68.420990,84.395264 68.770569,85.252182 
	C66.749184,86.688148 64.848663,87.816734 62.948143,88.945312 
	C60.894524,89.304909 58.840904,89.664497 56.385616,89.998978 
	C56.639133,88.563263 57.294319,87.152679 57.994087,85.406837 
z"/>
<path fill="#4768A9" opacity="1.000000" stroke="none" 
	d="
M84.547653,68.073441 
	C83.955475,72.482414 82.977943,76.804848 82.003738,81.563797 
	C81.590874,81.995193 81.174683,81.990082 80.448196,81.972870 
	C79.769051,80.242058 79.400215,78.523346 79.277374,76.133789 
	C80.074661,73.060104 80.625969,70.657265 81.177284,68.254425 
	C81.177284,68.254425 81.499573,67.951645 81.657768,67.795631 
	C82.598076,67.755379 83.380196,67.871140 84.547653,68.073441 
z"/>
<path fill="#95B2D4" opacity="1.000000" stroke="none" 
	d="
M80.925011,68.083229 
	C80.625969,70.657265 80.074661,73.060104 79.264771,75.726212 
	C78.300262,75.680168 77.594337,75.370872 76.522995,75.010162 
	C76.157585,74.958755 76.007248,74.950363 76.034286,74.612503 
	C76.093468,73.594894 76.125626,72.915146 76.479950,72.124184 
	C76.569580,70.969543 76.337044,69.926102 76.084190,68.571472 
	C76.043915,67.845139 76.023956,67.430000 76.003998,67.014854 
	C76.003998,67.014854 75.994751,66.983025 76.392693,66.986099 
	C77.828484,66.987389 78.866341,66.985603 79.904190,66.983810 
	C80.160370,67.293221 80.416557,67.602631 80.925011,68.083229 
z"/>
<path fill="#9FA5D4" opacity="1.000000" stroke="none" 
	d="
M79.951736,66.567284 
	C78.866341,66.985603 77.828484,66.987389 76.400711,66.971588 
	C77.044197,65.346245 78.077614,63.738491 79.421066,62.051155 
	C79.820503,63.364635 79.909897,64.757698 79.951736,66.567284 
z"/>
<path fill="#62CFA1" opacity="1.000000" stroke="none" 
	d="
M76.022247,85.006668 
	C76.009232,86.068977 75.996208,87.131294 75.982605,88.591614 
	C75.702202,89.788361 75.422386,90.587105 74.814041,91.805832 
	C74.244072,92.435005 74.082748,92.694092 74.001541,93.003090 
	C73.984497,93.434570 73.967461,93.866058 73.565552,94.644333 
	C71.486603,95.320999 69.792519,95.650871 68.046448,95.656769 
	C67.985489,94.895882 67.976509,94.458977 68.300873,93.844322 
	C69.080734,92.816910 69.926895,91.957565 69.906593,91.119194 
	C69.802902,86.836578 72.157959,85.214378 76.022247,85.006668 
z"/>
<path fill="#75C9AB" opacity="1.000000" stroke="none" 
	d="
M68.098434,95.980736 
	C69.792519,95.650871 71.486603,95.320999 73.550819,94.967873 
	C72.157196,97.204727 70.393440,99.464851 68.337013,101.878899 
	C67.534706,101.691154 67.025070,101.349472 66.351105,100.666367 
	C66.823997,98.876862 67.461220,97.428802 68.098434,95.980736 
z"/>
<path fill="#75C9AB" opacity="1.000000" stroke="none" 
	d="
M74.213196,92.894501 
	C74.082748,92.694092 74.244072,92.435005 74.677475,92.098587 
	C74.838051,92.306633 74.689857,92.578156 74.213196,92.894501 
z"/>
<path fill="#74C6A8" opacity="1.000000" stroke="none" 
	d="
M76.283005,84.782181 
	C72.157959,85.214378 69.802902,86.836578 69.906593,91.119194 
	C69.926895,91.957565 69.080734,92.816910 68.066711,93.827301 
	C67.499214,93.988014 67.055840,93.832024 67.055840,93.832024 
	C65.821968,92.384598 64.588089,90.937164 63.151176,89.217529 
	C64.848663,87.816734 66.749184,86.688148 69.089050,85.138840 
	C70.930061,83.403481 72.331726,82.088837 73.733398,80.774200 
	C74.670189,82.035362 75.606972,83.296532 76.283005,84.782181 
z"/>
<path fill="#C0E3EE" opacity="1.000000" stroke="none" 
	d="
M73.803383,80.432220 
	C72.331726,82.088837 70.930061,83.403481 69.209908,84.831459 
	C68.420990,84.395264 67.950569,83.845741 67.243759,82.896446 
	C67.009544,82.329224 67.011696,82.161774 67.311501,81.852409 
	C69.738380,79.471779 71.867599,77.233063 74.331955,74.992332 
	C75.113800,74.976997 75.560524,74.963676 76.007248,74.950363 
	C76.007248,74.950363 76.157585,74.958755 76.235542,74.968689 
	C75.500122,76.682495 74.686745,78.386360 73.803383,80.432220 
z"/>
<path fill="#8E97D8" opacity="1.000000" stroke="none" 
	d="
M40.148956,62.649979 
	C39.474129,64.155876 38.761826,65.250450 37.943138,66.661644 
	C34.109131,66.974281 30.381510,66.970291 26.237339,66.931412 
	C25.820789,66.896507 25.968924,66.468689 25.999756,66.244614 
	C27.325441,61.935570 28.620296,57.850597 29.999668,53.381172 
	C30.811800,52.997475 31.539412,52.998238 32.631836,52.998512 
	C34.144180,54.844627 29.617035,57.785389 34.509468,58.989506 
	C36.541935,58.616081 38.214840,58.232414 40.111481,57.797436 
	C40.111481,58.802368 40.111481,60.520512 40.148956,62.649979 
z"/>
<path fill="#D1D3F7" opacity="1.000000" stroke="none" 
	d="
M54.049133,65.787643 
	C50.478226,61.551056 53.238548,57.135628 53.842957,52.448051 
	C54.356228,51.332253 54.708401,50.554054 55.170101,49.479492 
	C58.508438,48.985950 61.973362,48.344807 62.762432,52.799923 
	C60.428787,53.985123 58.329983,55.051052 55.675240,56.399330 
	C58.354752,58.126957 60.024078,59.203262 61.674469,60.846638 
	C59.356522,62.310974 55.648003,62.698132 60.148567,66.351761 
	C60.526821,68.470566 60.751965,70.238388 60.651985,72.008362 
	C58.688637,71.669083 57.050411,71.327637 55.320831,70.605835 
	C54.836029,68.746208 54.442577,67.266930 54.049133,65.787643 
z"/>
<path fill="#D3DAF5" opacity="1.000000" stroke="none" 
	d="
M59.995464,66.000778 
	C55.648003,62.698132 59.356522,62.310974 61.879227,61.119659 
	C64.966461,62.324326 67.830002,63.823051 70.817917,65.988983 
	C68.950211,70.538338 71.267662,72.841759 73.996826,74.994347 
	C71.867599,77.233063 69.738380,79.471779 67.308220,81.395752 
	C66.306732,75.529778 65.606178,69.978531 64.838219,63.893124 
	C62.402649,64.953125 61.199059,65.476952 59.995464,66.000778 
z"/>
<path fill="#DFD8F2" opacity="1.000000" stroke="none" 
	d="
M74.331955,74.992332 
	C71.267662,72.841759 68.950211,70.538338 70.988274,66.282120 
	C72.446442,66.260681 73.858612,66.613312 75.637390,66.990402 
	C76.023956,67.430000 76.043915,67.845139 76.050125,68.989761 
	C76.076843,70.557961 76.117310,71.396675 76.157784,72.235390 
	C76.125626,72.915146 76.093468,73.594894 76.034286,74.612503 
	C75.560524,74.963676 75.113800,74.976997 74.331955,74.992332 
z"/>
<path fill="#8D96DF" opacity="1.000000" stroke="none" 
	d="
M61.175358,41.117516 
	C61.606892,41.027309 62.177990,41.221489 62.905777,41.677986 
	C62.479950,41.760834 61.897434,41.581367 61.175358,41.117516 
z"/>
<path fill="#4C55C7" opacity="1.000000" stroke="none" 
	d="
M82.673721,32.849045 
	C83.848442,38.989613 83.845016,39.115566 77.767273,38.950085 
	C74.317253,38.856148 70.858131,38.400387 67.453606,37.814220 
	C66.585144,37.664696 65.355057,36.436108 65.300705,35.634823 
	C65.246712,34.838894 66.296455,33.655121 67.159126,33.175121 
	C68.957886,32.174267 70.952538,31.525455 72.937019,30.372921 
	C76.123268,30.904488 79.239197,31.795135 82.673721,32.849045 
z"/>
<path fill="#5560B7" opacity="1.000000" stroke="none" 
	d="
M88.550461,81.467323 
	C88.583908,81.523247 88.517021,81.411400 88.550461,81.467323 
z"/>
<path fill="#4B54AF" opacity="1.000000" stroke="none" 
	d="
M53.645729,65.805382 
	C54.442577,67.266930 54.836029,68.746208 55.208328,70.943604 
	C54.450844,73.103394 53.714512,74.545074 52.707550,75.903763 
	C51.934433,75.598274 51.431942,75.375786 50.610756,75.106857 
	C49.863037,75.044724 49.434010,75.029030 49.004982,75.013336 
	C47.833237,72.661224 43.657166,71.253609 46.820156,67.231247 
	C49.060986,66.525383 51.151657,66.174248 53.645729,65.805382 
z"/>
<path fill="#C6F9EB" opacity="1.000000" stroke="none" 
	d="
M66.622551,93.869774 
	C67.055840,93.832024 67.499214,93.988014 67.733368,94.005035 
	C67.976509,94.458977 67.985489,94.895882 68.046448,95.656769 
	C67.461220,97.428802 66.823997,98.876862 66.033554,100.626785 
	C64.528343,100.942131 63.176365,100.955635 61.421570,100.897858 
	C57.753181,94.554878 57.892296,94.368721 66.622551,93.869774 
z"/>
<path fill="#C5D3F2" opacity="1.000000" stroke="none" 
	d="
M52.978180,75.986755 
	C53.714512,74.545074 54.450844,73.103394 55.299679,71.323944 
	C57.050411,71.327637 58.688637,71.669083 60.870590,72.299400 
	C61.934547,74.385414 62.454781,76.182549 62.975018,77.979691 
	C60.224991,78.988853 57.474964,79.998016 54.374699,80.633774 
	C53.675701,78.835823 53.326939,77.411293 52.978180,75.986755 
z"/>
<path fill="#DBDBE8" opacity="1.000000" stroke="none" 
	d="
M63.241554,78.185814 
	C62.454781,76.182549 61.934547,74.385414 61.195713,72.297241 
	C60.751965,70.238388 60.526821,68.470566 60.148567,66.351761 
	C61.199059,65.476952 62.402649,64.953125 64.838219,63.893124 
	C65.606178,69.978531 66.306732,75.529778 67.010567,81.537674 
	C67.011696,82.161774 67.009544,82.329224 67.009796,82.747864 
	C66.262703,83.004723 65.513199,83.010414 64.389702,83.026596 
	C64.009781,82.864670 64.003860,82.692253 63.995621,82.010071 
	C63.992435,81.332954 63.991573,81.165611 63.990707,80.998260 
	C63.829834,80.129486 63.668964,79.260712 63.241554,78.185814 
z"/>
<path fill="#A1A3CD" opacity="1.000000" stroke="none" 
	d="
M52.707550,75.903763 
	C53.326939,77.411293 53.675701,78.835823 54.033012,80.632172 
	C50.296242,85.242241 48.438534,84.905754 46.278042,79.086334 
	C47.855503,79.621124 49.084656,80.037827 50.595531,80.550049 
	C50.752937,79.568092 50.900627,78.646759 51.024960,77.052322 
	C50.977551,75.970581 50.953499,75.561935 50.929451,75.153290 
	C51.431942,75.375786 51.934433,75.598274 52.707550,75.903763 
z"/>
<path fill="#D9DFF0" opacity="1.000000" stroke="none" 
	d="
M62.729828,84.031990 
	C62.471668,84.503487 61.907589,84.988953 61.165771,85.251999 
	C61.466652,84.701714 61.945278,84.373833 62.729828,84.031990 
z"/>
<path fill="#CDCEEA" opacity="1.000000" stroke="none" 
	d="
M50.610756,75.106857 
	C50.953499,75.561935 50.977551,75.970581 50.998703,76.686417 
	C50.356506,76.546799 49.717209,76.099968 49.041447,75.333237 
	C49.434010,75.029030 49.863037,75.044724 50.610756,75.106857 
z"/>
<path fill="#D9DFF0" opacity="1.000000" stroke="none" 
	d="
M63.825554,81.088173 
	C63.991573,81.165611 63.992435,81.332954 63.991409,81.751335 
	C63.879810,81.727608 63.770103,81.452843 63.825554,81.088173 
z"/>
<path fill="#C0E3EE" opacity="1.000000" stroke="none" 
	d="
M76.479950,72.124184 
	C76.117310,71.396675 76.076843,70.557961 76.070435,69.300957 
	C76.337044,69.926102 76.569580,70.969543 76.479950,72.124184 
z"/>
</svg>