<svg version="1.1" id="Layer_1" xmlns="http://www.w3.org/2000/svg" xmlns:xlink="http://www.w3.org/1999/xlink" x="0px" y="0px"
	 width="100%" viewBox="0 0 204 161" enable-background="new 0 0 204 161" xml:space="preserve">
<path fill="#FEFEFE" opacity="1.000000" stroke="none" 
	d="
M205.000000,66.000000 
	C205.000000,98.333336 205.000000,130.166672 205.000000,162.000000 
	C137.000000,162.000000 69.000000,162.000000 1.000000,162.000000 
	C1.000000,108.333336 1.000000,54.666668 1.000000,1.000000 
	C69.000000,1.000000 137.000000,1.000000 205.000000,1.000000 
	C205.000000,22.500000 205.000000,44.000000 205.000000,66.000000 
M64.783592,130.608078 
	C64.834656,132.069046 64.885719,133.530029 64.898354,135.622360 
	C64.812614,136.034790 64.726875,136.447235 64.134148,137.019653 
	C64.083435,137.679062 64.032722,138.338486 63.943306,139.756577 
	C63.906834,140.515335 63.870361,141.274109 63.393055,142.463852 
	C64.008522,145.653336 65.773918,145.508881 68.794411,144.019531 
	C69.864357,144.020447 70.934311,144.021347 72.456718,144.562286 
	C74.301704,145.017136 76.146698,145.471985 78.864853,145.968094 
	C79.864433,145.976166 80.878487,146.098831 81.861374,145.974686 
	C92.582298,144.620636 94.767097,141.139236 94.043686,133.370239 
	C93.843765,131.223343 94.176010,129.028214 93.993973,126.878075 
	C93.599068,122.213730 96.176590,121.800774 99.931969,122.100281 
	C109.333076,122.850029 118.756035,123.325737 128.161713,124.700302 
	C128.365616,126.463371 128.569504,128.226440 128.643372,130.282196 
	C128.643372,130.282196 128.668213,130.601486 128.037857,130.937729 
	C127.107903,133.020721 125.827950,135.023224 125.326347,137.204712 
	C124.479004,140.889893 125.350883,143.606049 130.889603,142.850433 
	C132.245148,142.865204 133.600693,142.879974 135.468155,143.014160 
	C135.642792,143.023392 135.817413,143.032608 136.523819,143.583496 
	C139.016953,143.396179 141.510101,143.208862 144.875641,143.028107 
	C154.405060,142.970184 155.559280,142.318298 154.886734,132.799362 
	C153.841690,118.008888 156.785446,103.608269 158.182877,89.058937 
	C158.266586,88.187447 160.611679,86.739365 161.705444,86.901604 
	C165.605728,87.480103 169.390839,89.241882 173.273972,89.429489 
	C178.501572,89.682045 183.779617,88.890274 189.686783,88.635399 
	C191.213150,87.619797 192.739502,86.604195 195.032333,85.764465 
	C201.771744,85.028030 195.968689,78.485870 200.285553,76.443047 
	C195.119690,73.040596 190.333389,74.019516 185.676422,74.939651 
	C181.717056,75.721939 177.852859,76.985748 173.473114,78.029648 
	C173.473114,78.029648 173.000610,77.999321 172.858185,77.265205 
	C169.574997,76.500389 166.291809,75.735580 162.343643,74.976250 
	C161.900482,74.964561 161.457336,74.952873 160.914352,74.307381 
	C160.258774,73.883148 159.603195,73.458923 158.154999,73.037842 
	C152.542542,73.675934 150.763672,68.178268 146.817322,65.321320 
	C143.803696,62.820221 141.321884,59.168884 135.693298,60.493160 
	C132.964447,60.521713 130.235596,60.550266 126.790756,60.248009 
	C125.534523,60.642281 124.278297,61.036549 122.105995,61.623653 
	C116.423515,61.450188 110.741028,61.276722 104.593269,60.472397 
	C101.718834,59.992332 98.844391,59.512264 95.314880,58.947811 
	C94.876114,58.910210 94.437347,58.872612 93.645462,58.139172 
	C93.437744,55.881741 93.230026,53.624310 93.002731,51.154095 
	C95.445320,51.371395 96.942123,51.504551 98.666168,51.657925 
	C98.296204,49.657341 98.006172,48.088993 97.721741,46.217072 
	C97.721741,46.217072 97.903770,45.974056 98.523560,45.948788 
	C98.637199,45.284752 98.750839,44.620716 98.931931,43.305912 
	C99.067169,42.892174 99.202400,42.478439 100.018417,41.826294 
	C102.967674,35.781433 102.466026,29.517281 100.920799,23.291710 
	C100.685799,22.344913 98.988037,21.761187 97.621567,20.710583 
	C97.401169,20.500282 97.189903,20.281183 96.905991,19.337742 
	C94.270256,18.226532 91.634514,17.115322 88.901649,15.245590 
	C87.937866,14.504870 87.069016,13.323441 85.995483,13.092175 
	C76.169273,10.975368 68.232430,14.210117 61.553059,22.168457 
	C61.277721,22.366734 61.075275,22.622665 60.119915,22.972368 
	C54.492558,24.680153 48.839314,25.964542 42.980331,23.205128 
	C40.835831,18.629452 31.537466,18.510794 27.328350,23.003771 
	C27.889215,24.342268 28.450079,25.680767 28.489660,27.434664 
	C27.284412,29.247137 26.079166,31.059610 24.254642,33.057556 
	C23.853741,33.741245 23.452839,34.424934 22.761698,35.607655 
	C22.048994,36.513203 21.336290,37.418751 19.929012,38.167210 
	C19.459459,38.415344 18.989908,38.663479 18.520355,38.911613 
	C19.054779,39.267109 19.589203,39.622604 20.184841,40.789845 
	C20.214724,41.873764 20.244606,42.957680 19.511433,44.070637 
	C18.865261,45.401085 17.317728,47.426563 17.720152,47.948452 
	C20.211033,51.178802 23.140392,54.071053 26.026470,57.626087 
	C26.707003,58.075344 27.387533,58.524605 28.588409,59.520374 
	C30.280588,62.387344 32.641850,61.484890 35.109634,61.344173 
	C36.086239,62.880116 37.062847,64.416054 38.005875,66.698326 
	C40.931488,70.324295 43.971249,73.865189 46.753242,77.598190 
	C50.080471,82.062798 54.160538,84.979156 60.028000,85.794304 
	C61.293926,88.545418 62.559853,91.296524 64.318695,94.488274 
	C64.514641,95.337761 64.710587,96.187248 64.417290,97.423347 
	C64.916565,98.290520 65.415833,99.157700 66.045456,100.735283 
	C66.528389,102.042923 67.011322,103.350555 67.261749,105.465752 
	C67.469116,109.306282 67.676491,113.146812 67.868301,117.614571 
	C67.820824,118.030006 67.773338,118.445442 67.064598,119.134964 
	C66.817863,120.506325 66.571129,121.877686 66.260948,123.933029 
	C66.244705,124.619545 66.228470,125.306068 65.610146,126.411911 
	C65.437309,127.599770 65.264473,128.787628 64.783592,130.608078 
M97.263573,7.977484 
	C93.703537,7.581797 90.143501,7.186109 85.644386,6.686044 
	C88.024490,11.625729 91.179543,12.395213 94.538643,11.840537 
	C95.735321,11.642937 96.656242,9.775371 97.263573,7.977484 
z"/>
<path fill="#DBDCED" opacity="1.000000" stroke="none" 
	d="
M161.014175,74.941177 
	C161.457336,74.952873 161.900482,74.964561 162.901489,75.252502 
	C166.639755,76.352280 169.820190,77.175797 173.000610,77.999321 
	C173.000610,77.999321 173.473114,78.029648 173.808350,78.409355 
	C177.345505,79.765923 180.547440,80.742783 183.744354,81.959793 
	C185.460037,82.901268 187.180695,83.602600 188.704422,84.223656 
	C188.828339,85.839119 188.932175,87.192924 189.036011,88.546722 
	C183.779617,88.890274 178.501572,89.682045 173.273972,89.429489 
	C169.390839,89.241882 165.605728,87.480103 161.705444,86.901604 
	C160.611679,86.739365 158.266586,88.187447 158.182877,89.058937 
	C156.785446,103.608269 153.841690,118.008888 154.886734,132.799362 
	C155.559280,142.318298 154.405060,142.970184 144.437393,142.614441 
	C143.314941,137.728470 142.783310,133.225739 141.900085,128.793076 
	C141.141281,124.984886 140.173279,121.189606 138.896729,117.528465 
	C138.431549,116.194382 136.911179,114.521004 135.686447,114.352463 
	C134.391281,114.174232 132.315613,115.249565 131.579407,116.410538 
	C130.314240,118.405670 129.824295,120.892365 128.840027,123.259666 
	C128.465469,123.500534 128.298508,123.688797 128.170227,123.911385 
	C118.756035,123.325737 109.333076,122.850029 99.931969,122.100281 
	C96.176590,121.800774 93.599068,122.213730 93.993973,126.878075 
	C94.176010,129.028214 93.843765,131.223343 94.043686,133.370239 
	C94.767097,141.139236 92.582298,144.620636 81.861374,145.974686 
	C80.878487,146.098831 79.864433,145.976166 78.392380,145.600433 
	C77.947701,140.979584 77.936768,136.725525 78.031822,132.473846 
	C78.054245,131.471069 78.433548,130.476288 78.771416,128.908173 
	C80.575043,132.712143 82.064171,135.852814 83.553299,138.993469 
	C84.199951,139.024292 84.846596,139.055115 85.493248,139.085938 
	C86.892929,135.371201 89.001968,131.742752 89.467644,127.914406 
	C89.839539,124.856972 88.052155,122.067345 83.810852,121.827690 
	C81.956596,121.722923 79.490189,120.129433 78.578094,118.498291 
	C77.131638,115.911530 76.756798,112.725555 76.080566,109.501724 
	C81.033707,100.503120 86.931862,92.273209 88.455154,81.984215 
	C90.223404,82.992859 91.618233,83.994576 92.620972,85.007530 
	C87.672440,86.399315 88.769112,90.309288 89.289902,93.182129 
	C89.563087,94.689064 92.343399,95.741508 94.029907,97.356171 
	C95.143311,102.590126 98.677132,101.529495 101.960770,101.343300 
	C101.084145,103.667503 98.882240,105.710854 102.182953,107.495171 
	C105.538094,109.308899 108.168259,108.856262 109.715263,105.077438 
	C108.343887,101.374382 106.344154,98.949989 101.995476,100.556000 
	C101.998802,98.078087 102.001541,96.037315 102.387451,94.002350 
	C104.848473,94.670174 106.926315,95.332214 109.003593,96.383263 
	C110.185150,103.114716 118.443214,105.928421 123.656120,101.874191 
	C125.562157,100.391800 127.753700,99.269150 129.847748,98.038116 
	C131.747360,96.921379 133.691467,95.880379 135.615967,94.805992 
	C133.574158,94.203308 131.533188,93.597771 129.488876,93.003716 
	C129.335968,92.959274 129.159149,92.997025 129.143890,92.690834 
	C132.865326,90.251999 136.436325,88.118912 140.392578,86.036064 
	C143.103043,85.787918 145.428223,85.489532 147.753418,85.191154 
	C146.499329,83.790192 145.245255,82.389221 143.994568,80.615776 
	C147.169907,76.240356 148.707657,72.074463 145.391190,67.341713 
	C145.348633,67.280968 146.376801,66.469902 146.905197,66.009056 
	C150.763672,68.178268 152.542542,73.675934 158.611084,73.351028 
	C159.716156,74.089867 160.365173,74.515526 161.014175,74.941177 
M129.001923,100.596626 
	C127.755768,102.389015 126.509613,104.181404 125.263458,105.973793 
	C127.155556,106.597450 129.349045,108.103012 130.852417,107.589241 
	C132.270126,107.104744 133.684418,104.540230 133.794388,102.807838 
	C133.941513,100.489693 132.467834,98.700584 129.001923,100.596626 
z"/>
<path fill="#CFDFEC" opacity="1.000000" stroke="none" 
	d="
M63.825779,94.047638 
	C62.559853,91.296524 61.293926,88.545418 60.298992,85.274506 
	C61.385902,83.507629 62.201820,82.260551 63.340950,80.978790 
	C64.790215,79.620659 65.916267,78.297218 67.376678,76.828384 
	C69.680672,76.503883 71.650314,76.324783 73.473244,76.159027 
	C72.317451,73.468330 71.147568,70.744820 70.264618,67.757141 
	C71.172546,64.600716 71.844612,61.754627 68.774139,59.603973 
	C68.348000,59.305492 68.329903,57.446640 68.737785,57.146923 
	C69.493813,56.591385 71.094444,56.146809 71.641617,56.567890 
	C72.688004,57.373146 73.242554,58.817516 74.000641,60.384499 
	C73.710457,65.691948 78.418831,65.371696 80.950325,66.316429 
	C82.261543,66.805771 85.011948,63.438732 87.475960,61.927372 
	C88.216148,63.692577 88.592545,65.344345 88.670723,67.151672 
	C84.498444,72.129845 80.624367,76.952446 76.437782,81.811035 
	C75.408363,82.217690 74.691444,82.588356 73.728775,82.961304 
	C73.483017,82.963577 73.000519,83.057381 72.626511,83.040512 
	C70.139359,84.268967 68.026215,85.514290 65.522232,86.812378 
	C60.143940,88.431801 65.146317,91.814407 63.825779,94.047638 
z"/>
<path fill="#979DD0" opacity="1.000000" stroke="none" 
	d="
M64.641136,136.859665 
	C64.726875,136.447235 64.812614,136.034790 65.216263,135.073608 
	C65.713875,133.011917 65.893570,131.498978 66.186684,129.692581 
	C66.270813,128.263626 66.241524,127.128105 66.212234,125.992584 
	C66.228470,125.306068 66.244705,124.619545 66.612152,123.437119 
	C67.217522,121.581093 67.471695,120.220985 67.725861,118.860878 
	C67.773338,118.445442 67.820824,118.030006 68.159721,117.084061 
	C68.974838,114.704132 69.498535,112.854729 70.354492,111.001633 
	C71.342308,111.001587 71.997871,111.005234 72.763161,111.372520 
	C73.903107,113.938606 75.680122,116.091064 75.831497,118.352348 
	C76.419403,127.134338 75.709747,135.830505 72.004257,144.022247 
	C70.934311,144.021347 69.864357,144.020447 68.201309,143.763107 
	C66.350105,143.015411 65.091995,142.524139 63.833893,142.032867 
	C63.870361,141.274109 63.906834,140.515335 64.217583,139.198471 
	C64.541618,138.046799 64.591377,137.453232 64.641136,136.859665 
z"/>
<path fill="#D8D9F3" opacity="1.000000" stroke="none" 
	d="
M72.230484,144.292267 
	C75.709747,135.830505 76.419403,127.134338 75.831497,118.352348 
	C75.680122,116.091064 73.903107,113.938606 73.029678,111.119690 
	C74.100510,110.266510 75.014542,110.029800 75.928581,109.793091 
	C76.756798,112.725555 77.131638,115.911530 78.578094,118.498291 
	C79.490189,120.129433 81.956596,121.722923 83.810852,121.827690 
	C88.052155,122.067345 89.839539,124.856972 89.467644,127.914406 
	C89.001968,131.742752 86.892929,135.371201 85.493248,139.085938 
	C84.846596,139.055115 84.199951,139.024292 83.553299,138.993469 
	C82.064171,135.852814 80.575043,132.712143 78.771416,128.908173 
	C78.433548,130.476288 78.054245,131.471069 78.031822,132.473846 
	C77.936768,136.725525 77.947701,140.979584 77.955795,145.579803 
	C76.146698,145.471985 74.301704,145.017136 72.230484,144.292267 
z"/>
<path fill="#D9D9F6" opacity="1.000000" stroke="none" 
	d="
M129.008926,123.172714 
	C129.824295,120.892365 130.314240,118.405670 131.579407,116.410538 
	C132.315613,115.249565 134.391281,114.174232 135.686447,114.352463 
	C136.911179,114.521004 138.431549,116.194382 138.896729,117.528465 
	C140.173279,121.189606 141.141281,124.984886 141.900085,128.793076 
	C142.783310,133.225739 143.314941,137.728470 144.001190,142.611160 
	C141.510101,143.208862 139.016953,143.396179 136.417664,142.922318 
	C136.528000,137.498642 136.854553,132.736633 136.875504,127.973282 
	C136.880127,126.920387 135.803497,125.862747 134.959412,124.553497 
	C132.799042,123.924049 130.903976,123.548386 129.008926,123.172714 
z"/>
<path fill="#DBDEF1" opacity="1.000000" stroke="none" 
	d="
M63.017746,81.013474 
	C62.201820,82.260551 61.385902,83.507629 60.243931,84.897842 
	C54.160538,84.979156 50.080471,82.062798 46.753242,77.598190 
	C43.971249,73.865189 40.931488,70.324295 38.278217,66.455276 
	C39.431469,66.476494 40.312378,66.740768 41.615410,67.004639 
	C45.437199,66.934738 49.228024,67.929543 50.903801,63.387257 
	C51.055534,62.975971 52.698578,63.114872 53.739143,63.255096 
	C53.807034,63.691677 53.784855,63.871441 53.588604,64.164566 
	C53.207306,64.476097 53.071026,64.714813 53.005188,65.406784 
	C52.651623,67.741676 52.609837,69.791130 51.885891,71.561661 
	C49.885937,76.452850 50.503693,77.561249 56.058548,78.353317 
	C58.419296,79.482513 60.718521,80.247993 63.017746,81.013474 
z"/>
<path fill="#F4F8FB" opacity="1.000000" stroke="none" 
	d="
M183.749359,81.719643 
	C180.547440,80.742783 177.345505,79.765923 174.045074,78.412788 
	C177.852859,76.985748 181.717056,75.721939 185.676422,74.939651 
	C190.333389,74.019516 195.119690,73.040596 200.285553,76.443047 
	C195.968689,78.485870 201.771744,85.028030 194.744568,85.310959 
	C195.163834,81.983490 193.980072,80.831764 191.114487,81.113449 
	C188.663269,81.354401 186.204681,81.520454 183.749359,81.719643 
z"/>
<path fill="#6D72B2" opacity="1.000000" stroke="none" 
	d="
M97.903770,45.974056 
	C97.903770,45.974056 97.721741,46.217072 97.390915,46.510719 
	C95.055122,46.876259 93.050163,46.948151 90.810654,46.858074 
	C90.322510,46.202911 90.068909,45.709721 90.213837,45.160301 
	C94.480003,44.935394 96.909042,43.097767 97.019485,39.078537 
	C97.135437,34.858276 97.766792,30.406622 96.654579,26.486921 
	C95.946190,23.990410 92.775505,21.266865 90.160721,20.489874 
	C87.386314,19.665447 83.416687,18.091881 80.533730,21.953346 
	C79.109879,21.946877 78.074394,21.940025 76.904648,21.659733 
	C76.499207,20.844398 76.228020,20.302505 76.128067,19.462786 
	C78.216179,18.491596 80.133057,17.818233 82.442284,17.175554 
	C83.881523,17.159176 84.928406,17.112116 86.253395,17.311205 
	C90.016922,18.389332 93.502342,19.221308 96.987770,20.053282 
	C97.189903,20.281183 97.401169,20.500282 97.908485,21.227724 
	C98.779633,24.092651 99.792404,26.428972 99.855576,28.790697 
	C99.973747,33.207588 99.541115,37.639210 99.337631,42.064705 
	C99.202400,42.478439 99.067169,42.892174 98.642128,43.789753 
	C98.202805,44.840412 98.053284,45.407234 97.903770,45.974056 
z"/>
<path fill="#E3E8F6" opacity="1.000000" stroke="none" 
	d="
M42.988640,24.019760 
	C48.839314,25.964542 54.492558,24.680153 60.547729,23.203182 
	C60.975544,23.433994 60.988430,23.931143 60.690125,24.022528 
	C59.908539,24.738110 59.425259,25.362307 58.559402,25.987793 
	C55.477936,26.982454 52.779049,27.975826 49.848312,28.948158 
	C49.616463,28.927116 49.154224,28.983034 49.080730,28.618757 
	C45.632011,28.375082 42.256790,28.495686 38.571556,28.695311 
	C37.849594,28.880648 37.437641,28.986965 36.642754,29.042927 
	C32.595493,30.417301 28.931170,31.842031 25.168514,33.168194 
	C25.070181,33.069626 24.873920,32.872086 24.873920,32.872086 
	C26.079166,31.059610 27.284412,29.247137 29.140781,27.225517 
	C34.190815,26.017500 38.589729,25.018631 42.988640,24.019760 
z"/>
<path fill="#5C65AF" opacity="1.000000" stroke="none" 
	d="
M127.506752,60.578819 
	C130.235596,60.550266 132.964447,60.521713 136.312378,60.802357 
	C143.065750,63.120594 143.825684,64.382599 142.503281,70.956955 
	C141.917419,73.869614 141.089020,76.733482 140.074768,79.710716 
	C138.963150,80.052208 138.147522,80.302483 137.233871,80.129562 
	C137.090546,79.136261 137.045227,78.566162 137.013138,77.627327 
	C137.688248,75.511818 138.350128,73.765030 139.262955,71.806458 
	C137.813766,64.048203 137.003281,63.389664 129.572922,62.951027 
	C128.354904,62.879120 127.168541,62.270840 126.192947,61.778412 
	C126.781158,61.290520 127.143951,60.934669 127.506752,60.578819 
z"/>
<path fill="#F8FCFD" opacity="1.000000" stroke="none" 
	d="
M85.975296,17.065054 
	C84.928406,17.112116 83.881523,17.159176 82.228882,16.887762 
	C77.934906,17.627869 72.963860,15.430009 70.755623,20.889790 
	C70.549408,21.010490 70.072319,21.037931 69.653450,20.996235 
	C66.820175,21.282309 64.405769,21.610079 61.991367,21.937847 
	C68.232430,14.210117 76.169273,10.975368 85.995483,13.092175 
	C87.069016,13.323441 87.937866,14.504870 88.605942,15.629386 
	C87.531914,16.363806 86.753609,16.714430 85.975296,17.065054 
z"/>
<path fill="#9396CE" opacity="1.000000" stroke="none" 
	d="
M41.193287,67.005035 
	C40.312378,66.740768 39.431469,66.476494 38.295006,66.082108 
	C37.062847,64.416054 36.086239,62.880116 34.987694,60.843437 
	C34.865749,60.342701 34.902424,60.003021 35.307327,60.002930 
	C42.930958,60.870792 42.930901,60.870792 43.032139,53.389351 
	C43.034374,53.224117 43.042072,53.058952 43.376068,52.898769 
	C45.138630,51.595604 46.572346,50.287426 48.042946,49.310631 
	C48.505363,50.106152 48.930901,50.570290 49.354149,51.242645 
	C49.489944,51.723896 49.711246,51.876389 50.023129,51.942612 
	C50.030495,51.976883 50.100586,51.975464 50.080833,52.348701 
	C47.105148,57.482971 44.149220,62.244003 41.193287,67.005035 
z"/>
<path fill="#76C7A7" opacity="1.000000" stroke="none" 
	d="
M64.072235,94.267960 
	C65.146317,91.814407 60.143940,88.431801 65.705109,87.098511 
	C68.519386,85.907043 70.759949,84.482208 73.000519,83.057373 
	C73.000519,83.057381 73.483017,82.963577 73.874382,83.284180 
	C74.820175,85.132820 75.374603,86.660851 75.531921,88.158470 
	C72.939934,88.876442 70.745056,89.624832 68.550171,90.373215 
	C69.438957,92.471245 70.310776,94.576752 71.230423,96.661163 
	C71.420990,97.093102 71.789177,97.446663 71.933563,98.144928 
	C70.859749,98.971146 69.927864,99.488777 68.722656,99.894058 
	C67.720413,99.508308 66.991493,99.234894 66.156662,98.668701 
	C65.669342,97.929535 65.287941,97.483131 64.906532,97.036736 
	C64.710587,96.187248 64.514641,95.337761 64.072235,94.267960 
z"/>
<path fill="#9598CF" opacity="1.000000" stroke="none" 
	d="
M128.668213,130.601486 
	C128.668213,130.601486 128.643372,130.282196 129.161865,130.139694 
	C131.460190,129.996506 133.240036,129.995804 135.021057,130.458374 
	C135.000229,134.912689 134.978241,138.903717 134.956238,142.894745 
	C133.600693,142.879974 132.245148,142.865204 130.390945,142.451065 
	C127.363609,140.389954 126.594131,138.326767 127.880501,135.384415 
	C128.507797,133.949570 128.427963,132.205551 128.668213,130.601486 
z"/>
<path fill="#C5CCEE" opacity="1.000000" stroke="none" 
	d="
M140.370728,79.619499 
	C141.089020,76.733482 141.917419,73.869614 142.503281,70.956955 
	C143.825684,64.382599 143.065750,63.120594 136.720993,60.833786 
	C141.321884,59.168884 143.803696,62.820221 146.861267,65.665192 
	C146.376801,66.469902 145.348633,67.280968 145.391190,67.341713 
	C148.707657,72.074463 147.169907,76.240356 143.754868,80.609192 
	C143.511765,80.975098 143.032928,80.944267 142.780197,80.664932 
	C141.808548,80.130234 141.089645,79.874863 140.370728,79.619499 
z"/>
<path fill="#FBFDF4" opacity="1.000000" stroke="none" 
	d="
M42.984486,23.612444 
	C38.589729,25.018631 34.190815,26.017500 29.401424,27.017818 
	C28.450079,25.680767 27.889215,24.342268 27.326294,23.004555 
	C31.537466,18.510794 40.835831,18.629452 42.984486,23.612444 
z"/>
<path fill="#868AA4" opacity="1.000000" stroke="none" 
	d="
M183.744354,81.959793 
	C186.204681,81.520454 188.663269,81.354401 191.114487,81.113449 
	C193.980072,80.831764 195.163834,81.983490 194.361328,85.223022 
	C192.739502,86.604195 191.213150,87.619797 189.361389,88.591064 
	C188.932175,87.192924 188.828339,85.839119 188.704422,84.223656 
	C187.180695,83.602600 185.460037,82.901268 183.744354,81.959793 
z"/>
<path fill="#DFE3F7" opacity="1.000000" stroke="none" 
	d="
M91.045197,47.020042 
	C93.050163,46.948151 95.055122,46.876259 97.388115,46.662506 
	C98.006172,48.088993 98.296204,49.657341 98.666168,51.657925 
	C96.942123,51.504551 95.445320,51.371395 93.002731,51.154095 
	C93.230026,53.624310 93.437744,55.881741 93.713577,58.749950 
	C93.463478,59.822441 93.145256,60.284149 92.725800,60.982857 
	C92.433655,61.501789 92.242737,61.783718 91.753258,61.769772 
	C91.205139,57.309013 90.955589,53.144131 90.799805,48.659611 
	C90.944115,47.899998 90.994659,47.460018 91.045197,47.020042 
z"/>
<path fill="#FEFEF5" opacity="1.000000" stroke="none" 
	d="
M97.483307,8.323789 
	C96.656242,9.775371 95.735321,11.642937 94.538643,11.840537 
	C91.179543,12.395213 88.024490,11.625729 85.644386,6.686044 
	C90.143501,7.186109 93.703537,7.581797 97.483307,8.323789 
z"/>
<path fill="#6B71B4" opacity="1.000000" stroke="none" 
	d="
M20.623589,38.324299 
	C21.336290,37.418751 22.048994,36.513203 23.203609,35.352711 
	C24.029799,35.002483 24.414074,34.907200 24.885426,34.894196 
	C24.972500,34.976482 25.144047,35.142353 25.091387,35.498291 
	C25.022512,36.579227 25.006298,37.304230 24.980762,38.418022 
	C24.960932,39.843800 24.950422,40.880783 24.588070,42.003529 
	C22.115944,44.367184 22.507721,46.341465 24.958483,48.295517 
	C24.958286,48.524155 24.979006,48.980965 24.945152,49.403557 
	C24.771208,50.373699 24.631117,50.921249 24.219826,51.370323 
	C23.576727,50.835510 23.204830,50.399178 22.805634,49.715118 
	C22.542419,49.244064 22.306501,49.020741 22.056440,48.467674 
	C21.453028,46.772484 20.863756,45.407043 20.274487,44.041599 
	C20.244606,42.957680 20.214724,41.873764 20.285595,40.124142 
	C20.465427,39.080391 20.544508,38.702347 20.623589,38.324299 
z"/>
<path fill="#E7ECF8" opacity="1.000000" stroke="none" 
	d="
M22.832933,49.962845 
	C23.204830,50.399178 23.576727,50.835510 24.241140,51.387383 
	C24.533655,51.502926 24.581966,51.531658 24.610294,51.859333 
	C25.241764,53.645920 25.844906,55.104836 26.316982,56.691620 
	C26.185917,56.819492 25.924128,57.075588 25.924129,57.075588 
	C23.140392,54.071053 20.211033,51.178802 17.720152,47.948452 
	C17.317728,47.426563 18.865261,45.401085 19.892960,44.056118 
	C20.863756,45.407043 21.453028,46.772484 22.103439,48.709053 
	C22.297388,49.595875 22.520172,49.823433 22.832933,49.962845 
z"/>
<path fill="#5C65AF" opacity="1.000000" stroke="none" 
	d="
M105.058548,61.103256 
	C110.741028,61.276722 116.423515,61.450188 122.538055,61.697193 
	C122.970116,61.770733 122.968140,62.113476 122.883026,62.490799 
	C117.620720,63.567310 112.453415,64.383858 107.254196,64.821060 
	C106.584473,64.877373 105.749352,62.966946 105.036179,61.753723 
	C105.081505,61.539864 105.058548,61.103256 105.058548,61.103256 
z"/>
<path fill="#999DC8" opacity="1.000000" stroke="none" 
	d="
M135.019882,129.995117 
	C133.240036,129.995804 131.460190,129.996506 129.226868,129.993347 
	C128.569504,128.226440 128.365616,126.463371 128.165970,124.305847 
	C128.298508,123.688797 128.465469,123.500534 128.840027,123.259659 
	C130.903976,123.548386 132.799042,123.924049 134.892670,124.987167 
	C135.067459,127.114784 135.043671,128.554947 135.019882,129.995117 
z"/>
<path fill="#DFE3F7" opacity="1.000000" stroke="none" 
	d="
M99.678024,41.945499 
	C99.541115,37.639210 99.973747,33.207588 99.855576,28.790697 
	C99.792404,26.428972 98.779633,24.092651 98.081123,21.377197 
	C98.988037,21.761187 100.685799,22.344913 100.920799,23.291710 
	C102.466026,29.517281 102.967674,35.781433 99.678024,41.945499 
z"/>
<path fill="#B4B3D9" opacity="1.000000" stroke="none" 
	d="
M135.021057,130.458389 
	C135.043671,128.554947 135.067459,127.114784 135.158005,125.240952 
	C135.803497,125.862747 136.880127,126.920387 136.875504,127.973282 
	C136.854553,132.736633 136.528000,137.498642 136.151764,142.651489 
	C135.817413,143.032608 135.642792,143.023392 135.212204,142.954453 
	C134.978241,138.903717 135.000229,134.912689 135.021057,130.458389 
z"/>
<path fill="#B4B3D9" opacity="1.000000" stroke="none" 
	d="
M128.353027,130.769608 
	C128.427963,132.205551 128.507797,133.949570 127.880501,135.384415 
	C126.594131,138.326767 127.363609,140.389954 129.992493,142.364197 
	C125.350883,143.606049 124.479004,140.889893 125.326347,137.204712 
	C125.827950,135.023224 127.107903,133.020721 128.353027,130.769608 
z"/>
<path fill="#CFDAEB" opacity="1.000000" stroke="none" 
	d="
M70.022247,111.005318 
	C69.498535,112.854729 68.974838,114.704132 68.167496,116.770447 
	C67.676491,113.146812 67.469116,109.306282 67.621918,105.146500 
	C68.329460,104.874382 68.676834,104.921524 69.055389,105.287430 
	C69.411629,106.387680 69.736687,107.169167 70.027641,108.331329 
	C70.003105,109.476448 70.012672,110.240883 70.022247,111.005318 
z"/>
<path fill="#DFE3F7" opacity="1.000000" stroke="none" 
	d="
M86.253395,17.311205 
	C86.753609,16.714430 87.531914,16.363806 88.654503,16.008648 
	C91.634514,17.115322 94.270256,18.226532 96.946884,19.695511 
	C93.502342,19.221308 90.016922,18.389332 86.253395,17.311205 
z"/>
<path fill="#D5DAF4" opacity="1.000000" stroke="none" 
	d="
M61.772213,22.053152 
	C64.405769,21.610079 66.820175,21.282309 69.606461,21.346645 
	C68.570686,22.432230 67.163040,23.125711 65.360405,23.850571 
	C63.639759,23.898348 62.314095,23.914745 60.988430,23.931143 
	C60.988430,23.931143 60.975544,23.433994 60.960632,23.185123 
	C61.075275,22.622665 61.277721,22.366734 61.772213,22.053152 
z"/>
<path fill="#F4F8FB" opacity="1.000000" stroke="none" 
	d="
M172.929398,77.632263 
	C169.820190,77.175797 166.639755,76.352280 163.233978,75.249771 
	C166.291809,75.735580 169.574997,76.500389 172.929398,77.632263 
z"/>
<path fill="#C5CCEE" opacity="1.000000" stroke="none" 
	d="
M104.825912,60.787827 
	C105.058548,61.103256 105.081505,61.539864 104.652237,61.693924 
	C102.482414,61.621777 100.741844,61.395565 98.623749,61.109852 
	C97.483429,61.058334 96.720657,61.066315 96.019791,61.045036 
	C96.081703,61.015778 96.080292,60.878830 96.044876,60.572166 
	C95.996300,59.854401 95.983131,59.443298 95.969955,59.032200 
	C98.844391,59.512264 101.718834,59.992332 104.825912,60.787827 
z"/>
<path fill="#87C8B4" opacity="1.000000" stroke="none" 
	d="
M69.024216,104.968658 
	C68.676834,104.921524 68.329460,104.874382 67.738167,104.742722 
	C67.011322,103.350555 66.528389,102.042923 66.065353,100.113541 
	C66.144363,99.315025 66.203461,99.138252 66.262566,98.961487 
	C66.991493,99.234894 67.720413,99.508308 68.725189,100.307884 
	C69.008774,102.212257 69.016495,103.590454 69.024216,104.968658 
z"/>
<path fill="#6B71B4" opacity="1.000000" stroke="none" 
	d="
M34.902424,60.003021 
	C34.902424,60.003021 34.865749,60.342701 34.927841,60.499683 
	C32.641850,61.484890 30.280588,62.387344 28.587156,59.220276 
	C28.755943,58.954845 28.925983,58.989521 29.470375,59.003654 
	C31.535526,58.645748 33.226326,58.308384 34.936508,58.309731 
	C34.938065,59.099968 34.920242,59.551495 34.902424,60.003021 
z"/>
<path fill="#D8D9F3" opacity="1.000000" stroke="none" 
	d="
M63.613472,142.248352 
	C65.091995,142.524139 66.350105,143.015411 67.800400,143.778503 
	C65.773918,145.508881 64.008522,145.653336 63.613472,142.248352 
z"/>
<path fill="#D8D9F3" opacity="1.000000" stroke="none" 
	d="
M66.073273,129.986023 
	C65.893570,131.498978 65.713875,133.011917 65.235489,134.757935 
	C64.885719,133.530029 64.834656,132.069046 65.182465,130.296310 
	C65.581337,129.984543 66.073273,129.986023 66.073273,129.986023 
z"/>
<path fill="#C5CCEE" opacity="1.000000" stroke="none" 
	d="
M127.148758,60.413414 
	C127.143951,60.934669 126.781158,61.290520 125.816895,61.754883 
	C124.466339,61.946754 123.717239,62.030117 122.968140,62.113476 
	C122.968140,62.113476 122.970116,61.770733 122.996094,61.600777 
	C124.278297,61.036549 125.534523,60.642281 127.148758,60.413414 
z"/>
<path fill="#CFDAEB" opacity="1.000000" stroke="none" 
	d="
M67.395233,118.997925 
	C67.471695,120.220985 67.217522,121.581093 66.643875,123.095123 
	C66.571129,121.877686 66.817863,120.506325 67.395233,118.997925 
z"/>
<path fill="#CFDAEB" opacity="1.000000" stroke="none" 
	d="
M66.186691,129.692581 
	C66.073273,129.986023 65.581337,129.984543 65.336487,129.980011 
	C65.264473,128.787628 65.437309,127.599770 65.911194,126.202248 
	C66.241524,127.128105 66.270813,128.263626 66.186691,129.692581 
z"/>
<path fill="#E7ECF8" opacity="1.000000" stroke="none" 
	d="
M28.326984,58.947018 
	C27.387533,58.524605 26.707003,58.075344 25.975300,57.350838 
	C25.924128,57.075588 26.185917,56.819492 26.576904,56.843647 
	C27.509069,57.127220 28.050247,57.386642 28.596870,57.899311 
	C28.766882,58.443108 28.931452,58.733650 29.096024,59.024197 
	C28.925983,58.989521 28.755943,58.954845 28.326984,58.947018 
z"/>
<path fill="#CFDFEC" opacity="1.000000" stroke="none" 
	d="
M66.156662,98.668709 
	C66.203461,99.138252 66.144363,99.315025 66.000183,99.758331 
	C65.415833,99.157700 64.916565,98.290520 64.661911,97.230042 
	C65.287941,97.483131 65.669342,97.929535 66.156662,98.668709 
z"/>
<path fill="#95A2CD" opacity="1.000000" stroke="none" 
	d="
M95.642418,58.990005 
	C95.983131,59.443298 95.996300,59.854401 95.639114,60.627472 
	C94.454857,60.908249 93.640945,60.827053 92.827034,60.745857 
	C93.145256,60.284149 93.463478,59.822441 93.890137,59.097870 
	C94.437347,58.872612 94.876114,58.910210 95.642418,58.990005 
z"/>
<path fill="#F4F8FB" opacity="1.000000" stroke="none" 
	d="
M160.964264,74.624283 
	C160.365173,74.515526 159.716156,74.089867 159.007385,73.349457 
	C159.603195,73.458923 160.258774,73.883148 160.964264,74.624283 
z"/>
<path fill="#E3E8F6" opacity="1.000000" stroke="none" 
	d="
M24.798349,34.811913 
	C24.414074,34.907200 24.029799,35.002483 23.348730,35.103195 
	C23.452839,34.424934 23.853741,33.741245 24.564281,32.964821 
	C24.873920,32.872086 25.070181,33.069626 25.089626,33.425552 
	C25.005499,34.124958 24.901924,34.468433 24.798349,34.811913 
z"/>
<path fill="#E7ECF8" opacity="1.000000" stroke="none" 
	d="
M20.276302,38.245754 
	C20.544508,38.702347 20.465427,39.080391 20.254986,39.718269 
	C19.589203,39.622604 19.054779,39.267109 18.520355,38.911613 
	C18.989908,38.663479 19.459459,38.415344 20.276302,38.245754 
z"/>
<path fill="#D8D9F3" opacity="1.000000" stroke="none" 
	d="
M64.387642,136.939667 
	C64.591377,137.453232 64.541618,138.046799 64.236938,138.819122 
	C64.032722,138.338486 64.083435,137.679062 64.387642,136.939667 
z"/>
<path fill="#DFE3F7" opacity="1.000000" stroke="none" 
	d="
M98.213669,45.961422 
	C98.053284,45.407234 98.202805,44.840412 98.608398,44.115135 
	C98.750839,44.620716 98.637199,45.284752 98.213669,45.961422 
z"/>
<path fill="#87C8B4" opacity="1.000000" stroke="none" 
	d="
M70.354492,111.001633 
	C70.012672,110.240883 70.003105,109.476448 70.408417,108.336739 
	C75.194618,107.711861 76.916710,105.086746 77.384033,100.963348 
	C78.822128,98.609604 79.916405,96.320717 81.280830,93.801994 
	C82.656044,91.033989 84.107498,88.578728 84.741913,85.927917 
	C85.150894,84.219017 84.361031,82.223190 84.108467,80.355957 
	C82.617073,80.758331 81.138893,81.223831 79.629425,81.539841 
	C78.694283,81.735619 77.711624,81.704384 76.750290,81.775047 
	C80.624367,76.952446 84.498444,72.129845 88.705307,67.440887 
	C89.558044,68.056320 90.077995,68.538109 90.685608,69.388214 
	C91.114670,71.860886 91.456070,73.965233 91.825409,76.310570 
	C91.853348,76.551559 91.802528,77.034103 91.463211,77.058624 
	C90.109840,78.714531 89.095779,80.345909 88.081718,81.977295 
	C86.931862,92.273209 81.033707,100.503120 76.080566,109.501724 
	C75.014542,110.029800 74.100510,110.266510 72.919952,110.756050 
	C71.997871,111.005234 71.342308,111.001587 70.354492,111.001633 
z"/>
<path fill="#D9DDE9" opacity="1.000000" stroke="none" 
	d="
M128.993454,92.996574 
	C129.159149,92.997025 129.335968,92.959274 129.488876,93.003716 
	C131.533188,93.597771 133.574158,94.203308 135.615967,94.805992 
	C133.691467,95.880379 131.747360,96.921379 129.847748,98.038116 
	C127.753700,99.269150 125.562157,100.391800 123.656120,101.874191 
	C118.443214,105.928421 110.185150,103.114716 109.431427,96.382637 
	C116.237694,94.994194 122.615578,93.995384 128.993454,92.996574 
z"/>
<path fill="#CED3F5" opacity="1.000000" stroke="none" 
	d="
M129.143890,92.690834 
	C122.615578,93.995384 116.237694,94.994194 109.431984,95.993629 
	C106.926315,95.332214 104.848473,94.670174 102.141617,93.835480 
	C101.343742,93.107132 101.174889,92.551430 101.346313,91.992500 
	C102.460068,91.647629 103.233551,91.305977 104.438324,90.955528 
	C106.987114,91.057327 109.706779,90.375664 111.102203,91.436272 
	C114.456009,93.985390 117.138008,92.797218 120.394142,91.200455 
	C121.146439,91.156670 121.574051,91.092278 122.377167,91.062515 
	C126.506760,89.434998 130.432678,88.061401 133.934738,85.975998 
	C135.444778,85.076805 136.077591,82.704468 137.201416,80.907471 
	C137.293915,80.813591 137.331879,80.552757 137.331879,80.552757 
	C138.147522,80.302483 138.963150,80.052208 140.074768,79.710716 
	C141.089645,79.874863 141.808548,80.130234 142.713791,81.018753 
	C141.935852,83.096542 140.971588,84.541183 140.007324,85.985825 
	C136.436325,88.118912 132.865326,90.251999 129.143890,92.690834 
z"/>
<path fill="#C3D0F0" opacity="1.000000" stroke="none" 
	d="
M104.007027,90.964333 
	C103.233551,91.305977 102.460068,91.647629 100.931091,91.991196 
	C98.792450,91.990257 97.409317,91.987396 96.019547,91.611115 
	C95.012955,89.157227 94.013008,87.076767 93.013054,84.996300 
	C91.618233,83.994576 90.223404,82.992859 88.455154,81.984215 
	C89.095779,80.345909 90.109840,78.714531 91.564957,77.392517 
	C94.922646,80.845314 97.839294,83.988731 100.843567,87.444839 
	C101.956459,88.826469 102.981743,89.895401 104.007027,90.964333 
z"/>
<path fill="#D5E1E3" opacity="1.000000" stroke="none" 
	d="
M96.026184,91.984543 
	C97.409317,91.987396 98.792450,91.990257 100.590805,91.994415 
	C101.174889,92.551430 101.343742,93.107132 101.758438,93.829689 
	C102.001541,96.037315 101.998802,98.078087 101.998032,100.559425 
	C102.000000,101.000000 101.993126,100.994888 101.993126,100.994888 
	C98.677132,101.529495 95.143311,102.590126 94.036095,96.998596 
	C94.677994,94.850876 95.352097,93.417709 96.026184,91.984543 
z"/>
<path fill="#E1D9EB" opacity="1.000000" stroke="none" 
	d="
M96.019547,91.611115 
	C95.352097,93.417709 94.677994,94.850876 93.997711,96.641617 
	C92.343399,95.741508 89.563087,94.689064 89.289902,93.182129 
	C88.769112,90.309288 87.672440,86.399315 92.620972,85.007530 
	C94.013008,87.076767 95.012955,89.157227 96.019547,91.611115 
z"/>
<path fill="#DCD8F7" opacity="1.000000" stroke="none" 
	d="
M101.997437,100.996567 
	C106.344154,98.949989 108.343887,101.374382 109.715263,105.077438 
	C108.168259,108.856262 105.538094,109.308899 102.182953,107.495171 
	C98.882240,105.710854 101.084145,103.667503 101.960770,101.343300 
	C101.993126,100.994888 102.000000,101.000000 101.997437,100.996567 
z"/>
<path fill="#DBD9F6" opacity="1.000000" stroke="none" 
	d="
M129.296448,100.404480 
	C132.467834,98.700584 133.941513,100.489693 133.794388,102.807838 
	C133.684418,104.540230 132.270126,107.104744 130.852417,107.589241 
	C129.349045,108.103012 127.155556,106.597450 125.263458,105.973793 
	C126.509613,104.181404 127.755768,102.389015 129.296448,100.404480 
z"/>
<path fill="#D8DBE3" opacity="1.000000" stroke="none" 
	d="
M140.392578,86.036064 
	C140.971588,84.541183 141.935852,83.096542 142.966522,81.298080 
	C143.032928,80.944267 143.511765,80.975098 143.751465,80.981674 
	C145.245255,82.389221 146.499329,83.790192 147.753418,85.191154 
	C145.428223,85.489532 143.103043,85.787918 140.392578,86.036064 
z"/>
<path fill="#D7D8F5" opacity="1.000000" stroke="none" 
	d="
M41.615410,67.004639 
	C44.149220,62.244003 47.105148,57.482971 50.478374,52.367729 
	C58.603592,53.930626 58.603592,53.930626 60.742176,46.971096 
	C62.587639,47.677307 64.433022,48.383488 66.255051,49.420292 
	C70.497055,52.464245 74.762421,55.177570 78.866898,58.220589 
	C77.137741,59.032398 75.569481,59.514523 74.001221,59.996643 
	C73.242554,58.817516 72.688004,57.373146 71.641617,56.567890 
	C71.094444,56.146809 69.493813,56.591385 68.737785,57.146923 
	C68.329903,57.446640 68.348000,59.305492 68.774139,59.603973 
	C71.844612,61.754627 71.172546,64.600716 69.881943,67.803505 
	C65.188507,70.258888 67.741837,74.014694 67.042328,76.973778 
	C65.916267,78.297218 64.790215,79.620659 63.340950,80.978790 
	C60.718521,80.247993 58.419296,79.482513 56.086567,78.039505 
	C56.077991,77.153336 56.102921,76.944687 56.479530,76.857986 
	C62.231983,78.815041 64.265450,77.271324 64.198624,71.626923 
	C64.180534,70.098671 64.788834,68.562996 65.470886,66.932877 
	C67.506218,64.343712 68.193665,61.955544 64.754601,59.788506 
	C59.995335,58.144039 56.281982,58.854816 53.649071,62.998276 
	C52.698578,63.114872 51.055534,62.975971 50.903801,63.387257 
	C49.228024,67.929543 45.437199,66.934738 41.615410,67.004639 
z"/>
<path fill="#67CBA4" opacity="1.000000" stroke="none" 
	d="
M76.437782,81.811035 
	C77.711624,81.704384 78.694283,81.735619 79.629425,81.539841 
	C81.138893,81.223831 82.617073,80.758331 84.108467,80.355957 
	C84.361031,82.223190 85.150894,84.219017 84.741913,85.927917 
	C84.107498,88.578728 82.656044,91.033989 81.140854,93.476540 
	C79.763245,92.281059 78.795761,91.181198 77.585541,89.953178 
	C76.871544,89.279648 76.400284,88.734268 75.929031,88.188889 
	C75.374603,86.660851 74.820175,85.132820 74.120140,83.281906 
	C74.691444,82.588356 75.408363,82.217690 76.437782,81.811035 
z"/>
<path fill="#DBD7F6" opacity="1.000000" stroke="none" 
	d="
M74.000641,60.384499 
	C75.569481,59.514523 77.137741,59.032398 79.193832,58.255577 
	C80.119453,57.980324 80.557228,57.999760 81.307274,58.077866 
	C82.039360,58.192890 82.459190,58.249252 82.982086,58.626373 
	C84.338043,59.339954 85.590927,59.732777 86.880432,60.408997 
	C86.982086,61.066238 87.047119,61.440083 87.112152,61.813934 
	C85.011948,63.438732 82.261543,66.805771 80.950325,66.316429 
	C78.418831,65.371696 73.710457,65.691948 74.000641,60.384499 
z"/>
<path fill="#95A2CD" opacity="1.000000" stroke="none" 
	d="
M87.475952,61.927368 
	C87.047119,61.440083 86.982086,61.066238 87.176582,60.169464 
	C87.958244,56.095566 88.480385,52.544594 89.287758,48.992432 
	C89.950676,48.987244 90.328362,48.983246 90.706039,48.979248 
	C90.955589,53.144131 91.205139,57.309013 91.778618,62.091248 
	C92.077682,63.138481 92.052818,63.568363 91.733475,64.240402 
	C91.158653,65.995003 90.878296,67.507446 90.597939,69.019897 
	C90.077995,68.538109 89.558044,68.056320 89.003510,67.285324 
	C88.592545,65.344345 88.216148,63.692577 87.475952,61.927368 
z"/>
<path fill="#C5C6EC" opacity="1.000000" stroke="none" 
	d="
M67.376678,76.828384 
	C67.741837,74.014694 65.188507,70.258888 69.595024,68.067673 
	C71.147568,70.744820 72.317451,73.468330 73.473244,76.159027 
	C71.650314,76.324783 69.680672,76.503883 67.376678,76.828384 
z"/>
<path fill="#87C8B4" opacity="1.000000" stroke="none" 
	d="
M72.626511,83.040512 
	C70.759949,84.482208 68.519386,85.907043 66.095947,87.045746 
	C68.026215,85.514290 70.139359,84.268967 72.626511,83.040512 
z"/>
<path fill="#D2D5F5" opacity="1.000000" stroke="none" 
	d="
M56.127846,76.736046 
	C56.102921,76.944687 56.077991,77.153336 56.025040,77.675789 
	C50.503693,77.561249 49.885937,76.452850 51.885891,71.561661 
	C52.609837,69.791130 52.651623,67.741676 53.271667,65.403885 
	C53.716331,64.984177 53.894012,64.980087 54.295792,65.149750 
	C55.017193,65.882927 55.514500,66.442360 56.120941,67.314476 
	C57.772362,68.567131 59.314655,69.507111 60.918167,70.484390 
	C61.190918,72.955269 61.455826,75.455162 57.537941,75.165390 
	C57.108978,75.133667 56.599812,76.186340 56.127846,76.736046 
z"/>
<path fill="#5D64B9" opacity="1.000000" stroke="none" 
	d="
M56.011806,67.001793 
	C55.514500,66.442360 55.017193,65.882927 54.268219,64.901970 
	C54.016556,64.480446 53.762676,64.051201 53.762676,64.051201 
	C53.784855,63.871441 53.807034,63.691677 53.739143,63.255096 
	C56.281982,58.854816 59.995335,58.144039 64.774612,60.123699 
	C65.070892,62.409992 64.988190,64.188362 64.544930,65.979935 
	C61.460190,66.329353 58.735996,66.665573 56.011806,67.001793 
z"/>
<path fill="#D7D8F5" opacity="1.000000" stroke="none" 
	d="
M53.588604,64.164566 
	C53.762676,64.051201 54.016556,64.480446 54.044125,64.728226 
	C53.894012,64.980087 53.716331,64.984177 53.272171,64.991165 
	C53.071026,64.714813 53.207306,64.476097 53.588604,64.164566 
z"/>
<path fill="#4B55C6" opacity="1.000000" stroke="none" 
	d="
M77.038902,21.933174 
	C78.074394,21.940025 79.109879,21.946877 80.983322,21.971394 
	C93.386734,22.043543 95.098572,23.769619 95.003441,35.280247 
	C95.000687,35.613213 94.989067,35.946789 95.003616,36.279114 
	C95.146461,39.541901 94.128708,41.992180 90.389542,41.942738 
	C86.970444,41.897526 85.937180,39.651951 85.987419,36.561092 
	C86.062019,31.971130 83.577164,30.291430 79.169434,29.853687 
	C76.660652,29.604532 74.297760,27.886339 70.902496,26.409081 
	C73.895103,24.226265 75.467003,23.079720 77.038902,21.933174 
z"/>
<path fill="#4F57B5" opacity="1.000000" stroke="none" 
	d="
M76.904648,21.659733 
	C75.467003,23.079720 73.895103,24.226265 70.902496,26.409081 
	C74.297760,27.886339 76.660652,29.604532 79.169434,29.853687 
	C83.577164,30.291430 86.062019,31.971130 85.987419,36.561092 
	C85.937180,39.651951 86.970444,41.897526 90.389542,41.942738 
	C94.128708,41.992180 95.146461,39.541901 95.003616,36.279114 
	C94.989067,35.946789 95.000687,35.613213 95.003441,35.280247 
	C95.098572,23.769619 93.386734,22.043543 81.371681,21.971016 
	C83.416687,18.091881 87.386314,19.665447 90.160721,20.489874 
	C92.775505,21.266865 95.946190,23.990410 96.654579,26.486921 
	C97.766792,30.406622 97.135437,34.858276 97.019485,39.078537 
	C96.909042,43.097767 94.480003,44.935394 89.869698,45.098335 
	C87.758247,44.223045 86.260704,43.503670 85.042282,42.458790 
	C78.672371,36.996189 72.373299,31.450985 66.008942,25.581161 
	C65.897316,24.758278 65.826355,24.288736 65.755386,23.819195 
	C67.163040,23.125711 68.570686,22.432230 70.025330,21.388340 
	C70.072319,21.037931 70.549408,21.010490 71.121918,20.971004 
	C73.115234,20.541216 74.536034,20.150915 75.956833,19.760612 
	C76.228020,20.302505 76.499207,20.844398 76.904648,21.659733 
z"/>
<path fill="#8C93E0" opacity="1.000000" stroke="none" 
	d="
M66.049599,25.934502 
	C72.373299,31.450985 78.672371,36.996189 85.042282,42.458790 
	C86.260704,43.503670 87.758247,44.223045 89.471161,45.154560 
	C90.068909,45.709721 90.322510,46.202911 90.810654,46.858074 
	C90.994659,47.460018 90.944115,47.899998 90.799805,48.659611 
	C90.328362,48.983246 89.950676,48.987244 89.040939,48.716660 
	C83.521446,47.879593 81.462646,49.912952 82.311279,54.534561 
	C82.540733,55.784195 82.691902,57.048206 82.879013,58.305614 
	C82.459190,58.249252 82.039360,58.192890 81.305023,57.706253 
	C79.203827,55.098896 77.417137,52.921822 75.415024,50.482265 
	C75.668747,50.146992 76.095184,49.462463 76.636864,48.886269 
	C82.581657,42.562702 82.417961,42.872356 74.809235,38.668289 
	C70.261032,36.155262 65.633125,33.091656 65.229248,26.883060 
	C65.655319,26.488459 65.852463,26.211479 66.049599,25.934502 
z"/>
<path fill="#DFE3F7" opacity="1.000000" stroke="none" 
	d="
M76.128067,19.462786 
	C74.536034,20.150915 73.115234,20.541216 71.328140,20.850304 
	C72.963860,15.430009 77.934906,17.627869 81.836533,16.857079 
	C80.133057,17.818233 78.216179,18.491596 76.128067,19.462786 
z"/>
<path fill="#D5DAF4" opacity="1.000000" stroke="none" 
	d="
M66.278412,49.089668 
	C64.433022,48.383488 62.587639,47.677307 60.742176,46.971096 
	C58.603592,53.930626 58.603592,53.930626 50.498131,51.994492 
	C50.100586,51.975464 50.030495,51.976883 49.941231,51.776497 
	C49.718468,51.366570 49.553291,51.186008 49.356438,51.034428 
	C48.930901,50.570290 48.505363,50.106152 48.041080,48.986542 
	C48.004807,47.898979 48.007282,47.466881 48.202930,46.782909 
	C49.717533,46.841366 51.038967,47.151699 52.709938,47.544121 
	C53.631317,40.969112 52.567841,34.879791 50.080166,28.969200 
	C52.779049,27.975826 55.477936,26.982454 58.587738,26.413418 
	C58.994461,31.550011 58.617973,36.309330 59.204182,40.946960 
	C59.389355,42.411884 62.149860,43.551285 63.857681,45.187191 
	C64.971802,46.022991 65.959984,46.511261 66.999603,47.292862 
	C66.793488,48.087353 66.535950,48.588512 66.278412,49.089668 
z"/>
<path fill="#5058B7" opacity="1.000000" stroke="none" 
	d="
M29.470375,59.003654 
	C28.931452,58.733650 28.766882,58.443108 28.712570,57.484024 
	C28.205715,54.890171 27.588604,52.964863 26.981131,51.026466 
	C26.990770,51.013386 27.011463,50.987595 27.414619,50.988373 
	C32.128052,49.744972 34.854107,38.467674 32.109901,33.619370 
	C33.857929,31.915409 35.441807,30.504343 37.025688,29.093281 
	C37.437641,28.986965 37.849594,28.880648 38.787720,29.036041 
	C40.884232,29.535044 42.454571,29.772341 43.978439,30.359856 
	C38.081779,38.856174 36.253330,48.332211 34.917126,57.971024 
	C33.226326,58.308384 31.535526,58.645748 29.470375,59.003654 
z"/>
<path fill="#989DCE" opacity="1.000000" stroke="none" 
	d="
M63.731750,44.839664 
	C62.149860,43.551285 59.389355,42.411884 59.204182,40.946960 
	C58.617973,36.309330 58.994461,31.550011 58.970318,26.412128 
	C59.425259,25.362307 59.908539,24.738110 60.690125,24.022528 
	C62.314095,23.914745 63.639759,23.898348 65.360405,23.850571 
	C65.826355,24.288736 65.897316,24.758278 66.008942,25.581161 
	C65.852463,26.211479 65.655319,26.488459 64.861588,26.949192 
	C59.914539,32.021004 62.903008,37.037056 63.993095,42.376152 
	C63.952648,43.439625 63.924454,44.147148 63.855827,44.843292 
	C63.815395,44.831905 63.731750,44.839664 63.731750,44.839664 
z"/>
<path fill="#A4A7D6" opacity="1.000000" stroke="none" 
	d="
M49.848312,28.948158 
	C52.567841,34.879791 53.631317,40.969112 52.709938,47.544121 
	C51.038967,47.151699 49.717533,46.841366 47.865898,46.756821 
	C46.885597,46.963646 46.435505,46.944683 46.030800,46.570854 
	C50.463566,41.230862 51.025108,35.804909 48.081482,29.722649 
	C48.527191,29.317980 48.840710,29.150509 49.154224,28.983036 
	C49.154224,28.983034 49.616463,28.927116 49.848312,28.948158 
z"/>
<path fill="#6B71B4" opacity="1.000000" stroke="none" 
	d="
M36.642754,29.042925 
	C35.441807,30.504343 33.857929,31.915409 31.730957,33.637089 
	C29.783562,34.278961 28.379255,34.610218 26.667801,34.961525 
	C25.955118,35.035172 25.549582,35.088760 25.144047,35.142349 
	C25.144047,35.142353 24.972500,34.976482 24.885426,34.894196 
	C24.901924,34.468433 25.005499,34.124958 25.187958,33.524120 
	C28.931170,31.842031 32.595493,30.417301 36.642754,29.042925 
z"/>
<path fill="#6B71B4" opacity="1.000000" stroke="none" 
	d="
M49.080730,28.618759 
	C48.840710,29.150509 48.527191,29.317980 47.690224,29.717773 
	C46.119492,29.969942 45.072201,29.989788 44.024914,30.009636 
	C42.454571,29.772341 40.884232,29.535044 39.097725,28.957020 
	C42.256790,28.495686 45.632011,28.375082 49.080730,28.618759 
z"/>
<path fill="#5059B8" opacity="1.000000" stroke="none" 
	d="
M100.755943,87.132149 
	C97.839294,83.988731 94.922646,80.845314 91.904266,77.367996 
	C91.802528,77.034103 91.853348,76.551559 92.192055,76.289688 
	C93.017929,76.017319 93.505089,76.006813 94.339401,76.148697 
	C95.776619,75.893784 97.809181,75.476166 97.804855,75.080856 
	C97.775246,72.377586 97.318085,69.679001 97.056473,66.631447 
	C97.743225,64.579109 98.372253,62.874233 99.001282,61.169357 
	C100.741844,61.395565 102.482414,61.621777 104.606918,61.907784 
	C105.749352,62.966946 106.584473,64.877373 107.254196,64.821060 
	C112.453415,64.383858 117.620720,63.567310 122.883026,62.490799 
	C123.717239,62.030117 124.466339,61.946754 125.591492,61.886925 
	C127.168541,62.270840 128.354904,62.879120 129.572922,62.951027 
	C137.003281,63.389664 137.813766,64.048203 138.988708,71.609146 
	C135.658615,66.899818 132.081848,63.827209 126.020943,64.960503 
	C119.443680,66.190346 112.801323,67.069366 106.205872,68.208588 
	C105.522659,68.326591 104.497330,69.114395 104.425034,69.690994 
	C103.935593,73.594597 103.556549,77.521973 103.441566,81.450439 
	C103.426636,81.960686 105.072533,82.753105 106.052788,82.995354 
	C107.100937,83.254395 108.271873,82.998009 109.389206,82.998650 
	C117.609657,83.003357 125.830101,83.016083 133.972336,83.389786 
	C131.809586,84.509850 129.768646,85.438278 127.629776,85.980560 
	C124.797569,86.698631 122.050240,87.296600 122.001656,91.027885 
	C121.574051,91.092278 121.146439,91.156670 120.123978,90.884430 
	C113.271393,89.409248 107.013672,88.270699 100.755943,87.132149 
z"/>
<path fill="#4B55C6" opacity="1.000000" stroke="none" 
	d="
M134.050552,83.026283 
	C125.830101,83.016083 117.609657,83.003357 109.389206,82.998650 
	C108.271873,82.998009 107.100937,83.254395 106.052788,82.995354 
	C105.072533,82.753105 103.426636,81.960686 103.441566,81.450439 
	C103.556549,77.521973 103.935593,73.594597 104.425034,69.690994 
	C104.497330,69.114395 105.522659,68.326591 106.205872,68.208588 
	C112.801323,67.069366 119.443680,66.190346 126.020943,64.960503 
	C132.081848,63.827209 135.658615,66.899818 138.737762,71.820930 
	C138.350128,73.765030 137.688248,75.511818 136.654190,77.693451 
	C135.854858,79.422714 135.427704,80.717133 134.898544,82.228394 
	C134.609467,82.718018 134.360809,82.911697 134.050552,83.026283 
M129.012070,71.001015 
	C123.413452,70.668533 117.815605,70.156189 112.215668,70.132225 
	C110.845490,70.126358 109.468483,71.719299 108.094612,72.577171 
	C109.440582,73.709961 110.622246,75.265862 112.174088,75.868492 
	C114.116341,76.622704 116.357513,76.809174 118.478844,76.860443 
	C123.791336,76.988861 129.109009,76.902832 134.424606,76.902832 
	C134.583527,76.262032 134.742462,75.621223 134.901382,74.980423 
	C133.219574,73.658104 131.537766,72.335785 129.012070,71.001015 
z"/>
<path fill="#5059B8" opacity="1.000000" stroke="none" 
	d="
M135.000565,82.011551 
	C135.427704,80.717133 135.854858,79.422714 136.640961,78.062180 
	C137.045227,78.566162 137.090546,79.136261 137.233871,80.129562 
	C137.331879,80.552757 137.293915,80.813591 136.920746,80.997498 
	C136.031906,81.458122 135.516235,81.734833 135.000565,82.011551 
z"/>
<path fill="#8E94DA" opacity="1.000000" stroke="none" 
	d="
M43.978439,30.359856 
	C45.072201,29.989788 46.119492,29.969942 47.558037,29.954969 
	C51.025108,35.804909 50.463566,41.230862 45.669697,46.667801 
	C44.524544,49.044331 43.785881,50.969044 43.047218,52.893757 
	C43.042072,53.058952 43.034374,53.224117 43.032139,53.389351 
	C42.930901,60.870792 42.930958,60.870792 35.307327,60.002930 
	C34.920242,59.551495 34.938065,59.099968 34.936508,58.309731 
	C36.253330,48.332211 38.081779,38.856174 43.978439,30.359856 
z"/>
<path fill="#D7D8F5" opacity="1.000000" stroke="none" 
	d="
M43.376068,52.898769 
	C43.785881,50.969044 44.524544,49.044331 45.624306,47.022675 
	C46.435505,46.944683 46.885597,46.963646 47.672726,47.008698 
	C48.007282,47.466881 48.004807,47.898979 48.004196,48.655163 
	C46.572346,50.287426 45.138630,51.595604 43.376068,52.898769 
z"/>
<path fill="#D7D8F5" opacity="1.000000" stroke="none" 
	d="
M49.354149,51.242645 
	C49.553291,51.186008 49.718468,51.366570 49.933865,51.742229 
	C49.711246,51.876389 49.489944,51.723896 49.354149,51.242645 
z"/>
<path fill="#CBF7E6" opacity="1.000000" stroke="none" 
	d="
M75.531921,88.158470 
	C76.400284,88.734268 76.871544,89.279648 77.625381,90.319382 
	C76.916786,93.170555 75.925613,95.527374 74.576698,97.919525 
	C73.504471,97.915344 72.789993,97.875847 72.075508,97.836349 
	C71.789177,97.446663 71.420990,97.093102 71.230423,96.661163 
	C70.310776,94.576752 69.438957,92.471245 68.550171,90.373215 
	C70.745056,89.624832 72.939934,88.876442 75.531921,88.158470 
z"/>
<path fill="#5ECDA7" opacity="1.000000" stroke="none" 
	d="
M71.933563,98.144936 
	C72.789993,97.875847 73.504471,97.915344 74.706413,98.211174 
	C75.809319,99.321075 76.424774,100.174644 77.040222,101.028214 
	C76.916710,105.086746 75.194618,107.711861 70.442520,107.956055 
	C69.736687,107.169167 69.411629,106.387680 69.055389,105.287430 
	C69.016495,103.590454 69.008774,102.212257 68.998520,100.420227 
	C69.927864,99.488777 70.859749,98.971146 71.933563,98.144936 
z"/>
<path fill="#5059B8" opacity="1.000000" stroke="none" 
	d="
M92.027954,63.998245 
	C92.052818,63.568363 92.077682,63.138481 92.077187,62.387123 
	C92.242737,61.783718 92.433655,61.501789 92.725800,60.982857 
	C93.640945,60.827053 94.454857,60.908249 95.674530,60.934135 
	C96.080292,60.878830 96.081703,61.015778 95.844299,61.291046 
	C94.413910,62.376961 93.220932,63.187603 92.027954,63.998245 
z"/>
<path fill="#4B55C8" opacity="1.000000" stroke="none" 
	d="
M26.974949,34.941475 
	C28.379255,34.610218 29.783562,34.278961 31.566813,33.929985 
	C34.854107,38.467674 32.128052,49.744972 27.368694,50.667442 
	C26.272743,49.890816 25.625875,49.435890 24.979006,48.980965 
	C24.979006,48.980965 24.958286,48.524155 24.973637,47.855766 
	C24.972630,45.430840 24.956270,43.674305 24.939911,41.917767 
	C24.950422,40.880783 24.960932,39.843800 25.329306,38.355278 
	C26.116432,36.916321 26.545691,35.928898 26.974949,34.941475 
z"/>
<path fill="#5058B7" opacity="1.000000" stroke="none" 
	d="
M24.588068,42.003529 
	C24.956270,43.674305 24.972630,45.430840 24.973835,47.627129 
	C22.507721,46.341465 22.115944,44.367184 24.588068,42.003529 
z"/>
<path fill="#5058B7" opacity="1.000000" stroke="none" 
	d="
M26.667801,34.961525 
	C26.545691,35.928898 26.116432,36.916321 25.338629,37.966484 
	C25.006298,37.304230 25.022512,36.579227 25.091387,35.498291 
	C25.549582,35.088760 25.955118,35.035172 26.667801,34.961525 
z"/>
<path fill="#5058B7" opacity="1.000000" stroke="none" 
	d="
M24.945152,49.403557 
	C25.625875,49.435890 26.272743,49.890816 26.965538,50.666668 
	C27.011463,50.987595 26.990770,51.013386 26.572853,51.043823 
	C25.630613,51.226723 25.106289,51.379189 24.581966,51.531658 
	C24.581966,51.531658 24.533655,51.502926 24.512341,51.485863 
	C24.631117,50.921249 24.771208,50.373699 24.945152,49.403557 
z"/>
<path fill="#E3E8F6" opacity="1.000000" stroke="none" 
	d="
M22.805634,49.715118 
	C22.520172,49.823433 22.297388,49.595875 22.117582,49.038799 
	C22.306501,49.020741 22.542419,49.244064 22.805634,49.715118 
z"/>
<path fill="#6B71B4" opacity="1.000000" stroke="none" 
	d="
M24.610294,51.859333 
	C25.106289,51.379189 25.630613,51.226723 26.563213,51.056904 
	C27.588604,52.964863 28.205715,54.890171 28.707127,57.230774 
	C28.050247,57.386642 27.509069,57.127220 26.707970,56.715775 
	C25.844906,55.104836 25.241764,53.645920 24.610294,51.859333 
z"/>
<path fill="#4661B8" opacity="1.000000" stroke="none" 
	d="
M91.733482,64.240402 
	C93.220932,63.187603 94.413910,62.376961 95.782379,61.320305 
	C96.720657,61.066315 97.483429,61.058334 98.623749,61.109856 
	C98.372253,62.874233 97.743225,64.579109 96.673790,66.646912 
	C92.331047,69.218430 92.503899,72.443336 93.992256,75.996307 
	C93.505089,76.006813 93.017929,76.017319 92.164116,76.048706 
	C91.456070,73.965233 91.114670,71.860886 90.685608,69.388214 
	C90.878296,67.507446 91.158653,65.995003 91.733482,64.240402 
z"/>
<path fill="#76C7A7" opacity="1.000000" stroke="none" 
	d="
M77.384033,100.963348 
	C76.424774,100.174644 75.809319,99.321075 75.064156,98.175858 
	C75.925613,95.527374 76.916786,93.170555 77.868118,90.447525 
	C78.795761,91.181198 79.763245,92.281059 80.870705,93.706383 
	C79.916405,96.320717 78.822128,98.609604 77.384033,100.963348 
z"/>
<path fill="#6568B5" opacity="1.000000" stroke="none" 
	d="
M100.843567,87.444839 
	C107.013672,88.270699 113.271393,89.409248 119.799286,90.863815 
	C117.138008,92.797218 114.456009,93.985390 111.102203,91.436272 
	C109.706779,90.375664 106.987114,91.057327 104.438324,90.955528 
	C102.981743,89.895401 101.956459,88.826469 100.843567,87.444839 
z"/>
<path fill="#6568B5" opacity="1.000000" stroke="none" 
	d="
M134.898544,82.228394 
	C135.516235,81.734833 136.031906,81.458122 136.828247,81.091385 
	C136.077591,82.704468 135.444778,85.076805 133.934738,85.975998 
	C130.432678,88.061401 126.506760,89.434998 122.377167,91.062515 
	C122.050240,87.296600 124.797569,86.698631 127.629776,85.980560 
	C129.768646,85.438278 131.809586,84.509850 133.972336,83.389786 
	C134.360809,82.911697 134.609467,82.718018 134.898544,82.228394 
z"/>
<path fill="#9298D4" opacity="1.000000" stroke="none" 
	d="
M64.005348,42.020210 
	C62.903008,37.037056 59.914539,32.021004 64.632645,27.066816 
	C65.633125,33.091656 70.261032,36.155262 74.809235,38.668289 
	C82.417961,42.872356 82.581657,42.562702 76.636864,48.886269 
	C76.095184,49.462463 75.668747,50.146992 75.415024,50.482265 
	C77.417137,52.921822 79.203827,55.098896 80.992767,57.647587 
	C80.557228,57.999760 80.119453,57.980324 79.354729,57.925892 
	C74.762421,55.177570 70.497055,52.464245 66.255051,49.420296 
	C66.535950,48.588512 66.793488,48.087353 66.998482,46.962753 
	C66.984077,45.901299 67.022217,45.463284 67.436768,45.009747 
	C68.794060,44.747089 69.774940,44.499958 70.755821,44.252823 
	C70.760658,43.714558 70.765495,43.176296 70.770325,42.638031 
	C68.515335,42.432091 66.260338,42.226151 64.005348,42.020210 
z"/>
<path fill="#898BBB" opacity="1.000000" stroke="none" 
	d="
M56.120941,67.314476 
	C58.735996,66.665573 61.460190,66.329353 64.600609,66.245117 
	C65.047760,66.674965 65.078690,66.852852 65.109619,67.030731 
	C64.788834,68.562996 64.180534,70.098671 64.198624,71.626923 
	C64.265450,77.271324 62.231983,78.815041 56.479530,76.857986 
	C56.599812,76.186340 57.108978,75.133667 57.537941,75.165390 
	C61.455826,75.455162 61.190918,72.955269 60.918167,70.484390 
	C59.314655,69.507111 57.772362,68.567131 56.120941,67.314476 
z"/>
<path fill="#C5C6EC" opacity="1.000000" stroke="none" 
	d="
M65.470886,66.932877 
	C65.078690,66.852852 65.047760,66.674965 64.961159,66.231903 
	C64.988190,64.188362 65.070892,62.409992 65.133575,60.296432 
	C68.193665,61.955544 67.506218,64.343712 65.470886,66.932877 
z"/>
<path fill="#9298D4" opacity="1.000000" stroke="none" 
	d="
M82.982086,58.626373 
	C82.691902,57.048206 82.540733,55.784195 82.311279,54.534561 
	C81.462646,49.912952 83.521446,47.879593 88.755707,48.717850 
	C88.480385,52.544594 87.958244,56.095566 87.139954,59.886070 
	C85.590927,59.732777 84.338043,59.339954 82.982086,58.626373 
z"/>
<path fill="#D7D8F5" opacity="1.000000" stroke="none" 
	d="
M67.060364,45.025269 
	C67.022217,45.463284 66.984077,45.901299 66.947052,46.669422 
	C65.959984,46.511261 64.971802,46.022991 63.857681,45.187191 
	C63.731750,44.839664 63.815395,44.831905 64.250648,44.892822 
	C65.477386,44.977585 66.268875,45.001427 67.060364,45.025269 
z"/>
<path fill="#D5DAF4" opacity="1.000000" stroke="none" 
	d="
M67.436768,45.009750 
	C66.268875,45.001427 65.477386,44.977585 64.291077,44.904209 
	C63.924454,44.147148 63.952648,43.439625 63.993095,42.376152 
	C66.260338,42.226151 68.515335,42.432091 70.770325,42.638031 
	C70.765495,43.176296 70.760658,43.714558 70.755821,44.252823 
	C69.774940,44.499958 68.794060,44.747089 67.436768,45.009750 
z"/>
<path fill="#4E52CE" opacity="1.000000" stroke="none" 
	d="
M94.339401,76.148697 
	C92.503899,72.443336 92.331047,69.218430 96.616058,66.994370 
	C97.318085,69.679001 97.775246,72.377586 97.804855,75.080856 
	C97.809181,75.476166 95.776619,75.893784 94.339401,76.148697 
z"/>
<path fill="#4A57BE" opacity="1.000000" stroke="none" 
	d="
M129.434021,71.007240 
	C131.537766,72.335785 133.219574,73.658104 134.901382,74.980423 
	C134.742462,75.621223 134.583527,76.262032 134.424606,76.902832 
	C129.109009,76.902832 123.791336,76.988861 118.478844,76.860443 
	C116.357513,76.809174 114.116341,76.622704 112.174088,75.868492 
	C110.622246,75.265862 109.440582,73.709961 108.094612,72.577171 
	C109.468483,71.719299 110.845490,70.126358 112.215668,70.132225 
	C117.815605,70.156189 123.413452,70.668533 129.434021,71.007240 
z"/>
</svg>